<?xml version="1.0" encoding="utf-8"?>
<!-- Generated by IcoMoon.io -->
<!DOCTYPE svg PUBLIC "-//W3C//DTD SVG 1.1//EN" "http://www.w3.org/Graphics/SVG/1.1/DTD/svg11.dtd">
<svg version="1.1" xmlns="http://www.w3.org/2000/svg" xmlns:xlink="http://www.w3.org/1999/xlink" width="30" height="28" viewBox="0 0 30 28">
<path fill="#444444" d="M10 22q0-0.828-0.586-1.414t-1.414-0.586-1.414 0.586-0.586 1.414 0.586 1.414 1.414 0.586 1.414-0.586 0.586-1.414zM4 14h6v-4h-2.469q-0.219 0.031-0.344 0.141l-3.047 3.047q-0.109 0.187-0.141 0.344v0.469zM24 22q0-0.828-0.586-1.414t-1.414-0.586-1.414 0.586-0.586 1.414 0.586 1.414 1.414 0.586 1.414-0.586 0.586-1.414zM26 11.5v-3q0-0.219-0.141-0.359t-0.359-0.141h-3.5v-3.5q0-0.219-0.141-0.359t-0.359-0.141h-3q-0.219 0-0.359 0.141t-0.141 0.359v3.5h-3.5q-0.219 0-0.359 0.141t-0.141 0.359v3q0 0.219 0.141 0.359t0.359 0.141h3.5v3.5q0 0.219 0.141 0.359t0.359 0.141h3q0.219 0 0.359-0.141t0.141-0.359v-3.5h3.5q0.219 0 0.359-0.141t0.141-0.359zM30 3v18q0 0.406-0.297 0.703t-0.703 0.297h-3q0 1.656-1.172 2.828t-2.828 1.172-2.828-1.172-1.172-2.828h-6q0 1.656-1.172 2.828t-2.828 1.172-2.828-1.172-1.172-2.828h-2q-0.406 0-0.703-0.297t-0.297-0.703 0.297-0.703 0.703-0.297v-6.5q0-0.406 0.203-0.906t0.5-0.797l3.094-3.094q0.297-0.297 0.797-0.5t0.906-0.203h2.5v-5q0-0.406 0.297-0.703t0.703-0.297h18q0.406 0 0.703 0.297t0.297 0.703z"></path>
</svg>
