<?xml version="1.0" encoding="utf-8"?>
<!-- Generated by IcoMoon.io -->
<!DOCTYPE svg PUBLIC "-//W3C//DTD SVG 1.1//EN" "http://www.w3.org/Graphics/SVG/1.1/DTD/svg11.dtd">
<svg version="1.1" xmlns="http://www.w3.org/2000/svg" xmlns:xlink="http://www.w3.org/1999/xlink" width="28" height="28" viewBox="0 0 28 28">
<path fill="#444444" d="M15 4q0-0.406-0.297-0.703t-0.703-0.297-0.703 0.297-0.297 0.703 0.297 0.703 0.703 0.297 0.703-0.297 0.297-0.703zM28 18.5v5.5q0 0.344-0.313 0.469-0.125 0.031-0.187 0.031-0.203 0-0.359-0.141l-1.453-1.453q-1.859 2.234-4.977 3.539t-6.711 1.305-6.711-1.305-4.977-3.539l-1.453 1.453q-0.141 0.141-0.359 0.141-0.063 0-0.187-0.031-0.313-0.125-0.313-0.469v-5.5q0-0.219 0.141-0.359t0.359-0.141h5.5q0.344 0 0.469 0.313 0.125 0.297-0.109 0.547l-1.563 1.563q1.047 1.422 2.961 2.398t4.242 1.289v-10.109h-3q-0.406 0-0.703-0.297t-0.297-0.703v-2q0-0.406 0.297-0.703t0.703-0.297h3v-2.547q-0.906-0.531-1.453-1.445t-0.547-2.008q0-1.656 1.172-2.828t2.828-1.172 2.828 1.172 1.172 2.828q0 1.094-0.547 2.008t-1.453 1.445v2.547h3q0.406 0 0.703 0.297t0.297 0.703v2q0 0.406-0.297 0.703t-0.703 0.297h-3v10.109q2.328-0.313 4.242-1.289t2.961-2.398l-1.563-1.563q-0.234-0.25-0.109-0.547 0.125-0.313 0.469-0.313h5.5q0.219 0 0.359 0.141t0.141 0.359z"></path>
</svg>
