<?xml version="1.0" encoding="utf-8"?>
<!-- Generated by IcoMoon.io -->
<!DOCTYPE svg PUBLIC "-//W3C//DTD SVG 1.1//EN" "http://www.w3.org/Graphics/SVG/1.1/DTD/svg11.dtd">
<svg version="1.1" xmlns="http://www.w3.org/2000/svg" xmlns:xlink="http://www.w3.org/1999/xlink" width="20" height="28" viewBox="0 0 20 28">
<path fill="#444444" d="M14.891 5.906l-1.781 5.125 1.828 0.328q2.578-7.047 2.578-8.094 0-0.875-0.594-0.875-0.891 0-2.031 3.516zM10.219 16.641l0.516 1.375q0.578-0.656 1.109-1.047l-0.516-0.086t-0.602-0.109-0.508-0.133zM5.656 2.641q0 1.531 2.484 8.141 0.281-0.156 0.766-0.156 0.234 0 1.172 0.078l-1.891-5.484q-1.172-3.437-1.922-3.437-0.297 0-0.453 0.273t-0.156 0.586zM4.422 14.5q0 0.562 0.805 1.859t1.836 2.391 1.563 1.094q0.219 0 0.398-0.203t0.18-0.422q0-0.375-0.5-1.594-0.203-0.5-0.5-1.125t-0.742-1.391-0.961-1.266-0.969-0.5q-0.313 0-0.711 0.422t-0.398 0.734zM1.953 19.734q0 0.641 0.391 1.625 0.922 2.266 2.867 3.547t4.398 1.281q3.547 0 5.969-2.656 2.375-2.641 2.375-6.672 0-0.672-0.016-1.047t-0.18-0.969-0.477-0.875q-0.875-0.766-3.305-1.18t-4.227-0.414q-0.578 0-0.766 0.172-0.187 0.078-0.187 0.547 0 0.531 0.336 0.938t0.867 0.625 1.211 0.367 1.367 0.18 1.328 0.063 1.094 0h0.359q0.375 0 0.625 0.297 0.234 0.297 0.297 0.859-0.437 0.438-1.5 0.844-0.953 0.344-1.453 0.719-1 0.719-1.695 1.781t-0.695 2.141q0 0.484 0.289 1.383t0.289 1.367l-0.047 0.187q-0.063 0.187-0.063 0.219-2.141-0.156-2.281-3.375-0.125 0.031-0.641 0.031 0.031 0.109 0.031 0.328 0 0.828-0.633 1.398t-1.477 0.57q-1.281 0-2.602-1.219t-1.32-2.484q0-0.531 0.516-1.047 0.812 1 0.938 1.188 1.203 1.625 2.078 1.625 0.187 0 0.414-0.133t0.227-0.32q0-0.531-1.367-2.266t-1.82-1.734q-0.672 0-1.094 0.695t-0.422 1.414zM0.172 19.875q0-1.578 0.664-2.547t2.133-1.375q-0.438-1.156-0.438-1.625 0-0.969 0.953-1.922t1.906-0.953q0.453 0 1.094 0.234-2.547-7.219-2.547-8.859 0-1.25 0.641-2.039t1.859-0.789q2.047 0 5.078 9.078 0.094 0.266 0.125 0.359 0.094-0.25 0.453-1.242t0.68-1.852 0.844-1.992 1.008-1.922 1.102-1.352 1.195-0.562q1.109 0 1.75 0.766t0.641 1.906q0 1.687-2.484 8.594 0.953 0.234 1.57 0.719t0.914 1.219 0.406 1.461 0.109 1.727q0 2.344-0.734 4.375t-2.063 3.516-3.297 2.344-4.344 0.859q-1.734 0-3.484-0.656-2.328-0.891-4.031-2.992t-1.703-4.477z"></path>
</svg>
