<?xml version="1.0" encoding="utf-8"?>
<!-- Generated by IcoMoon.io -->
<!DOCTYPE svg PUBLIC "-//W3C//DTD SVG 1.1//EN" "http://www.w3.org/Graphics/SVG/1.1/DTD/svg11.dtd">
<svg version="1.1" xmlns="http://www.w3.org/2000/svg" xmlns:xlink="http://www.w3.org/1999/xlink" width="28" height="28" viewBox="0 0 28 28">
<path fill="#444444" d="M20.047 8.453l-5.547 5.547 5.547 5.547 2.25-2.25q0.453-0.484 1.094-0.219 0.609 0.266 0.609 0.922v7q0 0.406-0.297 0.703t-0.703 0.297h-7q-0.656 0-0.922-0.625-0.266-0.609 0.219-1.078l2.25-2.25-5.547-5.547-5.547 5.547 2.25 2.25q0.484 0.469 0.219 1.078-0.266 0.625-0.922 0.625h-7q-0.406 0-0.703-0.297t-0.297-0.703v-7q0-0.656 0.625-0.922 0.609-0.266 1.078 0.219l2.25 2.25 5.547-5.547-5.547-5.547-2.25 2.25q-0.297 0.297-0.703 0.297-0.187 0-0.375-0.078-0.625-0.266-0.625-0.922v-7q0-0.406 0.297-0.703t0.703-0.297h7q0.656 0 0.922 0.625 0.266 0.609-0.219 1.078l-2.25 2.25 5.547 5.547 5.547-5.547-2.25-2.25q-0.484-0.469-0.219-1.078 0.266-0.625 0.922-0.625h7q0.406 0 0.703 0.297t0.297 0.703v7q0 0.656-0.609 0.922-0.203 0.078-0.391 0.078-0.406 0-0.703-0.297z"></path>
</svg>
