<?xml version="1.0" encoding="utf-8"?>
<!-- Generated by IcoMoon.io -->
<!DOCTYPE svg PUBLIC "-//W3C//DTD SVG 1.1//EN" "http://www.w3.org/Graphics/SVG/1.1/DTD/svg11.dtd">
<svg version="1.1" xmlns="http://www.w3.org/2000/svg" xmlns:xlink="http://www.w3.org/1999/xlink" width="28" height="28" viewBox="0 0 28 28">
<path fill="#444444" d="M15.188 12.109q0-1.687-0.836-2.641t-2.305-0.953q-0.984 0-1.937 0.477t-1.719 1.32-1.242 2.141-0.477 2.812q0 1.75 0.836 2.703t2.352 0.953q1.5 0 2.75-1.039t1.914-2.594 0.664-3.18zM24 14q0 1.734-0.578 3.078t-1.539 2.109-2.055 1.164-2.266 0.43q-0.094 0-0.242 0.008t-0.258 0.008q-1.484 0-2.219-0.828-0.438-0.516-0.516-1.297-0.812 1.031-2.055 1.719t-2.711 0.688q-2.516 0-3.898-1.492t-1.383-4.211q0-2.453 1.031-4.531t2.797-3.289 3.844-1.211q1.359 0 2.422 0.555t1.656 1.555l0.031-0.297 0.172-0.875q0.016-0.094 0.086-0.187t0.148-0.094h1.844q0.078 0 0.203 0.172 0.078 0.078 0.047 0.25l-1.875 9.594q-0.078 0.375-0.078 0.75 0 0.609 0.195 0.812t0.695 0.203q0.438-0.016 0.891-0.086t1.141-0.375 1.203-0.781 0.891-1.398 0.375-2.141q0-4.562-2.719-7.281t-7.281-2.719q-2.031 0-3.883 0.797t-3.187 2.133-2.133 3.187-0.797 3.883 0.797 3.883 2.133 3.187 3.187 2.133 3.883 0.797q3.563 0 6.328-2.25 0.172-0.141 0.375-0.125t0.328 0.187l0.641 0.766q0.125 0.187 0.109 0.375-0.031 0.203-0.187 0.344-1.594 1.297-3.555 2t-4.039 0.703q-2.438 0-4.656-0.953t-3.828-2.562-2.562-3.828-0.953-4.656 0.953-4.656 2.562-3.828 3.828-2.562 4.656-0.953q5.375 0 8.687 3.313t3.313 8.687z"></path>
</svg>
