<?xml version="1.0" encoding="utf-8"?>
<!-- Generated by IcoMoon.io -->
<!DOCTYPE svg PUBLIC "-//W3C//DTD SVG 1.1//EN" "http://www.w3.org/Graphics/SVG/1.1/DTD/svg11.dtd">
<svg version="1.1" xmlns="http://www.w3.org/2000/svg" xmlns:xlink="http://www.w3.org/1999/xlink" width="32" height="28" viewBox="0 0 32 28">
<path fill="#444444" d="M15 0l15 6v2h-2q0 0.406-0.32 0.703t-0.758 0.297h-23.844q-0.438 0-0.758-0.297t-0.32-0.703h-2v-2zM4 10h4v12h2v-12h4v12h2v-12h4v12h2v-12h4v12h0.922q0.438 0 0.758 0.297t0.32 0.703v1h-26v-1q0-0.406 0.32-0.703t0.758-0.297h0.922v-12zM28.922 25q0.438 0 0.758 0.297t0.32 0.703v2h-30v-2q0-0.406 0.32-0.703t0.758-0.297h27.844z"></path>
</svg>
