<?xml version="1.0" encoding="utf-8"?>
<!-- Generated by IcoMoon.io -->
<!DOCTYPE svg PUBLIC "-//W3C//DTD SVG 1.1//EN" "http://www.w3.org/Graphics/SVG/1.1/DTD/svg11.dtd">
<svg version="1.1" xmlns="http://www.w3.org/2000/svg" xmlns:xlink="http://www.w3.org/1999/xlink" width="28" height="28" viewBox="0 0 28 28">
<path fill="#444444" d="M0.984 24h-0.984v-22h0.984v22zM1.969 23.984h-0.5v-21.984h0.5v21.984zM3.437 23.984h-0.484v-21.984h0.484v21.984zM5.891 23.984h-0.484v-21.984h0.484v21.984zM8.344 23.984h-0.969v-21.984h0.969v21.984zM10.313 23.984h-0.484v-21.984h0.484v21.984zM11.297 23.984h-0.484v-21.984h0.484v21.984zM12.281 23.984h-0.484v-21.984h0.484v21.984zM14.734 23.984h-0.984v-21.984h0.984v21.984zM17.187 23.984h-0.984v-21.984h0.984v21.984zM19.156 23.984h-0.984v-21.984h0.984v21.984zM21.125 23.984h-0.984v-21.984h0.984v21.984zM22.594 23.984h-0.984v-21.984h0.984v21.984zM25.547 23.984h-1.469v-21.984h1.469v21.984zM26.531 23.984h-0.5v-21.984h0.5v21.984zM28 24h-0.984v-22h0.984v22z"></path>
</svg>
