<?xml version="1.0" encoding="utf-8"?>
<!-- Generated by IcoMoon.io -->
<!DOCTYPE svg PUBLIC "-//W3C//DTD SVG 1.1//EN" "http://www.w3.org/Graphics/SVG/1.1/DTD/svg11.dtd">
<svg version="1.1" xmlns="http://www.w3.org/2000/svg" xmlns:xlink="http://www.w3.org/1999/xlink" width="32" height="28" viewBox="0 0 32 28">
<path fill="#444444" d="M4 16h27q0.406 0 0.703 0.297t0.297 0.703v7h-4v-4h-24v4h-4v-19q0-0.406 0.297-0.703t0.703-0.297h2q0.406 0 0.703 0.297t0.297 0.703v11zM13 11q0-1.656-1.172-2.828t-2.828-1.172-2.828 1.172-1.172 2.828 1.172 2.828 2.828 1.172 2.828-1.172 1.172-2.828zM32 15v-1q0-2.484-1.758-4.242t-4.242-1.758h-11q-0.406 0-0.703 0.297t-0.297 0.703v6h18z"></path>
</svg>
