<?xml version="1.0" encoding="utf-8"?>
<!-- Generated by IcoMoon.io -->
<!DOCTYPE svg PUBLIC "-//W3C//DTD SVG 1.1//EN" "http://www.w3.org/Graphics/SVG/1.1/DTD/svg11.dtd">
<svg version="1.1" xmlns="http://www.w3.org/2000/svg" xmlns:xlink="http://www.w3.org/1999/xlink" width="28" height="28" viewBox="0 0 28 28">
<path fill="#444444" d="M19.5 2q1.859 0 3.18 1.32t1.32 3.18v15q0 1.859-1.32 3.18t-3.18 1.32h-15q-1.859 0-3.18-1.32t-1.32-3.18v-15q0-1.859 1.32-3.18t3.18-1.32h15zM7.797 7.734h-5.797v12.297h5.969q1.828 0 3.078-0.898t1.25-2.664q0-2.469-2.234-3.125 1.672-0.812 1.672-2.562 0-0.891-0.305-1.508t-0.883-0.945-1.234-0.461-1.516-0.133zM7.453 12.703h-2.75v-2.875h2.547q1.859 0 1.859 1.406 0 1.469-1.656 1.469zM7.594 17.938h-2.891v-3.391h2.953q1.937 0 1.937 1.766 0 1.625-2 1.625zM17.75 18.438q-1.062 0-1.625-0.594t-0.562-1.672h6.422q0.016-0.156 0.016-0.469 0-2.063-1.164-3.445t-3.18-1.383q-2 0-3.281 1.344t-1.281 3.375q0 2.109 1.234 3.391t3.328 1.281q3.203 0 4.172-2.984h-2.156q-0.172 0.531-0.742 0.844t-1.18 0.313zM17.594 12.719q1.766 0 1.937 1.906h-3.969q0.063-0.875 0.609-1.391t1.422-0.516zM15.062 8.563h4.984v1.203h-4.984v-1.203z"></path>
</svg>
