<?xml version="1.0" encoding="utf-8"?>
<!-- Generated by IcoMoon.io -->
<!DOCTYPE svg PUBLIC "-//W3C//DTD SVG 1.1//EN" "http://www.w3.org/Graphics/SVG/1.1/DTD/svg11.dtd">
<svg version="1.1" xmlns="http://www.w3.org/2000/svg" xmlns:xlink="http://www.w3.org/1999/xlink" width="32" height="28" viewBox="0 0 32 28">
<path fill="#444444" d="M28.875 5.297h-7.984v1.937h7.984v-1.937zM24.938 11.953q-1.406 0-2.281 0.82t-0.969 2.227h6.375q-0.281-3.047-3.125-3.047zM25.188 21.094q0.984 0 1.906-0.5t1.188-1.359h3.453q-1.563 4.797-6.672 4.797-3.344 0-5.32-2.063t-1.977-5.422q0-3.25 2.039-5.398t5.258-2.148q2.156 0 3.758 1.062t2.391 2.797 0.789 3.875q0 0.266-0.031 0.734h-10.281q0 1.734 0.898 2.68t2.602 0.945zM4.328 20.312h4.625q3.203 0 3.203-2.609 0-2.812-3.109-2.812h-4.719v5.422zM4.328 11.922h4.391q1.219 0 1.93-0.57t0.711-1.773q0-2.25-2.969-2.25h-4.062v4.594zM0 3.969h9.281q1.359 0 2.422 0.219t1.977 0.742 1.406 1.508 0.492 2.406q0 2.828-2.688 4.109 1.781 0.5 2.688 1.797t0.906 3.187q0 1.172-0.383 2.133t-1.031 1.617-1.539 1.109-1.891 0.656-2.094 0.203h-9.547v-19.688z"></path>
</svg>
