<?xml version="1.0" encoding="utf-8"?>
<!-- Generated by IcoMoon.io -->
<!DOCTYPE svg PUBLIC "-//W3C//DTD SVG 1.1//EN" "http://www.w3.org/Graphics/SVG/1.1/DTD/svg11.dtd">
<svg version="1.1" xmlns="http://www.w3.org/2000/svg" xmlns:xlink="http://www.w3.org/1999/xlink" width="32" height="28" viewBox="0 0 32 28">
<path fill="#444444" d="M24.344 13.312q0.953 5.563 4.656 8.687 0 0.812-0.594 1.406t-1.406 0.594h-7q0 1.656-1.172 2.828t-2.828 1.172-2.82-1.164-1.18-2.82zM16 26.75q0.25 0 0.25-0.25t-0.25-0.25q-0.922 0-1.586-0.664t-0.664-1.586q0-0.25-0.25-0.25t-0.25 0.25q0 1.141 0.805 1.945t1.945 0.805zM31.656 1.75q0.125 0.156 0.117 0.367t-0.164 0.352l-29.25 25.344q-0.156 0.125-0.367 0.109t-0.336-0.172l-1.313-1.5q-0.125-0.156-0.117-0.367t0.164-0.336l2.906-2.516q-0.297-0.5-0.297-1.031 0.781-0.656 1.422-1.375t1.328-1.867 1.164-2.477 0.781-3.219 0.305-4.062q0-2.375 1.828-4.414t4.797-2.477q-0.125-0.297-0.125-0.609 0-0.625 0.438-1.062t1.062-0.438 1.062 0.438 0.438 1.062q0 0.313-0.125 0.609 1.937 0.281 3.422 1.289t2.312 2.461l6.531-5.672q0.156-0.125 0.367-0.109t0.336 0.172z"></path>
</svg>
