<?xml version="1.0" encoding="utf-8"?>
<!-- Generated by IcoMoon.io -->
<!DOCTYPE svg PUBLIC "-//W3C//DTD SVG 1.1//EN" "http://www.w3.org/Graphics/SVG/1.1/DTD/svg11.dtd">
<svg version="1.1" xmlns="http://www.w3.org/2000/svg" xmlns:xlink="http://www.w3.org/1999/xlink" width="28" height="28" viewBox="0 0 28 28">
<path fill="#444444" d="M14.25 26.5q0-0.25-0.25-0.25-0.922 0-1.586-0.664t-0.664-1.586q0-0.25-0.25-0.25t-0.25 0.25q0 1.141 0.805 1.945t1.945 0.805q0.25 0 0.25-0.25zM27 22q0 0.812-0.594 1.406t-1.406 0.594h-7q0 1.656-1.172 2.828t-2.828 1.172-2.828-1.172-1.172-2.828h-7q-0.812 0-1.406-0.594t-0.594-1.406q0.781-0.656 1.422-1.375t1.328-1.867 1.164-2.477 0.781-3.219 0.305-4.062q0-2.375 1.828-4.414t4.797-2.477q-0.125-0.297-0.125-0.609 0-0.625 0.438-1.062t1.062-0.438 1.062 0.438 0.438 1.062q0 0.313-0.125 0.609 2.969 0.438 4.797 2.477t1.828 4.414q0 2.172 0.305 4.062t0.781 3.219 1.164 2.477 1.328 1.867 1.422 1.375z"></path>
</svg>
