<?xml version="1.0" encoding="utf-8"?>
<!-- Generated by IcoMoon.io -->
<!DOCTYPE svg PUBLIC "-//W3C//DTD SVG 1.1//EN" "http://www.w3.org/Graphics/SVG/1.1/DTD/svg11.dtd">
<svg version="1.1" xmlns="http://www.w3.org/2000/svg" xmlns:xlink="http://www.w3.org/1999/xlink" width="36" height="28" viewBox="0 0 36 28">
<path fill="#444444" d="M11.906 18h-4.906q-0.625 0-0.898-0.547t0.102-1.047l2.938-3.922q-1.016-0.484-2.141-0.484-2.063 0-3.531 1.469t-1.469 3.531 1.469 3.531 3.531 1.469q1.797 0 3.172-1.133t1.734-2.867zM9 16h2.906q-0.281-1.328-1.172-2.312zM16.5 16l4.5-6h-7.5l-1.547 2.063q1.641 1.609 1.969 3.938h2.578zM34 17q0-2.063-1.469-3.531t-3.531-1.469q-0.938 0-1.891 0.375l2.719 4.062q0.234 0.359 0.156 0.766t-0.422 0.625q-0.234 0.172-0.562 0.172-0.547 0-0.828-0.453l-2.719-4.062q-1.453 1.484-1.453 3.516 0 2.063 1.469 3.531t3.531 1.469 3.531-1.469 1.469-3.531zM36 17q0 2.891-2.055 4.945t-4.945 2.055-4.945-2.055-2.055-4.945q0-1.516 0.617-2.867t1.711-2.336l-1.016-1.531-5.516 7.328q-0.281 0.406-0.797 0.406h-3.078q-0.359 2.562-2.328 4.281t-4.594 1.719q-2.891 0-4.945-2.055t-2.055-4.945 2.055-4.945 4.945-2.055q1.781 0 3.359 0.859l2.141-2.859h-3.5q-0.406 0-0.703-0.297t-0.297-0.703 0.297-0.703 0.703-0.297h6v2h6.797l-1.328-2h-3.469q-0.406 0-0.703-0.297t-0.297-0.703 0.297-0.703 0.703-0.297h4q0.516 0 0.828 0.438l4.172 6.25q1.422-0.688 3-0.688 2.891 0 4.945 2.055t2.055 4.945z"></path>
</svg>
