<?xml version="1.0" encoding="utf-8"?>
<!-- Generated by IcoMoon.io -->
<!DOCTYPE svg PUBLIC "-//W3C//DTD SVG 1.1//EN" "http://www.w3.org/Graphics/SVG/1.1/DTD/svg11.dtd">
<svg version="1.1" xmlns="http://www.w3.org/2000/svg" xmlns:xlink="http://www.w3.org/1999/xlink" width="28" height="28" viewBox="0 0 28 28">
<path fill="#444444" d="M11 5v12q0 0.406-0.297 0.703t-0.703 0.297v9q0 0.406-0.297 0.703t-0.703 0.297h-8q-0.406 0-0.703-0.297t-0.297-0.703v-8l3.891-13.641q0.109-0.359 0.484-0.359h6.625zM16 5v11h-4v-11h4zM28 19v8q0 0.406-0.297 0.703t-0.703 0.297h-8q-0.406 0-0.703-0.297t-0.297-0.703v-9q-0.406 0-0.703-0.297t-0.297-0.703v-12h6.625q0.375 0 0.484 0.359zM11.5 0.5v3.5h-5.5v-3.5q0-0.219 0.141-0.359t0.359-0.141h4.5q0.219 0 0.359 0.141t0.141 0.359zM22 0.5v3.5h-5.5v-3.5q0-0.219 0.141-0.359t0.359-0.141h4.5q0.219 0 0.359 0.141t0.141 0.359z"></path>
</svg>
