<?xml version="1.0" encoding="utf-8"?>
<!-- Generated by IcoMoon.io -->
<!DOCTYPE svg PUBLIC "-//W3C//DTD SVG 1.1//EN" "http://www.w3.org/Graphics/SVG/1.1/DTD/svg11.dtd">
<svg version="1.1" xmlns="http://www.w3.org/2000/svg" xmlns:xlink="http://www.w3.org/1999/xlink" width="28" height="28" viewBox="0 0 28 28">
<path fill="#444444" d="M28 22v6h-28v-6q0.703 0 1.328-0.219t0.922-0.43 0.734-0.586q0.469-0.422 0.805-0.594t0.883-0.172 0.867 0.172 0.82 0.594q0.453 0.391 0.734 0.594t0.906 0.422 1.344 0.219q0.703 0 1.328-0.227t0.906-0.422 0.75-0.586q0.328-0.297 0.508-0.422t0.484-0.234 0.68-0.109q0.547 0 0.883 0.172t0.805 0.594q0.438 0.375 0.734 0.586t0.922 0.43 1.328 0.219 1.328-0.219 0.922-0.43 0.734-0.586q0.469-0.422 0.805-0.594t0.883-0.172q0.531 0 0.867 0.172t0.805 0.594q0.438 0.375 0.734 0.586t0.922 0.43 1.328 0.219zM28 17v3q-0.547 0-0.867-0.172t-0.82-0.594q-0.453-0.391-0.734-0.594t-0.906-0.422-1.328-0.219q-0.719 0-1.344 0.219t-0.906 0.422-0.734 0.594q-0.344 0.297-0.516 0.422t-0.484 0.234-0.688 0.109q-0.547 0-0.883-0.172t-0.805-0.594q-0.453-0.391-0.734-0.594t-0.906-0.422-1.344-0.219q-0.703 0-1.328 0.227t-0.906 0.422-0.75 0.586q-0.328 0.297-0.508 0.422t-0.484 0.234-0.68 0.109q-0.547 0-0.883-0.172t-0.805-0.594q-0.438-0.375-0.734-0.586t-0.922-0.43-1.328-0.219q-0.719 0-1.344 0.219t-0.906 0.422-0.734 0.594q-0.469 0.422-0.805 0.594t-0.883 0.172v-3q0-1.25 0.875-2.125t2.125-0.875h1v-7h4v7h4v-7h4v7h4v-7h4v7h1q1.25 0 2.125 0.875t0.875 2.125zM8 3.5q0 1.203-0.562 1.852t-1.437 0.648q-0.828 0-1.414-0.586t-0.586-1.414q0-0.453 0.148-0.797t0.367-0.531 0.484-0.438 0.484-0.492 0.367-0.695 0.148-1.047q0.594 0 1.297 1.156t0.703 2.344zM16 3.5q0 1.203-0.562 1.852t-1.437 0.648q-0.828 0-1.414-0.586t-0.586-1.414q0-0.453 0.148-0.797t0.367-0.531 0.484-0.438 0.484-0.492 0.367-0.695 0.148-1.047q0.594 0 1.297 1.156t0.703 2.344zM24 3.5q0 1.203-0.562 1.852t-1.437 0.648q-0.828 0-1.414-0.586t-0.586-1.414q0-0.453 0.148-0.797t0.367-0.531 0.484-0.438 0.484-0.492 0.367-0.695 0.148-1.047q0.594 0 1.297 1.156t0.703 2.344z"></path>
</svg>
