<?xml version="1.0" encoding="utf-8"?>
<!-- Generated by IcoMoon.io -->
<!DOCTYPE svg PUBLIC "-//W3C//DTD SVG 1.1//EN" "http://www.w3.org/Graphics/SVG/1.1/DTD/svg11.dtd">
<svg version="1.1" xmlns="http://www.w3.org/2000/svg" xmlns:xlink="http://www.w3.org/1999/xlink" width="28" height="28" viewBox="0 0 28 28">
<path fill="#444444" d="M13.25 13.594q0-0.672-0.641-1.031t-1.203-0.016q-0.672 0.313-0.664 1.133t0.68 1.102q0.609 0.359 1.266-0.063t0.562-1.125zM14.5 13.344q0.125 1.031-0.562 1.891t-1.719 0.953-1.859-0.625-0.875-1.766q-0.031-0.766 0.398-1.453t1.133-1q1.094-0.484 2.211 0.156t1.273 1.844zM17.187 7.234q-0.313 0.328-0.836 0.531t-0.828 0.25-0.992 0.125q-2.422 0.313-5.063 0-0.688-0.094-0.984-0.148t-0.82-0.25-0.852-0.508q0.203-0.297 0.562-0.484t0.625-0.242 0.734-0.133q3.094-0.547 6.375-0.016 0.516 0.078 0.797 0.133t0.672 0.25 0.609 0.492zM17.844 18.891q0-0.109 0.086-0.414t0.047-0.5-0.273-0.258q-2.516 1.656-5.703 1.656t-5.719-1.656l-0.187 0.094-0.078 0.187q0.406 2.406 0.641 3.281 0.734 1.266 3.187 1.687 3.891 0.719 6.687-0.828 0.531-0.297 0.766-0.805t0.352-1.336 0.195-1.109zM19.875 8.062q0.141-0.828-0.125-1.172-0.672-0.859-2.422-1.375-3.375-0.984-7.609-0.562-2.063 0.187-3.531 0.719-0.594 0.234-0.93 0.391t-0.734 0.531-0.461 0.844q0.125 1.062 0.297 2.156t0.453 2.672 0.375 2.141q0.016 0.078 0.078 0.484t0.109 0.562 0.187 0.422 0.344 0.438q1.641 1.25 4.438 1.563 4.047 0.438 6.875-0.984 0.375-0.203 0.617-0.359t0.484-0.453 0.305-0.625q0.75-4.172 1.25-7.391zM24 6.5v15q0 1.859-1.32 3.18t-3.18 1.32h-15q-1.859 0-3.18-1.32t-1.32-3.18v-15q0-1.859 1.32-3.18t3.18-1.32h15q1.859 0 3.18 1.32t1.32 3.18z"></path>
</svg>
