<?xml version="1.0" encoding="utf-8"?>
<!-- Generated by IcoMoon.io -->
<!DOCTYPE svg PUBLIC "-//W3C//DTD SVG 1.1//EN" "http://www.w3.org/Graphics/SVG/1.1/DTD/svg11.dtd">
<svg version="1.1" xmlns="http://www.w3.org/2000/svg" xmlns:xlink="http://www.w3.org/1999/xlink" width="22" height="28" viewBox="0 0 22 28">
<path fill="#444444" d="M12.734 13.422q0.125 0.984-0.789 1.578t-1.742 0.094q-0.609-0.266-0.836-0.906t-0.008-1.281 0.812-0.906q0.562-0.281 1.133-0.187t1 0.555 0.43 1.055zM14.469 13.094q-0.219-1.672-1.766-2.562t-3.078-0.203q-0.984 0.438-1.57 1.383t-0.539 2.023q0.063 1.422 1.211 2.422t2.586 0.875q1.422-0.125 2.375-1.313t0.781-2.625zM18.203 4.625q-0.313-0.422-0.875-0.695t-0.906-0.344-1.109-0.195q-4.547-0.734-8.844 0.031-0.672 0.109-1.031 0.187t-0.859 0.344-0.781 0.672q0.469 0.438 1.188 0.711t1.148 0.344 1.367 0.18q3.563 0.453 7 0.016 0.984-0.125 1.398-0.187t1.133-0.336 1.172-0.727zM19.094 20.797q-0.125 0.406-0.242 1.195t-0.219 1.313-0.445 1.094-0.906 0.883q-1.344 0.75-2.961 1.117t-3.156 0.344-3.148-0.289q-0.719-0.125-1.273-0.281t-1.195-0.422-1.141-0.68-0.812-0.961q-0.391-1.5-0.891-4.562l0.094-0.25 0.281-0.141q3.484 2.312 7.914 2.312t7.93-2.312q0.328 0.094 0.375 0.359t-0.078 0.703-0.125 0.578zM21.922 5.781q-0.406 2.609-1.734 10.234-0.078 0.469-0.422 0.875t-0.68 0.625-0.852 0.484q-3.938 1.969-9.531 1.375-3.875-0.422-6.156-2.172-0.234-0.187-0.398-0.414t-0.266-0.547-0.141-0.531-0.094-0.617-0.086-0.547q-0.141-0.781-0.414-2.344t-0.438-2.523-0.367-2.305-0.344-2.469q0.047-0.406 0.273-0.758t0.492-0.586 0.703-0.469 0.719-0.352 0.75-0.289q1.953-0.719 4.891-1 5.922-0.578 10.563 0.781 2.422 0.719 3.359 1.906 0.25 0.313 0.258 0.797t-0.086 0.844z"></path>
</svg>
