<?xml version="1.0" encoding="utf-8"?>
<!-- Generated by IcoMoon.io -->
<!DOCTYPE svg PUBLIC "-//W3C//DTD SVG 1.1//EN" "http://www.w3.org/Graphics/SVG/1.1/DTD/svg11.dtd">
<svg version="1.1" xmlns="http://www.w3.org/2000/svg" xmlns:xlink="http://www.w3.org/1999/xlink" width="20" height="28" viewBox="0 0 20 28">
<path fill="#444444" d="M18.234 10q0.281 2.844-2.047 4.031 1.828 0.438 2.734 1.609t0.703 3.344q-0.109 1.109-0.508 1.953t-1.008 1.391-1.516 0.914-1.898 0.539-2.273 0.234v3.984h-2.406v-3.922q-1.25 0-1.906-0.016v3.938h-2.406v-3.984q-0.281 0-0.844-0.008t-0.859-0.008h-3.125l0.484-2.859h1.734q0.781 0 0.906-0.797v-6.281h0.25q-0.094-0.016-0.25-0.016v-4.484q-0.203-1.062-1.391-1.062h-1.734v-2.562l3.313 0.016q1 0 1.516-0.016v-3.938h2.406v3.859q1.281-0.031 1.906-0.031v-3.828h2.406v3.938q1.234 0.109 2.188 0.352t1.766 0.703 1.289 1.219 0.57 1.789zM14.875 18.516q0-0.562-0.234-1t-0.578-0.719-0.898-0.477-1.023-0.289-1.156-0.141-1.078-0.047-1.008 0.016-0.742 0.016v5.281q0.125 0 0.578 0.008t0.75 0.008 0.828-0.023 0.914-0.063 0.891-0.133 0.867-0.219 0.742-0.328 0.617-0.469 0.383-0.625 0.148-0.797zM13.766 11.078q0-0.516-0.195-0.914t-0.477-0.656-0.75-0.438-0.859-0.258-0.961-0.125-0.906-0.039-0.844 0.016-0.617 0.008v4.797q0.078 0 0.539 0.008t0.727 0 0.781-0.031 0.859-0.086 0.805-0.172 0.758-0.289 0.578-0.422 0.422-0.602 0.141-0.797z"></path>
</svg>
