<?xml version="1.0" encoding="utf-8"?>
<!-- Generated by IcoMoon.io -->
<!DOCTYPE svg PUBLIC "-//W3C//DTD SVG 1.1//EN" "http://www.w3.org/Graphics/SVG/1.1/DTD/svg11.dtd">
<svg version="1.1" xmlns="http://www.w3.org/2000/svg" xmlns:xlink="http://www.w3.org/1999/xlink" width="22" height="28" viewBox="0 0 22 28">
<path fill="#444444" d="M8.672 23.766q1.156 0.5 2.188 0.5 5.875 0 5.875-5.234 0-1.781-0.641-2.812-0.422-0.688-0.961-1.156t-1.055-0.727-1.258-0.391-1.313-0.164-1.477-0.031q-1.141 0-1.578 0.156 0 0.828-0.008 2.484t-0.008 2.469q0 0.125-0.016 1.055t-0.008 1.508 0.070 1.305 0.187 1.039zM8.453 12.109q0.656 0.109 1.703 0.109 1.281 0 2.234-0.203t1.719-0.695 1.164-1.398 0.398-2.219q0-1.094-0.453-1.914t-1.234-1.281-1.687-0.68-1.937-0.219q-0.781 0-2.031 0.203 0 0.781 0.063 2.359t0.063 2.375q0 0.422-0.008 1.25t-0.008 1.234q0 0.719 0.016 1.078zM0 26l0.031-1.469q0.234-0.063 1.328-0.25t1.656-0.422q0.109-0.187 0.195-0.422t0.133-0.523 0.086-0.508 0.047-0.586 0.008-0.531v-1.023q0-15.344-0.344-16.016-0.063-0.125-0.344-0.227t-0.695-0.172-0.773-0.109-0.758-0.070-0.477-0.047l-0.063-1.297q1.531-0.031 5.313-0.18t5.828-0.148q0.359 0 1.070 0.008t1.055 0.008q1.094 0 2.133 0.203t2.008 0.656 1.687 1.109 1.156 1.633 0.438 2.148q0 0.812-0.258 1.492t-0.609 1.125-1.008 0.898-1.141 0.703-1.313 0.625q2.406 0.547 4.008 2.094t1.602 3.875q0 1.563-0.547 2.805t-1.461 2.039-2.156 1.336-2.555 0.758-2.75 0.219q-0.688 0-2.063-0.047t-2.063-0.047q-1.656 0-4.797 0.172t-3.609 0.187z"></path>
</svg>
