<?xml version="1.0" encoding="utf-8"?>
<!-- Generated by IcoMoon.io -->
<!DOCTYPE svg PUBLIC "-//W3C//DTD SVG 1.1//EN" "http://www.w3.org/Graphics/SVG/1.1/DTD/svg11.dtd">
<svg version="1.1" xmlns="http://www.w3.org/2000/svg" xmlns:xlink="http://www.w3.org/1999/xlink" width="14" height="28" viewBox="0 0 14 28">
<path fill="#444444" d="M13.828 8.844q0.281 0.313 0.109 0.688l-8.437 18.078q-0.203 0.391-0.656 0.391-0.063 0-0.219-0.031-0.266-0.078-0.398-0.297t-0.070-0.469l3.078-12.625-6.344 1.578q-0.063 0.016-0.187 0.016-0.281 0-0.484-0.172-0.281-0.234-0.203-0.609l3.141-12.891q0.063-0.219 0.25-0.359t0.438-0.141h5.125q0.297 0 0.5 0.195t0.203 0.461q0 0.125-0.078 0.281l-2.672 7.234 6.188-1.531q0.125-0.031 0.187-0.031 0.297 0 0.531 0.234z"></path>
</svg>
