<?xml version="1.0" encoding="utf-8"?>
<!-- Generated by IcoMoon.io -->
<!DOCTYPE svg PUBLIC "-//W3C//DTD SVG 1.1//EN" "http://www.w3.org/Graphics/SVG/1.1/DTD/svg11.dtd">
<svg version="1.1" xmlns="http://www.w3.org/2000/svg" xmlns:xlink="http://www.w3.org/1999/xlink" width="28" height="28" viewBox="0 0 28 28">
<path fill="#444444" d="M8.922 9.203q-0.156-0.391-0.531-0.547t-0.766 0q-1.687 0.688-2.984 1.984t-1.984 2.984q-0.156 0.391 0 0.766t0.547 0.531q0.203 0.078 0.375 0.078 0.656 0 0.938-0.625 0.531-1.313 1.539-2.32t2.32-1.539q0.391-0.172 0.547-0.547t0-0.766zM23.641 3.641l0.719 0.719-3.813 3.797 1.062 1.062q0.297 0.297 0.297 0.711t-0.297 0.711l-1 1q1.391 2.516 1.391 5.359 0 2.234-0.867 4.273t-2.344 3.516-3.516 2.344-4.273 0.867-4.273-0.867-3.516-2.344-2.344-3.516-0.867-4.273 0.867-4.273 2.344-3.516 3.516-2.344 4.273-0.867q2.844 0 5.359 1.391l1-1q0.297-0.297 0.711-0.297t0.711 0.297l1.062 1.062zM23.766 2.766q-0.156 0.156-0.344 0.156-0.203 0-0.359-0.156l-1.422-1.406q-0.141-0.156-0.141-0.359t0.141-0.359q0.156-0.141 0.359-0.141t0.359 0.141l1.406 1.422q0.156 0.141 0.156 0.352t-0.156 0.352zM27.359 6.359q-0.172 0.141-0.359 0.141t-0.359-0.141l-1.406-1.422q-0.156-0.141-0.156-0.352t0.156-0.352q0.141-0.156 0.352-0.156t0.352 0.156l1.422 1.406q0.141 0.156 0.141 0.359t-0.141 0.359zM28 3.5q0 0.219-0.141 0.359t-0.359 0.141h-1.5q-0.219 0-0.359-0.141t-0.141-0.359 0.141-0.359 0.359-0.141h1.5q0.219 0 0.359 0.141t0.141 0.359zM25 0.5v1.5q0 0.219-0.141 0.359t-0.359 0.141-0.359-0.141-0.141-0.359v-1.5q0-0.219 0.141-0.359t0.359-0.141 0.359 0.141 0.141 0.359zM27.359 1.359l-1.422 1.406q-0.156 0.156-0.344 0.156-0.203 0-0.359-0.156-0.156-0.141-0.156-0.352t0.156-0.352l1.406-1.422q0.156-0.141 0.359-0.141t0.359 0.141q0.141 0.156 0.141 0.359t-0.141 0.359z"></path>
</svg>
