<?xml version="1.0" encoding="utf-8"?>
<!-- Generated by IcoMoon.io -->
<!DOCTYPE svg PUBLIC "-//W3C//DTD SVG 1.1//EN" "http://www.w3.org/Graphics/SVG/1.1/DTD/svg11.dtd">
<svg version="1.1" xmlns="http://www.w3.org/2000/svg" xmlns:xlink="http://www.w3.org/1999/xlink" width="26" height="28" viewBox="0 0 26 28">
<path fill="#444444" d="M25.609 7.469q0.625 0.891 0.281 2.016l-4.297 14.156q-0.297 1-1.195 1.68t-1.914 0.68h-14.422q-1.203 0-2.32-0.836t-1.555-2.055q-0.375-1.047-0.031-1.984 0-0.063 0.047-0.422t0.063-0.578q0.016-0.125-0.047-0.336t-0.047-0.305q0.031-0.172 0.125-0.328t0.258-0.367 0.258-0.367q0.359-0.594 0.703-1.43t0.469-1.43q0.047-0.156 0.008-0.469t-0.008-0.438q0.047-0.172 0.266-0.438t0.266-0.359q0.328-0.562 0.656-1.437t0.391-1.406q0.016-0.141-0.039-0.5t0.008-0.438q0.063-0.203 0.344-0.477t0.344-0.352q0.297-0.406 0.664-1.32t0.43-1.508q0.016-0.125-0.047-0.398t-0.031-0.414q0.031-0.125 0.141-0.281t0.281-0.359 0.266-0.328q0.125-0.187 0.258-0.477t0.234-0.547 0.25-0.562 0.305-0.5 0.414-0.367 0.562-0.18 0.742 0.086l-0.016 0.047q0.594-0.141 0.797-0.141h11.891q1.156 0 1.781 0.875t0.281 2.031l-4.281 14.156q-0.562 1.859-1.117 2.398t-2.008 0.539h-13.578q-0.422 0-0.594 0.234-0.172 0.25-0.016 0.672 0.375 1.094 2.25 1.094h14.422q0.453 0 0.875-0.242t0.547-0.648l4.688-15.422q0.109-0.344 0.078-0.891 0.594 0.234 0.922 0.672zM8.984 7.5q-0.063 0.203 0.031 0.352t0.313 0.148h9.5q0.203 0 0.398-0.148t0.258-0.352l0.328-1q0.063-0.203-0.031-0.352t-0.313-0.148h-9.5q-0.203 0-0.398 0.148t-0.258 0.352zM7.688 11.5q-0.063 0.203 0.031 0.352t0.313 0.148h9.5q0.203 0 0.398-0.148t0.258-0.352l0.328-1q0.063-0.203-0.031-0.352t-0.313-0.148h-9.5q-0.203 0-0.398 0.148t-0.258 0.352z"></path>
</svg>
