<?xml version="1.0" encoding="utf-8"?>
<!-- Generated by IcoMoon.io -->
<!DOCTYPE svg PUBLIC "-//W3C//DTD SVG 1.1//EN" "http://www.w3.org/Graphics/SVG/1.1/DTD/svg11.dtd">
<svg version="1.1" xmlns="http://www.w3.org/2000/svg" xmlns:xlink="http://www.w3.org/1999/xlink" width="28" height="28" viewBox="0 0 28 28">
<path fill="#444444" d="M10 4h8v-2h-8v2zM28 14v7.5q0 1.031-0.734 1.766t-1.766 0.734h-23q-1.031 0-1.766-0.734t-0.734-1.766v-7.5h10.5v2.5q0 0.406 0.297 0.703t0.703 0.297h5q0.406 0 0.703-0.297t0.297-0.703v-2.5h10.5zM16 14v2h-4v-2h4zM28 6.5v6h-28v-6q0-1.031 0.734-1.766t1.766-0.734h5.5v-2.5q0-0.625 0.438-1.062t1.062-0.438h9q0.625 0 1.062 0.438t0.438 1.062v2.5h5.5q1.031 0 1.766 0.734t0.734 1.766z"></path>
</svg>
