<?xml version="1.0" encoding="utf-8"?>
<!-- Generated by IcoMoon.io -->
<!DOCTYPE svg PUBLIC "-//W3C//DTD SVG 1.1//EN" "http://www.w3.org/Graphics/SVG/1.1/DTD/svg11.dtd">
<svg version="1.1" xmlns="http://www.w3.org/2000/svg" xmlns:xlink="http://www.w3.org/1999/xlink" width="26" height="28" viewBox="0 0 26 28">
<path fill="#444444" d="M25.5 15q0 0.406-0.297 0.703t-0.703 0.297h-3.5q0 2.672-1.047 4.531l3.25 3.266q0.297 0.297 0.297 0.703t-0.297 0.703q-0.281 0.297-0.703 0.297t-0.703-0.297l-3.094-3.078q-0.078 0.078-0.234 0.203t-0.656 0.445-1.016 0.57-1.281 0.453-1.516 0.203v-14h-2v14q-0.797 0-1.586-0.211t-1.359-0.516-1.031-0.609-0.68-0.508l-0.234-0.219-2.859 3.234q-0.313 0.328-0.75 0.328-0.375 0-0.672-0.25-0.297-0.281-0.32-0.695t0.242-0.727l3.156-3.547q-0.906-1.781-0.906-4.281h-3.5q-0.406 0-0.703-0.297t-0.297-0.703 0.297-0.703 0.703-0.297h3.5v-4.594l-2.703-2.703q-0.297-0.297-0.297-0.703t0.297-0.703 0.703-0.297 0.703 0.297l2.703 2.703h13.188l2.703-2.703q0.297-0.297 0.703-0.297t0.703 0.297 0.297 0.703-0.297 0.703l-2.703 2.703v4.594h3.5q0.406 0 0.703 0.297t0.297 0.703zM18 6h-10q0-2.078 1.461-3.539t3.539-1.461 3.539 1.461 1.461 3.539z"></path>
</svg>
