<?xml version="1.0" encoding="utf-8"?>
<!-- Generated by IcoMoon.io -->
<!DOCTYPE svg PUBLIC "-//W3C//DTD SVG 1.1//EN" "http://www.w3.org/Graphics/SVG/1.1/DTD/svg11.dtd">
<svg version="1.1" xmlns="http://www.w3.org/2000/svg" xmlns:xlink="http://www.w3.org/1999/xlink" width="28" height="28" viewBox="0 0 28 28">
<path fill="#444444" d="M21 0q0.406 0 0.703 0.297t0.297 0.703v26q0 0.406-0.297 0.703t-0.703 0.297h-20q-0.406 0-0.703-0.297t-0.297-0.703v-26q0-0.406 0.297-0.703t0.703-0.297h20zM8 4.5v1q0 0.219 0.141 0.359t0.359 0.141h1q0.219 0 0.359-0.141t0.141-0.359v-1q0-0.219-0.141-0.359t-0.359-0.141h-1q-0.219 0-0.359 0.141t-0.141 0.359zM8 8.5v1q0 0.219 0.141 0.359t0.359 0.141h1q0.219 0 0.359-0.141t0.141-0.359v-1q0-0.219-0.141-0.359t-0.359-0.141h-1q-0.219 0-0.359 0.141t-0.141 0.359zM8 12.5v1q0 0.219 0.141 0.359t0.359 0.141h1q0.219 0 0.359-0.141t0.141-0.359v-1q0-0.219-0.141-0.359t-0.359-0.141h-1q-0.219 0-0.359 0.141t-0.141 0.359zM8 16.5v1q0 0.219 0.141 0.359t0.359 0.141h1q0.219 0 0.359-0.141t0.141-0.359v-1q0-0.219-0.141-0.359t-0.359-0.141h-1q-0.219 0-0.359 0.141t-0.141 0.359zM6 21.5v-1q0-0.219-0.141-0.359t-0.359-0.141h-1q-0.219 0-0.359 0.141t-0.141 0.359v1q0 0.219 0.141 0.359t0.359 0.141h1q0.219 0 0.359-0.141t0.141-0.359zM6 17.5v-1q0-0.219-0.141-0.359t-0.359-0.141h-1q-0.219 0-0.359 0.141t-0.141 0.359v1q0 0.219 0.141 0.359t0.359 0.141h1q0.219 0 0.359-0.141t0.141-0.359zM6 13.5v-1q0-0.219-0.141-0.359t-0.359-0.141h-1q-0.219 0-0.359 0.141t-0.141 0.359v1q0 0.219 0.141 0.359t0.359 0.141h1q0.219 0 0.359-0.141t0.141-0.359zM6 9.5v-1q0-0.219-0.141-0.359t-0.359-0.141h-1q-0.219 0-0.359 0.141t-0.141 0.359v1q0 0.219 0.141 0.359t0.359 0.141h1q0.219 0 0.359-0.141t0.141-0.359zM6 5.5v-1q0-0.219-0.141-0.359t-0.359-0.141h-1q-0.219 0-0.359 0.141t-0.141 0.359v1q0 0.219 0.141 0.359t0.359 0.141h1q0.219 0 0.359-0.141t0.141-0.359zM14 25.5v-3q0-0.219-0.141-0.359t-0.359-0.141h-5q-0.219 0-0.359 0.141t-0.141 0.359v3q0 0.219 0.141 0.359t0.359 0.141h5q0.219 0 0.359-0.141t0.141-0.359zM14 17.5v-1q0-0.219-0.141-0.359t-0.359-0.141h-1q-0.219 0-0.359 0.141t-0.141 0.359v1q0 0.219 0.141 0.359t0.359 0.141h1q0.219 0 0.359-0.141t0.141-0.359zM14 13.5v-1q0-0.219-0.141-0.359t-0.359-0.141h-1q-0.219 0-0.359 0.141t-0.141 0.359v1q0 0.219 0.141 0.359t0.359 0.141h1q0.219 0 0.359-0.141t0.141-0.359zM14 9.5v-1q0-0.219-0.141-0.359t-0.359-0.141h-1q-0.219 0-0.359 0.141t-0.141 0.359v1q0 0.219 0.141 0.359t0.359 0.141h1q0.219 0 0.359-0.141t0.141-0.359zM14 5.5v-1q0-0.219-0.141-0.359t-0.359-0.141h-1q-0.219 0-0.359 0.141t-0.141 0.359v1q0 0.219 0.141 0.359t0.359 0.141h1q0.219 0 0.359-0.141t0.141-0.359zM18 21.5v-1q0-0.219-0.141-0.359t-0.359-0.141h-1q-0.219 0-0.359 0.141t-0.141 0.359v1q0 0.219 0.141 0.359t0.359 0.141h1q0.219 0 0.359-0.141t0.141-0.359zM18 17.5v-1q0-0.219-0.141-0.359t-0.359-0.141h-1q-0.219 0-0.359 0.141t-0.141 0.359v1q0 0.219 0.141 0.359t0.359 0.141h1q0.219 0 0.359-0.141t0.141-0.359zM18 13.5v-1q0-0.219-0.141-0.359t-0.359-0.141h-1q-0.219 0-0.359 0.141t-0.141 0.359v1q0 0.219 0.141 0.359t0.359 0.141h1q0.219 0 0.359-0.141t0.141-0.359zM18 9.5v-1q0-0.219-0.141-0.359t-0.359-0.141h-1q-0.219 0-0.359 0.141t-0.141 0.359v1q0 0.219 0.141 0.359t0.359 0.141h1q0.219 0 0.359-0.141t0.141-0.359zM18 5.5v-1q0-0.219-0.141-0.359t-0.359-0.141h-1q-0.219 0-0.359 0.141t-0.141 0.359v1q0 0.219 0.141 0.359t0.359 0.141h1q0.219 0 0.359-0.141t0.141-0.359z"></path>
</svg>
