<?xml version="1.0" encoding="utf-8"?>
<!-- Generated by IcoMoon.io -->
<!DOCTYPE svg PUBLIC "-//W3C//DTD SVG 1.1//EN" "http://www.w3.org/Graphics/SVG/1.1/DTD/svg11.dtd">
<svg version="1.1" xmlns="http://www.w3.org/2000/svg" xmlns:xlink="http://www.w3.org/1999/xlink" width="28" height="28" viewBox="0 0 28 28">
<path fill="#444444" d="M26 10q0.828 0 1.414 0.586t0.586 1.414-0.586 1.414-1.414 0.586v6q0 0.812-0.594 1.406t-1.406 0.594q-6.516-5.422-12.688-5.938-0.906 0.297-1.422 1.031t-0.484 1.57 0.625 1.445q-0.313 0.516-0.359 1.023t0.094 0.906 0.523 0.859 0.75 0.781 0.961 0.789q-0.453 0.906-1.742 1.297t-2.633 0.18-2.063-0.867q-0.109-0.359-0.461-1.367t-0.5-1.477-0.359-1.391-0.234-1.578 0.055-1.539 0.344-1.727h-1.906q-1.031 0-1.766-0.734t-0.734-1.766v-3q0-1.031 0.734-1.766t1.766-0.734h7.5q6.797 0 14-6 0.812 0 1.406 0.594t0.594 1.406v6zM24 19.437v-14.906q-6.156 4.719-12 5.359v4.219q5.891 0.656 12 5.328z"></path>
</svg>
