<?xml version="1.0" encoding="utf-8"?>
<!-- Generated by IcoMoon.io -->
<!DOCTYPE svg PUBLIC "-//W3C//DTD SVG 1.1//EN" "http://www.w3.org/Graphics/SVG/1.1/DTD/svg11.dtd">
<svg version="1.1" xmlns="http://www.w3.org/2000/svg" xmlns:xlink="http://www.w3.org/1999/xlink" width="28" height="28" viewBox="0 0 28 28">
<path fill="#444444" d="M6 19q0-0.828-0.586-1.414t-1.414-0.586-1.414 0.586-0.586 1.414 0.586 1.414 1.414 0.586 1.414-0.586 0.586-1.414zM22 19q0-0.828-0.586-1.414t-1.414-0.586-1.414 0.586-0.586 1.414 0.586 1.414 1.414 0.586 1.414-0.586 0.586-1.414zM21.281 12.812l-1.125-6q-0.078-0.359-0.352-0.586t-0.633-0.227h-14.344q-0.359 0-0.633 0.227t-0.352 0.586l-1.125 6q-0.078 0.469 0.219 0.828t0.766 0.359h16.594q0.469 0 0.766-0.359t0.219-0.828zM17.75 3.25q0-0.313-0.219-0.531t-0.531-0.219h-10q-0.313 0-0.531 0.219t-0.219 0.531 0.219 0.531 0.531 0.219h10q0.313 0 0.531-0.219t0.219-0.531zM24 14.578v9.422h-2v2q0 0.828-0.586 1.414t-1.414 0.586-1.414-0.586-0.586-1.414v-2h-12v2q0 0.828-0.586 1.414t-1.414 0.586-1.414-0.586-0.586-1.414v-2h-2v-9.422q0-1.75 0.391-3.484l1.609-7.094q0.141-1.219 1.523-2.141t3.594-1.391 4.883-0.469 4.883 0.469 3.594 1.391 1.523 2.141l1.641 7.094q0.359 1.594 0.359 3.484z"></path>
</svg>
