<?xml version="1.0" encoding="utf-8"?>
<!-- Generated by IcoMoon.io -->
<!DOCTYPE svg PUBLIC "-//W3C//DTD SVG 1.1//EN" "http://www.w3.org/Graphics/SVG/1.1/DTD/svg11.dtd">
<svg version="1.1" xmlns="http://www.w3.org/2000/svg" xmlns:xlink="http://www.w3.org/1999/xlink" width="32" height="28" viewBox="0 0 32 28">
<path fill="#444444" d="M28.5 14q1.453 0 2.477 1.023t1.023 2.477v6q0 0.219-0.141 0.359t-0.359 0.141h-1.5v1q0 1.25-0.875 2.125t-2.125 0.875-2.125-0.875-0.875-2.125v-1h-16v1q0 1.25-0.875 2.125t-2.125 0.875-2.125-0.875-0.875-2.125v-1h-1.5q-0.219 0-0.359-0.141t-0.141-0.359v-6q0-1.453 1.023-2.477t2.477-1.023h0.438l1.641-6.547q0.359-1.469 1.625-2.461t2.797-0.992h2v-3.5q0-0.219 0.141-0.359t0.359-0.141h7q0.219 0 0.359 0.141t0.141 0.359v3.5h2q1.531 0 2.797 0.992t1.625 2.461l1.641 6.547h0.438zM5 21.5q1.031 0 1.766-0.734t0.734-1.766-0.734-1.766-1.766-0.734-1.766 0.734-0.734 1.766 0.734 1.766 1.766 0.734zM8.062 14h15.875l-1.391-5.578q-0.031-0.125-0.219-0.273t-0.328-0.148h-12q-0.141 0-0.328 0.148t-0.219 0.273zM27 21.5q1.031 0 1.766-0.734t0.734-1.766-0.734-1.766-1.766-0.734-1.766 0.734-0.734 1.766 0.734 1.766 1.766 0.734z"></path>
</svg>
