<?xml version="1.0" encoding="utf-8"?>
<!-- Generated by IcoMoon.io -->
<!DOCTYPE svg PUBLIC "-//W3C//DTD SVG 1.1//EN" "http://www.w3.org/Graphics/SVG/1.1/DTD/svg11.dtd">
<svg version="1.1" xmlns="http://www.w3.org/2000/svg" xmlns:xlink="http://www.w3.org/1999/xlink" width="28" height="28" viewBox="0 0 28 28">
<path fill="#444444" d="M14.5 13q0-0.219-0.141-0.359t-0.359-0.141q-1.031 0-1.766 0.734t-0.734 1.766q0 0.219 0.141 0.359t0.359 0.141 0.359-0.141 0.141-0.359q0-0.625 0.438-1.062t1.062-0.438q0.219 0 0.359-0.141t0.141-0.359zM18 15.031q0 1.656-1.172 2.828t-2.828 1.172-2.828-1.172-1.172-2.828 1.172-2.828 2.828-1.172 2.828 1.172 1.172 2.828zM2 24h24v-2h-24v2zM20 15.031q0-2.484-1.758-4.242t-4.242-1.758-4.242 1.758-1.758 4.242 1.758 4.242 4.242 1.758 4.242-1.758 1.758-4.242zM4 5h6v-2h-6v2zM2 8h24v-4h-12.938l-1 2h-10.063v2zM28 4v20q0 0.828-0.586 1.414t-1.414 0.586h-24q-0.828 0-1.414-0.586t-0.586-1.414v-20q0-0.828 0.586-1.414t1.414-0.586h24q0.828 0 1.414 0.586t0.586 1.414z"></path>
</svg>
