<?xml version="1.0" encoding="utf-8"?>
<!-- Generated by IcoMoon.io -->
<!DOCTYPE svg PUBLIC "-//W3C//DTD SVG 1.1//EN" "http://www.w3.org/Graphics/SVG/1.1/DTD/svg11.dtd">
<svg version="1.1" xmlns="http://www.w3.org/2000/svg" xmlns:xlink="http://www.w3.org/1999/xlink" width="28" height="28" viewBox="0 0 28 28">
<path fill="#444444" d="M17 14q0 0.516-0.422 0.812l-7 5q-0.484 0.359-1.031 0.078-0.547-0.266-0.547-0.891v-10q0-0.625 0.547-0.891 0.547-0.281 1.031 0.078l7 5q0.422 0.297 0.422 0.812zM20 21.5v-15q0-0.219-0.141-0.359t-0.359-0.141h-15q-0.219 0-0.359 0.141t-0.141 0.359v15q0 0.219 0.141 0.359t0.359 0.141h15q0.219 0 0.359-0.141t0.141-0.359zM24 6.5v15q0 1.859-1.32 3.18t-3.18 1.32h-15q-1.859 0-3.18-1.32t-1.32-3.18v-15q0-1.859 1.32-3.18t3.18-1.32h15q1.859 0 3.18 1.32t1.32 3.18z"></path>
</svg>
