<?xml version="1.0" encoding="utf-8"?>
<!-- Generated by IcoMoon.io -->
<!DOCTYPE svg PUBLIC "-//W3C//DTD SVG 1.1//EN" "http://www.w3.org/Graphics/SVG/1.1/DTD/svg11.dtd">
<svg version="1.1" xmlns="http://www.w3.org/2000/svg" xmlns:xlink="http://www.w3.org/1999/xlink" width="36" height="28" viewBox="0 0 36 28">
<path fill="#444444" d="M1.859 10.656h1.391l-0.703-1.687zM11.562 18.875l1.156-1.234-1.094-1.234h-2.547v0.766h2.219v0.859h-2.219v0.844h2.484zM14.031 17.656l1.547 1.719v-3.391zM18.531 16.922q0-0.516-0.625-0.516h-1.313v1.078h1.297q0.641 0 0.641-0.562zM23.047 16.859q0-0.453-0.656-0.453h-1.281v0.953h1.266q0.672 0 0.672-0.5zM18.703 9.578q0-0.453-0.656-0.453h-1.281v0.938h1.266q0.672 0 0.672-0.484zM25.875 10.656h1.391l-0.688-1.687zM10.922 8.234v4.234h-1.031v-3.313l-1.469 3.313h-0.891l-1.469-3.313v3.313h-2.063l-0.391-0.938h-2.109l-0.391 0.938h-1.094l1.813-4.234h1.5l1.719 4.016v-4.016h1.656l1.328 2.875 1.203-2.875h1.687zM19.609 16.922q0 0.313-0.086 0.547t-0.219 0.391-0.352 0.258-0.406 0.156-0.492 0.070-0.492 0.016-0.508-0.008-0.461-0.008v1.422h-1.969l-1.25-1.406-1.297 1.406h-4v-4.234h4.062l1.25 1.391 1.281-1.391h3.234q1.703 0 1.703 1.391zM15.062 11.594v0.875h-3.391v-4.234h3.391v0.891h-2.375v0.766h2.312v0.859h-2.312v0.844h2.375zM36 20.328v3.578q0 0.859-0.602 1.477t-1.461 0.617h-31.875q-0.859 0-1.461-0.617t-0.602-1.477v-10.594h1.734l0.391-0.953h0.859l0.391 0.953h3.406v-0.719l0.297 0.719h1.766l0.313-0.734v0.734h8.453v-1.547l0.156-0.016q0.156 0 0.156 0.219v1.344h4.359v-0.359q0.359 0.187 0.859 0.281t0.82 0.102 0.984-0.008 0.805-0.016l0.391-0.953h0.875l0.391 0.953h3.547v-0.906l0.531 0.906h2.844v-5.906h-2.812v0.688l-0.391-0.688h-2.891v0.688l-0.359-0.688h-3.891q-1.078 0-1.703 0.344v-0.344h-2.688v0.344q-0.375-0.344-1.141-0.344h-9.812l-0.672 1.516-0.672-1.516h-3.094v0.688l-0.344-0.688h-2.641l-1.219 2.797v-6.109q0-0.859 0.602-1.477t1.461-0.617h31.875q0.859 0 1.461 0.617t0.602 1.477v10.594h-1.875q-0.797 0-1.266 0.344v-0.344h-2.766q-0.859 0-1.219 0.344v-0.344h-4.937v0.344q-0.484-0.344-1.359-0.344h-3.266v0.344q-0.359-0.344-1.422-0.344h-3.656l-0.844 0.906-0.781-0.906h-5.453v5.906h5.359l0.859-0.922 0.812 0.922h3.297v-1.391h0.328q0.922 0 1.406-0.203v1.594h2.719v-1.547h0.125q0.125 0 0.156 0.031t0.031 0.156v1.359h8.266q0.891 0 1.375-0.375v0.375h2.625q0.938 0 1.484-0.266zM24.156 16.672q0 0.359-0.187 0.672t-0.531 0.453q0.391 0.141 0.531 0.406t0.141 0.719v0.844h-1.016v-0.703q0-0.516-0.187-0.68t-0.719-0.164h-1.078v1.547h-1.016v-4.234h2.406q0.75 0 1.203 0.234t0.453 0.906zM19.828 9.375q0 0.375-0.195 0.688t-0.523 0.453q0.406 0.141 0.539 0.398t0.133 0.727v0.828h-1.016q0-0.141 0.008-0.414t0-0.391-0.047-0.289-0.133-0.25-0.273-0.133-0.461-0.055h-1.094v1.531h-1v-4.234l2.391 0.016q0.766 0 1.219 0.227t0.453 0.898zM28.094 18.891v0.875h-3.375v-4.234h3.375v0.875h-2.359v0.766h2.312v0.859h-2.312v0.844zM21.438 8.234v4.234h-1.031v-4.234h1.031zM32.266 18.422q0 1.344-1.594 1.344h-1.969v-0.906h1.969q0.531 0 0.531-0.391 0-0.25-0.266-0.328t-0.648-0.078-0.773-0.055-0.656-0.352-0.266-0.859q0-0.609 0.406-0.938t1.031-0.328h2.031v0.891h-1.859q-0.562 0-0.562 0.391 0 0.25 0.273 0.32t0.656 0.063 0.766 0.039 0.656 0.336 0.273 0.852zM36 17.641v1.578q-0.375 0.547-1.375 0.547h-1.953v-0.906h1.953q0.516 0 0.516-0.391 0-0.203-0.195-0.297t-0.484-0.086-0.625-0.031-0.625-0.125-0.484-0.375-0.195-0.758q0-0.609 0.414-0.938t1.039-0.328h2.016v0.891h-1.844q-0.562 0-0.562 0.391 0 0.313 0.453 0.344t1.070 0.078 0.883 0.406zM33.422 8.25v4.219h-1.437l-1.906-3.172v3.172h-2.063l-0.406-0.938h-2.094l-0.391 0.938h-1.172q-2.016 0-2.016-2.078 0-2.156 2.078-2.156h0.984v0.922q-0.109 0-0.438-0.016t-0.445-0.008-0.359 0.031-0.336 0.102-0.227 0.211-0.18 0.359-0.047 0.523q0 0.594 0.211 0.906t0.773 0.313h0.453l1.437-3.328h1.516l1.703 4v-4h1.547l1.781 2.938v-2.938h1.031z"></path>
</svg>
