<?xml version="1.0" encoding="utf-8"?>
<!-- Generated by IcoMoon.io -->
<!DOCTYPE svg PUBLIC "-//W3C//DTD SVG 1.1//EN" "http://www.w3.org/Graphics/SVG/1.1/DTD/svg11.dtd">
<svg version="1.1" xmlns="http://www.w3.org/2000/svg" xmlns:xlink="http://www.w3.org/1999/xlink" width="36" height="28" viewBox="0 0 36 28">
<path fill="#444444" d="M4.891 12.141q0 0.797-0.562 1.313-0.453 0.406-1.391 0.406h-0.266v-3.437h0.266q0.953 0 1.391 0.422 0.562 0.484 0.562 1.297zM32.641 11.125q0 0.812-1 0.812h-0.297v-1.578h0.313q0.984 0 0.984 0.766zM5.938 12.141q0-1.156-0.781-1.883t-2.016-0.727h-1.484v5.203h1.484q1.156 0 1.859-0.594 0.938-0.797 0.938-2zM6.406 14.734h1.016v-5.203h-1.016v5.203zM11.406 13.156q0-0.625-0.32-0.969t-1.18-0.656q-0.453-0.156-0.617-0.297t-0.164-0.359q0-0.25 0.211-0.414t0.539-0.164q0.453 0 0.828 0.422l0.531-0.688q-0.641-0.578-1.531-0.578-0.688 0-1.156 0.43t-0.469 1.055q0 0.547 0.281 0.867t1 0.57q0.578 0.203 0.703 0.297 0.297 0.187 0.297 0.531 0 0.313-0.219 0.523t-0.562 0.211q-0.75 0-1.109-0.688l-0.656 0.625q0.688 1 1.797 1 0.797 0 1.297-0.477t0.5-1.242zM15.75 14.562v-1.203q-0.578 0.578-1.219 0.578-0.766 0-1.258-0.508t-0.492-1.289q0-0.75 0.492-1.273t1.211-0.523q0.672 0 1.266 0.594v-1.203q-0.625-0.313-1.25-0.313-1.156 0-1.961 0.789t-0.805 1.93 0.797 1.93 1.953 0.789q0.656 0 1.266-0.297zM35 24v-8.234q-1.016 0.625-2.258 1.313t-3.711 1.828-5.148 2.148-6.523 2.102-7.875 1.844h24.516q0.406 0 0.703-0.297t0.297-0.703zM21.703 12.172q0-1.172-0.828-2t-2-0.828-2 0.828-0.828 2 0.828 2 2 0.828 2-0.828 0.828-2zM24.078 14.875l2.25-5.344h-1.109l-1.406 3.5-1.391-3.5h-1.109l2.219 5.344h0.547zM26.781 14.734h2.875v-0.875h-1.859v-1.406h1.797v-0.875h-1.797v-1.156h1.859v-0.891h-2.875v5.203zM32.891 14.734h1.25l-1.641-2.188q1.188-0.25 1.188-1.469 0-0.734-0.484-1.141t-1.359-0.406h-1.516v5.203h1.016v-2.078h0.141zM36 4.094v19.812q0 0.875-0.602 1.484t-1.461 0.609h-31.875q-0.859 0-1.461-0.609t-0.602-1.484v-19.812q0-0.875 0.602-1.484t1.461-0.609h31.875q0.859 0 1.461 0.609t0.602 1.484z"></path>
</svg>
