<?xml version="1.0" encoding="utf-8"?>
<!-- Generated by IcoMoon.io -->
<!DOCTYPE svg PUBLIC "-//W3C//DTD SVG 1.1//EN" "http://www.w3.org/Graphics/SVG/1.1/DTD/svg11.dtd">
<svg version="1.1" xmlns="http://www.w3.org/2000/svg" xmlns:xlink="http://www.w3.org/1999/xlink" width="36" height="28" viewBox="0 0 36 28">
<path fill="#444444" d="M10.484 14.578h-0.203q-0.734 0-0.734 0.5 0 0.344 0.313 0.344 0.266 0 0.438-0.234t0.187-0.609zM16.656 14.016h0.969v-0.047q0.016-0.063 0.008-0.102t-0.016-0.109-0.031-0.125-0.070-0.102-0.117-0.078-0.18-0.031q-0.438 0-0.562 0.594zM25.094 14.578h-0.187q-0.75 0-0.75 0.5 0 0.344 0.313 0.344 0.266 0 0.438-0.234t0.187-0.609zM30.078 14.172q0-0.641-0.469-0.641-0.297 0-0.484 0.313t-0.187 0.797q0 0.656 0.438 0.656 0.313 0 0.508-0.313t0.195-0.812zM7.5 11.969h1.359l-0.688 4.094h-0.875l0.5-3.141-1.109 3.141h-0.609l-0.063-3.125-0.531 3.125h-0.828l0.688-4.094h1.266l0.031 2.547zM11.453 13.641q0 0.094-0.063 0.656-0.25 1.578-0.266 1.766h-0.734l0.016-0.344q-0.313 0.406-0.906 0.406-0.359 0-0.586-0.25t-0.227-0.656q0-0.609 0.406-0.945t1.141-0.336q0.219 0 0.359 0.016 0-0.047 0.008-0.086t0.016-0.070 0.008-0.047q0-0.313-0.562-0.313-0.453 0-0.922 0.156 0-0.063 0.109-0.75 0.594-0.172 1.047-0.172 1.156 0 1.156 0.969zM13.891 12.734l-0.125 0.766q-0.344-0.047-0.641-0.047-0.422 0-0.422 0.266 0 0.125 0.070 0.187t0.336 0.172q0.625 0.297 0.625 0.938 0 1.125-1.359 1.109-0.531 0-0.906-0.094 0-0.031 0.109-0.766 0.453 0.125 0.797 0.125 0.5 0 0.5-0.297 0-0.109-0.070-0.18t-0.336-0.195q-0.672-0.313-0.672-0.922 0-1.125 1.313-1.125 0.469 0 0.781 0.063zM15.266 12.734h0.438l-0.109 0.812h-0.453q-0.031 0.266-0.102 0.633t-0.109 0.602-0.039 0.281q0 0.25 0.297 0.25 0.125 0 0.25-0.031l-0.125 0.734q-0.328 0.109-0.625 0.109-0.672 0-0.703-0.734 0-0.187 0.125-0.875 0.047-0.313 0.391-2.281h0.859zM18.438 13.875q0 0.359-0.109 0.812h-1.734q-0.047 0.344 0.156 0.516t0.594 0.172q0.469 0 0.906-0.219l-0.141 0.844q-0.469 0.125-0.891 0.125-1.484 0-1.484-1.484 0-0.859 0.43-1.414t1.086-0.555q0.547 0 0.867 0.328t0.32 0.875zM20.609 12.719q-0.203 0.359-0.344 0.969-0.344-0.031-0.484 0.375t-0.391 2h-0.875l0.047-0.219q0.344-2.031 0.453-3.109h0.797l-0.047 0.516q0.219-0.328 0.398-0.461t0.445-0.070zM23.531 12.078l-0.141 0.891q-0.438-0.219-0.781-0.219-0.484 0-0.797 0.43t-0.313 1.102q0 0.469 0.211 0.734t0.602 0.266q0.328 0 0.75-0.203l-0.156 0.922q-0.438 0.125-0.781 0.125-0.703 0-1.117-0.477t-0.414-1.289q0-1.094 0.555-1.789t1.43-0.695q0.406 0 0.953 0.203zM26.063 13.641q0 0.281-0.063 0.656-0.203 1.234-0.266 1.766h-0.719l0.016-0.344q-0.313 0.406-0.922 0.406-0.359 0-0.578-0.25t-0.219-0.656q0-0.609 0.398-0.945t1.133-0.336q0.234 0 0.359 0.016 0.031-0.109 0.031-0.203 0-0.313-0.562-0.313-0.453 0-0.922 0.156 0-0.063 0.125-0.75 0.594-0.172 1.047-0.172 1.141 0 1.141 0.969zM28.266 12.719q-0.219 0.375-0.328 0.969-0.359-0.031-0.492 0.359t-0.398 2.016h-0.875l0.047-0.219q0.297-1.625 0.453-3.109h0.812q0 0.172-0.063 0.516 0.234-0.328 0.414-0.461t0.43-0.070zM30.469 11.969h0.875l-0.672 4.094h-0.828l0.047-0.297q-0.359 0.359-0.812 0.359-0.484 0-0.773-0.375t-0.289-1q0-0.828 0.43-1.437t1.008-0.609q0.484 0 0.828 0.453zM32.203 14q0-2.312-1.133-4.266t-3.094-3.094-4.273-1.141q-2.828 0-5.125 1.719 1.984 1.813 2.672 4.438h-0.781q-0.688-2.344-2.469-3.953-1.781 1.609-2.469 3.953h-0.781q0.688-2.625 2.672-4.438-2.297-1.719-5.125-1.719-2.312 0-4.273 1.141t-3.094 3.094-1.133 4.266 1.133 4.266 3.094 3.094 4.273 1.141q2.828 0 5.125-1.719-1.875-1.734-2.578-4.125h0.781q0.719 2.156 2.375 3.641 1.656-1.484 2.375-3.641h0.781q-0.703 2.391-2.578 4.125 2.297 1.719 5.125 1.719 2.312 0 4.273-1.141t3.094-3.094 1.133-4.266zM36 4v20q0 0.812-0.594 1.406t-1.406 0.594h-32q-0.812 0-1.406-0.594t-0.594-1.406v-20q0-0.812 0.594-1.406t1.406-0.594h32q0.812 0 1.406 0.594t0.594 1.406z"></path>
</svg>
