<?xml version="1.0" encoding="utf-8"?>
<!-- Generated by IcoMoon.io -->
<!DOCTYPE svg PUBLIC "-//W3C//DTD SVG 1.1//EN" "http://www.w3.org/Graphics/SVG/1.1/DTD/svg11.dtd">
<svg version="1.1" xmlns="http://www.w3.org/2000/svg" xmlns:xlink="http://www.w3.org/1999/xlink" width="36" height="28" viewBox="0 0 36 28">
<path fill="#444444" d="M5.031 13.234h-0.234q-0.297 0-0.297-0.281 0-0.438 0.297-1.328 0.078-0.234 0.234-0.305t0.438-0.070q1.203 0 1.203 0.766 0 0.641-0.477 0.93t-1.164 0.289zM10.375 15.75q-0.734 0-0.734-0.453 0-0.969 1.922-0.969l0.047 0.047q-0.078 1.375-1.234 1.375zM22.469 13.266h-0.234q-0.297 0-0.297-0.297 0-0.438 0.297-1.328 0.078-0.234 0.227-0.297t0.445-0.063q1.203 0 1.203 0.766 0 0.641-0.477 0.93t-1.164 0.289zM27.813 15.766q-0.734 0-0.734-0.469 0-0.969 1.922-0.969l0.047 0.047q-0.078 1.391-1.234 1.391zM5.828 10.031h-2q-0.125 0-0.227 0.063t-0.133 0.117-0.109 0.195q-0.047 0.109-0.703 2.969t-0.656 3q0 0.109 0.086 0.195t0.211 0.086h0.969q0.391 0 0.508-0.539l0.234-1.078t0.508-0.539q0.734 0 1.367-0.117t1.258-0.383 0.992-0.82 0.367-1.32q0-0.562-0.227-0.953t-0.641-0.57-0.836-0.242-0.969-0.063zM11.234 11.531q-0.594 0-1.156 0.094-0.031 0-0.133 0.016t-0.141 0.023l-0.117 0.023t-0.117 0.031-0.102 0.047-0.102 0.063-0.078 0.078-0.070 0.109-0.063 0.141q-0.141 0.453-0.141 0.609t0.141 0.156q0.078 0 0.336-0.078t0.305-0.094q0.469-0.125 0.906-0.125 1.156 0 1.156 0.562 0 0.172-0.156 0.219-0.125 0.031-0.281 0.047t-0.336 0.023-0.273 0.023q-0.594 0.063-1.008 0.156t-0.883 0.305-0.711 0.609-0.242 0.977q0 0.594 0.406 0.93t1 0.336q0.375 0 0.711-0.102t0.516-0.203 0.602-0.367q-0.047 0.109-0.047 0.234t0.086 0.211 0.195 0.086h0.875q0.016-0.016 0.109-0.055t0.117-0.055 0.078-0.055 0.078-0.086 0.039-0.125l0.703-3.031q0.063-0.203 0.063-0.469 0-1.266-2.266-1.266zM19.484 11.609h-1.156q-0.344 0-0.609 0.359-0.078 0.109-0.461 0.797t-0.727 1.273-0.406 0.602l-0.078-0.063q0-1.203-0.422-2.594-0.016-0.078-0.055-0.133t-0.094-0.102-0.102-0.078-0.133-0.047-0.133-0.023-0.148-0.016-0.141-0.008h-0.289q-0.594 0-0.594 0.328l0.016 0.078q0.078 0.828 0.391 2.359t0.391 2.234q0.031 0.25 0.031 0.375 0 0.297-0.477 0.961t-0.477 0.914q0 0.203 0.625 0.203 0.953 0 1.188-0.391l3.828-6.484q0.156-0.313 0.156-0.406 0-0.141-0.125-0.141zM23.266 10.063h-2.016q-0.281 0-0.453 0.359-0.094 0.203-0.727 2.992t-0.633 2.977q0 0.313 0.672 0.313h0.398t0.148-0.016 0.133-0.031 0.133-0.047 0.102-0.070 0.086-0.094 0.047-0.133l0.328-1.422q0.031-0.156 0.164-0.266t0.305-0.109q0.734 0 1.367-0.109t1.258-0.383 0.992-0.82 0.367-1.313q0-0.562-0.227-0.953t-0.641-0.57-0.836-0.242-0.969-0.063zM28.672 11.531q-0.406 0-1.156 0.094-0.594 0.094-0.75 0.25-0.109 0.125-0.172 0.297-0.125 0.375-0.125 0.609 0 0.156 0.125 0.156 0.016 0 0.641-0.187 0.469-0.125 0.906-0.125 1.156 0 1.156 0.562 0 0.187-0.156 0.219-0.063 0.016-0.891 0.109-0.594 0.063-1.008 0.156t-0.883 0.305-0.711 0.609-0.242 0.977 0.406 0.914 1 0.336q0.375 0 0.703-0.094t0.531-0.203 0.594-0.375q-0.047 0.234-0.047 0.25 0 0.078 0.031 0.133t0.102 0.086 0.125 0.055 0.164 0.031 0.148 0.008h0.273q0.656 0 0.75-0.391l0.703-3.031q0.047-0.234 0.047-0.484 0-1.266-2.266-1.266zM33.703 10.109h-0.859q-0.391 0-0.516 0.625-0.156 0.688-0.57 2.609t-0.664 2.969v0.078q0 0.25 0.25 0.281h0.906q0.156 0 0.289-0.102t0.164-0.258l1.297-5.844h-0.016l0.016-0.078q0-0.109-0.086-0.195t-0.211-0.086zM36 4v20q0 0.812-0.594 1.406t-1.406 0.594h-32q-0.812 0-1.406-0.594t-0.594-1.406v-20q0-0.812 0.594-1.406t1.406-0.594h32q0.812 0 1.406 0.594t0.594 1.406z"></path>
</svg>
