<?xml version="1.0" encoding="utf-8"?>
<!-- Generated by IcoMoon.io -->
<!DOCTYPE svg PUBLIC "-//W3C//DTD SVG 1.1//EN" "http://www.w3.org/Graphics/SVG/1.1/DTD/svg11.dtd">
<svg version="1.1" xmlns="http://www.w3.org/2000/svg" xmlns:xlink="http://www.w3.org/1999/xlink" width="36" height="28" viewBox="0 0 36 28">
<path fill="#444444" d="M30.859 15.469h-2.156q0.219-0.578 1.031-2.797l0.047-0.141q0.063-0.156 0.156-0.406t0.141-0.406l0.187 0.859zM8.297 14.453l-0.906-4.609q-0.172-0.844-1.172-0.844h-4.188l-0.031 0.203q4.859 1.234 6.297 5.25zM11.094 9l-2.531 6.844-0.266-1.391q-0.406-1.094-1.328-2.023t-2.047-1.383l2.109 7.969h2.734l4.078-10.016h-2.75zM13.266 19.031h2.594l1.625-10.031h-2.594zM25.266 9.25q-1.078-0.422-2.328-0.422-1.922 0-3.141 0.922t-1.234 2.391q-0.016 1.594 2.266 2.719 0.75 0.359 1.047 0.641t0.297 0.609q0 0.469-0.469 0.719t-1.078 0.25q-1.344 0-2.438-0.516l-0.344-0.172-0.359 2.25q1.156 0.531 2.891 0.531 2.031 0.016 3.258-0.922t1.258-2.5q0-1.656-2.188-2.719-0.766-0.391-1.109-0.656t-0.344-0.594q0-0.344 0.383-0.602t1.102-0.258q1.094-0.016 1.937 0.375l0.234 0.125zM31.906 9h-2q-1.016 0-1.359 0.844l-3.844 9.188h2.719l0.547-1.5h3.313q0.078 0.344 0.313 1.5h2.406zM36 4v20q0 0.812-0.594 1.406t-1.406 0.594h-32q-0.812 0-1.406-0.594t-0.594-1.406v-20q0-0.812 0.594-1.406t1.406-0.594h32q0.812 0 1.406 0.594t0.594 1.406z"></path>
</svg>
