<?xml version="1.0" encoding="utf-8"?>
<!-- Generated by IcoMoon.io -->
<!DOCTYPE svg PUBLIC "-//W3C//DTD SVG 1.1//EN" "http://www.w3.org/Graphics/SVG/1.1/DTD/svg11.dtd">
<svg version="1.1" xmlns="http://www.w3.org/2000/svg" xmlns:xlink="http://www.w3.org/1999/xlink" width="32" height="28" viewBox="0 0 32 28">
<path fill="#444444" d="M12.266 15.75h3.234q-0.219 2.469-1.539 3.883t-3.352 1.414q-2.531 0-3.977-1.813t-1.445-4.937q0-3.031 1.453-4.867t3.641-1.836q2.312 0 3.625 1.359t1.516 3.859h-3.172q-0.078-1-0.555-1.547t-1.273-0.547q-0.891 0-1.383 0.945t-0.492 2.773q0 0.75 0.078 1.313t0.281 1.086 0.625 0.805 1.031 0.281q1.484 0 1.703-2.172zM23.391 15.75h3.219q-0.219 2.469-1.531 3.883t-3.344 1.414q-2.531 0-3.977-1.813t-1.445-4.937q0-3.031 1.453-4.867t3.641-1.836q2.312 0 3.625 1.359t1.516 3.859h-3.187q-0.063-1-0.547-1.547t-1.266-0.547q-0.891 0-1.383 0.945t-0.492 2.773q0 0.75 0.078 1.313t0.281 1.086 0.617 0.805 1.023 0.281q0.766 0 1.195-0.594t0.523-1.578zM29 13.891q0-3.234-0.242-4.797t-0.945-2.516q-0.094-0.125-0.211-0.219t-0.336-0.234-0.25-0.172q-1.344-0.984-10.891-0.984-9.766 0-11.094 0.984-0.078 0.063-0.273 0.18t-0.328 0.219-0.227 0.227q-0.703 0.938-0.938 2.492t-0.234 4.82q0 3.25 0.234 4.805t0.938 2.508q0.094 0.125 0.234 0.234t0.32 0.219 0.273 0.187q0.688 0.516 3.742 0.766t7.352 0.25q9.531 0 10.891-1.016 0.078-0.063 0.266-0.172t0.32-0.219 0.211-0.25q0.719-0.938 0.953-2.484t0.234-4.828zM32 2v24h-32v-24h32z"></path>
</svg>
