<?xml version="1.0" encoding="utf-8"?>
<!-- Generated by IcoMoon.io -->
<!DOCTYPE svg PUBLIC "-//W3C//DTD SVG 1.1//EN" "http://www.w3.org/Graphics/SVG/1.1/DTD/svg11.dtd">
<svg version="1.1" xmlns="http://www.w3.org/2000/svg" xmlns:xlink="http://www.w3.org/1999/xlink" width="26" height="28" viewBox="0 0 26 28">
<path fill="#444444" d="M6.859 19.859l-4 4q-0.156 0.141-0.359 0.141-0.187 0-0.359-0.141-0.141-0.156-0.141-0.359t0.141-0.359l4-4q0.156-0.141 0.359-0.141t0.359 0.141q0.141 0.156 0.141 0.359t-0.141 0.359zM9.5 20.5v5q0 0.219-0.141 0.359t-0.359 0.141-0.359-0.141-0.141-0.359v-5q0-0.219 0.141-0.359t0.359-0.141 0.359 0.141 0.141 0.359zM6 17q0 0.219-0.141 0.359t-0.359 0.141h-5q-0.219 0-0.359-0.141t-0.141-0.359 0.141-0.359 0.359-0.141h5q0.219 0 0.359 0.141t0.141 0.359zM25.75 19q0 1.875-1.328 3.172l-2.297 2.281q-1.297 1.297-3.172 1.297-1.891 0-3.187-1.328l-5.219-5.234q-0.328-0.328-0.656-0.875l3.734-0.281 4.266 4.281q0.422 0.422 1.062 0.43t1.062-0.414l2.297-2.281q0.438-0.438 0.438-1.047 0-0.625-0.438-1.062l-4.281-4.297 0.281-3.734q0.547 0.328 0.875 0.656l5.25 5.25q1.313 1.344 1.313 3.187zM16.109 7.688l-3.734 0.281-4.266-4.281q-0.438-0.438-1.062-0.438-0.609 0-1.062 0.422l-2.297 2.281q-0.438 0.438-0.438 1.047 0 0.625 0.438 1.062l4.281 4.281-0.281 3.75q-0.547-0.328-0.875-0.656l-5.25-5.25q-1.313-1.344-1.313-3.187 0-1.875 1.328-3.172l2.297-2.281q1.297-1.297 3.172-1.297 1.891 0 3.187 1.328l5.219 5.234q0.328 0.328 0.656 0.875zM26 9q0 0.219-0.141 0.359t-0.359 0.141h-5q-0.219 0-0.359-0.141t-0.141-0.359 0.141-0.359 0.359-0.141h5q0.219 0 0.359 0.141t0.141 0.359zM17.5 0.5v5q0 0.219-0.141 0.359t-0.359 0.141-0.359-0.141-0.141-0.359v-5q0-0.219 0.141-0.359t0.359-0.141 0.359 0.141 0.141 0.359zM23.859 2.859l-4 4q-0.172 0.141-0.359 0.141t-0.359-0.141q-0.141-0.156-0.141-0.359t0.141-0.359l4-4q0.156-0.141 0.359-0.141t0.359 0.141q0.141 0.156 0.141 0.359t-0.141 0.359z"></path>
</svg>
