<?xml version="1.0" encoding="utf-8"?>
<!-- Generated by IcoMoon.io -->
<!DOCTYPE svg PUBLIC "-//W3C//DTD SVG 1.1//EN" "http://www.w3.org/Graphics/SVG/1.1/DTD/svg11.dtd">
<svg version="1.1" xmlns="http://www.w3.org/2000/svg" xmlns:xlink="http://www.w3.org/1999/xlink" width="28" height="28" viewBox="0 0 28 28">
<path fill="#444444" d="M10.703 20.297l9.594-9.594q0.297-0.297 0.297-0.703t-0.297-0.703l-1.594-1.594q-0.297-0.297-0.703-0.297t-0.703 0.297l-7.297 7.297-3.297-3.297q-0.297-0.297-0.703-0.297t-0.703 0.297l-1.594 1.594q-0.297 0.297-0.297 0.703t0.297 0.703l5.594 5.594q0.297 0.297 0.703 0.297t0.703-0.297zM24 6.5v15q0 1.859-1.32 3.18t-3.18 1.32h-15q-1.859 0-3.18-1.32t-1.32-3.18v-15q0-1.859 1.32-3.18t3.18-1.32h15q1.859 0 3.18 1.32t1.32 3.18z"></path>
</svg>
