<?xml version="1.0" encoding="utf-8"?>
<!-- Generated by IcoMoon.io -->
<!DOCTYPE svg PUBLIC "-//W3C//DTD SVG 1.1//EN" "http://www.w3.org/Graphics/SVG/1.1/DTD/svg11.dtd">
<svg version="1.1" xmlns="http://www.w3.org/2000/svg" xmlns:xlink="http://www.w3.org/1999/xlink" width="20" height="28" viewBox="0 0 20 28">
<path fill="#444444" d="M18.562 8.563l-4.562 4.562v12.875q0 0.719-0.516 1.234t-1.234 0.516-1.234-0.516-0.516-1.234v-6h-1v6q0 0.719-0.516 1.234t-1.234 0.516-1.234-0.516-0.516-1.234v-12.875l-4.562-4.562q-0.438-0.438-0.438-1.062t0.438-1.062 1.062-0.438 1.062 0.438l3.563 3.563h5.75l3.563-3.563q0.438-0.438 1.062-0.438t1.062 0.438 0.438 1.062-0.438 1.062zM13.5 6q0 1.453-1.023 2.477t-2.477 1.023-2.477-1.023-1.023-2.477 1.023-2.477 2.477-1.023 2.477 1.023 1.023 2.477z"></path>
</svg>
