<?xml version="1.0" encoding="utf-8"?>
<!-- Generated by IcoMoon.io -->
<!DOCTYPE svg PUBLIC "-//W3C//DTD SVG 1.1//EN" "http://www.w3.org/Graphics/SVG/1.1/DTD/svg11.dtd">
<svg version="1.1" xmlns="http://www.w3.org/2000/svg" xmlns:xlink="http://www.w3.org/1999/xlink" width="28" height="28" viewBox="0 0 28 28">
<path fill="#444444" d="M28 14q0 2.844-1.109 5.437t-2.984 4.469-4.469 2.984-5.437 1.109-5.437-1.109-4.469-2.984-2.984-4.469-1.109-5.437q0-3.469 1.578-6.477t4.32-4.953 6.102-2.43v4.062q-3.453 0.703-5.727 3.453t-2.273 6.344q0 2.031 0.797 3.883t2.133 3.187 3.187 2.133 3.883 0.797 3.883-0.797 3.187-2.133 2.133-3.187 0.797-3.883q0-3.594-2.273-6.344t-5.727-3.453v-4.062q3.359 0.484 6.102 2.43t4.32 4.953 1.578 6.477z"></path>
</svg>
