<?xml version="1.0" encoding="utf-8"?>
<!-- Generated by IcoMoon.io -->
<!DOCTYPE svg PUBLIC "-//W3C//DTD SVG 1.1//EN" "http://www.w3.org/Graphics/SVG/1.1/DTD/svg11.dtd">
<svg version="1.1" xmlns="http://www.w3.org/2000/svg" xmlns:xlink="http://www.w3.org/1999/xlink" width="16" height="28" viewBox="0 0 16 28">
<path fill="#444444" d="M9.422 24h-2.688q-0.203 0-0.352-0.141t-0.148-0.359v-5.156h-4.5q-0.203 0-0.352-0.141t-0.148-0.359v-1.609q0-0.203 0.148-0.352t0.352-0.148h4.5v-1.328h-4.5q-0.203 0-0.352-0.141t-0.148-0.359v-1.625q0-0.203 0.148-0.352t0.352-0.148h3.344l-5.016-9.031q-0.125-0.25 0-0.5 0.156-0.25 0.438-0.25h3.031q0.297 0 0.453 0.281l3.359 6.641q0.297 0.594 0.875 1.953 0.156-0.375 0.477-1.062t0.43-0.953l2.984-6.563q0.125-0.297 0.453-0.297h2.984q0.266 0 0.422 0.25 0.141 0.219 0.016 0.484l-4.891 9.047h3.359q0.203 0 0.352 0.148t0.148 0.352v1.625q0 0.219-0.148 0.359t-0.352 0.141h-4.531v1.328h4.531q0.203 0 0.352 0.148t0.148 0.352v1.609q0 0.219-0.148 0.359t-0.352 0.141h-4.531v5.156q0 0.203-0.148 0.352t-0.352 0.148z"></path>
</svg>
