<?xml version="1.0" encoding="utf-8"?>
<!-- Generated by IcoMoon.io -->
<!DOCTYPE svg PUBLIC "-//W3C//DTD SVG 1.1//EN" "http://www.w3.org/Graphics/SVG/1.1/DTD/svg11.dtd">
<svg version="1.1" xmlns="http://www.w3.org/2000/svg" xmlns:xlink="http://www.w3.org/1999/xlink" width="30" height="28" viewBox="0 0 30 28">
<path fill="#444444" d="M14 14q0-1.656-1.172-2.828t-2.828-1.172-2.828 1.172-1.172 2.828 1.172 2.828 2.828 1.172 2.828-1.172 1.172-2.828zM26 22q0-0.812-0.594-1.406t-1.406-0.594-1.406 0.594-0.594 1.406q0 0.828 0.586 1.414t1.414 0.586 1.414-0.586 0.586-1.414zM26 6q0-0.812-0.594-1.406t-1.406-0.594-1.406 0.594-0.594 1.406q0 0.828 0.586 1.414t1.414 0.586 1.414-0.586 0.586-1.414zM20 12.578v2.891q0 0.156-0.109 0.305t-0.25 0.164l-2.422 0.375q-0.172 0.547-0.5 1.188 0.531 0.75 1.406 1.797 0.109 0.156 0.109 0.313 0 0.187-0.109 0.297-0.359 0.469-1.289 1.398t-1.227 0.93q-0.172 0-0.328-0.109l-1.797-1.406q-0.578 0.297-1.203 0.484-0.172 1.687-0.359 2.422-0.109 0.375-0.469 0.375h-2.906q-0.172 0-0.313-0.117t-0.156-0.273l-0.359-2.391q-0.531-0.156-1.172-0.484l-1.844 1.391q-0.109 0.109-0.313 0.109-0.172 0-0.328-0.125-2.25-2.078-2.25-2.5 0-0.141 0.109-0.297 0.156-0.219 0.641-0.828t0.734-0.953q-0.359-0.688-0.547-1.281l-2.375-0.375q-0.156-0.016-0.266-0.148t-0.109-0.305v-2.891q0-0.156 0.109-0.305t0.25-0.164l2.422-0.375q0.172-0.547 0.5-1.188-0.531-0.75-1.406-1.797-0.109-0.172-0.109-0.313 0-0.187 0.109-0.313 0.344-0.469 1.281-1.391t1.234-0.922q0.172 0 0.328 0.109l1.797 1.406q0.531-0.281 1.203-0.5 0.172-1.687 0.359-2.406 0.109-0.375 0.469-0.375h2.906q0.172 0 0.313 0.117t0.156 0.273l0.359 2.391q0.531 0.156 1.172 0.484l1.844-1.391q0.125-0.109 0.313-0.109 0.172 0 0.328 0.125 2.25 2.078 2.25 2.5 0 0.141-0.109 0.297-0.187 0.25-0.656 0.844t-0.703 0.938q0.359 0.75 0.531 1.281l2.375 0.359q0.156 0.031 0.266 0.164t0.109 0.305zM30 20.906v2.188q0 0.25-2.328 0.484-0.187 0.422-0.469 0.812 0.797 1.766 0.797 2.156 0 0.063-0.063 0.109-1.906 1.109-1.937 1.109-0.125 0-0.719-0.734t-0.812-1.062q-0.313 0.031-0.469 0.031t-0.469-0.031q-0.219 0.328-0.812 1.062t-0.719 0.734q-0.031 0-1.937-1.109-0.063-0.047-0.063-0.109 0-0.391 0.797-2.156-0.281-0.391-0.469-0.812-2.328-0.234-2.328-0.484v-2.188q0-0.25 2.328-0.484 0.203-0.453 0.469-0.812-0.797-1.766-0.797-2.156 0-0.063 0.063-0.109 0.063-0.031 0.547-0.313t0.922-0.531 0.469-0.25q0.125 0 0.719 0.727t0.812 1.055q0.313-0.031 0.469-0.031t0.469 0.031q0.797-1.109 1.437-1.75l0.094-0.031q0.063 0 1.937 1.094 0.063 0.047 0.063 0.109 0 0.391-0.797 2.156 0.266 0.359 0.469 0.812 2.328 0.234 2.328 0.484zM30 4.906v2.187q0 0.25-2.328 0.484-0.187 0.422-0.469 0.812 0.797 1.766 0.797 2.156 0 0.063-0.063 0.109-1.906 1.109-1.937 1.109-0.125 0-0.719-0.734t-0.812-1.062q-0.313 0.031-0.469 0.031t-0.469-0.031q-0.219 0.328-0.812 1.062t-0.719 0.734q-0.031 0-1.937-1.109-0.063-0.047-0.063-0.109 0-0.391 0.797-2.156-0.281-0.391-0.469-0.812-2.328-0.234-2.328-0.484v-2.188q0-0.25 2.328-0.484 0.203-0.453 0.469-0.812-0.797-1.766-0.797-2.156 0-0.063 0.063-0.109 0.063-0.031 0.547-0.313t0.922-0.531 0.469-0.25q0.125 0 0.719 0.727t0.812 1.055q0.313-0.031 0.469-0.031t0.469 0.031q0.797-1.109 1.437-1.75l0.094-0.031q0.063 0 1.937 1.094 0.063 0.047 0.063 0.109 0 0.391-0.797 2.156 0.266 0.359 0.469 0.812 2.328 0.234 2.328 0.484z"></path>
</svg>
