<?xml version="1.0" encoding="utf-8"?>
<!-- Generated by IcoMoon.io -->
<!DOCTYPE svg PUBLIC "-//W3C//DTD SVG 1.1//EN" "http://www.w3.org/Graphics/SVG/1.1/DTD/svg11.dtd">
<svg version="1.1" xmlns="http://www.w3.org/2000/svg" xmlns:xlink="http://www.w3.org/1999/xlink" width="32" height="28" viewBox="0 0 32 28">
<path fill="#444444" d="M32 13.984q0 0.328-0.203 0.57t-0.516 0.305l-3.203 5.563q0.047 0.141 0.047 0.281 0 0.313-0.195 0.555t-0.508 0.305l-3.016 5.266q0.047 0.125 0.047 0.25 0 0.359-0.258 0.625t-0.633 0.266q-0.391 0-0.641-0.281h-6.25q-0.266 0.313-0.672 0.313t-0.672-0.313h-6.234q-0.266 0.313-0.672 0.313-0.359 0-0.625-0.258t-0.266-0.633q0-0.125 0.063-0.313l-3.016-5.234q-0.313-0.063-0.508-0.305t-0.195-0.555q0-0.141 0.047-0.281l-3.219-5.563q-0.313-0.078-0.508-0.32t-0.195-0.555q0-0.328 0.211-0.57t0.523-0.305l3.109-5.375q0-0.016-0.008-0.047t-0.008-0.047q0-0.562 0.531-0.797l3.266-5.672q-0.063-0.156-0.063-0.281 0-0.375 0.266-0.633t0.625-0.258q0.406 0 0.688 0.328h6.188q0.25-0.328 0.672-0.328t0.672 0.328h6.219q0.281-0.328 0.688-0.328 0.359 0 0.625 0.258t0.266 0.633q0 0.094-0.063 0.281l3.234 5.594q0.359 0.016 0.609 0.273t0.25 0.602q0 0.203-0.109 0.422l2.922 5.063q0.297 0.063 0.492 0.305t0.195 0.555zM16.609 26.469h6.078l-5.344-5.531h-2.234l-5.344 5.531h5.625q0.281-0.25 0.609-0.25t0.609 0.25zM1.75 13.781q0.016 0.063 0.016 0.203 0 0.156-0.031 0.234l3.25 5.625q0.031 0 0.070 0.016t0.086 0.039l0.078 0.039 2.938-3.109v-5.422l-2.922-3.031q-0.203 0.125-0.453 0.156zM15.406 1.531h-6.062l2.969 3.125 8.656-3.125h-4.375q-0.25 0.25-0.594 0.25t-0.594-0.25zM26.391 20.469q0.016-0.094 0.078-0.172l-1-1.062-0.266 1.234h1.188zM24.734 20.469l0.344-1.641-3.938-4.156-4.625 4.797 0.984 1h7.234zM23.359 26.219l0.25-0.438 1.016-4.844h-6.672l5.203 5.359q0.125-0.063 0.203-0.078zM9.031 26.469h0.078l5.344-5.531h-5.828v5.234l0.063 0.094q0.219 0.078 0.344 0.203zM8.625 20.469h6.281l1-1.031-4.828-5.016-2.453 2.594v3.453zM5.609 20.469h2.547v-2.953l-2.625 2.766q0.063 0.125 0.078 0.187zM5.594 7.578q0 0.016 0.008 0.031t0.008 0.031q0 0.25-0.125 0.453l2.672 2.766v-4.203zM8.625 6.484v4.859l2.391 2.453 4.641-4.906-3.484-3.687zM8.687 1.734l-0.063 0.125v4.125l3.203-1.156-2.984-3.141q-0.094 0.031-0.156 0.047zM22.609 1.531h-0.25l-9.703 3.5 3.328 3.516zM15.984 9.219l-4.641 4.922 4.859 4.984 4.625-4.797zM10.75 14.094l-2.125-2.203v4.438zM16.219 19.781l-0.656 0.688h1.328zM21.469 14.344l3.719 3.922 2.063-9.75-0.047-0.078-0.016-0.016zM26.844 8.094q-0.125-0.203-0.125-0.453v-0.031l-3.375-5.875q-0.078-0.016-0.203-0.078l-6.828 7.234 4.844 5.109zM8.156 6.156v-3.484l-2.547 4.406zM8.156 20.937h-2.547l2.547 4.422v-4.422zM25.109 20.937l-0.75 3.547 2.031-3.547h-1.281zM27.016 19.844l3.234-5.641q-0.031-0.156-0.031-0.219 0-0.016 0.047-0.25l-2.672-4.625-2.016 9.562 1.203 1.281q0.078-0.047 0.234-0.109z"></path>
</svg>
