<?xml version="1.0" encoding="utf-8"?>
<!-- Generated by IcoMoon.io -->
<!DOCTYPE svg PUBLIC "-//W3C//DTD SVG 1.1//EN" "http://www.w3.org/Graphics/SVG/1.1/DTD/svg11.dtd">
<svg version="1.1" xmlns="http://www.w3.org/2000/svg" xmlns:xlink="http://www.w3.org/1999/xlink" width="28" height="28" viewBox="0 0 28 28">
<path fill="#444444" d="M26.5 6q0.625 0 1.062 0.438t0.438 1.062v19q0 0.625-0.438 1.062t-1.062 0.438h-15q-0.625 0-1.062-0.438t-0.438-1.062v-4.5h-8.5q-0.625 0-1.062-0.438t-0.438-1.062v-10.5q0-0.625 0.313-1.375t0.75-1.188l6.375-6.375q0.438-0.438 1.188-0.75t1.375-0.313h6.5q0.625 0 1.062 0.438t0.438 1.062v5.125q1.062-0.625 2-0.625h6.5zM18 9.328l-4.672 4.672h4.672v-4.672zM8 3.328l-4.672 4.672h4.672v-4.672zM11.062 13.438l4.937-4.937v-6.5h-6v6.5q0 0.625-0.438 1.062t-1.062 0.438h-6.5v10h8v-4q0-0.625 0.313-1.375t0.75-1.188zM26 26v-18h-6v6.5q0 0.625-0.438 1.062t-1.062 0.438h-6.5v10h14z"></path>
</svg>
