<?xml version="1.0" encoding="utf-8"?>
<!-- Generated by IcoMoon.io -->
<!DOCTYPE svg PUBLIC "-//W3C//DTD SVG 1.1//EN" "http://www.w3.org/Graphics/SVG/1.1/DTD/svg11.dtd">
<svg version="1.1" xmlns="http://www.w3.org/2000/svg" xmlns:xlink="http://www.w3.org/1999/xlink" width="28" height="28" viewBox="0 0 28 28">
<path fill="#444444" d="M17.969 16.781v1.703q0 0.781-0.57 1.391t-1.469 0.945-1.844 0.508-1.836 0.172q-3.203 0-5.352-2.172t-2.148-5.406q0-3.172 2.125-5.297t5.297-2.125q0.531 0 1.18 0.070t1.453 0.281 1.445 0.531 1.078 0.883 0.438 1.266v1.703q0 0.25-0.25 0.25h-1.844q-0.25 0-0.25-0.25v-1.094q0-0.672-1.023-1.055t-2.148-0.383q-2.188 0-3.57 1.43t-1.383 3.711q0 2.359 1.43 3.898t3.648 1.539q1.062 0 2.156-0.375t1.094-1.031v-1.094q0-0.109 0.070-0.18t0.164-0.070h1.859q0.094 0 0.172 0.070t0.078 0.18zM12 4q-2.031 0-3.883 0.797t-3.187 2.133-2.133 3.187-0.797 3.883 0.797 3.883 2.133 3.187 3.187 2.133 3.883 0.797 3.883-0.797 3.187-2.133 2.133-3.187 0.797-3.883-0.797-3.883-2.133-3.187-3.187-2.133-3.883-0.797zM24 14q0 3.266-1.609 6.023t-4.367 4.367-6.023 1.609-6.023-1.609-4.367-4.367-1.609-6.023 1.609-6.023 4.367-4.367 6.023-1.609 6.023 1.609 4.367 4.367 1.609 6.023z"></path>
</svg>
