<?xml version="1.0" encoding="utf-8"?>
<!-- Generated by IcoMoon.io -->
<!DOCTYPE svg PUBLIC "-//W3C//DTD SVG 1.1//EN" "http://www.w3.org/Graphics/SVG/1.1/DTD/svg11.dtd">
<svg version="1.1" xmlns="http://www.w3.org/2000/svg" xmlns:xlink="http://www.w3.org/1999/xlink" width="30" height="28" viewBox="0 0 30 28">
<path fill="#444444" d="M27.5 2q1.031 0 1.766 0.734t0.734 1.766v19q0 1.031-0.734 1.766t-1.766 0.734h-25q-1.031 0-1.766-0.734t-0.734-1.766v-19q0-1.031 0.734-1.766t1.766-0.734h25zM2.5 4q-0.203 0-0.352 0.148t-0.148 0.352v3.5h26v-3.5q0-0.203-0.148-0.352t-0.352-0.148h-25zM27.5 24q0.203 0 0.352-0.148t0.148-0.352v-9.5h-26v9.5q0 0.203 0.148 0.352t0.352 0.148h25zM4 22v-2h4v2h-4zM10 22v-2h6v2h-6z"></path>
</svg>
