<?xml version="1.0" encoding="utf-8"?>
<!-- Generated by IcoMoon.io -->
<!DOCTYPE svg PUBLIC "-//W3C//DTD SVG 1.1//EN" "http://www.w3.org/Graphics/SVG/1.1/DTD/svg11.dtd">
<svg version="1.1" xmlns="http://www.w3.org/2000/svg" xmlns:xlink="http://www.w3.org/1999/xlink" width="28" height="28" viewBox="0 0 28 28">
<path fill="#444444" d="M18.703 16h-1.703q-0.406 0-0.703-0.297t-0.297-0.703v-2q0-0.406 0.297-0.703t0.703-0.297h1.703q-0.5-1.687-1.758-2.945t-2.945-1.758v1.703q0 0.406-0.297 0.703t-0.703 0.297h-2q-0.406 0-0.703-0.297t-0.297-0.703v-1.703q-1.687 0.5-2.945 1.758t-1.758 2.945h1.703q0.406 0 0.703 0.297t0.297 0.703v2q0 0.406-0.297 0.703t-0.703 0.297h-1.703q0.5 1.687 1.758 2.945t2.945 1.758v-1.703q0-0.406 0.297-0.703t0.703-0.297h2q0.406 0 0.703 0.297t0.297 0.703v1.703q1.687-0.5 2.945-1.758t1.758-2.945zM24 13v2q0 0.406-0.297 0.703t-0.703 0.297h-2.234q-0.578 2.516-2.414 4.352t-4.352 2.414v2.234q0 0.406-0.297 0.703t-0.703 0.297h-2q-0.406 0-0.703-0.297t-0.297-0.703v-2.234q-2.516-0.578-4.352-2.414t-2.414-4.352h-2.234q-0.406 0-0.703-0.297t-0.297-0.703v-2q0-0.406 0.297-0.703t0.703-0.297h2.234q0.578-2.516 2.414-4.352t4.352-2.414v-2.234q0-0.406 0.297-0.703t0.703-0.297h2q0.406 0 0.703 0.297t0.297 0.703v2.234q2.516 0.578 4.352 2.414t2.414 4.352h2.234q0.406 0 0.703 0.297t0.297 0.703z"></path>
</svg>
