<?xml version="1.0" encoding="utf-8"?>
<!-- Generated by IcoMoon.io -->
<!DOCTYPE svg PUBLIC "-//W3C//DTD SVG 1.1//EN" "http://www.w3.org/Graphics/SVG/1.1/DTD/svg11.dtd">
<svg version="1.1" xmlns="http://www.w3.org/2000/svg" xmlns:xlink="http://www.w3.org/1999/xlink" width="28" height="28" viewBox="0 0 28 28">
<path fill="#444444" d="M14 25.453l10-5.453v-9.938l-10 3.641v11.75zM13 11.937l10.906-3.969-10.906-3.969-10.906 3.969zM26 8v12q0 0.547-0.281 1.016t-0.766 0.734l-11 6q-0.438 0.25-0.953 0.25t-0.953-0.25l-11-6q-0.484-0.266-0.766-0.734t-0.281-1.016v-12q0-0.625 0.359-1.141t0.953-0.734l11-4q0.344-0.125 0.688-0.125t0.688 0.125l11 4q0.594 0.219 0.953 0.734t0.359 1.141z"></path>
</svg>
