<?xml version="1.0" encoding="utf-8"?>
<!-- Generated by IcoMoon.io -->
<!DOCTYPE svg PUBLIC "-//W3C//DTD SVG 1.1//EN" "http://www.w3.org/Graphics/SVG/1.1/DTD/svg11.dtd">
<svg version="1.1" xmlns="http://www.w3.org/2000/svg" xmlns:xlink="http://www.w3.org/1999/xlink" width="36" height="28" viewBox="0 0 36 28">
<path fill="#444444" d="M10 25.5l6-3v-4.906l-6 2.562v5.344zM9 18.406l6.312-2.703-6.312-2.703-6.312 2.703zM26 25.5l6-3v-4.906l-6 2.562v5.344zM25 18.406l6.312-2.703-6.312-2.703-6.312 2.703zM18 13.828l6-2.578v-4.156l-6 2.562v4.172zM17 7.906l6.891-2.953-6.891-2.953-6.891 2.953zM34 16v6.5q0 0.562-0.297 1.047t-0.812 0.734l-7 3.5q-0.391 0.219-0.891 0.219t-0.891-0.219l-7-3.5q-0.078-0.031-0.109-0.063-0.031 0.031-0.109 0.063l-7 3.5q-0.391 0.219-0.891 0.219t-0.891-0.219l-7-3.5q-0.516-0.25-0.812-0.734t-0.297-1.047v-6.5q0-0.594 0.336-1.094t0.883-0.75l6.781-2.906v-6.25q0-0.594 0.336-1.094t0.883-0.75l7-3q0.359-0.156 0.781-0.156t0.781 0.156l7 3q0.547 0.25 0.883 0.75t0.336 1.094v6.25l6.781 2.906q0.562 0.25 0.891 0.75t0.328 1.094z"></path>
</svg>
