<?xml version="1.0" encoding="utf-8"?>
<!-- Generated by IcoMoon.io -->
<!DOCTYPE svg PUBLIC "-//W3C//DTD SVG 1.1//EN" "http://www.w3.org/Graphics/SVG/1.1/DTD/svg11.dtd">
<svg version="1.1" xmlns="http://www.w3.org/2000/svg" xmlns:xlink="http://www.w3.org/1999/xlink" width="28" height="28" viewBox="0 0 28 28">
<path fill="#444444" d="M15 14q0.406 0 0.703 0.297t0.297 0.703-0.297 0.703-0.703 0.297-0.703-0.297-0.297-0.703 0.297-0.703 0.703-0.297zM19.688 15l7.922 6.219q0.438 0.313 0.391 0.875-0.078 0.547-0.547 0.797l-2 1q-0.203 0.109-0.453 0.109-0.266 0-0.484-0.125l-10.781-6.047-1.719 1.031q-0.125 0.063-0.187 0.078 0.219 0.766 0.156 1.516-0.109 1.203-0.875 2.305t-2.063 1.93q-2.063 1.313-4.328 1.313-2.125 0-3.469-1.219-1.406-1.313-1.234-3.234 0.109-1.188 0.875-2.297t2.047-1.937q2.063-1.313 4.344-1.313 1.297 0 2.359 0.484 0.141-0.203 0.344-0.344l1.906-1.141-1.906-1.141q-0.203-0.141-0.344-0.344-1.062 0.484-2.359 0.484-2.281 0-4.344-1.313-1.281-0.828-2.047-1.937t-0.875-2.297q-0.078-0.922 0.242-1.766t0.992-1.453q1.328-1.234 3.469-1.234 2.266 0 4.328 1.313 1.297 0.812 2.063 1.922t0.875 2.312q0.063 0.75-0.156 1.516 0.063 0.016 0.187 0.078l1.719 1.031 10.781-6.047q0.219-0.125 0.484-0.125 0.25 0 0.453 0.109l2 1q0.469 0.25 0.547 0.797 0.047 0.562-0.391 0.875zM9.047 10.938q0.719-0.656 0.328-1.687t-1.656-1.828q-1.437-0.922-3-0.922-1.156 0-1.766 0.562-0.719 0.656-0.328 1.687t1.656 1.828q1.437 0.922 3 0.922 1.156 0 1.766-0.562zM7.719 22.578q1.266-0.797 1.656-1.828t-0.328-1.687q-0.609-0.562-1.766-0.562-1.563 0-3 0.922-1.266 0.797-1.656 1.828t0.328 1.687q0.609 0.562 1.766 0.562 1.563 0 3-0.922zM10.5 13l1.5 0.906v-0.172q0-0.562 0.516-0.875l0.219-0.125-1.234-0.734-0.406 0.406q-0.047 0.047-0.156 0.172t-0.187 0.187q-0.031 0.031-0.063 0.055t-0.047 0.039zM14 16.5l1.5 0.5 11.5-9-2-1-12 6.734v1.766l-2.5 1.5 0.141 0.125q0.031 0.031 0.109 0.094 0.063 0.063 0.172 0.187t0.172 0.187l0.406 0.406zM25 23l2-1-8.125-6.375-2.766 2.156q-0.031 0.047-0.203 0.109z"></path>
</svg>
