<?xml version="1.0" encoding="utf-8"?>
<!-- Generated by IcoMoon.io -->
<!DOCTYPE svg PUBLIC "-//W3C//DTD SVG 1.1//EN" "http://www.w3.org/Graphics/SVG/1.1/DTD/svg11.dtd">
<svg version="1.1" xmlns="http://www.w3.org/2000/svg" xmlns:xlink="http://www.w3.org/1999/xlink" width="22" height="28" viewBox="0 0 22 28">
<path fill="#444444" d="M10 1v10q0 0.953-0.555 1.734t-1.445 1.094v12.172q0 0.812-0.594 1.406t-1.406 0.594h-2q-0.812 0-1.406-0.594t-0.594-1.406v-12.172q-0.891-0.313-1.445-1.094t-0.555-1.734v-10q0-0.406 0.297-0.703t0.703-0.297 0.703 0.297 0.297 0.703v6.5q0 0.406 0.297 0.703t0.703 0.297 0.703-0.297 0.297-0.703v-6.5q0-0.406 0.297-0.703t0.703-0.297 0.703 0.297 0.297 0.703v6.5q0 0.406 0.297 0.703t0.703 0.297 0.703-0.297 0.297-0.703v-6.5q0-0.406 0.297-0.703t0.703-0.297 0.703 0.297 0.297 0.703zM22 1v25q0 0.812-0.594 1.406t-1.406 0.594h-2q-0.812 0-1.406-0.594t-0.594-1.406v-8h-3.5q-0.203 0-0.352-0.148t-0.148-0.352v-12.5q0-2.063 1.469-3.531t3.531-1.469h4q0.406 0 0.703 0.297t0.297 0.703z"></path>
</svg>
