<?xml version="1.0" encoding="utf-8"?>
<!-- Generated by IcoMoon.io -->
<!DOCTYPE svg PUBLIC "-//W3C//DTD SVG 1.1//EN" "http://www.w3.org/Graphics/SVG/1.1/DTD/svg11.dtd">
<svg version="1.1" xmlns="http://www.w3.org/2000/svg" xmlns:xlink="http://www.w3.org/1999/xlink" width="28" height="28" viewBox="0 0 28 28">
<path fill="#444444" d="M12 12q3.703 0 6.922-0.672t5.078-1.984v2.656q0 1.078-1.609 2t-4.375 1.461-6.016 0.539-6.016-0.539-4.375-1.461-1.609-2v-2.656q1.859 1.313 5.078 1.984t6.922 0.672zM12 24q3.703 0 6.922-0.672t5.078-1.984v2.656q0 1.078-1.609 2t-4.375 1.461-6.016 0.539-6.016-0.539-4.375-1.461-1.609-2v-2.656q1.859 1.313 5.078 1.984t6.922 0.672zM12 18q3.703 0 6.922-0.672t5.078-1.984v2.656q0 1.078-1.609 2t-4.375 1.461-6.016 0.539-6.016-0.539-4.375-1.461-1.609-2v-2.656q1.859 1.312 5.078 1.984t6.922 0.672zM12 0q3.25 0 6.016 0.539t4.375 1.461 1.609 2v2q0 1.078-1.609 2t-4.375 1.461-6.016 0.539-6.016-0.539-4.375-1.461-1.609-2v-2q0-1.078 1.609-2t4.375-1.461 6.016-0.539z"></path>
</svg>
