<?xml version="1.0" encoding="utf-8"?>
<!-- Generated by IcoMoon.io -->
<!DOCTYPE svg PUBLIC "-//W3C//DTD SVG 1.1//EN" "http://www.w3.org/Graphics/SVG/1.1/DTD/svg11.dtd">
<svg version="1.1" xmlns="http://www.w3.org/2000/svg" xmlns:xlink="http://www.w3.org/1999/xlink" width="28" height="28" viewBox="0 0 28 28">
<path fill="#444444" d="M6 8.5v9q0 0.203-0.148 0.352t-0.352 0.148q-0.219 0-0.359-0.141l-4.5-4.5q-0.141-0.141-0.141-0.359t0.141-0.359l4.5-4.5q0.141-0.141 0.359-0.141 0.203 0 0.352 0.148t0.148 0.352zM28 20.5v3q0 0.203-0.148 0.352t-0.352 0.148h-27q-0.203 0-0.352-0.148t-0.148-0.352v-3q0-0.203 0.148-0.352t0.352-0.148h27q0.203 0 0.352 0.148t0.148 0.352zM28 14.5v3q0 0.203-0.148 0.352t-0.352 0.148h-17q-0.203 0-0.352-0.148t-0.148-0.352v-3q0-0.203 0.148-0.352t0.352-0.148h17q0.203 0 0.352 0.148t0.148 0.352zM28 8.5v3q0 0.203-0.148 0.352t-0.352 0.148h-17q-0.203 0-0.352-0.148t-0.148-0.352v-3q0-0.203 0.148-0.352t0.352-0.148h17q0.203 0 0.352 0.148t0.148 0.352zM28 2.5v3q0 0.203-0.148 0.352t-0.352 0.148h-27q-0.203 0-0.352-0.148t-0.148-0.352v-3q0-0.203 0.148-0.352t0.352-0.148h27q0.203 0 0.352 0.148t0.148 0.352z"></path>
</svg>
