<?xml version="1.0" encoding="utf-8"?>
<!-- Generated by IcoMoon.io -->
<!DOCTYPE svg PUBLIC "-//W3C//DTD SVG 1.1//EN" "http://www.w3.org/Graphics/SVG/1.1/DTD/svg11.dtd">
<svg version="1.1" xmlns="http://www.w3.org/2000/svg" xmlns:xlink="http://www.w3.org/1999/xlink" width="30" height="28" viewBox="0 0 30 28">
<path fill="#444444" d="M28 15.5v-13q0-0.203-0.148-0.352t-0.352-0.148h-25q-0.203 0-0.352 0.148t-0.148 0.352v13q0 0.203 0.148 0.352t0.352 0.148h25q0.203 0 0.352-0.148t0.148-0.352zM30 2.5v17q0 1.031-0.734 1.766t-1.766 0.734h-8.5q0 0.578 0.25 1.211t0.5 1.109 0.25 0.68q0 0.406-0.297 0.703t-0.703 0.297h-8q-0.406 0-0.703-0.297t-0.297-0.703q0-0.219 0.25-0.688t0.5-1.094 0.25-1.219h-8.5q-1.031 0-1.766-0.734t-0.734-1.766v-17q0-1.031 0.734-1.766t1.766-0.734h25q1.031 0 1.766 0.734t0.734 1.766z"></path>
</svg>
