<?xml version="1.0" encoding="utf-8"?>
<!-- Generated by IcoMoon.io -->
<!DOCTYPE svg PUBLIC "-//W3C//DTD SVG 1.1//EN" "http://www.w3.org/Graphics/SVG/1.1/DTD/svg11.dtd">
<svg version="1.1" xmlns="http://www.w3.org/2000/svg" xmlns:xlink="http://www.w3.org/1999/xlink" width="32" height="28" viewBox="0 0 32 28">
<path fill="#444444" d="M3.313 12l9.734 10.391-4.688-10.391h-5.047zM16 24.063l5.453-12.063h-10.906zM8.406 10l3.187-6h-4.094l-4.5 6h5.406zM18.953 22.391l9.734-10.391h-5.047zM10.672 10h10.656l-3.187-6h-4.281zM23.594 10h5.406l-4.5-6h-4.094zM25.797 2.406l6 8q0.219 0.281 0.203 0.648t-0.266 0.633l-15 16q-0.281 0.313-0.734 0.313t-0.734-0.313l-15-16q-0.25-0.266-0.266-0.633t0.203-0.648l6-8q0.281-0.406 0.797-0.406h18q0.516 0 0.797 0.406z"></path>
</svg>
