<?xml version="1.0" encoding="utf-8"?>
<!-- Generated by IcoMoon.io -->
<!DOCTYPE svg PUBLIC "-//W3C//DTD SVG 1.1//EN" "http://www.w3.org/Graphics/SVG/1.1/DTD/svg11.dtd">
<svg version="1.1" xmlns="http://www.w3.org/2000/svg" xmlns:xlink="http://www.w3.org/1999/xlink" width="32" height="28" viewBox="0 0 32 28">
<path fill="#444444" d="M5.125 4.406h3.187v15.359h-8.313v-10.891h5.125v-4.469zM5.125 17.203v-5.766h-1.922v5.766h1.922zM9.594 8.875v10.891h3.203v-10.891h-3.203zM9.594 4.406v3.187h3.203v-3.187h-3.203zM14.078 8.875h8.328v14.719h-8.328v-2.547h5.125v-1.281h-5.125v-10.891zM19.203 17.203v-5.766h-1.922v5.766h1.922zM23.688 8.875h8.313v14.719h-8.313v-2.547h5.109v-1.281h-5.109v-10.891zM28.797 17.203v-5.766h-1.922v5.766h1.922z"></path>
</svg>
