<?xml version="1.0" encoding="utf-8"?>
<!-- Generated by IcoMoon.io -->
<!DOCTYPE svg PUBLIC "-//W3C//DTD SVG 1.1//EN" "http://www.w3.org/Graphics/SVG/1.1/DTD/svg11.dtd">
<svg version="1.1" xmlns="http://www.w3.org/2000/svg" xmlns:xlink="http://www.w3.org/1999/xlink" width="16" height="28" viewBox="0 0 16 28">
<path fill="#444444" d="M15.281 18.516q0 2.391-1.555 4.117t-4.039 2.133v2.734q0 0.219-0.141 0.359t-0.359 0.141h-2.109q-0.203 0-0.352-0.148t-0.148-0.352v-2.734q-1.031-0.141-1.992-0.484t-1.586-0.695-1.156-0.75-0.727-0.586-0.273-0.281q-0.266-0.328-0.031-0.641l1.609-2.109q0.109-0.156 0.359-0.187 0.234-0.031 0.375 0.141l0.031 0.031q1.766 1.547 3.797 1.953 0.578 0.125 1.156 0.125 1.266 0 2.227-0.672t0.961-1.906q0-0.438-0.234-0.828t-0.523-0.656-0.914-0.586-1.031-0.5-1.25-0.508q-0.609-0.25-0.961-0.391t-0.961-0.414-0.977-0.484-0.883-0.555-0.836-0.664-0.68-0.766-0.555-0.906-0.328-1.039-0.133-1.219q0-2.156 1.531-3.781t3.984-2.094v-2.812q0-0.203 0.148-0.352t0.352-0.148h2.109q0.219 0 0.359 0.141t0.141 0.359v2.75q0.891 0.094 1.727 0.359t1.359 0.523 0.992 0.586 0.609 0.453 0.234 0.219q0.266 0.281 0.078 0.594l-1.266 2.281q-0.125 0.234-0.359 0.25-0.219 0.047-0.422-0.109-0.047-0.047-0.227-0.187t-0.609-0.414-0.914-0.5-1.164-0.406-1.336-0.18q-1.484 0-2.422 0.672t-0.938 1.734q0 0.406 0.133 0.75t0.461 0.648 0.617 0.516 0.875 0.484 0.945 0.422 1.094 0.43q0.828 0.313 1.266 0.492t1.188 0.547 1.18 0.664 0.969 0.781 0.828 0.992 0.492 1.195 0.203 1.469z"></path>
</svg>
