<?xml version="1.0" encoding="utf-8"?>
<!-- Generated by IcoMoon.io -->
<!DOCTYPE svg PUBLIC "-//W3C//DTD SVG 1.1//EN" "http://www.w3.org/Graphics/SVG/1.1/DTD/svg11.dtd">
<svg version="1.1" xmlns="http://www.w3.org/2000/svg" xmlns:xlink="http://www.w3.org/1999/xlink" width="28" height="28" viewBox="0 0 28 28">
<path fill="#444444" d="M16 23.438q-0.656-3.766-2.188-7.781h-0.031l-0.031 0.016q-0.25 0.094-0.672 0.258t-1.578 0.766-2.141 1.281-2.047 1.789-1.609 2.312l-0.234-0.172q2.875 2.344 6.531 2.344 2.063 0 4-0.812zM13.109 13.953q-0.328-0.766-0.828-1.734-4.859 1.453-10.516 1.453-0.016 0.109-0.016 0.328 0 1.937 0.688 3.695t1.937 3.148q0.781-1.391 1.93-2.602t2.227-1.945 2.039-1.266 1.555-0.75l0.578-0.203q0.063-0.016 0.203-0.055t0.203-0.070zM11.438 10.641q-1.875-3.328-3.813-5.906-2.156 1.016-3.656 2.906t-2 4.25q4.719 0 9.469-1.25zM22.125 15.625q-3.281-0.938-6.391-0.453 1.359 3.734 2 7.328 1.734-1.172 2.891-2.961t1.5-3.914zM9.547 4.047q-0.016 0-0.031 0.016 0.016-0.016 0.031-0.016zM18.766 6.312q-2.891-2.562-6.766-2.562-1.188 0-2.422 0.297 2.047 2.656 3.844 5.969 1.078-0.406 2.031-0.945t1.508-0.961 1.023-0.891 0.586-0.633zM22.25 13.891q-0.047-3.625-2.328-6.406l-0.016 0.016q-0.141 0.187-0.297 0.383t-0.68 0.695-1.109 0.945-1.563 1.016-2.055 1.008q0.391 0.828 0.688 1.484 0.031 0.094 0.102 0.273t0.117 0.258q0.562-0.078 1.164-0.109t1.148-0.031 1.078 0.023 1 0.063 0.883 0.086 0.75 0.102 0.57 0.094 0.391 0.070zM24 14q0 3.266-1.609 6.023t-4.367 4.367-6.023 1.609-6.023-1.609-4.367-4.367-1.609-6.023 1.609-6.023 4.367-4.367 6.023-1.609 6.023 1.609 4.367 4.367 1.609 6.023z"></path>
</svg>
