<?xml version="1.0" encoding="utf-8"?>
<!-- Generated by IcoMoon.io -->
<!DOCTYPE svg PUBLIC "-//W3C//DTD SVG 1.1//EN" "http://www.w3.org/Graphics/SVG/1.1/DTD/svg11.dtd">
<svg version="1.1" xmlns="http://www.w3.org/2000/svg" xmlns:xlink="http://www.w3.org/1999/xlink" width="28" height="28" viewBox="0 0 28 28">
<path fill="#444444" d="M13.656 25.594v1.031q-3.25-0.094-6.016-1.711t-4.422-4.305l0.906-0.531q0.453 0.766 1.141 1.547l1.016-0.891q2.312 2.625 5.75 3.313l-0.266 1.344q1.016 0.187 1.891 0.203zM4.312 17.313l-1.297 0.438q0.344 0.938 0.766 1.75l-0.891 0.516q-1.531-2.812-1.531-6.016t1.531-6.016l0.891 0.516q-0.469 0.875-0.766 1.75l1.281 0.438q-0.547 1.563-0.547 3.313 0 1.703 0.562 3.313zM23.875 20.078l0.906 0.531q-1.656 2.688-4.422 4.305t-6.016 1.711v-1.031q0.875-0.016 1.891-0.203l-0.266-1.344q3.437-0.688 5.75-3.313l1.016 0.891q0.688-0.781 1.141-1.547zM21.516 11.422l-3.641 1.25q0.219 0.656 0.219 1.328t-0.219 1.328l3.625 1.25q-0.484 1.437-1.531 2.641l-2.891-2.531q-0.891 1.047-2.297 1.328l0.75 3.766q-0.812 0.156-1.531 0.156t-1.531-0.156l0.75-3.766q-1.406-0.281-2.297-1.328l-2.891 2.531q-1.047-1.203-1.531-2.641l3.625-1.25q-0.219-0.656-0.219-1.328t0.219-1.328l-3.641-1.25q0.516-1.453 1.547-2.641l2.891 2.531q0.922-1.062 2.297-1.344l-0.75-3.75q0.688-0.156 1.531-0.156t1.531 0.156l-0.75 3.75q1.375 0.281 2.297 1.344l2.891-2.531q1.031 1.188 1.547 2.641zM13.656 1.375v1.031q-1.016 0.031-1.891 0.203l0.266 1.344q-3.437 0.656-5.75 3.297l-1.016-0.875q-0.594 0.656-1.141 1.531l-0.891-0.516q1.656-2.688 4.406-4.305t6.016-1.711zM26.641 14q0 3.203-1.531 6.016l-0.891-0.516q0.422-0.812 0.766-1.75l-1.297-0.438q0.562-1.609 0.562-3.313 0-1.75-0.547-3.313l1.281-0.438q-0.297-0.875-0.766-1.75l0.891-0.516q1.531 2.812 1.531 6.016zM24.766 7.391l-0.891 0.516q-0.547-0.875-1.141-1.531l-1.016 0.875q-2.312-2.641-5.75-3.297l0.266-1.344q-0.875-0.172-1.891-0.203v-1.031q3.266 0.094 6.016 1.711t4.406 4.305zM27.312 14q0-2.703-1.055-5.172t-2.836-4.25-4.25-2.836-5.172-1.055-5.172 1.055-4.25 2.836-2.836 4.25-1.055 5.172 1.055 5.172 2.836 4.25 4.25 2.836 5.172 1.055 5.172-1.055 4.25-2.836 2.836-4.25 1.055-5.172zM28 14q0 2.844-1.109 5.437t-2.984 4.469-4.469 2.984-5.437 1.109-5.437-1.109-4.469-2.984-2.984-4.469-1.109-5.437 1.109-5.437 2.984-4.469 4.469-2.984 5.437-1.109 5.437 1.109 4.469 2.984 2.984 4.469 1.109 5.437z"></path>
</svg>
