<?xml version="1.0" encoding="utf-8"?>
<!-- Generated by IcoMoon.io -->
<!DOCTYPE svg PUBLIC "-//W3C//DTD SVG 1.1//EN" "http://www.w3.org/Graphics/SVG/1.1/DTD/svg11.dtd">
<svg version="1.1" xmlns="http://www.w3.org/2000/svg" xmlns:xlink="http://www.w3.org/1999/xlink" width="28" height="28" viewBox="0 0 28 28">
<path fill="#444444" d="M19.5 2q1.859 0 3.18 1.32t1.32 3.18v15q0 1.859-1.32 3.18t-3.18 1.32h-15q-1.859 0-3.18-1.32t-1.32-3.18v-15q0-1.859 1.32-3.18t3.18-1.32h15zM20 18.5v-6.813q-0.484 0.547-1 0.859-0.531 0.344-2.070 1.328t-2.367 1.547q-1.531 1.078-2.562 1.078v0 0q-1.031 0-2.562-1.078-0.719-0.5-2.211-1.445t-2.227-1.445q-0.187-0.125-0.516-0.422t-0.484-0.422v6.813q0 0.625 0.438 1.062t1.062 0.438h13q0.625 0 1.062-0.438t0.438-1.062zM20 9.547q0-0.641-0.43-1.094t-1.070-0.453h-13q-0.625 0-1.062 0.438t-0.438 1.062q0 0.578 0.477 1.195t1.055 1.008q0.734 0.5 2.148 1.391t2.023 1.297q0.047 0.031 0.266 0.18t0.328 0.219 0.328 0.203 0.367 0.203 0.336 0.148 0.352 0.117 0.32 0.039 0.32-0.039 0.352-0.117 0.336-0.148 0.367-0.203 0.328-0.203 0.328-0.219 0.266-0.18l4.172-2.719q0.547-0.359 1.039-0.977t0.492-1.148z"></path>
</svg>
