<?xml version="1.0" encoding="utf-8"?>
<!-- Generated by IcoMoon.io -->
<!DOCTYPE svg PUBLIC "-//W3C//DTD SVG 1.1//EN" "http://www.w3.org/Graphics/SVG/1.1/DTD/svg11.dtd">
<svg version="1.1" xmlns="http://www.w3.org/2000/svg" xmlns:xlink="http://www.w3.org/1999/xlink" width="16" height="28" viewBox="0 0 16 28">
<path fill="#444444" d="M15.25 20.422l0.547 2.484q0.047 0.187-0.047 0.352t-0.266 0.227l-0.078 0.016q-0.063 0.031-0.164 0.055t-0.25 0.070-0.336 0.086-0.398 0.078-0.469 0.078-0.523 0.070-0.57 0.047-0.602 0.016q-3.656 0-6.391-2.039t-3.719-5.492h-1.484q-0.203 0-0.352-0.148t-0.148-0.352v-1.766q0-0.203 0.148-0.352t0.352-0.148h1.031q-0.031-0.891 0.016-1.641h-1.047q-0.219 0-0.359-0.141t-0.141-0.359v-1.781q0-0.219 0.141-0.359t0.359-0.141h1.531q1.047-3.281 3.805-5.281t6.258-2q1.594 0 3.031 0.359 0.172 0.047 0.313 0.234 0.094 0.172 0.047 0.375l-0.672 2.484q-0.047 0.203-0.219 0.305t-0.375 0.039l-0.063-0.016q-0.063-0.016-0.18-0.039l-0.273-0.055t-0.352-0.055-0.406-0.047-0.453-0.039-0.461-0.016q-1.969 0-3.531 1t-2.344 2.75h7.313q0.25 0 0.391 0.187 0.156 0.187 0.109 0.406l-0.375 1.781q-0.078 0.406-0.5 0.406h-7.625q-0.047 0.578 0 1.641h7.172q0.234 0 0.391 0.187 0.141 0.187 0.094 0.422l-0.375 1.75q-0.031 0.172-0.172 0.289t-0.313 0.117h-6.047q0.75 1.828 2.336 2.898t3.57 1.070q0.281 0 0.562-0.023t0.523-0.055 0.461-0.070 0.383-0.078 0.289-0.070l0.187-0.047 0.078-0.031q0.203-0.078 0.406 0.031 0.187 0.109 0.234 0.328z"></path>
</svg>
