<?xml version="1.0" encoding="utf-8"?>
<!-- Generated by IcoMoon.io -->
<!DOCTYPE svg PUBLIC "-//W3C//DTD SVG 1.1//EN" "http://www.w3.org/Graphics/SVG/1.1/DTD/svg11.dtd">
<svg version="1.1" xmlns="http://www.w3.org/2000/svg" xmlns:xlink="http://www.w3.org/1999/xlink" width="10" height="28" viewBox="0 0 10 28">
<path fill="#444444" d="M8 19.5v3.5q0 0.406-0.297 0.703t-0.703 0.297h-4q-0.406 0-0.703-0.297t-0.297-0.703v-3.5q0-0.406 0.297-0.703t0.703-0.297h4q0.406 0 0.703 0.297t0.297 0.703zM8.469 3l-0.438 12q-0.016 0.406-0.32 0.703t-0.711 0.297h-4q-0.406 0-0.711-0.297t-0.32-0.703l-0.438-12q-0.016-0.406 0.273-0.703t0.695-0.297h5q0.406 0 0.695 0.297t0.273 0.703z"></path>
</svg>
