<?xml version="1.0" encoding="utf-8"?>
<!-- Generated by IcoMoon.io -->
<!DOCTYPE svg PUBLIC "-//W3C//DTD SVG 1.1//EN" "http://www.w3.org/Graphics/SVG/1.1/DTD/svg11.dtd">
<svg version="1.1" xmlns="http://www.w3.org/2000/svg" xmlns:xlink="http://www.w3.org/1999/xlink" width="28" height="28" viewBox="0 0 28 28">
<path fill="#444444" d="M8.672 20.859l1.219-2.203q-1.359-0.984-2.125-2.484t-0.766-3.172q0-1.891 0.953-3.516-3.578 1.828-5.953 5.516 2.609 4.031 6.672 5.859zM14.75 9q0-0.313-0.219-0.531t-0.531-0.219q-1.953 0-3.352 1.398t-1.398 3.352q0 0.313 0.219 0.531t0.531 0.219 0.531-0.219 0.219-0.531q0-1.344 0.953-2.297t2.297-0.953q0.313 0 0.531-0.219t0.219-0.531zM20.422 6.016q0 0.109-0.016 0.141-1.641 2.938-4.922 8.844t-4.937 8.859l-0.766 1.391q-0.156 0.25-0.438 0.25-0.187 0-2.094-1.094-0.25-0.156-0.25-0.438 0-0.187 0.688-1.359-2.234-1.016-4.117-2.703t-3.258-3.828q-0.313-0.484-0.313-1.078t0.313-1.078q2.391-3.672 5.938-5.797t7.75-2.125q1.391 0 2.812 0.266l0.844-1.516q0.156-0.25 0.438-0.25 0.078 0 0.281 0.094t0.484 0.242 0.516 0.289 0.492 0.289 0.305 0.18q0.25 0.156 0.25 0.422zM21 13q0 2.172-1.234 3.961t-3.266 2.57l4.375-7.844q0.125 0.703 0.125 1.313zM28 15q0 0.547-0.313 1.078-0.609 1-1.703 2.266-2.344 2.688-5.43 4.172t-6.555 1.484l1.156-2.063q3.313-0.281 6.133-2.141t4.711-4.797q-1.797-2.797-4.406-4.594l0.984-1.75q1.484 1 2.852 2.391t2.258 2.875q0.313 0.531 0.313 1.078z"></path>
</svg>
