<?xml version="1.0" encoding="utf-8"?>
<!-- Generated by IcoMoon.io -->
<!DOCTYPE svg PUBLIC "-//W3C//DTD SVG 1.1//EN" "http://www.w3.org/Graphics/SVG/1.1/DTD/svg11.dtd">
<svg version="1.1" xmlns="http://www.w3.org/2000/svg" xmlns:xlink="http://www.w3.org/1999/xlink" width="28" height="28" viewBox="0 0 28 28">
<path fill="#444444" d="M26 15q-2.375-3.687-5.953-5.516 0.953 1.625 0.953 3.516 0 2.891-2.055 4.945t-4.945 2.055-4.945-2.055-2.055-4.945q0-1.891 0.953-3.516-3.578 1.828-5.953 5.516 2.078 3.203 5.211 5.102t6.789 1.898 6.789-1.898 5.211-5.102zM14.75 9q0-0.313-0.219-0.531t-0.531-0.219q-1.953 0-3.352 1.398t-1.398 3.352q0 0.313 0.219 0.531t0.531 0.219 0.531-0.219 0.219-0.531q0-1.344 0.953-2.297t2.297-0.953q0.313 0 0.531-0.219t0.219-0.531zM28 15q0 0.531-0.313 1.078-2.188 3.594-5.883 5.758t-7.805 2.164-7.805-2.172-5.883-5.75q-0.313-0.547-0.313-1.078t0.313-1.078q2.188-3.578 5.883-5.75t7.805-2.172 7.805 2.172 5.883 5.75q0.313 0.547 0.313 1.078z"></path>
</svg>
