<?xml version="1.0" encoding="utf-8"?>
<!-- Generated by IcoMoon.io -->
<!DOCTYPE svg PUBLIC "-//W3C//DTD SVG 1.1//EN" "http://www.w3.org/Graphics/SVG/1.1/DTD/svg11.dtd">
<svg version="1.1" xmlns="http://www.w3.org/2000/svg" xmlns:xlink="http://www.w3.org/1999/xlink" width="28" height="28" viewBox="0 0 28 28">
<path fill="#444444" d="M26.531 1.469q1.469 1.469 1.469 3.539t-1.469 3.523l-3.516 3.484 1.625 1.625q0.156 0.156 0.156 0.359t-0.156 0.359l-3.281 3.281q-0.156 0.156-0.359 0.156t-0.359-0.156l-1.641-1.641-9.422 9.422q-0.578 0.578-1.406 0.578h-3.172l-4 2-1-1 2-4v-3.172q0-0.828 0.578-1.406l9.422-9.422-1.641-1.641q-0.156-0.156-0.156-0.359t0.156-0.359l3.281-3.281q0.156-0.156 0.359-0.156t0.359 0.156l1.625 1.625 3.484-3.516q1.453-1.469 3.523-1.469t3.539 1.469zM8 23l9-9-3-3-9 9v3h3z"></path>
</svg>
