<?xml version="1.0" encoding="utf-8"?>
<!-- Generated by IcoMoon.io -->
<!DOCTYPE svg PUBLIC "-//W3C//DTD SVG 1.1//EN" "http://www.w3.org/Graphics/SVG/1.1/DTD/svg11.dtd">
<svg version="1.1" xmlns="http://www.w3.org/2000/svg" xmlns:xlink="http://www.w3.org/1999/xlink" width="28" height="28" viewBox="0 0 28 28">
<path fill="#444444" d="M27.297 2.203q0.297-0.297 0.5-0.203t0.203 0.5v23q0 0.406-0.203 0.5t-0.5-0.203l-11.094-11.094q-0.141-0.141-0.203-0.297v11.094q0 0.406-0.203 0.5t-0.5-0.203l-11.094-11.094q-0.141-0.141-0.203-0.297v10.594q0 0.406-0.297 0.703t-0.703 0.297h-2q-0.406 0-0.703-0.297t-0.297-0.703v-22q0-0.406 0.297-0.703t0.703-0.297h2q0.406 0 0.703 0.297t0.297 0.703v10.594q0.063-0.172 0.203-0.297l11.094-11.094q0.297-0.297 0.5-0.203t0.203 0.5v11.094q0.063-0.172 0.203-0.297z"></path>
</svg>
