<?xml version="1.0" encoding="utf-8"?>
<!-- Generated by IcoMoon.io -->
<!DOCTYPE svg PUBLIC "-//W3C//DTD SVG 1.1//EN" "http://www.w3.org/Graphics/SVG/1.1/DTD/svg11.dtd">
<svg version="1.1" xmlns="http://www.w3.org/2000/svg" xmlns:xlink="http://www.w3.org/1999/xlink" width="28" height="28" viewBox="0 0 28 28">
<path fill="#444444" d="M4.5 6q1.031 0 1.766 0.734t0.734 1.766v17q0 1.031-0.734 1.766t-1.766 0.734h-2q-1.031 0-1.766-0.734t-0.734-1.766v-17q0-1.031 0.734-1.766t1.766-0.734h2zM26 8.547q0.906 0.531 1.453 1.453t0.547 2v12q0 1.656-1.172 2.828t-2.828 1.172h-13.5q-1.031 0-1.766-0.734t-0.734-1.766v-24q0-0.625 0.438-1.062t1.062-0.438h10.5q0.625 0 1.375 0.313t1.188 0.75l2.375 2.375q0.438 0.438 0.75 1.188t0.313 1.375v2.547zM14.5 24v-2q0-0.219-0.141-0.359t-0.359-0.141h-2q-0.219 0-0.359 0.141t-0.141 0.359v2q0 0.219 0.141 0.359t0.359 0.141h2q0.219 0 0.359-0.141t0.141-0.359zM14.5 20v-2q0-0.219-0.141-0.359t-0.359-0.141h-2q-0.219 0-0.359 0.141t-0.141 0.359v2q0 0.219 0.141 0.359t0.359 0.141h2q0.219 0 0.359-0.141t0.141-0.359zM14.5 16v-2q0-0.219-0.141-0.359t-0.359-0.141h-2q-0.219 0-0.359 0.141t-0.141 0.359v2q0 0.219 0.141 0.359t0.359 0.141h2q0.219 0 0.359-0.141t0.141-0.359zM18.5 24v-2q0-0.219-0.141-0.359t-0.359-0.141h-2q-0.219 0-0.359 0.141t-0.141 0.359v2q0 0.219 0.141 0.359t0.359 0.141h2q0.219 0 0.359-0.141t0.141-0.359zM18.5 20v-2q0-0.219-0.141-0.359t-0.359-0.141h-2q-0.219 0-0.359 0.141t-0.141 0.359v2q0 0.219 0.141 0.359t0.359 0.141h2q0.219 0 0.359-0.141t0.141-0.359zM18.5 16v-2q0-0.219-0.141-0.359t-0.359-0.141h-2q-0.219 0-0.359 0.141t-0.141 0.359v2q0 0.219 0.141 0.359t0.359 0.141h2q0.219 0 0.359-0.141t0.141-0.359zM22.5 24v-2q0-0.219-0.141-0.359t-0.359-0.141h-2q-0.219 0-0.359 0.141t-0.141 0.359v2q0 0.219 0.141 0.359t0.359 0.141h2q0.219 0 0.359-0.141t0.141-0.359zM22.5 20v-2q0-0.219-0.141-0.359t-0.359-0.141h-2q-0.219 0-0.359 0.141t-0.141 0.359v2q0 0.219 0.141 0.359t0.359 0.141h2q0.219 0 0.359-0.141t0.141-0.359zM22.5 16v-2q0-0.219-0.141-0.359t-0.359-0.141h-2q-0.219 0-0.359 0.141t-0.141 0.359v2q0 0.219 0.141 0.359t0.359 0.141h2q0.219 0 0.359-0.141t0.141-0.359zM24 10v-4h-2.5q-0.625 0-1.062-0.438t-0.438-1.062v-2.5h-10v8h14z"></path>
</svg>
