<?xml version="1.0" encoding="utf-8"?>
<!-- Generated by IcoMoon.io -->
<!DOCTYPE svg PUBLIC "-//W3C//DTD SVG 1.1//EN" "http://www.w3.org/Graphics/SVG/1.1/DTD/svg11.dtd">
<svg version="1.1" xmlns="http://www.w3.org/2000/svg" xmlns:xlink="http://www.w3.org/1999/xlink" width="20" height="28" viewBox="0 0 20 28">
<path fill="#444444" d="M20 16.5q0 0.625-0.438 1.062t-1.062 0.438q-0.797 0-1.25-0.672l-3.547-5.328h-0.703v2.063l3.859 6.422q0.141 0.234 0.141 0.516 0 0.406-0.297 0.703t-0.703 0.297h-3v4.25q0 0.719-0.516 1.234t-1.234 0.516h-2.5q-0.719 0-1.234-0.516t-0.516-1.234v-4.25h-3q-0.406 0-0.703-0.297t-0.297-0.703q0-0.281 0.141-0.516l3.859-6.422v-2.063h-0.703l-3.547 5.328q-0.453 0.672-1.25 0.672-0.625 0-1.062-0.438t-0.438-1.062q0-0.453 0.25-0.828l4-6q1.141-1.672 2.75-1.672h6q1.609 0 2.75 1.672l4 6q0.25 0.375 0.25 0.828zM13.5 4q0 1.453-1.023 2.477t-2.477 1.023-2.477-1.023-1.023-2.477 1.023-2.477 2.477-1.023 2.477 1.023 1.023 2.477z"></path>
</svg>
