<?xml version="1.0" encoding="utf-8"?>
<!-- Generated by IcoMoon.io -->
<!DOCTYPE svg PUBLIC "-//W3C//DTD SVG 1.1//EN" "http://www.w3.org/Graphics/SVG/1.1/DTD/svg11.dtd">
<svg version="1.1" xmlns="http://www.w3.org/2000/svg" xmlns:xlink="http://www.w3.org/1999/xlink" width="30" height="28" viewBox="0 0 30 28">
<path fill="#444444" d="M30 15q-0.016 0.5-4.5 1.5l-5.5 0.5-3.5 1h-1l-4.578 5.5h1.078q0.406 0 0.703 0.070t0.297 0.18-0.297 0.18-0.703 0.070h-5v-0.5h1v-6.5h-2.5l-3 3.5h-1.5l-0.5-0.5v-3h0.5v-0.5h2v-0.125l-3-0.375v-2l3-0.375v-0.125h-2v-0.5h-0.5v-3l0.5-0.5h1.5l3 3.5h2.5v-6.5h-1v-0.5h5q0.406 0 0.703 0.070t0.297 0.18-0.297 0.18-0.703 0.070h-1.078l4.578 5.5h1l3.5 1 5.5 0.5q4.078 0.906 4.484 1.453z"></path>
</svg>
