<?xml version="1.0" encoding="utf-8"?>
<!-- Generated by IcoMoon.io -->
<!DOCTYPE svg PUBLIC "-//W3C//DTD SVG 1.1//EN" "http://www.w3.org/Graphics/SVG/1.1/DTD/svg11.dtd">
<svg version="1.1" xmlns="http://www.w3.org/2000/svg" xmlns:xlink="http://www.w3.org/1999/xlink" width="28" height="28" viewBox="0 0 28 28">
<path fill="#444444" d="M22.937 5.938q0.438 0.438 0.75 1.188t0.313 1.375v18q0 0.625-0.438 1.062t-1.062 0.438h-21q-0.625 0-1.062-0.438t-0.438-1.062v-25q0-0.625 0.438-1.062t1.062-0.438h14q0.625 0 1.375 0.313t1.188 0.75zM16 2.125v5.875h5.875q-0.156-0.453-0.344-0.641l-4.891-4.891q-0.187-0.187-0.641-0.344zM22 26v-16h-6.5q-0.625 0-1.062-0.438t-0.438-1.062v-6.5h-12v24h20zM6.5 22.344v1.656h5.109v-1.656h-1.453v-2.609h2.141q1.188 0 1.844-0.234 1.047-0.359 1.664-1.359t0.617-2.281q0-1.266-0.578-2.203t-1.563-1.359q-0.75-0.297-2.031-0.297h-5.75v1.672h1.437v8.672h-1.437zM12.016 17.969h-1.859v-4.188h1.875q0.812 0 1.297 0.281 0.875 0.516 0.875 1.797 0 1.391-0.969 1.875-0.484 0.234-1.219 0.234z"></path>
</svg>
