<?xml version="1.0" encoding="utf-8"?>
<!-- Generated by IcoMoon.io -->
<!DOCTYPE svg PUBLIC "-//W3C//DTD SVG 1.1//EN" "http://www.w3.org/Graphics/SVG/1.1/DTD/svg11.dtd">
<svg version="1.1" xmlns="http://www.w3.org/2000/svg" xmlns:xlink="http://www.w3.org/1999/xlink" width="28" height="28" viewBox="0 0 28 28">
<path fill="#444444" d="M10 6v-2h-2v2h2zM12 8v-2h-2v2h2zM10 10v-2h-2v2h2zM12 12v-2h-2v2h2zM22.937 5.938q0.438 0.438 0.75 1.188t0.313 1.375v18q0 0.625-0.438 1.062t-1.062 0.438h-21q-0.625 0-1.062-0.438t-0.438-1.062v-25q0-0.625 0.438-1.062t1.062-0.438h14q0.625 0 1.375 0.313t1.188 0.75zM16 2.125v5.875h5.875q-0.156-0.453-0.344-0.641l-4.891-4.891q-0.187-0.187-0.641-0.344zM22 26v-16h-6.5q-0.625 0-1.062-0.438t-0.438-1.062v-6.5h-2v2h-2v-2h-8v24h20zM12.203 14.734l1.672 5.453q0.125 0.422 0.125 0.812 0 1.297-1.133 2.148t-2.867 0.852-2.867-0.852-1.133-2.148q0-0.391 0.125-0.812 0.328-0.984 1.875-6.188v-2h2v2h1.234q0.344 0 0.609 0.203t0.359 0.531zM10 22q0.828 0 1.414-0.297t0.586-0.703-0.586-0.703-1.414-0.297-1.414 0.297-0.586 0.703 0.586 0.703 1.414 0.297z"></path>
</svg>
