<?xml version="1.0" encoding="utf-8"?>
<!-- Generated by IcoMoon.io -->
<!DOCTYPE svg PUBLIC "-//W3C//DTD SVG 1.1//EN" "http://www.w3.org/Graphics/SVG/1.1/DTD/svg11.dtd">
<svg version="1.1" xmlns="http://www.w3.org/2000/svg" xmlns:xlink="http://www.w3.org/1999/xlink" width="28" height="28" viewBox="0 0 28 28">
<path fill="#444444" d="M22.937 7.438q0.219 0.219 0.438 0.562h-7.375v-7.375q0.344 0.219 0.562 0.438zM15.5 10h8.5v16.5q0 0.625-0.438 1.062t-1.062 0.438h-21q-0.625 0-1.062-0.438t-0.438-1.062v-25q0-0.625 0.438-1.062t1.062-0.438h12.5v8.5q0 0.625 0.438 1.062t1.062 0.438zM18 21.5v-1q0-0.219-0.141-0.359t-0.359-0.141h-11q-0.219 0-0.359 0.141t-0.141 0.359v1q0 0.219 0.141 0.359t0.359 0.141h11q0.219 0 0.359-0.141t0.141-0.359zM18 17.5v-1q0-0.219-0.141-0.359t-0.359-0.141h-11q-0.219 0-0.359 0.141t-0.141 0.359v1q0 0.219 0.141 0.359t0.359 0.141h11q0.219 0 0.359-0.141t0.141-0.359zM18 13.5v-1q0-0.219-0.141-0.359t-0.359-0.141h-11q-0.219 0-0.359 0.141t-0.141 0.359v1q0 0.219 0.141 0.359t0.359 0.141h11q0.219 0 0.359-0.141t0.141-0.359z"></path>
</svg>
