<?xml version="1.0" encoding="utf-8"?>
<!-- Generated by IcoMoon.io -->
<!DOCTYPE svg PUBLIC "-//W3C//DTD SVG 1.1//EN" "http://www.w3.org/Graphics/SVG/1.1/DTD/svg11.dtd">
<svg version="1.1" xmlns="http://www.w3.org/2000/svg" xmlns:xlink="http://www.w3.org/1999/xlink" width="28" height="28" viewBox="0 0 28 28">
<path fill="#444444" d="M22.937 5.938q0.438 0.438 0.75 1.188t0.313 1.375v18q0 0.625-0.438 1.062t-1.062 0.438h-21q-0.625 0-1.062-0.438t-0.438-1.062v-25q0-0.625 0.438-1.062t1.062-0.438h14q0.625 0 1.375 0.313t1.188 0.75zM16 2.125v5.875h5.875q-0.156-0.453-0.344-0.641l-4.891-4.891q-0.187-0.187-0.641-0.344zM22 26v-16h-6.5q-0.625 0-1.062-0.438t-0.438-1.062v-6.5h-12v24h20zM7.5 12q0.125-0.172 0.328-0.195t0.375 0.102l0.797 0.594q0.172 0.125 0.195 0.328t-0.102 0.375l-2.844 3.797 2.844 3.797q0.125 0.172 0.102 0.375t-0.195 0.328l-0.797 0.594q-0.172 0.125-0.375 0.102t-0.328-0.195l-3.531-4.703q-0.219-0.297 0-0.594zM20.031 16.703q0.219 0.297 0 0.594l-3.531 4.703q-0.125 0.172-0.328 0.195t-0.375-0.102l-0.797-0.594q-0.172-0.125-0.195-0.328t0.102-0.375l2.844-3.797-2.844-3.797q-0.125-0.172-0.102-0.375t0.195-0.328l0.797-0.594q0.172-0.125 0.375-0.102t0.328 0.195zM10.344 23.906q-0.203-0.031-0.32-0.203t-0.086-0.375l2.156-12.984q0.031-0.203 0.203-0.32t0.375-0.086l0.984 0.156q0.203 0.031 0.32 0.203t0.086 0.375l-2.156 12.984q-0.031 0.203-0.203 0.32t-0.375 0.086z"></path>
</svg>
