<?xml version="1.0" encoding="utf-8"?>
<!-- Generated by IcoMoon.io -->
<!DOCTYPE svg PUBLIC "-//W3C//DTD SVG 1.1//EN" "http://www.w3.org/Graphics/SVG/1.1/DTD/svg11.dtd">
<svg version="1.1" xmlns="http://www.w3.org/2000/svg" xmlns:xlink="http://www.w3.org/1999/xlink" width="22" height="28" viewBox="0 0 22 28">
<path fill="#444444" d="M22 26.5v1q0 0.203-0.148 0.352t-0.352 0.148h-21q-0.203 0-0.352-0.148t-0.148-0.352v-1q0-0.203 0.148-0.352t0.352-0.148h21q0.203 0 0.352 0.148t0.148 0.352zM18 10q0 1.219-0.383 2.25t-1 1.758-1.367 1.375-1.5 1.211-1.367 1.125-1 1.273-0.383 1.508q0 1.5 1.047 3.5l-0.063-0.016 0.016 0.016q-1.406-0.641-2.5-1.297t-2.164-1.563-1.773-1.914-1.133-2.352-0.43-2.875q0-1.219 0.383-2.25t1-1.758 1.367-1.375 1.5-1.211 1.367-1.125 1-1.273 0.383-1.508q0-1.469-1.031-3.5l0.047 0.016-0.016-0.016q1.406 0.641 2.5 1.297t2.164 1.563 1.773 1.914 1.133 2.352 0.43 2.875z"></path>
</svg>
