<?xml version="1.0" encoding="utf-8"?>
<!-- Generated by IcoMoon.io -->
<!DOCTYPE svg PUBLIC "-//W3C//DTD SVG 1.1//EN" "http://www.w3.org/Graphics/SVG/1.1/DTD/svg11.dtd">
<svg version="1.1" xmlns="http://www.w3.org/2000/svg" xmlns:xlink="http://www.w3.org/1999/xlink" width="22" height="28" viewBox="0 0 22 28">
<path fill="#444444" d="M8 3q0-0.406-0.297-0.703t-0.703-0.297-0.703 0.297-0.297 0.703 0.297 0.703 0.703 0.297 0.703-0.297 0.297-0.703zM22 2.5v5q0 0.25-0.187 0.391-0.125 0.109-0.313 0.109-0.063 0-0.109-0.016l-7-1.5q-0.172-0.031-0.281-0.172t-0.109-0.313h-4v1.594q1.734 0.359 2.867 1.734t1.133 3.172v12.5q0 0.406-0.297 0.703t-0.703 0.297h-8q-0.406 0-0.703-0.297t-0.297-0.703v-12.5q0-1.656 0.977-2.977t2.523-1.789v-1.734h-0.5q-0.922 0-1.797 0.367t-1.43 0.828-1.031 1.039-0.633 0.836-0.219 0.383q-0.266 0.547-0.891 0.547-0.25 0-0.453-0.109-0.359-0.187-0.492-0.578t0.055-0.766q0.078-0.156 0.227-0.406t0.586-0.836 0.945-1.094 1.328-1.047 1.695-0.82q-0.391-0.656-0.391-1.344 0-1.031 0.734-1.766t1.766-0.734 1.766 0.734 0.734 1.766q0 0.516-0.219 1h4.719q0-0.172 0.109-0.313t0.281-0.172l7-1.5q0.047-0.016 0.109-0.016 0.187 0 0.313 0.109 0.187 0.141 0.187 0.391z"></path>
</svg>
