<?xml version="1.0" encoding="utf-8"?>
<!-- Generated by IcoMoon.io -->
<!DOCTYPE svg PUBLIC "-//W3C//DTD SVG 1.1//EN" "http://www.w3.org/Graphics/SVG/1.1/DTD/svg11.dtd">
<svg version="1.1" xmlns="http://www.w3.org/2000/svg" xmlns:xlink="http://www.w3.org/1999/xlink" width="28" height="28" viewBox="0 0 28 28">
<path fill="#444444" d="M13 15.625v-3q-2.828 0.25-6 1.828v2.891q3.203-1.5 6-1.719zM13 9.094v-3.078q-2.688 0.125-6 1.969v2.953q3.359-1.734 6-1.844zM26 16.328v-2.875q-3.672 1.813-6 1.109v-3.5q-0.313-0.094-0.609-0.234-0.078-0.047-0.516-0.266t-0.539-0.266-0.492-0.234-0.539-0.242-0.508-0.203-0.562-0.195-0.547-0.133-0.617-0.117-0.617-0.063-0.688-0.031q-0.359 0-0.766 0.047v3.469h0.297q1.594 0 3.008 0.453t3.086 1.281q0.297 0.141 0.609 0.234v2.938q0.656 0.266 1.422 0.266 1.875 0 4.578-1.437zM26 9.656v-2.953q-2.641 1.422-4.781 1.422-0.703 0-1.219-0.125v3.063q2.312 0.656 6-1.406zM5 4q0 0.547-0.273 1t-0.727 0.719v19.781q0 0.219-0.141 0.359t-0.359 0.141h-1q-0.219 0-0.359-0.141t-0.141-0.359v-19.781q-0.453-0.266-0.727-0.719t-0.273-1q0-0.828 0.586-1.414t1.414-0.586 1.414 0.586 0.586 1.414zM28 5v11.922q0 0.609-0.547 0.891-0.156 0.078-0.266 0.141-3.406 1.813-5.766 1.813-1.375 0-2.469-0.547l-0.438-0.219q-1-0.516-1.547-0.75t-1.422-0.453-1.781-0.219q-1.594 0-3.68 0.688t-3.57 1.594q-0.234 0.141-0.516 0.141-0.25 0-0.5-0.125-0.5-0.297-0.5-0.875v-11.594q0-0.547 0.484-0.859 0.547-0.328 1.227-0.664t1.781-0.812 2.383-0.773 2.422-0.297q1.75 0 3.266 0.484t3.266 1.344q0.594 0.297 1.391 0.297 1.906 0 4.844-1.75 0.344-0.187 0.484-0.266 0.484-0.25 0.969 0.031 0.484 0.313 0.484 0.859z"></path>
</svg>
