<?xml version="1.0" encoding="utf-8"?>
<!-- Generated by IcoMoon.io -->
<!DOCTYPE svg PUBLIC "-//W3C//DTD SVG 1.1//EN" "http://www.w3.org/Graphics/SVG/1.1/DTD/svg11.dtd">
<svg version="1.1" xmlns="http://www.w3.org/2000/svg" xmlns:xlink="http://www.w3.org/1999/xlink" width="28" height="28" viewBox="0 0 28 28">
<path fill="#444444" d="M26 16.328v-9.625q-2.641 1.422-4.781 1.422-1.281 0-2.266-0.5-1.563-0.766-2.875-1.195t-2.781-0.43q-2.703 0-6.297 1.984v9.359q3.828-1.766 6.766-1.766 0.859 0 1.617 0.117t1.531 0.406 1.203 0.484 1.289 0.617l0.438 0.219q0.688 0.344 1.578 0.344 1.875 0 4.578-1.437zM5 4q0 0.547-0.273 1t-0.727 0.719v19.781q0 0.219-0.141 0.359t-0.359 0.141h-1q-0.219 0-0.359-0.141t-0.141-0.359v-19.781q-0.453-0.266-0.727-0.719t-0.273-1q0-0.828 0.586-1.414t1.414-0.586 1.414 0.586 0.586 1.414zM28 5v11.922q0 0.609-0.547 0.891-0.156 0.078-0.266 0.141-3.406 1.813-5.766 1.813-1.375 0-2.469-0.547l-0.438-0.219q-1-0.516-1.547-0.75t-1.422-0.453-1.781-0.219q-1.594 0-3.68 0.688t-3.57 1.594q-0.234 0.141-0.516 0.141-0.25 0-0.5-0.125-0.5-0.297-0.5-0.875v-11.594q0-0.547 0.484-0.859 0.547-0.328 1.227-0.664t1.781-0.812 2.383-0.773 2.422-0.297q1.75 0 3.266 0.484t3.266 1.344q0.594 0.297 1.391 0.297 1.906 0 4.844-1.75 0.344-0.187 0.484-0.266 0.484-0.25 0.969 0.031 0.484 0.313 0.484 0.859z"></path>
</svg>
