<?xml version="1.0" encoding="utf-8"?>
<!-- Generated by IcoMoon.io -->
<!DOCTYPE svg PUBLIC "-//W3C//DTD SVG 1.1//EN" "http://www.w3.org/Graphics/SVG/1.1/DTD/svg11.dtd">
<svg version="1.1" xmlns="http://www.w3.org/2000/svg" xmlns:xlink="http://www.w3.org/1999/xlink" width="28" height="28" viewBox="0 0 28 28">
<path fill="#444444" d="M19.5 2q1.859 0 3.18 1.32t1.32 3.18v15q0 1.859-1.32 3.18t-3.18 1.32h-15q-1.859 0-3.18-1.32t-1.32-3.18v-15q0-1.859 1.32-3.18t3.18-1.32h15zM10.906 14q0-1.375-0.969-2.344t-2.344-0.969-2.344 0.969-0.969 2.344 0.969 2.344 2.344 0.969 2.344-0.969 0.969-2.344zM19.719 14q0-1.375-0.969-2.344t-2.344-0.969-2.344 0.969-0.969 2.344 0.969 2.344 2.344 0.969 2.344-0.969 0.969-2.344z"></path>
</svg>
