<?xml version="1.0" encoding="utf-8"?>
<!-- Generated by IcoMoon.io -->
<!DOCTYPE svg PUBLIC "-//W3C//DTD SVG 1.1//EN" "http://www.w3.org/Graphics/SVG/1.1/DTD/svg11.dtd">
<svg version="1.1" xmlns="http://www.w3.org/2000/svg" xmlns:xlink="http://www.w3.org/1999/xlink" width="26" height="28" viewBox="0 0 26 28">
<path fill="#444444" d="M24 20.5v-11q0-0.625-0.438-1.062t-1.062-0.438h-11q-0.625 0-1.062-0.438t-0.438-1.062v-1q0-0.625-0.438-1.062t-1.062-0.438h-5q-0.625 0-1.062 0.438t-0.438 1.062v15q0 0.625 0.438 1.062t1.062 0.438h19q0.625 0 1.062-0.438t0.438-1.062zM26 9.5v11q0 1.437-1.031 2.469t-2.469 1.031h-19q-1.437 0-2.469-1.031t-1.031-2.469v-15q0-1.437 1.031-2.469t2.469-1.031h5q1.437 0 2.469 1.031t1.031 2.469v0.5h10.5q1.437 0 2.469 1.031t1.031 2.469z"></path>
</svg>
