<?xml version="1.0" encoding="utf-8"?>
<!-- Generated by IcoMoon.io -->
<!DOCTYPE svg PUBLIC "-//W3C//DTD SVG 1.1//EN" "http://www.w3.org/Graphics/SVG/1.1/DTD/svg11.dtd">
<svg version="1.1" xmlns="http://www.w3.org/2000/svg" xmlns:xlink="http://www.w3.org/1999/xlink" width="30" height="28" viewBox="0 0 30 28">
<path fill="#444444" d="M27.828 14.547q0-0.547-0.828-0.547h-17q-0.625 0-1.336 0.336t-1.117 0.82l-4.594 5.672q-0.281 0.375-0.281 0.625 0 0.547 0.828 0.547h17q0.625 0 1.344-0.344t1.109-0.828l4.594-5.672q0.281-0.344 0.281-0.609zM10 12h12v-2.5q0-0.625-0.438-1.062t-1.062-0.438h-9q-0.625 0-1.062-0.438t-0.438-1.062v-1q0-0.625-0.438-1.062t-1.062-0.438h-5q-0.625 0-1.062 0.438t-0.438 1.062v13.328l4-4.922q0.688-0.828 1.813-1.367t2.188-0.539zM29.828 14.547q0 0.969-0.719 1.875l-4.609 5.672q-0.672 0.828-1.813 1.367t-2.188 0.539h-17q-1.437 0-2.469-1.031t-1.031-2.469v-15q0-1.437 1.031-2.469t2.469-1.031h5q1.437 0 2.469 1.031t1.031 2.469v0.5h8.5q1.437 0 2.469 1.031t1.031 2.469v2.5h3q0.844 0 1.547 0.383t1.047 1.102q0.234 0.5 0.234 1.062z"></path>
</svg>
