<?xml version="1.0" encoding="utf-8"?>
<!-- Generated by IcoMoon.io -->
<!DOCTYPE svg PUBLIC "-//W3C//DTD SVG 1.1//EN" "http://www.w3.org/Graphics/SVG/1.1/DTD/svg11.dtd">
<svg version="1.1" xmlns="http://www.w3.org/2000/svg" xmlns:xlink="http://www.w3.org/1999/xlink" width="26" height="28" viewBox="0 0 26 28">
<path fill="#444444" d="M11.328 8.734l-2.656 7.031q0.516 0 2.133 0.031t2.508 0.031q0.297 0 0.891-0.031-1.359-3.953-2.875-7.063zM0 26l0.031-1.234q0.359-0.109 0.875-0.195t0.891-0.164 0.773-0.227 0.695-0.453 0.484-0.789l3.703-9.625 4.375-11.312h2q0.125 0.219 0.172 0.328l3.203 7.5q0.516 1.219 1.656 4.023t1.781 4.289q0.234 0.531 0.906 2.258t1.125 2.633q0.313 0.703 0.547 0.891 0.297 0.234 1.375 0.461t1.313 0.32q0.094 0.594 0.094 0.891 0 0.063-0.008 0.203t-0.008 0.203q-0.984 0-2.969-0.125t-2.984-0.125q-1.188 0-3.359 0.109t-2.781 0.125q0-0.672 0.063-1.219l2.047-0.438q0.016 0 0.195-0.039t0.242-0.055 0.227-0.070 0.234-0.102 0.172-0.125 0.141-0.172 0.039-0.219q0-0.25-0.484-1.508t-1.125-2.773-0.656-1.563l-7.031-0.031q-0.406 0.906-1.195 3.055t-0.789 2.539q0 0.344 0.219 0.586t0.68 0.383 0.758 0.211 0.891 0.133 0.641 0.063q0.016 0.297 0.016 0.906 0 0.141-0.031 0.422-0.906 0-2.727-0.156t-2.727-0.156q-0.125 0-0.414 0.063t-0.336 0.063q-1.25 0.219-2.938 0.219z"></path>
</svg>
