<?xml version="1.0" encoding="utf-8"?>
<!-- Generated by IcoMoon.io -->
<!DOCTYPE svg PUBLIC "-//W3C//DTD SVG 1.1//EN" "http://www.w3.org/Graphics/SVG/1.1/DTD/svg11.dtd">
<svg version="1.1" xmlns="http://www.w3.org/2000/svg" xmlns:xlink="http://www.w3.org/1999/xlink" width="28" height="28" viewBox="0 0 28 28">
<path fill="#444444" d="M14.594 2.344q-4.953 1.891-8.687 5.664t-5.594 8.758q-0.313-1.391-0.313-2.75 0-3.25 1.602-6.008t4.352-4.359 6-1.602q1.281 0 2.641 0.297zM18.797 4.203q1.453 1.016 2.562 2.422-6.078 1.766-10.539 6.258t-6.195 10.57q-1.453-1.125-2.422-2.531 1.75-6.031 6.172-10.484t10.422-6.234zM7.344 25.047q1.797-5.563 5.93-9.719t9.68-6q0.625 1.437 0.844 3.047-4.562 1.875-8.062 5.391t-5.359 8.094q-1.609-0.219-3.031-0.812zM24 25.953q-3.016-0.781-5.734-1.797-2.109 1.313-4.531 1.672 1.703-3.203 4.281-5.789t5.766-4.305q-0.328 2.375-1.578 4.438 1.016 2.734 1.797 5.781z"></path>
</svg>
