<?xml version="1.0" encoding="utf-8"?>
<!-- Generated by IcoMoon.io -->
<!DOCTYPE svg PUBLIC "-//W3C//DTD SVG 1.1//EN" "http://www.w3.org/Graphics/SVG/1.1/DTD/svg11.dtd">
<svg version="1.1" xmlns="http://www.w3.org/2000/svg" xmlns:xlink="http://www.w3.org/1999/xlink" width="20" height="28" viewBox="0 0 20 28">
<path fill="#444444" d="M15.625 6.781l0.578-3.031q0.078-0.359-0.141-0.625t-0.547-0.266h-11.125q-0.359 0-0.602 0.266t-0.242 0.578v17.203q0 0.109 0.094 0.016l4.547-5.5q0.359-0.406 0.594-0.523t0.75-0.117h3.734q0.344 0 0.578-0.227t0.281-0.461q0.375-2.031 0.578-2.984 0.063-0.328-0.18-0.625t-0.57-0.297h-4.594q-0.453 0-0.75-0.297t-0.297-0.75v-0.656q0-0.453 0.297-0.742t0.75-0.289h5.406q0.281 0 0.547-0.211t0.313-0.461zM19.172 3.313q-0.234 1.141-0.836 4.164t-1.086 5.469-0.547 2.711q-0.094 0.344-0.141 0.508t-0.219 0.508-0.383 0.516-0.602 0.328-0.906 0.156h-4.234q-0.203 0-0.344 0.156-0.125 0.141-6.656 7.719-0.344 0.391-0.914 0.445t-0.758-0.086q-0.859-0.344-0.859-1.531v-22.031q0-0.859 0.594-1.602t1.875-0.742h13.875q1.484 0 1.984 0.828t0.156 2.484zM19.172 3.313l-2.469 12.344q0.063-0.266 0.547-2.711t1.086-5.469 0.836-4.164z"></path>
</svg>
