<?xml version="1.0" encoding="utf-8"?>
<!-- Generated by IcoMoon.io -->
<!DOCTYPE svg PUBLIC "-//W3C//DTD SVG 1.1//EN" "http://www.w3.org/Graphics/SVG/1.1/DTD/svg11.dtd">
<svg version="1.1" xmlns="http://www.w3.org/2000/svg" xmlns:xlink="http://www.w3.org/1999/xlink" width="28" height="28" viewBox="0 0 28 28">
<path fill="#444444" d="M9.516 12.75l4.484-3.25 4.484 3.25-1.703 5.25h-5.547zM14 0q2.844 0 5.437 1.109t4.469 2.984 2.984 4.469 1.109 5.437-1.109 5.437-2.984 4.469-4.469 2.984-5.437 1.109-5.437-1.109-4.469-2.984-2.984-4.469-1.109-5.437 1.109-5.437 2.984-4.469 4.469-2.984 5.437-1.109zM23.672 21.094q2.328-3.172 2.328-7.094v-0.047l-1.594 1.391-3.75-3.5 0.984-5.047 2.094 0.187q-2.344-3.219-6.078-4.406l0.828 1.937-4.484 2.484-4.484-2.484 0.828-1.937q-3.734 1.188-6.078 4.406l2.109-0.187 0.969 5.047-3.75 3.5-1.594-1.391v0.047q0 3.922 2.328 7.094l0.469-2.063 5.094 0.625 2.172 4.656-1.813 1.078q1.828 0.609 3.75 0.609t3.75-0.609l-1.813-1.078 2.172-4.656 5.094-0.625z"></path>
</svg>
