<?xml version="1.0" encoding="utf-8"?>
<!-- Generated by IcoMoon.io -->
<!DOCTYPE svg PUBLIC "-//W3C//DTD SVG 1.1//EN" "http://www.w3.org/Graphics/SVG/1.1/DTD/svg11.dtd">
<svg version="1.1" xmlns="http://www.w3.org/2000/svg" xmlns:xlink="http://www.w3.org/1999/xlink" width="30" height="28" viewBox="0 0 30 28">
<path fill="#444444" d="M13 17v-2q0-0.219-0.141-0.359t-0.359-0.141h-3v-3q0-0.219-0.141-0.359t-0.359-0.141h-2q-0.219 0-0.359 0.141t-0.141 0.359v3h-3q-0.219 0-0.359 0.141t-0.141 0.359v2q0 0.219 0.141 0.359t0.359 0.141h3v3q0 0.219 0.141 0.359t0.359 0.141h2q0.219 0 0.359-0.141t0.141-0.359v-3h3q0.219 0 0.359-0.141t0.141-0.359zM22 18q0-0.828-0.586-1.414t-1.414-0.586-1.414 0.586-0.586 1.414 0.586 1.414 1.414 0.586 1.414-0.586 0.586-1.414zM26 14q0-0.828-0.586-1.414t-1.414-0.586-1.414 0.586-0.586 1.414 0.586 1.414 1.414 0.586 1.414-0.586 0.586-1.414zM30 16q0 3.313-2.344 5.656t-5.656 2.344q-3 0-5.281-2h-3.437q-2.281 2-5.281 2-3.313 0-5.656-2.344t-2.344-5.656 2.344-5.656 5.656-2.344h14q3.313 0 5.656 2.344t2.344 5.656z"></path>
</svg>
