<?xml version="1.0" encoding="utf-8"?>
<!-- Generated by IcoMoon.io -->
<!DOCTYPE svg PUBLIC "-//W3C//DTD SVG 1.1//EN" "http://www.w3.org/Graphics/SVG/1.1/DTD/svg11.dtd">
<svg version="1.1" xmlns="http://www.w3.org/2000/svg" xmlns:xlink="http://www.w3.org/1999/xlink" width="28" height="28" viewBox="0 0 28 28">
<path fill="#444444" d="M27.672 24q0 0.828-0.578 1.406l-1.672 1.687q-0.609 0.578-1.422 0.578-0.828 0-1.406-0.578l-5.672-5.688q-0.594-0.562-0.594-1.406 0-0.828 0.672-1.5l-4-4-1.969 1.969q-0.219 0.219-0.531 0.219t-0.531-0.219q0.031 0.031 0.195 0.187t0.195 0.203 0.156 0.18 0.156 0.211 0.094 0.211 0.086 0.258 0.023 0.281q0 0.594-0.438 1.062-0.047 0.047-0.258 0.281t-0.297 0.32-0.289 0.258-0.344 0.242-0.344 0.141-0.406 0.070q-0.625 0-1.062-0.438l-6.375-6.375q-0.438-0.438-0.438-1.062 0-0.203 0.070-0.406t0.141-0.344 0.242-0.344 0.258-0.289 0.32-0.297 0.281-0.258q0.469-0.438 1.062-0.438 0.156 0 0.281 0.023t0.258 0.086 0.211 0.094 0.211 0.156 0.18 0.156 0.203 0.195 0.187 0.195q-0.219-0.219-0.219-0.531t0.219-0.531l5.437-5.437q0.219-0.219 0.531-0.219t0.531 0.219q-0.031-0.031-0.195-0.187t-0.195-0.203-0.156-0.18-0.156-0.211-0.094-0.211-0.086-0.258-0.023-0.281q0-0.594 0.438-1.062 0.047-0.047 0.258-0.281t0.297-0.32 0.289-0.258 0.344-0.242 0.344-0.141 0.406-0.070q0.625 0 1.062 0.438l6.375 6.375q0.438 0.438 0.438 1.062 0 0.203-0.070 0.406t-0.141 0.344-0.242 0.344-0.258 0.289-0.32 0.297-0.281 0.258q-0.469 0.438-1.062 0.438-0.156 0-0.281-0.023t-0.258-0.086-0.211-0.094-0.211-0.156-0.18-0.156-0.203-0.195-0.187-0.195q0.219 0.219 0.219 0.531t-0.219 0.531l-1.969 1.969 4 4q0.672-0.672 1.5-0.672 0.812 0 1.422 0.578l5.672 5.672q0.578 0.609 0.578 1.422z"></path>
</svg>
