<?xml version="1.0" encoding="utf-8"?>
<!-- Generated by IcoMoon.io -->
<!DOCTYPE svg PUBLIC "-//W3C//DTD SVG 1.1//EN" "http://www.w3.org/Graphics/SVG/1.1/DTD/svg11.dtd">
<svg version="1.1" xmlns="http://www.w3.org/2000/svg" xmlns:xlink="http://www.w3.org/1999/xlink" width="16" height="28" viewBox="0 0 16 28">
<path fill="#444444" d="M15.937 17.766v5.734q0 0.219-0.141 0.359t-0.359 0.141h-14.938q-0.219 0-0.359-0.141t-0.141-0.359v-2.344q0-0.203 0.148-0.352t0.352-0.148h1.516v-5.984h-1.484q-0.219 0-0.359-0.148t-0.141-0.352v-2.047q0-0.219 0.141-0.359t0.359-0.141h1.484v-3.484q0-2.672 1.93-4.406t4.914-1.734q2.891 0 5.234 1.953 0.141 0.125 0.156 0.32t-0.109 0.352l-1.609 1.984q-0.141 0.172-0.344 0.187-0.203 0.031-0.359-0.109-0.078-0.078-0.406-0.297t-1.078-0.5-1.453-0.281q-1.328 0-2.141 0.734t-0.812 1.922v3.359h4.766q0.203 0 0.352 0.141t0.148 0.359v2.047q0 0.203-0.148 0.352t-0.352 0.148h-4.766v5.922h6.469v-2.828q0-0.203 0.141-0.352t0.359-0.148h2.531q0.219 0 0.359 0.148t0.141 0.352z"></path>
</svg>
