<?xml version="1.0" encoding="utf-8"?>
<!-- Generated by IcoMoon.io -->
<!DOCTYPE svg PUBLIC "-//W3C//DTD SVG 1.1//EN" "http://www.w3.org/Graphics/SVG/1.1/DTD/svg11.dtd">
<svg version="1.1" xmlns="http://www.w3.org/2000/svg" xmlns:xlink="http://www.w3.org/1999/xlink" width="28" height="28" viewBox="0 0 28 28">
<path fill="#444444" d="M9.094 20.438q0 1.031-1.453 1.031-1.672 0-1.672-0.984 0-1 1.531-1 1.594 0 1.594 0.953zM8.531 13.156q0 1.328-1.156 1.328-1.203 0-1.203-1.313 0-1.406 1.203-1.406 0.562 0 0.859 0.398t0.297 0.992zM11.125 11.984v-1.953q-1.219 0.453-2.109 0.453-0.781-0.453-1.719-0.453-1.344 0-2.266 0.891t-0.922 2.234q0 0.781 0.461 1.594t1.148 1.047v0.047q-0.594 0.266-0.594 1.328 0 0.828 0.641 1.203v0.047q-1.766 0.578-1.766 2.172 0 0.703 0.313 1.227t0.844 0.797 1.125 0.398 1.266 0.125q3.5 0 3.5-2.938 0-1.047-0.75-1.547t-1.969-0.719q-0.422-0.078-0.805-0.32t-0.383-0.617q0-0.688 0.766-0.812 1.203-0.234 1.906-1.094t0.703-2.094q0-0.375-0.156-0.812 0.578-0.141 0.766-0.203zM12.047 18.531h2.141q-0.031-0.422-0.031-1.281v-6.047q0-0.719 0.031-1.078h-2.141q0.047 0.359 0.047 1.109v6.125q0 0.781-0.047 1.172zM20 18.281v-1.891q-0.469 0.328-1.062 0.328-0.828 0-0.828-1.281v-3.516h0.812q0.141 0 0.414 0.016t0.414 0.016v-1.828h-1.641q0-1.281 0.047-1.594h-2.188q0.063 0.375 0.063 0.859v0.734h-0.938v1.828q0.562-0.047 0.578-0.047 0.047 0 0.172 0.008t0.187 0.008v0.031h-0.031v3.391q0 0.578 0.039 1t0.18 0.883 0.383 0.758 0.68 0.484 1.031 0.187q1 0 1.687-0.375zM14.438 7.25q0-0.562-0.375-0.992t-0.938-0.43-0.945 0.422-0.383 1q0 0.562 0.391 0.977t0.938 0.414 0.93-0.422 0.383-0.969zM24 6.5v15q0 1.859-1.32 3.18t-3.18 1.32h-15q-1.859 0-3.18-1.32t-1.32-3.18v-15q0-1.859 1.32-3.18t3.18-1.32h15q1.859 0 3.18 1.32t1.32 3.18z"></path>
</svg>
