<?xml version="1.0" encoding="utf-8"?>
<!-- Generated by IcoMoon.io -->
<!DOCTYPE svg PUBLIC "-//W3C//DTD SVG 1.1//EN" "http://www.w3.org/Graphics/SVG/1.1/DTD/svg11.dtd">
<svg version="1.1" xmlns="http://www.w3.org/2000/svg" xmlns:xlink="http://www.w3.org/1999/xlink" width="28" height="28" viewBox="0 0 28 28">
<path fill="#444444" d="M9.297 23.656q0-1.563-2.578-1.563-2.469 0-2.469 1.625 0 1.578 2.688 1.578 2.359 0 2.359-1.641zM8.375 11.859q0-0.953-0.469-1.594t-1.391-0.641q-1.937 0-1.937 2.266 0 2.109 1.937 2.109 1.859 0 1.859-2.141zM12.578 6.797v3.156q-0.562 0.187-1.234 0.344 0.25 0.672 0.25 1.313 0 1.984-1.141 3.383t-3.078 1.758q-0.625 0.125-0.93 0.422t-0.305 0.906q0 0.484 0.352 0.805t0.906 0.5 1.227 0.344 1.344 0.398 1.227 0.586 0.906 1 0.352 1.539q0 4.75-5.672 4.75-1.078 0-2.031-0.195t-1.813-0.641-1.367-1.281-0.508-1.992q0-2.578 2.844-3.516v-0.063q-1.047-0.641-1.047-1.969 0-1.703 0.984-2.141v-0.063q-1.125-0.375-1.867-1.695t-0.742-2.586q0-2.172 1.484-3.617t3.672-1.445q1.5 0 2.781 0.734 1.531 0 3.406-0.734zM17.547 20.563h-3.469q0.063-0.703 0.063-2.094v-9.516q0-1.469-0.063-2h3.469q-0.063 0.516-0.063 1.937v9.578q0 1.391 0.063 2.094zM26.938 17.094v3.063q-1.109 0.609-2.719 0.609-0.969 0-1.672-0.313t-1.094-0.781-0.617-1.219-0.289-1.437-0.063-1.609v-5.484h0.031v-0.063q-0.109 0-0.297-0.016t-0.281-0.016q-0.328 0-0.922 0.094v-2.969h1.5v-1.188q0-0.844-0.094-1.391h3.547q-0.094 0.641-0.094 2.578h2.672v2.969q-0.234 0-0.68-0.031t-0.664-0.031h-1.328v5.703q0 2.047 1.359 2.047 0.953 0 1.703-0.516zM17.938 2.297q0 0.906-0.609 1.586t-1.5 0.68q-0.906 0-1.531-0.68t-0.625-1.586q0-0.922 0.617-1.609t1.539-0.688q0.906 0 1.508 0.695t0.602 1.602z"></path>
</svg>
