<?xml version="1.0" encoding="utf-8"?>
<!-- Generated by IcoMoon.io -->
<!DOCTYPE svg PUBLIC "-//W3C//DTD SVG 1.1//EN" "http://www.w3.org/Graphics/SVG/1.1/DTD/svg11.dtd">
<svg version="1.1" xmlns="http://www.w3.org/2000/svg" xmlns:xlink="http://www.w3.org/1999/xlink" width="28" height="28" viewBox="0 0 28 28">
<path fill="#444444" d="M6.156 21.125q-0.125 0.141-0.313-0.047-0.203-0.172-0.063-0.297 0.125-0.141 0.313 0.047 0.187 0.172 0.063 0.297zM5.5 20.172q0.141 0.187 0 0.297-0.125 0.094-0.266-0.109t0-0.281q0.141-0.109 0.266 0.094zM4.547 19.234q-0.078 0.109-0.203 0.031-0.156-0.078-0.109-0.187 0.047-0.078 0.203-0.031 0.156 0.078 0.109 0.187zM5.031 19.766q-0.094 0.109-0.25-0.047-0.141-0.172-0.031-0.25 0.094-0.094 0.25 0.047 0.141 0.172 0.031 0.25zM7.047 21.516q-0.063 0.187-0.297 0.094-0.266-0.063-0.203-0.234t0.297-0.109q0.25 0.078 0.203 0.25zM8.031 21.594q0 0.172-0.25 0.172-0.266 0.031-0.266-0.172 0-0.172 0.25-0.172 0.266-0.031 0.266 0.172zM8.937 21.438q0.031 0.156-0.219 0.219t-0.281-0.125 0.219-0.234q0.25-0.031 0.281 0.141zM24 6.5v15q0 1.859-1.32 3.18t-3.18 1.32h-3.5q-0.25 0-0.383-0.016t-0.305-0.078-0.25-0.227-0.078-0.43v-3.734q0-1.516-0.812-2.219 0.891-0.094 1.602-0.281t1.469-0.609 1.266-1.039 0.828-1.641 0.32-2.352q0-1.891-1.234-3.219 0.578-1.422-0.125-3.187-0.438-0.141-1.266 0.172t-1.437 0.688l-0.594 0.375q-1.453-0.406-3-0.406t-3 0.406q-0.25-0.172-0.664-0.422t-1.305-0.602-1.344-0.211q-0.688 1.766-0.109 3.187-1.234 1.328-1.234 3.219 0 1.328 0.32 2.344t0.82 1.641 1.258 1.047 1.469 0.609 1.602 0.281q-0.625 0.562-0.766 1.609-0.328 0.156-0.703 0.234t-0.891 0.078-1.023-0.336-0.867-0.977q-0.297-0.5-0.758-0.812t-0.773-0.375l-0.313-0.047q-0.328 0-0.453 0.070t-0.078 0.18 0.141 0.219 0.203 0.187l0.109 0.078q0.344 0.156 0.68 0.594t0.492 0.797l0.156 0.359q0.203 0.594 0.688 0.961t1.047 0.469 1.086 0.109 0.867-0.055l0.359-0.063q0 0.594 0.008 1.609t0.008 1.062q0 0.344-0.172 0.523t-0.344 0.203-0.516 0.023h-3.5q-1.859 0-3.18-1.32t-1.32-3.18v-15q0-1.859 1.32-3.18t3.18-1.32h15q1.859 0 3.18 1.32t1.32 3.18z"></path>
</svg>
