<?xml version="1.0" encoding="utf-8"?>
<!-- Generated by IcoMoon.io -->
<!DOCTYPE svg PUBLIC "-//W3C//DTD SVG 1.1//EN" "http://www.w3.org/Graphics/SVG/1.1/DTD/svg11.dtd">
<svg version="1.1" xmlns="http://www.w3.org/2000/svg" xmlns:xlink="http://www.w3.org/1999/xlink" width="26" height="28" viewBox="0 0 26 28">
<path fill="#444444" d="M10 19q0 0.625-0.195 1.281t-0.672 1.188-1.133 0.531-1.133-0.531-0.672-1.188-0.195-1.281 0.195-1.281 0.672-1.188 1.133-0.531 1.133 0.531 0.672 1.188 0.195 1.281zM20 19q0 0.625-0.195 1.281t-0.672 1.188-1.133 0.531-1.133-0.531-0.672-1.188-0.195-1.281 0.195-1.281 0.672-1.188 1.133-0.531 1.133 0.531 0.672 1.188 0.195 1.281zM22.5 19q0-1.875-1.078-3.187t-2.922-1.313q-0.641 0-3.047 0.328-1.109 0.172-2.453 0.172t-2.453-0.172q-2.375-0.328-3.047-0.328-1.844 0-2.922 1.313t-1.078 3.187q0 1.375 0.5 2.398t1.266 1.609 1.906 0.938 2.188 0.461 2.328 0.109h2.625q1.281 0 2.328-0.109t2.188-0.461 1.906-0.938 1.266-1.609 0.5-2.398zM26 16.25q0 3.234-0.953 5.172-0.594 1.203-1.648 2.078t-2.203 1.344-2.656 0.742-2.68 0.344-2.609 0.070q-1.219 0-2.219-0.047t-2.305-0.195-2.383-0.469-2.141-0.805-1.891-1.266-1.344-1.797q-0.969-1.922-0.969-5.172 0-3.703 2.125-6.188-0.422-1.281-0.422-2.656 0-1.813 0.797-3.406 1.687 0 2.969 0.617t2.953 1.93q2.297-0.547 4.828-0.547 2.312 0 4.375 0.5 1.641-1.281 2.922-1.891t2.953-0.609q0.797 1.594 0.797 3.406 0 1.359-0.422 2.625 2.125 2.5 2.125 6.219z"></path>
</svg>
