<?xml version="1.0" encoding="utf-8"?>
<!-- Generated by IcoMoon.io -->
<!DOCTYPE svg PUBLIC "-//W3C//DTD SVG 1.1//EN" "http://www.w3.org/Graphics/SVG/1.1/DTD/svg11.dtd">
<svg version="1.1" xmlns="http://www.w3.org/2000/svg" xmlns:xlink="http://www.w3.org/1999/xlink" width="28" height="28" viewBox="0 0 28 28">
<path fill="#444444" d="M12.078 20.344l5.469-7.391q0.25-0.344 0.383-0.922t-0.094-1.328-0.961-1.234q-0.625-0.406-1.297-0.398t-1.148 0.273-0.852 0.703q-0.562 0.625-1.5 0.625-0.922 0-1.484-0.625-0.375-0.438-0.852-0.703t-1.148-0.273-1.313 0.398q-0.719 0.484-0.945 1.234t-0.094 1.328 0.383 0.922zM24 14q0 3.266-1.609 6.023t-4.367 4.367-6.023 1.609-6.023-1.609-4.367-4.367-1.609-6.023 1.609-6.023 4.367-4.367 6.023-1.609 6.023 1.609 4.367 4.367 1.609 6.023z"></path>
</svg>
