<?xml version="1.0" encoding="utf-8"?>
<!-- Generated by IcoMoon.io -->
<!DOCTYPE svg PUBLIC "-//W3C//DTD SVG 1.1//EN" "http://www.w3.org/Graphics/SVG/1.1/DTD/svg11.dtd">
<svg version="1.1" xmlns="http://www.w3.org/2000/svg" xmlns:xlink="http://www.w3.org/1999/xlink" width="28" height="28" viewBox="0 0 28 28">
<path fill="#444444" d="M9.406 9.172q0.297 0.953 0.484 1.93t0.266 2.211-0.219 2.484-0.969 2.266q-0.328-1.266-1.047-2.453t-1.492-1.984-1.547-1.414-1.227-0.898-0.516-0.297q-0.969-0.531-1.273-1.563t0.227-2 1.578-1.273 2.016 0.227q2.156 1.297 3.719 2.766zM14.484 4.688q0.172 0.391 0.32 0.719t0.57 1.57 0.664 2.352 0.398 2.805 0 3.211-0.742 3.273-1.648 3.258q-0.797 1.125-2.156 1.125-0.844 0-1.531-0.484-0.891-0.625-1.078-1.703t0.438-1.984q0.938-1.328 1.266-3.047t0.203-3.117-0.5-2.82-0.609-2-0.344-0.812q-0.484-0.984-0.133-2.023t1.336-1.523q0.531-0.266 1.172-0.266 0.734 0 1.383 0.391t0.992 1.078zM19.5 15.141q-0.266 2.5-1.125 4.859-0.266-2.047-0.984-3.844 0.391-2.719-0.078-5.641-0.422-2.781-1.469-5.344 1.781 1.406 3.313 3.297 0.141 0.578 0.234 1.25 0.406 2.797 0.109 5.422zM23.75 1.5q0.141 0.266 0.367 0.773t0.68 1.836 0.789 2.781 0.531 3.555 0.078 4.203-0.734 4.688-1.758 5.055q-0.344 0.75-1.031 1.18t-1.484 0.43q-0.609 0-1.156-0.25-1.047-0.484-1.445-1.563t0.070-2.125q0.906-1.969 1.406-4.023t0.586-3.742-0.055-3.336-0.414-2.82-0.602-2.164-0.508-1.406-0.242-0.508q-0.531-1.016-0.18-2.117t1.367-1.633q0.578-0.313 1.266-0.313 0.766 0 1.43 0.398t1.039 1.102z"></path>
</svg>
