<?xml version="1.0" encoding="utf-8"?>
<!-- Generated by IcoMoon.io -->
<!DOCTYPE svg PUBLIC "-//W3C//DTD SVG 1.1//EN" "http://www.w3.org/Graphics/SVG/1.1/DTD/svg11.dtd">
<svg version="1.1" xmlns="http://www.w3.org/2000/svg" xmlns:xlink="http://www.w3.org/1999/xlink" width="36" height="28" viewBox="0 0 36 28">
<path fill="#444444" d="M27.719 13.062l0.281 4.937q0.063 1.078-1.281 2t-3.672 1.461-5.047 0.539-5.047-0.539-3.672-1.461-1.281-2l0.281-4.937 8.969 2.828q0.344 0.109 0.75 0.109t0.75-0.109zM36 8q0 0.359-0.344 0.484l-17.5 5.5q-0.063 0.016-0.156 0.016t-0.156-0.016l-10.187-3.219q-0.672 0.531-1.109 1.742t-0.531 2.789q0.984 0.562 0.984 1.703 0 1.078-0.906 1.672l0.906 6.766q0.031 0.219-0.125 0.391-0.141 0.172-0.375 0.172h-3q-0.234 0-0.375-0.172-0.156-0.172-0.125-0.391l0.906-6.766q-0.906-0.594-0.906-1.672 0-1.141 1.016-1.734 0.172-3.234 1.531-5.156l-5.203-1.625q-0.344-0.125-0.344-0.484t0.344-0.484l17.5-5.5q0.063-0.016 0.156-0.016t0.156 0.016l17.5 5.5q0.344 0.125 0.344 0.484z"></path>
</svg>
