<?xml version="1.0" encoding="utf-8"?>
<!-- Generated by IcoMoon.io -->
<!DOCTYPE svg PUBLIC "-//W3C//DTD SVG 1.1//EN" "http://www.w3.org/Graphics/SVG/1.1/DTD/svg11.dtd">
<svg version="1.1" xmlns="http://www.w3.org/2000/svg" xmlns:xlink="http://www.w3.org/1999/xlink" width="30" height="28" viewBox="0 0 30 28">
<path fill="#444444" d="M9.266 14q-2.531 0.078-4.141 2h-2.094q-1.281 0-2.156-0.633t-0.875-1.852q0-5.516 1.937-5.516 0.094 0 0.68 0.328t1.523 0.664 1.859 0.336q1.047 0 2.078-0.359-0.078 0.578-0.078 1.031 0 2.172 1.266 4zM26 23.953q0 1.875-1.141 2.961t-3.031 1.086h-13.656q-1.891 0-3.031-1.086t-1.141-2.961q0-0.828 0.055-1.617t0.219-1.703 0.414-1.695 0.672-1.523 0.969-1.266 1.336-0.836 1.742-0.313q0.156 0 0.672 0.336t1.141 0.75 1.672 0.75 2.109 0.336 2.109-0.336 1.672-0.75 1.141-0.75 0.672-0.336q0.953 0 1.742 0.313t1.336 0.836 0.969 1.266 0.672 1.523 0.414 1.695 0.219 1.703 0.055 1.617zM10 4q0 1.656-1.172 2.828t-2.828 1.172-2.828-1.172-1.172-2.828 1.172-2.828 2.828-1.172 2.828 1.172 1.172 2.828zM21 10q0 2.484-1.758 4.242t-4.242 1.758-4.242-1.758-1.758-4.242 1.758-4.242 4.242-1.758 4.242 1.758 1.758 4.242zM30 13.516q0 1.219-0.875 1.852t-2.156 0.633h-2.094q-1.609-1.922-4.141-2 1.266-1.828 1.266-4 0-0.453-0.078-1.031 1.031 0.359 2.078 0.359 0.922 0 1.859-0.336t1.523-0.664 0.68-0.328q1.937 0 1.937 5.516zM28 4q0 1.656-1.172 2.828t-2.828 1.172-2.828-1.172-1.172-2.828 1.172-2.828 2.828-1.172 2.828 1.172 1.172 2.828z"></path>
</svg>
