<?xml version="1.0" encoding="utf-8"?>
<!-- Generated by IcoMoon.io -->
<!DOCTYPE svg PUBLIC "-//W3C//DTD SVG 1.1//EN" "http://www.w3.org/Graphics/SVG/1.1/DTD/svg11.dtd">
<svg version="1.1" xmlns="http://www.w3.org/2000/svg" xmlns:xlink="http://www.w3.org/1999/xlink" width="28" height="28" viewBox="0 0 28 28">
<path fill="#444444" d="M12.891 15.453l5.359-9.188h-2.344q-0.328 0.609-0.992 1.852t-1.062 2.008-0.93 1.852-0.938 2.008h-0.047q-0.328-0.75-0.695-1.516t-0.812-1.648-0.727-1.437-0.844-1.633-0.766-1.484h-2.344l5.047 9.203v6.797h2.094v-6.813zM24 6.5v15q0 1.859-1.32 3.18t-3.18 1.32h-15q-1.859 0-3.18-1.32t-1.32-3.18v-15q0-1.859 1.32-3.18t3.18-1.32h15q1.859 0 3.18 1.32t1.32 3.18z"></path>
</svg>
