<?xml version="1.0" encoding="utf-8"?>
<!-- Generated by IcoMoon.io -->
<!DOCTYPE svg PUBLIC "-//W3C//DTD SVG 1.1//EN" "http://www.w3.org/Graphics/SVG/1.1/DTD/svg11.dtd">
<svg version="1.1" xmlns="http://www.w3.org/2000/svg" xmlns:xlink="http://www.w3.org/1999/xlink" width="28" height="28" viewBox="0 0 28 28">
<path fill="#444444" d="M21.5 22h0.5v-10h-0.5q-0.547 0-1.055-0.187t-0.977-0.578-0.781-0.719-0.766-0.844q-0.031-0.047-0.055-0.070t-0.063-0.070-0.070-0.078q-1.125-1.266-1.75-2.266-0.219-0.344-0.594-1.062-0.016-0.047-0.164-0.352t-0.289-0.562-0.313-0.555-0.336-0.477-0.289-0.18q-1.109 0-1.805 0.477t-0.695 1.523q0 0.672 0.234 1.32t0.516 1.062 0.516 0.859 0.234 0.758h-9q-0.781 0-1.391 0.602t-0.609 1.398q0 0.812 0.594 1.406t1.406 0.594h5.172q-0.234 0.266-0.391 0.742t-0.156 0.867q0 1.078 0.828 1.859-0.281 0.5-0.281 1.078t0.273 1.148 0.742 0.82q-0.063 0.375-0.063 0.875 0 1.328 0.758 1.969t2.117 0.641q1.313 0 2.859-0.5t3.031-1 2.609-0.5zM26 21q0-0.406-0.297-0.703t-0.703-0.297-0.703 0.297-0.297 0.703 0.297 0.703 0.703 0.297 0.703-0.297 0.297-0.703zM28 12v10q0 0.828-0.586 1.414t-1.414 0.586h-4.5q-0.922 0-3.484 0.922-2.969 1.078-4.953 1.078-2.219 0-3.594-1.211t-1.359-3.398l0.016-0.078q-0.953-1.188-0.953-2.781 0-0.344 0.047-0.672-0.516-0.891-0.578-1.859h-2.641q-1.641 0-2.82-1.188t-1.18-2.828q0-1.609 1.188-2.797t2.812-1.188h5.844q-0.344-0.938-0.344-2 0-1.906 1.273-2.953t3.227-1.047q0.594 0 1.086 0.273t0.859 0.773 0.633 0.984 0.578 1.125 0.516 0.969q0.547 0.859 1.563 2.016 0.031 0.047 0.219 0.266t0.297 0.336 0.32 0.336 0.375 0.352 0.352 0.281 0.367 0.219 0.336 0.070h4.5q0.828 0 1.414 0.586t0.586 1.414z"></path>
</svg>
