<?xml version="1.0" encoding="utf-8"?>
<!-- Generated by IcoMoon.io -->
<!DOCTYPE svg PUBLIC "-//W3C//DTD SVG 1.1//EN" "http://www.w3.org/Graphics/SVG/1.1/DTD/svg11.dtd">
<svg version="1.1" xmlns="http://www.w3.org/2000/svg" xmlns:xlink="http://www.w3.org/1999/xlink" width="28" height="28" viewBox="0 0 28 28">
<path fill="#444444" d="M4 21q0-0.406-0.297-0.703t-0.703-0.297-0.703 0.297-0.297 0.703 0.297 0.703 0.703 0.297 0.703-0.297 0.297-0.703zM26 12q0-0.797-0.609-1.398t-1.391-0.602h-9q0-0.313 0.234-0.758t0.516-0.859 0.516-1.062 0.234-1.32q0-1.047-0.695-1.523t-1.805-0.477q-0.375 0-1.406 2.172-0.375 0.688-0.578 1.016-0.625 1-1.75 2.266-1.109 1.266-1.578 1.656-1.078 0.891-2.188 0.891h-0.5v10h0.5q1.125 0 2.609 0.5t3.023 1 2.805 0.5q2.953 0 2.953-2.609 0-0.406-0.078-0.875 0.469-0.25 0.742-0.82t0.273-1.148-0.281-1.078q0.828-0.781 0.828-1.859 0-0.391-0.156-0.867t-0.391-0.742h5.172q0.812 0 1.406-0.594t0.594-1.406zM28 11.984q0 1.641-1.18 2.828t-2.82 1.188h-2.641q-0.063 0.969-0.578 1.859 0.047 0.328 0.047 0.672 0 1.578-0.938 2.781 0.016 2.172-1.328 3.43t-3.547 1.258q-2.078 0-5.031-1.078-2.562-0.922-3.484-0.922h-4.5q-0.828 0-1.414-0.586t-0.586-1.414v-10q0-0.828 0.586-1.414t1.414-0.586h4.5q0.156 0 0.336-0.070t0.367-0.219 0.352-0.281 0.375-0.352 0.32-0.336 0.297-0.336 0.219-0.266q1.016-1.156 1.563-2.016 0.203-0.328 0.516-0.969t0.578-1.125 0.633-0.984 0.859-0.773 1.086-0.273q1.953 0 3.227 1.047t1.273 2.953q0 1.062-0.344 2h5.844q1.625 0 2.812 1.188t1.188 2.797z"></path>
</svg>
