<?xml version="1.0" encoding="utf-8"?>
<!-- Generated by IcoMoon.io -->
<!DOCTYPE svg PUBLIC "-//W3C//DTD SVG 1.1//EN" "http://www.w3.org/Graphics/SVG/1.1/DTD/svg11.dtd">
<svg version="1.1" xmlns="http://www.w3.org/2000/svg" xmlns:xlink="http://www.w3.org/1999/xlink" width="28" height="28" viewBox="0 0 28 28">
<path fill="#444444" d="M22 15q0-1.313-0.5-2.859t-1-3.031-0.5-2.609v-0.5h-10v0.5q0 0.547-0.187 1.055t-0.578 0.977-0.719 0.781-0.844 0.766q-0.141 0.125-0.219 0.187-1.266 1.125-2.266 1.75-0.344 0.219-1.062 0.594-0.047 0.016-0.352 0.164t-0.562 0.289-0.555 0.313-0.477 0.336-0.18 0.289q0 1.109 0.477 1.805t1.523 0.695q0.672 0 1.32-0.234t1.062-0.516 0.859-0.516 0.758-0.234v9q0 0.781 0.602 1.391t1.398 0.609q0.812 0 1.406-0.594t0.594-1.406v-5.172q0.719 0.547 1.609 0.547 1.078 0 1.859-0.828 0.5 0.281 1.078 0.281t1.148-0.273 0.82-0.742q0.375 0.063 0.875 0.063 1.328 0 1.969-0.758t0.641-2.117zM20 3q0-0.406-0.297-0.703t-0.703-0.297-0.703 0.297-0.297 0.703 0.297 0.703 0.703 0.297 0.703-0.297 0.297-0.703zM24 14.938q0 2.219-1.211 3.594t-3.398 1.359l-0.078-0.016q-1.188 0.953-2.781 0.953-0.344 0-0.672-0.047-0.844 0.469-1.859 0.578v2.641q0 1.641-1.188 2.82t-2.828 1.18q-1.609 0-2.797-1.188t-1.188-2.812v-5.844q-0.844 0.344-2 0.344-1.891 0-2.945-1.273t-1.055-3.227q0-0.594 0.273-1.086t0.773-0.859 0.984-0.633 1.125-0.578 0.969-0.516q0.859-0.547 2.016-1.563 0.047-0.031 0.266-0.219t0.336-0.297 0.336-0.32 0.352-0.375 0.281-0.352 0.219-0.367 0.070-0.336v-4.5q0-0.828 0.586-1.414t1.414-0.586h10q0.828 0 1.414 0.586t0.586 1.414v4.5q0 0.922 0.922 3.484 1.078 2.969 1.078 4.953z"></path>
</svg>
