<?xml version="1.0" encoding="utf-8"?>
<!-- Generated by IcoMoon.io -->
<!DOCTYPE svg PUBLIC "-//W3C//DTD SVG 1.1//EN" "http://www.w3.org/Graphics/SVG/1.1/DTD/svg11.dtd">
<svg version="1.1" xmlns="http://www.w3.org/2000/svg" xmlns:xlink="http://www.w3.org/1999/xlink" width="28" height="28" viewBox="0 0 28 28">
<path fill="#444444" d="M20 25q0-0.406-0.297-0.703t-0.703-0.297-0.703 0.297-0.297 0.703 0.297 0.703 0.703 0.297 0.703-0.297 0.297-0.703zM22 13.062q0-2.953-2.609-2.953-0.406 0-0.875 0.078-0.25-0.469-0.82-0.742t-1.148-0.273-1.078 0.281q-0.781-0.828-1.859-0.828-0.391 0-0.867 0.156t-0.742 0.391v-5.172q0-0.812-0.594-1.406t-1.406-0.594q-0.797 0-1.398 0.609t-0.602 1.391v9q-0.313 0-0.758-0.234t-0.859-0.516-1.062-0.516-1.32-0.234q-1.047 0-1.523 0.695t-0.477 1.805q0 0.375 2.172 1.406 0.688 0.375 1.016 0.578 1 0.625 2.266 1.75 1.266 1.109 1.656 1.578 0.891 1.078 0.891 2.188v0.5h10v-0.5q0-1.125 0.5-2.609t1-3.023 0.5-2.805zM24 12.984q0 2.078-1.078 5.031-0.922 2.562-0.922 3.484v4.5q0 0.828-0.586 1.414t-1.414 0.586h-10q-0.828 0-1.414-0.586t-0.586-1.414v-4.5q0-0.156-0.070-0.336t-0.219-0.367-0.281-0.352-0.352-0.375-0.336-0.32-0.336-0.297-0.266-0.219q-1.156-1.016-2.016-1.563-0.328-0.203-0.969-0.516t-1.125-0.578-0.984-0.633-0.773-0.859-0.273-1.086q0-1.953 1.047-3.227t2.953-1.273q1.062 0 2 0.344v-5.844q0-1.625 1.188-2.812t2.797-1.188q1.641 0 2.828 1.18t1.188 2.82v2.641q0.969 0.063 1.859 0.578 0.328-0.047 0.672-0.047 1.578 0 2.781 0.938 2.172-0.016 3.43 1.328t1.258 3.547z"></path>
</svg>
