<?xml version="1.0" encoding="utf-8"?>
<!-- Generated by IcoMoon.io -->
<!DOCTYPE svg PUBLIC "-//W3C//DTD SVG 1.1//EN" "http://www.w3.org/Graphics/SVG/1.1/DTD/svg11.dtd">
<svg version="1.1" xmlns="http://www.w3.org/2000/svg" xmlns:xlink="http://www.w3.org/1999/xlink" width="28" height="28" viewBox="0 0 28 28">
<path fill="#444444" d="M16.25 19q0 0.516-0.367 0.883t-0.883 0.367-0.883-0.367-0.367-0.883 0.367-0.883 0.883-0.367 0.883 0.367 0.367 0.883zM20.25 19q0 0.516-0.367 0.883t-0.883 0.367-0.883-0.367-0.367-0.883 0.367-0.883 0.883-0.367 0.883 0.367 0.367 0.883zM22 21.5v-5q0-0.203-0.148-0.352t-0.352-0.148h-19q-0.203 0-0.352 0.148t-0.148 0.352v5q0 0.203 0.148 0.352t0.352 0.148h19q0.203 0 0.352-0.148t0.148-0.352zM2.781 14h18.438l-2.453-7.531q-0.063-0.203-0.25-0.336t-0.406-0.133h-12.219q-0.219 0-0.406 0.133t-0.25 0.336zM24 16.5v5q0 1.031-0.734 1.766t-1.766 0.734h-19q-1.031 0-1.766-0.734t-0.734-1.766v-5q0-0.391 0.25-1.172l3.078-9.469q0.266-0.828 0.984-1.344t1.578-0.516h12.219q0.859 0 1.578 0.516t0.984 1.344l3.078 9.469q0.25 0.781 0.25 1.172z"></path>
</svg>
