<?xml version="1.0" encoding="utf-8"?>
<!-- Generated by IcoMoon.io -->
<!DOCTYPE svg PUBLIC "-//W3C//DTD SVG 1.1//EN" "http://www.w3.org/Graphics/SVG/1.1/DTD/svg11.dtd">
<svg version="1.1" xmlns="http://www.w3.org/2000/svg" xmlns:xlink="http://www.w3.org/1999/xlink" width="26" height="28" viewBox="0 0 26 28">
<path fill="#444444" d="M26 13.844q0 2.594-0.938 4.906l-0.313 0.766-2.891 0.516q-0.344 1.297-1.414 2.133t-2.445 0.836v0.5q0 0.219-0.141 0.359t-0.359 0.141h-1q-0.219 0-0.359-0.141t-0.141-0.359v-9q0-0.219 0.141-0.359t0.359-0.141h1q0.219 0 0.359 0.141t0.141 0.359v0.5q1.109 0 2.031 0.555t1.453 1.492l1.062-0.187q0.453-1.484 0.453-3.016 0-2.312-1.375-4.359t-3.695-3.266-4.93-1.219-4.93 1.219-3.695 3.266-1.375 4.359q0 1.531 0.453 3.016l1.062 0.187q0.531-0.938 1.453-1.492t2.031-0.555v-0.5q0-0.219 0.141-0.359t0.359-0.141h1q0.219 0 0.359 0.141t0.141 0.359v9q0 0.219-0.141 0.359t-0.359 0.141h-1q-0.219 0-0.359-0.141t-0.141-0.359v-0.5q-1.375 0-2.445-0.836t-1.414-2.133l-2.891-0.516-0.313-0.766q-0.938-2.312-0.938-4.906 0-2.359 1.047-4.547t2.797-3.789 4.156-2.555 5-0.953 5 0.953 4.156 2.555 2.797 3.789 1.047 4.547z"></path>
</svg>
