<?xml version="1.0" encoding="utf-8"?>
<!-- Generated by IcoMoon.io -->
<!DOCTYPE svg PUBLIC "-//W3C//DTD SVG 1.1//EN" "http://www.w3.org/Graphics/SVG/1.1/DTD/svg11.dtd">
<svg version="1.1" xmlns="http://www.w3.org/2000/svg" xmlns:xlink="http://www.w3.org/1999/xlink" width="28" height="28" viewBox="0 0 28 28">
<path fill="#444444" d="M26 9.312q0-1.266-0.336-2.234t-0.859-1.539-1.273-0.93-1.469-0.484-1.531-0.125-1.75 0.398-1.727 1-1.352 1.125-0.938 0.961q-0.281 0.344-0.766 0.344t-0.766-0.344q-0.375-0.438-0.938-0.961t-1.352-1.125-1.727-1-1.75-0.398-1.531 0.125-1.469 0.484-1.273 0.93-0.859 1.539-0.336 2.234q0 2.625 2.922 5.547l9.078 8.75 9.063-8.734q2.938-2.938 2.938-5.563zM28 9.312q0 3.453-3.578 7.031l-9.734 9.375q-0.281 0.281-0.688 0.281t-0.688-0.281l-9.75-9.406q-0.156-0.125-0.43-0.406t-0.867-1.023-1.062-1.523-0.836-1.891-0.367-2.156q0-3.437 1.984-5.375t5.484-1.937q0.969 0 1.977 0.336t1.875 0.906 1.492 1.070 1.188 1.062q0.562-0.562 1.188-1.062t1.492-1.070 1.875-0.906 1.977-0.336q3.5 0 5.484 1.937t1.984 5.375z"></path>
</svg>
