<?xml version="1.0" encoding="utf-8"?>
<!-- Generated by IcoMoon.io -->
<!DOCTYPE svg PUBLIC "-//W3C//DTD SVG 1.1//EN" "http://www.w3.org/Graphics/SVG/1.1/DTD/svg11.dtd">
<svg version="1.1" xmlns="http://www.w3.org/2000/svg" xmlns:xlink="http://www.w3.org/1999/xlink" width="28" height="28" viewBox="0 0 28 28">
<path fill="#444444" d="M20 16h4.766q-0.078 0.094-0.156 0.164t-0.141 0.117l-0.047 0.063-9.734 9.375q-0.281 0.281-0.688 0.281t-0.688-0.281l-9.75-9.406q-0.078-0.031-0.328-0.313h5.766q0.344 0 0.617-0.211t0.352-0.539l1.094-4.391 2.969 10.422q0.094 0.313 0.359 0.516t0.609 0.203q0.328 0 0.594-0.203t0.359-0.516l2.281-7.578 0.875 1.75q0.281 0.547 0.891 0.547zM28 9.312q0 2.266-1.609 4.688h-5.766l-1.734-3.453q-0.125-0.266-0.398-0.422t-0.57-0.125q-0.703 0.078-0.875 0.719l-2.016 6.719-3.063-10.719q-0.094-0.313-0.367-0.516t-0.617-0.203-0.609 0.211-0.344 0.539l-1.813 7.25h-6.609q-1.609-2.422-1.609-4.688 0-3.437 1.984-5.375t5.484-1.937q0.969 0 1.977 0.336t1.875 0.906 1.492 1.070 1.188 1.062q0.562-0.562 1.188-1.062t1.492-1.070 1.875-0.906 1.977-0.336q3.5 0 5.484 1.937t1.984 5.375z"></path>
</svg>
