<?xml version="1.0" encoding="utf-8"?>
<!-- Generated by IcoMoon.io -->
<!DOCTYPE svg PUBLIC "-//W3C//DTD SVG 1.1//EN" "http://www.w3.org/Graphics/SVG/1.1/DTD/svg11.dtd">
<svg version="1.1" xmlns="http://www.w3.org/2000/svg" xmlns:xlink="http://www.w3.org/1999/xlink" width="28" height="28" viewBox="0 0 28 28">
<path fill="#444444" d="M15.5 9.75v7.75q0 0.219-0.141 0.359t-0.359 0.141h-2.5q-0.219 0-0.359-0.141t-0.141-0.359v-7.75q0-1.75-1.25-3t-3-1.25h-4.25v18q0 0.219-0.141 0.359t-0.359 0.141h-2.5q-0.219 0-0.359-0.141t-0.141-0.359v-21q0-0.219 0.141-0.359t0.359-0.141h7.25q2.109 0 3.891 1.039t2.82 2.82 1.039 3.891zM21.5 2.5v13.75q0 2.109-1.039 3.891t-2.82 2.82-3.891 1.039h-7.25q-0.219 0-0.359-0.141t-0.141-0.359v-15q0-0.219 0.141-0.359t0.359-0.141h2.5q0.219 0 0.359 0.141t0.141 0.359v12h4.25q1.75 0 3-1.25t1.25-3v-13.75q0-0.219 0.141-0.359t0.359-0.141h2.5q0.219 0 0.359 0.141t0.141 0.359z"></path>
</svg>
