<?xml version="1.0" encoding="utf-8"?>
<!-- Generated by IcoMoon.io -->
<!DOCTYPE svg PUBLIC "-//W3C//DTD SVG 1.1//EN" "http://www.w3.org/Graphics/SVG/1.1/DTD/svg11.dtd">
<svg version="1.1" xmlns="http://www.w3.org/2000/svg" xmlns:xlink="http://www.w3.org/1999/xlink" width="14" height="28" viewBox="0 0 14 28">
<path fill="#444444" d="M14.031 7.344v1.594q0 0.219-0.141 0.359t-0.359 0.141h-2.625q-0.359 2.25-2.016 3.656t-4.312 1.719q2.609 2.781 7.172 8.375 0.219 0.25 0.063 0.531-0.125 0.281-0.453 0.281h-3.047q-0.25 0-0.391-0.187-4.781-5.734-7.781-8.922-0.141-0.141-0.141-0.344v-1.984q0-0.203 0.148-0.352t0.352-0.148h1.75q2.063 0 3.32-0.672t1.602-1.953h-6.672q-0.219 0-0.359-0.141t-0.141-0.359v-1.594q0-0.219 0.141-0.359t0.359-0.141h6.453q-0.891-1.766-4.188-1.766h-2.266q-0.203 0-0.352-0.148t-0.148-0.352v-2.078q0-0.219 0.141-0.359t0.359-0.141h13q0.219 0 0.359 0.141t0.141 0.359v1.594q0 0.219-0.141 0.359t-0.359 0.141h-3.641q0.734 0.953 1 2.25h2.672q0.219 0 0.359 0.141t0.141 0.359z"></path>
</svg>
