<?xml version="1.0" encoding="utf-8"?>
<!-- Generated by IcoMoon.io -->
<!DOCTYPE svg PUBLIC "-//W3C//DTD SVG 1.1//EN" "http://www.w3.org/Graphics/SVG/1.1/DTD/svg11.dtd">
<svg version="1.1" xmlns="http://www.w3.org/2000/svg" xmlns:xlink="http://www.w3.org/1999/xlink" width="32" height="28" viewBox="0 0 32 28">
<path fill="#444444" d="M22.859 13q0 0.547-0.391 0.945t-0.953 0.398h-10.969q-0.562 0-0.953-0.398t-0.391-0.945 0.391-0.945 0.953-0.398h10.969q0.562 0 0.953 0.398t0.391 0.945zM26.203 13q0-1.344-0.359-2.656h-15.344q-0.562 0-0.953-0.391t-0.391-0.938q0-0.562 0.391-0.953t0.953-0.391h14.187q-1.375-2.234-3.672-3.547t-5-1.313q-2.766 0-5.117 1.367t-3.719 3.711-1.367 5.109q0 1.344 0.359 2.656h15.344q0.562 0 0.953 0.391t0.391 0.938q0 0.562-0.391 0.953t-0.953 0.391h-14.187q1.375 2.234 3.68 3.547t5.008 1.313q2.063 0 3.953-0.805t3.25-2.172 2.172-3.25 0.812-3.961zM32 9.016q0 0.547-0.391 0.938t-0.953 0.391h-2.047q0.266 1.328 0.266 2.656 0 2.609-1.023 4.992t-2.742 4.109-4.102 2.75-4.992 1.023q-3.844 0-7.008-2.078t-4.711-5.469h-2.953q-0.562 0-0.953-0.391t-0.391-0.953q0-0.547 0.391-0.938t0.953-0.391h2.063q-0.266-1.328-0.266-2.656 0-2.609 1.023-4.992t2.742-4.109 4.102-2.75 5.008-1.023q3.828 0 6.992 2.078t4.711 5.469h2.938q0.562 0 0.953 0.391t0.391 0.953z"></path>
</svg>
