<?xml version="1.0" encoding="utf-8"?>
<!-- Generated by IcoMoon.io -->
<!DOCTYPE svg PUBLIC "-//W3C//DTD SVG 1.1//EN" "http://www.w3.org/Graphics/SVG/1.1/DTD/svg11.dtd">
<svg version="1.1" xmlns="http://www.w3.org/2000/svg" xmlns:xlink="http://www.w3.org/1999/xlink" width="16" height="28" viewBox="0 0 16 28">
<path fill="#444444" d="M0 25.969l0.266-1.328q0.094-0.031 1.273-0.336t1.742-0.586q0.438-0.547 0.641-1.578 0.016-0.109 0.969-4.516t1.781-8.492 0.812-4.633v-0.391q-0.375-0.203-0.852-0.289t-1.086-0.125-0.906-0.086l0.297-1.609q0.516 0.031 1.875 0.102t2.336 0.109 1.883 0.039q0.75 0 1.539-0.039t1.891-0.109 1.539-0.102q-0.078 0.609-0.297 1.391-0.469 0.156-1.586 0.445t-1.695 0.523q-0.125 0.297-0.219 0.664t-0.141 0.625-0.117 0.711-0.102 0.656q-0.422 2.312-1.367 6.555t-1.211 5.555q-0.031 0.141-0.203 0.906t-0.313 1.406-0.25 1.305-0.094 0.898l0.016 0.281q0.266 0.063 2.891 0.484-0.047 0.688-0.25 1.547-0.172 0-0.508 0.023t-0.508 0.023q-0.453 0-1.359-0.156t-1.344-0.156q-2.156-0.031-3.219-0.031-0.797 0-2.234 0.141t-1.891 0.172z"></path>
</svg>
