<?xml version="1.0" encoding="utf-8"?>
<!-- Generated by IcoMoon.io -->
<!DOCTYPE svg PUBLIC "-//W3C//DTD SVG 1.1//EN" "http://www.w3.org/Graphics/SVG/1.1/DTD/svg11.dtd">
<svg version="1.1" xmlns="http://www.w3.org/2000/svg" xmlns:xlink="http://www.w3.org/1999/xlink" width="28" height="28" viewBox="0 0 28 28">
<path fill="#444444" d="M16.719 16.766l-2.5 2.5-2.359 2.375-0.469 0.469q-1.016 1-2.367 1.359t-2.68 0.031q-0.25 1.094-1.125 1.797t-2.016 0.703q-1.328 0-2.266-0.945t-0.938-2.273q0-1.125 0.695-2t1.773-1.125q-0.344-1.344 0.016-2.703t1.375-2.375l0.187-0.187 2.359 2.375-0.172 0.172q-0.578 0.578-0.578 1.391t0.578 1.406q0.578 0.578 1.391 0.578t1.391-0.578l0.469-0.469 2.359-2.375 2.516-2.5zM11.391 6.109l0.187 0.187-2.375 2.375-0.187-0.187q-0.578-0.578-1.391-0.578t-1.391 0.578-0.578 1.398 0.578 1.398l5.328 5.328-2.359 2.375-2.516-2.5-2.359-2.375-0.469-0.469q-1.062-1.047-1.406-2.492t0.078-2.805q-1.094-0.234-1.797-1.109t-0.703-2.016q0-1.328 0.938-2.273t2.266-0.945q1.188 0 2.086 0.766t1.086 1.922q1.313-0.313 2.648 0.055t2.336 1.367zM24 22.781q0 1.328-0.938 2.273t-2.266 0.945q-1.156 0-2.047-0.734t-1.109-1.844q-1.344 0.438-2.805 0.094t-2.523-1.406l-0.172-0.187 2.359-2.375 0.187 0.187q0.578 0.578 1.391 0.578t1.391-0.578 0.578-1.391-0.578-1.391l-5.344-5.344 2.375-2.375 4.875 4.875 0.453 0.469q1 1 1.367 2.352t0.039 2.68q1.188 0.172 1.977 1.070t0.789 2.102zM23.969 5.219q0 1.203-0.797 2.109t-1.984 1.078q0.406 1.328 0.047 2.758t-1.406 2.477l-0.187 0.187-2.359-2.375 0.187-0.187q0.578-0.578 0.578-1.391t-0.578-1.391-1.391-0.578-1.391 0.578l-5.344 5.344-2.375-2.375 2.516-2.5 2.375-2.375 0.453-0.469q1.047-1.047 2.484-1.398t2.781 0.055q0.172-1.172 1.070-1.969t2.117-0.797q1.328 0 2.266 0.945t0.938 2.273z"></path>
</svg>
