<?xml version="1.0" encoding="utf-8"?>
<!-- Generated by IcoMoon.io -->
<!DOCTYPE svg PUBLIC "-//W3C//DTD SVG 1.1//EN" "http://www.w3.org/Graphics/SVG/1.1/DTD/svg11.dtd">
<svg version="1.1" xmlns="http://www.w3.org/2000/svg" xmlns:xlink="http://www.w3.org/1999/xlink" width="32" height="28" viewBox="0 0 32 28">
<path fill="#444444" d="M28.125 12.063q1.734 0.719 2.805 2.273t1.070 3.461q0 2.562-1.844 4.383t-4.453 1.82q-0.063 0-0.18-0.008t-0.164-0.008h-19.016q-2.656-0.156-4.5-1.961t-1.844-4.383q0-1.719 0.859-3.172t2.297-2.297q-0.187-0.609-0.187-1.281 0-1.797 1.281-3.063t3.109-1.266q1.484 0 2.688 0.906 1.172-2.406 3.477-3.875t5.102-1.469q2.594 0 4.781 1.258t3.461 3.414 1.273 4.703q0 0.094-0.008 0.281t-0.008 0.281zM7.313 16.219q0 1.906 1.313 3.016t3.25 1.109q2.141 0 3.75-1.547-0.25-0.313-0.742-0.883t-0.68-0.789q-1.047 1.016-2.25 1.016-0.859 0-1.461-0.523t-0.602-1.367q0-0.828 0.602-1.359t1.43-0.531q0.688 0 1.32 0.328t1.141 0.859 1.016 1.172 1.078 1.281 1.203 1.172 1.516 0.859 1.898 0.328q1.891 0 3.195-1.117t1.305-2.977q0-1.891-1.313-3t-3.234-1.109q-2.234 0-3.766 1.516 0.219 0.25 0.461 0.531t0.539 0.625 0.453 0.531q1.031-1 2.219-1 0.812 0 1.437 0.516t0.625 1.313q0 0.891-0.578 1.43t-1.469 0.539q-0.672 0-1.289-0.328t-1.125-0.859-1.023-1.172-1.086-1.281-1.211-1.172-1.508-0.859-1.852-0.328q-1.906 0-3.234 1.102t-1.328 2.961z"></path>
</svg>
