<?xml version="1.0" encoding="utf-8"?>
<!-- Generated by IcoMoon.io -->
<!DOCTYPE svg PUBLIC "-//W3C//DTD SVG 1.1//EN" "http://www.w3.org/Graphics/SVG/1.1/DTD/svg11.dtd">
<svg version="1.1" xmlns="http://www.w3.org/2000/svg" xmlns:xlink="http://www.w3.org/1999/xlink" width="28" height="28" viewBox="0 0 28 28">
<path fill="#444444" d="M13 8q0-1.25-0.875-2.125t-2.125-0.875-2.125 0.875-0.875 2.125q0 0.656 0.297 1.297-0.641-0.297-1.297-0.297-1.25 0-2.125 0.875t-0.875 2.125 0.875 2.125 2.125 0.875 2.125-0.875 0.875-2.125q0-0.656-0.297-1.297 0.641 0.297 1.297 0.297 1.25 0 2.125-0.875t0.875-2.125zM26.297 19q0 0.266-0.766 1.031t-1.031 0.766q-0.141 0-0.445-0.25t-0.57-0.516-0.602-0.625-0.383-0.406l-1.5 1.5 3.437 3.437q0.438 0.438 0.438 1.062 0 0.656-0.609 1.266t-1.266 0.609q-0.625 0-1.062-0.438l-10.484-10.484q-2.75 2.047-5.703 2.047-2.547 0-4.148-1.602t-1.602-4.148q0-2.5 1.484-4.891t3.875-3.875 4.891-1.484q2.547 0 4.148 1.602t1.602 4.148q0 2.953-2.047 5.703l5.547 5.547 1.5-1.5q-0.047-0.047-0.406-0.383t-0.625-0.602-0.516-0.57-0.25-0.445q0-0.266 0.766-1.031t1.031-0.766q0.203 0 0.359 0.156 0.094 0.094 0.719 0.695t1.281 1.242 1.352 1.344 1.141 1.219 0.445 0.641z"></path>
</svg>
