<?xml version="1.0" encoding="utf-8"?>
<!-- Generated by IcoMoon.io -->
<!DOCTYPE svg PUBLIC "-//W3C//DTD SVG 1.1//EN" "http://www.w3.org/Graphics/SVG/1.1/DTD/svg11.dtd">
<svg version="1.1" xmlns="http://www.w3.org/2000/svg" xmlns:xlink="http://www.w3.org/1999/xlink" width="28" height="28" viewBox="0 0 28 28">
<path fill="#444444" d="M8.031 18.672l1.266-4.672h-2.484l1.172 4.688q0.016 0.016 0.016 0.047t0.016 0.047q0-0.016 0.008-0.055t0.008-0.055zM9.844 12l0.547-2h-4.562l0.5 2h3.516zM12.844 12h2.172l-0.547-2h-1.094zM19.859 18.688l1.219-4.688h-2.531l1.266 4.672q0 0.016 0.008 0.055t0.023 0.055q0-0.016 0.008-0.047t0.008-0.047zM21.594 12l0.516-2h-4.641l0.531 2h3.594zM28 12.5v1q0 0.219-0.141 0.359t-0.359 0.141h-3.328l-2.562 9.625q-0.109 0.375-0.484 0.375h-2.484q-0.375 0-0.484-0.375l-2.594-9.625h-3.266l-2.609 9.625q-0.109 0.375-0.484 0.375h-2.484q-0.172 0-0.305-0.109t-0.164-0.266l-2.5-9.625h-3.25q-0.219 0-0.359-0.141t-0.141-0.359v-1q0-0.219 0.141-0.359t0.359-0.141h2.734l-0.516-2h-2.219q-0.219 0-0.359-0.141t-0.141-0.359v-1q0-0.219 0.141-0.359t0.359-0.141h1.703l-1.391-5.375q-0.078-0.234 0.078-0.438 0.156-0.187 0.406-0.187h2.141q0.406 0 0.484 0.375l1.406 5.625h5.609l1.516-5.625q0.109-0.375 0.484-0.375h1.969q0.375 0 0.484 0.375l1.531 5.625h5.703l1.453-5.625q0.078-0.375 0.484-0.375h2.141q0.25 0 0.406 0.187 0.156 0.203 0.078 0.438l-1.422 5.375h1.734q0.219 0 0.359 0.141t0.141 0.359v1q0 0.219-0.141 0.359t-0.359 0.141h-2.266l-0.531 2h2.797q0.219 0 0.359 0.141t0.141 0.359z"></path>
</svg>
