<?xml version="1.0" encoding="utf-8"?>
<!-- Generated by IcoMoon.io -->
<!DOCTYPE svg PUBLIC "-//W3C//DTD SVG 1.1//EN" "http://www.w3.org/Graphics/SVG/1.1/DTD/svg11.dtd">
<svg version="1.1" xmlns="http://www.w3.org/2000/svg" xmlns:xlink="http://www.w3.org/1999/xlink" width="28" height="28" viewBox="0 0 28 28">
<path fill="#444444" d="M10.219 16.844q-0.016 0.047-0.195-0.008t-0.492-0.18l-0.313-0.141q-0.688-0.313-1.359-0.766-0.109-0.078-0.641-0.492t-0.594-0.445q-1.047 1.609-2.094 2.828-1.266 1.484-1.641 1.719-0.063 0.031-0.305 0.063t-0.289 0q0.094-0.063 1.281-1.437 0.328-0.375 1.336-1.797t1.227-1.844q0.266-0.469 0.797-1.539t0.562-1.211q-0.125-0.016-1.719 0.516-0.125 0.031-0.43 0.117t-0.539 0.148-0.266 0.078q-0.031 0.031-0.031 0.164t-0.016 0.148q-0.078 0.156-0.484 0.234-0.359 0.109-0.734 0-0.281-0.063-0.438-0.328-0.063-0.094-0.078-0.359 0.094-0.031 0.383-0.078t0.461-0.094q0.906-0.25 1.641-0.5 1.563-0.547 1.594-0.547 0.156-0.031 0.672-0.305t0.688-0.336q0.141-0.047 0.336-0.125t0.227-0.086 0.094 0.008q0.031 0.187-0.016 0.516 0 0.031-0.195 0.422t-0.414 0.836-0.266 0.523q-0.391 0.781-1.203 2.047l1 0.438q0.187 0.094 1.164 0.5t1.055 0.438q0.063 0.016 0.164 0.398t0.070 0.477zM7.016 9.25q0.047 0.234-0.063 0.438-0.187 0.359-0.781 0.594-0.469 0.187-0.938 0.187-0.406-0.047-0.766-0.406-0.219-0.234-0.281-0.641l0.016-0.047q0.047 0.047 0.305 0.078t0.414 0 0.906-0.25q0.562-0.187 0.859-0.219 0.266 0 0.328 0.266zM17.922 11.266l0.984 3.547-2.172-0.656zM0.609 23.766l10.844-3.625v-16.125l-10.844 3.641v16.109zM20 18.813l1.594 0.484-2.828-10.266-1.563-0.484-3.375 8.375 1.594 0.484 0.703-1.719 3.297 1.016zM12.141 3.781l8.953 2.875v-5.938zM17 24.453l2.469 0.203-0.844 2.5-0.625-1.031q-2.031 1.297-4.312 1.687-0.906 0.187-1.422 0.187h-1.313q-1.234 0-3.117-0.609t-2.867-1.328q-0.125-0.109-0.125-0.25 0-0.125 0.078-0.211t0.203-0.086q0.063 0 0.281 0.117t0.477 0.258 0.32 0.172q1.141 0.578 2.492 0.961t2.461 0.383q1.484 0 2.609-0.227t2.453-0.789q0.234-0.109 0.477-0.242t0.531-0.297 0.445-0.258zM24 7.594v16.859l-12.094-3.844q-0.219 0.094-5.859 1.992t-5.75 1.898q-0.203 0-0.281-0.203 0-0.016-0.016-0.047v-16.844q0.047-0.141 0.063-0.156 0.078-0.094 0.313-0.172 1.656-0.547 2.328-0.781v-6l8.719 3.094q0.031 0 2.508-0.859t4.937-1.695 2.523-0.836q0.313 0 0.313 0.328v6.531z"></path>
</svg>
