<?xml version="1.0" encoding="utf-8"?>
<!-- Generated by IcoMoon.io -->
<!DOCTYPE svg PUBLIC "-//W3C//DTD SVG 1.1//EN" "http://www.w3.org/Graphics/SVG/1.1/DTD/svg11.dtd">
<svg version="1.1" xmlns="http://www.w3.org/2000/svg" xmlns:xlink="http://www.w3.org/1999/xlink" width="30" height="28" viewBox="0 0 30 28">
<path fill="#444444" d="M6.5 20q-1.031 0-1.766-0.734t-0.734-1.766v-11q0-1.031 0.734-1.766t1.766-0.734h17q1.031 0 1.766 0.734t0.734 1.766v11q0 1.031-0.734 1.766t-1.766 0.734h-17zM6 6.5v11q0 0.203 0.148 0.352t0.352 0.148h17q0.203 0 0.352-0.148t0.148-0.352v-11q0-0.203-0.148-0.352t-0.352-0.148h-17q-0.203 0-0.352 0.148t-0.148 0.352zM27.5 21h2.5v1.5q0 0.625-0.734 1.062t-1.766 0.438h-25q-1.031 0-1.766-0.438t-0.734-1.062v-1.5h27.5zM16.25 22.5q0.25 0 0.25-0.25t-0.25-0.25h-2.5q-0.25 0-0.25 0.25t0.25 0.25h2.5z"></path>
</svg>
