<?xml version="1.0" encoding="utf-8"?>
<!-- Generated by IcoMoon.io -->
<!DOCTYPE svg PUBLIC "-//W3C//DTD SVG 1.1//EN" "http://www.w3.org/Graphics/SVG/1.1/DTD/svg11.dtd">
<svg version="1.1" xmlns="http://www.w3.org/2000/svg" xmlns:xlink="http://www.w3.org/1999/xlink" width="28" height="28" viewBox="0 0 28 28">
<path fill="#444444" d="M20.188 11q0 0.094 0.156 0.641 0.156 0.453 0.391 0.773t0.641 0.531 0.688 0.313 0.859 0.258q5.078 1.422 5.078 5.187 0 2.281-1.648 3.789t-3.977 1.508q-0.922 0-1.742-0.289t-1.43-0.711-1.203-1.164-0.984-1.367-0.836-1.617-0.68-1.609-0.617-1.664-0.555-1.484q-0.5-1.266-0.961-2.086t-1.148-1.508-1.625-1-2.219-0.313q-1.5 0-2.859 0.867t-2.156 2.258-0.797 2.891q0 2.5 1.664 4.367t4.117 1.867q2.766 0 4.031-1.484 0.875-0.984 1.297-1.813l1.313 2.375q-0.234 0.531-0.688 1.094l0.016 0.016q-2.047 2.375-6.062 2.375-2.297 0-4.211-1.234t-2.977-3.242-1.062-4.289q0-1.641 0.68-3.219t1.813-2.758 2.688-1.898 3.195-0.719q1.359 0 2.484 0.297t1.93 0.781 1.484 1.25 1.133 1.547 0.914 1.828 0.789 1.945 0.781 2.039 0.859 1.984q1.5 3.125 3.641 3.125 1.266 0 2.164-0.758t0.898-2.008q0-0.656-0.297-1.125t-0.789-0.719-1.133-0.492-1.32-0.422-1.367-0.531-1.266-0.812-1.016-1.281-0.609-1.914q-0.047-0.25-0.047-0.516 0-1.719 1.367-3t3.102-1.219q1.219 0.047 1.883 0.227t1.414 0.836h-0.016q0.187 0.172 0.359 0.383t0.406 0.562 0.297 0.43l-2.016 1.547q-0.406-0.766-0.844-1.094v-0.016q-0.359-0.328-1.516-0.328-0.766 0-1.313 0.516t-0.547 1.297z"></path>
</svg>
