<?xml version="1.0" encoding="utf-8"?>
<!-- Generated by IcoMoon.io -->
<!DOCTYPE svg PUBLIC "-//W3C//DTD SVG 1.1//EN" "http://www.w3.org/Graphics/SVG/1.1/DTD/svg11.dtd">
<svg version="1.1" xmlns="http://www.w3.org/2000/svg" xmlns:xlink="http://www.w3.org/1999/xlink" width="28" height="28" viewBox="0 0 28 28">
<path fill="#444444" d="M22.375 16.438q0-2.703-3.656-3.734-0.547-0.156-0.828-0.258t-0.594-0.391-0.453-0.727q0-0.031-0.031-0.133t-0.047-0.187-0.016-0.117q0-0.562 0.383-0.93t0.945-0.367q0.844 0 1.109 0.234h-0.016q0.313 0.234 0.609 0.797l1.453-1.109q-0.609-0.844-0.766-1-0.516-0.453-1.055-0.609t-1.336-0.156q-1.25 0-2.219 0.898t-0.969 2.148q0 0.109 0.031 0.359 0.25 1.5 1.008 2.188t2.32 1.141q0.453 0.125 0.766 0.242t0.703 0.336 0.602 0.539 0.211 0.727v0.078q0.016 0.906-0.633 1.453t-1.57 0.547q-1.516 0-2.609-2.25-0.359-0.734-0.805-1.898t-0.75-1.961-0.844-1.727-1.156-1.492-1.617-0.945-2.297-0.383q-1.578 0-3 0.875t-2.25 2.312-0.781 3v0.016q0.063 1.687 0.789 3.109t2.086 2.305 3.063 0.883q2.906 0 4.359-1.719 0.313-0.422 0.484-0.797l-0.938-1.703q-0.656 1.25-1.547 1.813t-2.281 0.562q-1.797 0-2.984-1.359t-1.188-3.187q0-1.641 1.281-2.953t2.906-1.313q1.75 0 2.656 0.836t1.625 2.695q0.125 0.328 0.398 1.070t0.445 1.195 0.492 1.164 0.602 1.156 0.711 0.977 0.867 0.836 1.031 0.516 1.25 0.211q1.672 0 2.859-1.086t1.188-2.727zM24 6.5v15q0 1.859-1.32 3.18t-3.18 1.32h-15q-1.859 0-3.18-1.32t-1.32-3.18v-15q0-1.859 1.32-3.18t3.18-1.32h15q1.859 0 3.18 1.32t1.32 3.18z"></path>
</svg>
