<?xml version="1.0" encoding="utf-8"?>
<!-- Generated by IcoMoon.io -->
<!DOCTYPE svg PUBLIC "-//W3C//DTD SVG 1.1//EN" "http://www.w3.org/Graphics/SVG/1.1/DTD/svg11.dtd">
<svg version="1.1" xmlns="http://www.w3.org/2000/svg" xmlns:xlink="http://www.w3.org/1999/xlink" width="28" height="28" viewBox="0 0 28 28">
<path fill="#444444" d="M20 11q0-0.406-0.297-0.703t-0.703-0.297q-2.688 0-4.969 0.773t-4.055 2.094-3.68 3.43q-0.297 0.328-0.297 0.703 0 0.406 0.297 0.703t0.703 0.297q0.375 0 0.703-0.297 0.422-0.375 1.156-1.109t1.047-1.031q2.141-1.937 4.195-2.75t4.898-0.812q0.406 0 0.703-0.297t0.297-0.703zM28 7.906q0 1.484-0.313 3.016-0.719 3.5-2.883 5.984t-5.586 4.188q-3.344 1.687-6.844 1.687-2.312 0-4.469-0.734-0.234-0.078-1.375-0.656t-1.5-0.578q-0.25 0-0.617 0.5t-0.703 1.094-0.82 1.094-0.938 0.5q-0.469 0-0.797-0.172t-0.484-0.375-0.422-0.656q-0.031-0.063-0.094-0.172t-0.086-0.156-0.047-0.148-0.023-0.211q0-0.547 0.484-1.148t1.062-1.023 1.062-0.875 0.484-0.75q0-0.063-0.219-0.594t-0.25-0.688q-0.141-0.797-0.141-1.625 0-1.797 0.68-3.437t1.859-2.883 2.664-2.172 3.187-1.492q0.859-0.281 2.266-0.398t2.805-0.141 2.789-0.094 2.555-0.375 1.773-0.883l0.461-0.461t0.461-0.438 0.422-0.313 0.57-0.25 0.68-0.070q0.609 0 1.102 0.719t0.742 1.75 0.375 1.937 0.125 1.5z"></path>
</svg>
