<?xml version="1.0" encoding="utf-8"?>
<!-- Generated by IcoMoon.io -->
<!DOCTYPE svg PUBLIC "-//W3C//DTD SVG 1.1//EN" "http://www.w3.org/Graphics/SVG/1.1/DTD/svg11.dtd">
<svg version="1.1" xmlns="http://www.w3.org/2000/svg" xmlns:xlink="http://www.w3.org/1999/xlink" width="32" height="28" viewBox="0 0 32 28">
<path fill="#444444" d="M29.578 6.125l2.422 19.875q-2.047 0-4.016-0.891-3.125-1.422-6.141-1.422-3.531 0-5.844 2.312-2.312-2.312-5.844-2.312-3.016 0-6.141 1.422-2 0.891-3.938 0.891h-0.078l2.422-19.875q3.5-1.984 7.531-1.984 3.641 0 6.047 1.656 2.406-1.656 6.047-1.656 4.031 0 7.531 1.984zM21.844 21.547q2.016 0 3.625 0.445t4.062 1.461l-1.937-15.953q-2.672-1.219-5.75-1.219-3.5 0-5.844 2.203-2.344-2.203-5.844-2.203-3.078 0-5.75 1.219l-1.937 15.953q1.641-0.672 2.586-1.016t2.32-0.617 2.781-0.273q3.156 0 5.844 1.687 2.688-1.687 5.844-1.687zM22.469 21.016l-0.859-14.172q-3.297 0.063-5.609 2.422-2.375-2.422-5.844-2.422-2.75 0-5.25 1.031l-1.781 14.703q1.937-0.797 3.57-1.188t3.461-0.391q3.266 0 5.844 1.594 2.688-1.672 5.844-1.594z"></path>
</svg>
