<?xml version="1.0" encoding="utf-8"?>
<!-- Generated by IcoMoon.io -->
<!DOCTYPE svg PUBLIC "-//W3C//DTD SVG 1.1//EN" "http://www.w3.org/Graphics/SVG/1.1/DTD/svg11.dtd">
<svg version="1.1" xmlns="http://www.w3.org/2000/svg" xmlns:xlink="http://www.w3.org/1999/xlink" width="28" height="28" viewBox="0 0 28 28">
<path fill="#444444" d="M21.984 12.906q0-0.688-0.109-1.773t-0.281-1.508q-0.187-0.469-0.266-0.688t-0.141-0.57-0.063-0.758q0-0.359 0.078-1.070t0.078-1.055q0-0.578-0.156-0.859-0.063-0.016-0.203-0.016-0.297 0-0.906 0.070t-0.922 0.070q-0.938 0-2.75-0.375t-2.734-0.375q-0.672 0-1.477 0.18t-1.328 0.367-1.398 0.531q-2.141 0.844-3.156 1.609-1.5 1.141-2.492 2.961t-1.375 3.687-0.383 3.883q0 0.625 0.195 1.875t0.195 1.891q0 0.359-0.172 1.039t-0.172 1.023 0.187 0.57 0.531 0.227q0.375 0 1.133-0.172t1.148-0.172q0.891 0 2.648 0.242t2.648 0.242q2.828 0 4.438-0.562 2.016-0.703 3.68-2.383t2.594-3.836 0.93-4.297zM23.984 12.875q0 2.578-1.094 5.117t-3.063 4.5-4.391 2.82q-1.937 0.688-5.094 0.688-0.891 0-2.656-0.227t-2.641-0.227q-0.375 0-1.133 0.227t-1.148 0.227q-1.141 0-1.93-0.867t-0.789-2.008q0-0.375 0.172-1.062t0.172-1.047q0-0.625-0.195-1.883t-0.195-1.898q0-1.734 0.281-3.398t0.852-3.273 1.57-3.031 2.344-2.438q1.219-0.922 3.625-1.875 3.031-1.219 4.937-1.219 0.938 0 2.742 0.375t2.711 0.375q0.297 0 0.891-0.078t0.906-0.078q1.266 0 1.844 0.789t0.578 2.102q0 0.359-0.078 1.062t-0.078 1.062q0 0.156 0.016 0.289t0.047 0.266 0.063 0.211 0.102 0.25 0.102 0.266q0.25 0.625 0.391 1.852t0.141 2.133z"></path>
</svg>
