<?xml version="1.0" encoding="utf-8"?>
<!-- Generated by IcoMoon.io -->
<!DOCTYPE svg PUBLIC "-//W3C//DTD SVG 1.1//EN" "http://www.w3.org/Graphics/SVG/1.1/DTD/svg11.dtd">
<svg version="1.1" xmlns="http://www.w3.org/2000/svg" xmlns:xlink="http://www.w3.org/1999/xlink" width="28" height="28" viewBox="0 0 28 28">
<path fill="#444444" d="M14 0q2.844 0 5.437 1.109t4.469 2.984 2.984 4.469 1.109 5.437-1.109 5.437-2.984 4.469-4.469 2.984-5.437 1.109-5.437-1.109-4.469-2.984-2.984-4.469-1.109-5.437 1.109-5.437 2.984-4.469 4.469-2.984 5.437-1.109zM14 2q-2.969 0-5.641 1.406l3.031 3.031q1.281-0.438 2.609-0.438t2.609 0.438l3.031-3.031q-2.672-1.406-5.641-1.406zM3.406 19.641l3.031-3.031q-0.438-1.281-0.438-2.609t0.438-2.609l-3.031-3.031q-1.406 2.672-1.406 5.641t1.406 5.641zM14 26q2.969 0 5.641-1.406l-3.031-3.031q-1.281 0.438-2.609 0.438t-2.609-0.438l-3.031 3.031q2.672 1.406 5.641 1.406zM14 20q2.484 0 4.242-1.758t1.758-4.242-1.758-4.242-4.242-1.758-4.242 1.758-1.758 4.242 1.758 4.242 4.242 1.758zM21.562 16.609l3.031 3.031q1.406-2.672 1.406-5.641t-1.406-5.641l-3.031 3.031q0.438 1.281 0.438 2.609t-0.438 2.609z"></path>
</svg>
