<?xml version="1.0" encoding="utf-8"?>
<!-- Generated by IcoMoon.io -->
<!DOCTYPE svg PUBLIC "-//W3C//DTD SVG 1.1//EN" "http://www.w3.org/Graphics/SVG/1.1/DTD/svg11.dtd">
<svg version="1.1" xmlns="http://www.w3.org/2000/svg" xmlns:xlink="http://www.w3.org/1999/xlink" width="16" height="28" viewBox="0 0 16 28">
<path fill="#444444" d="M11.5 9q0 0.203-0.148 0.352t-0.352 0.148-0.352-0.148-0.148-0.352q0-0.719-0.844-1.109t-1.656-0.391q-0.203 0-0.352-0.148t-0.148-0.352 0.148-0.352 0.352-0.148q0.781 0 1.555 0.25t1.359 0.844 0.586 1.406zM14 9q0-1.125-0.539-2.094t-1.406-1.586-1.922-0.969-2.133-0.352-2.133 0.352-1.922 0.969-1.406 1.586-0.539 2.094q0 1.578 1.062 2.812 0.156 0.172 0.477 0.516t0.477 0.516q2 2.391 2.203 4.656h3.563q0.203-2.266 2.203-4.656 0.156-0.172 0.477-0.516t0.477-0.516q1.062-1.234 1.062-2.812zM16 9q0 2.422-1.609 4.188-0.703 0.766-1.164 1.359t-0.93 1.492-0.531 1.68q0.734 0.438 0.734 1.281 0 0.578-0.391 1 0.391 0.422 0.391 1 0 0.812-0.703 1.266 0.203 0.359 0.203 0.734 0 0.719-0.492 1.109t-1.211 0.391q-0.313 0.688-0.938 1.094t-1.359 0.406-1.359-0.406-0.938-1.094q-0.719 0-1.211-0.391t-0.492-1.109q0-0.375 0.203-0.734-0.703-0.453-0.703-1.266 0-0.578 0.391-1-0.391-0.422-0.391-1 0-0.844 0.734-1.281-0.063-0.781-0.531-1.68t-0.93-1.492-1.164-1.359q-1.609-1.766-1.609-4.188 0-1.547 0.695-2.883t1.828-2.219 2.562-1.391 2.914-0.508 2.914 0.508 2.562 1.391 1.828 2.219 0.695 2.883z"></path>
</svg>
