<?xml version="1.0" encoding="utf-8"?>
<!-- Generated by IcoMoon.io -->
<!DOCTYPE svg PUBLIC "-//W3C//DTD SVG 1.1//EN" "http://www.w3.org/Graphics/SVG/1.1/DTD/svg11.dtd">
<svg version="1.1" xmlns="http://www.w3.org/2000/svg" xmlns:xlink="http://www.w3.org/1999/xlink" width="32" height="28" viewBox="0 0 32 28">
<path fill="#444444" d="M32 24v2h-32v-24h2v22h30zM30 4.5v6.797q0 0.328-0.305 0.461t-0.555-0.117l-1.891-1.891-9.891 9.891q-0.156 0.156-0.359 0.156t-0.359-0.156l-3.641-3.641-6.5 6.5-3-3 9.141-9.141q0.156-0.156 0.359-0.156t0.359 0.156l3.641 3.641 7.25-7.25-1.891-1.891q-0.25-0.25-0.117-0.555t0.461-0.305h6.797q0.219 0 0.359 0.141t0.141 0.359z"></path>
</svg>
