<?xml version="1.0" encoding="utf-8"?>
<!-- Generated by IcoMoon.io -->
<!DOCTYPE svg PUBLIC "-//W3C//DTD SVG 1.1//EN" "http://www.w3.org/Graphics/SVG/1.1/DTD/svg11.dtd">
<svg version="1.1" xmlns="http://www.w3.org/2000/svg" xmlns:xlink="http://www.w3.org/1999/xlink" width="28" height="28" viewBox="0 0 28 28">
<path fill="#444444" d="M10.359 6.422q-0.172 0.016-0.242 0.164t-0.133 0.148q-0.078 0.016-0.078-0.078 0-0.187 0.297-0.234h0.156zM11.719 6.641q-0.063 0.016-0.18-0.102t-0.273-0.070q0.375-0.172 0.5 0.031 0.047 0.094-0.047 0.141zM6.234 13.312q-0.063-0.016-0.094 0.047t-0.070 0.195-0.086 0.211-0.156 0.203q-0.109 0.156-0.016 0.187 0.063 0.016 0.195-0.109t0.195-0.281q0.016-0.047 0.031-0.109t0.031-0.094 0.023-0.070 0.008-0.063v-0.047t-0.016-0.039-0.047-0.031zM19.594 18.922q0-0.281-0.859-0.656 0.063-0.234 0.117-0.43t0.078-0.406 0.047-0.336 0.008-0.352-0.016-0.305-0.055-0.344-0.063-0.32-0.078-0.391-0.086-0.414q-0.156-0.75-0.734-1.609t-1.125-1.172q0.375 0.313 0.891 1.297 1.359 2.531 0.844 4.344-0.172 0.625-0.781 0.656-0.484 0.063-0.602-0.289t-0.125-1.305-0.18-1.672q-0.141-0.609-0.305-1.078t-0.305-0.711-0.242-0.383-0.203-0.234-0.117-0.109q-0.219-0.969-0.484-1.609t-0.461-0.875-0.367-0.516-0.234-0.625q-0.063-0.328 0.094-0.836t0.070-0.773-0.695-0.391q-0.234-0.047-0.695-0.281t-0.555-0.25q-0.125-0.016-0.172-0.406t0.125-0.797 0.562-0.422q0.578-0.047 0.797 0.469t0.063 0.906q-0.172 0.297-0.031 0.414t0.469 0.008q0.203-0.063 0.203-0.562v-0.578q-0.078-0.469-0.211-0.781t-0.328-0.477-0.367-0.234-0.422-0.117q-1.672 0.125-1.391 2.094 0 0.234-0.016 0.234-0.141-0.141-0.461-0.164t-0.516 0.008-0.242-0.078q0.016-0.891-0.25-1.406t-0.703-0.531q-0.422-0.016-0.648 0.43t-0.258 0.93q-0.016 0.234 0.055 0.578t0.203 0.586 0.242 0.211q0.156-0.047 0.25-0.219 0.063-0.141-0.109-0.125-0.109 0-0.242-0.227t-0.148-0.523q-0.016-0.344 0.141-0.578t0.531-0.219q0.266 0 0.422 0.328t0.148 0.609-0.023 0.344q-0.344 0.234-0.484 0.453-0.125 0.187-0.43 0.367t-0.32 0.195q-0.203 0.219-0.242 0.422t0.117 0.281q0.219 0.125 0.391 0.305t0.25 0.297 0.289 0.203 0.555 0.102q0.734 0.031 1.594-0.234 0.031-0.016 0.359-0.109t0.539-0.164 0.461-0.203 0.328-0.273q0.141-0.219 0.313-0.125 0.078 0.047 0.102 0.133t-0.047 0.187-0.258 0.148q-0.313 0.094-0.883 0.336t-0.711 0.305q-0.688 0.297-1.094 0.359-0.391 0.078-1.234-0.031-0.156-0.031-0.141 0.031t0.266 0.297q0.391 0.359 1.047 0.344 0.266-0.016 0.562-0.109t0.562-0.219 0.523-0.273 0.469-0.266 0.383-0.187 0.273-0.039 0.133 0.172q0 0.031-0.016 0.070t-0.063 0.078-0.094 0.070-0.133 0.078-0.141 0.070-0.156 0.078-0.148 0.070q-0.438 0.219-1.055 0.688t-1.039 0.672-0.766 0.016q-0.328-0.172-0.984-1.141-0.344-0.484-0.391-0.344-0.016 0.047-0.016 0.156 0 0.391-0.234 0.883t-0.461 0.867-0.328 0.906 0.18 0.984q-0.359 0.094-0.977 1.406t-0.742 2.203q-0.031 0.281-0.023 1.078t-0.086 0.922q-0.125 0.375-0.453 0.047-0.5-0.484-0.562-1.469-0.031-0.438 0.063-0.875 0.063-0.297-0.016-0.281l-0.063 0.078q-0.562 1.016 0.156 2.594 0.078 0.187 0.391 0.438t0.375 0.313q0.313 0.359 1.625 1.414t1.453 1.195q0.25 0.234 0.273 0.594t-0.219 0.672-0.711 0.359q0.125 0.234 0.453 0.695t0.438 0.844 0.109 1.102q0.719-0.375 0.109-1.437-0.063-0.125-0.164-0.25t-0.148-0.187-0.031-0.094q0.047-0.078 0.203-0.148t0.313 0.039q0.719 0.812 2.594 0.562 2.078-0.234 2.766-1.359 0.359-0.594 0.531-0.469 0.187 0.094 0.156 0.812-0.016 0.391-0.359 1.437-0.141 0.359-0.094 0.586t0.375 0.242q0.047-0.297 0.227-1.203t0.211-1.406q0.031-0.328-0.102-1.148t-0.117-1.516 0.359-1.102q0.234-0.281 0.797-0.281 0.016-0.578 0.539-0.828t1.133-0.164 0.938 0.352zM9.781 6q0.047-0.266-0.039-0.469t-0.18-0.234q-0.141-0.031-0.141 0.109 0.031 0.078 0.078 0.094 0.156 0 0.109 0.234-0.047 0.313 0.125 0.313 0.047 0 0.047-0.047zM16.328 9.078q-0.031-0.125-0.102-0.18t-0.203-0.078-0.227-0.086q-0.078-0.047-0.148-0.125t-0.109-0.125-0.086-0.102-0.063-0.063-0.063 0.023q-0.219 0.25 0.109 0.68t0.609 0.492q0.141 0.016 0.227-0.125t0.055-0.313zM13.547 5.75q0-0.172-0.078-0.305t-0.172-0.195-0.141-0.047q-0.219 0.016-0.109 0.109l0.063 0.031q0.219 0.063 0.281 0.484 0 0.047 0.125-0.031zM14.391 2.109q0-0.031-0.039-0.078t-0.141-0.109-0.148-0.094q-0.234-0.234-0.375-0.234-0.141 0.016-0.18 0.117t-0.016 0.203-0.008 0.195q-0.016 0.063-0.094 0.164t-0.094 0.141 0.047 0.133q0.063 0.047 0.125 0t0.172-0.141 0.234-0.141q0.016-0.016 0.141-0.016t0.234-0.031 0.141-0.109zM23.219 23.063q0.313 0.187 0.484 0.383t0.187 0.375-0.039 0.352-0.242 0.344-0.367 0.305-0.469 0.289-0.492 0.258-0.5 0.242-0.422 0.203q-0.594 0.297-1.336 0.875t-1.18 1q-0.266 0.25-1.062 0.305t-1.391-0.227q-0.281-0.141-0.461-0.367t-0.258-0.398-0.344-0.305-0.734-0.148q-0.688-0.016-2.031-0.016-0.297 0-0.891 0.023t-0.906 0.039q-0.688 0.016-1.242 0.234t-0.836 0.469-0.68 0.445-0.836 0.18q-0.453-0.016-1.734-0.484t-2.281-0.672q-0.297-0.063-0.797-0.148t-0.781-0.141-0.617-0.148-0.523-0.227-0.266-0.305q-0.156-0.359 0.109-1.039t0.281-0.852q0.016-0.25-0.063-0.625t-0.156-0.664-0.070-0.57 0.164-0.422q0.219-0.187 0.891-0.219t0.938-0.187q0.469-0.281 0.656-0.547t0.187-0.797q0.328 1.141-0.5 1.656-0.5 0.313-1.297 0.234-0.531-0.047-0.672 0.156-0.203 0.234 0.078 0.891 0.031 0.094 0.125 0.281t0.133 0.281 0.070 0.266 0.016 0.344q0 0.234-0.266 0.766t-0.219 0.75q0.047 0.266 0.578 0.406 0.313 0.094 1.32 0.289t1.555 0.32q0.375 0.094 1.156 0.344t1.289 0.359 0.867 0.063q0.672-0.094 1.008-0.438t0.359-0.75-0.117-0.914-0.297-0.812-0.313-0.57q-1.891-2.969-2.641-3.781-1.062-1.156-1.766-0.625-0.172 0.141-0.234-0.234-0.047-0.25-0.031-0.594 0.016-0.453 0.156-0.812t0.375-0.734 0.344-0.656q0.125-0.328 0.414-1.125t0.461-1.219 0.469-0.953 0.609-0.844q1.719-2.234 1.937-3.047-0.187-1.75-0.25-4.844-0.031-1.406 0.375-2.367t1.656-1.633q0.609-0.328 1.625-0.328 0.828-0.016 1.656 0.211t1.391 0.648q0.891 0.656 1.43 1.898t0.461 2.305q-0.078 1.484 0.469 3.344 0.531 1.766 2.078 3.406 0.859 0.922 1.555 2.547t0.93 2.984q0.125 0.766 0.078 1.32t-0.187 0.867-0.313 0.344q-0.156 0.031-0.367 0.297t-0.422 0.555-0.633 0.523-0.953 0.219q-0.281-0.016-0.492-0.078t-0.352-0.211-0.211-0.242-0.18-0.32-0.141-0.305q-0.344-0.578-0.641-0.469t-0.438 0.766 0.109 1.516q0.313 1.094 0.016 3.047-0.156 1.016 0.281 1.57t1.141 0.516 1.328-0.555q0.922-0.766 1.398-1.039t1.617-0.664q0.828-0.281 1.203-0.57t0.289-0.539-0.391-0.445-0.805-0.367q-0.516-0.172-0.773-0.75t-0.234-1.133 0.242-0.742q0.016 0.484 0.125 0.883t0.227 0.633 0.32 0.445 0.328 0.297 0.336 0.203 0.258 0.148z"></path>
</svg>
