<?xml version="1.0" encoding="utf-8"?>
<!-- Generated by IcoMoon.io -->
<!DOCTYPE svg PUBLIC "-//W3C//DTD SVG 1.1//EN" "http://www.w3.org/Graphics/SVG/1.1/DTD/svg11.dtd">
<svg version="1.1" xmlns="http://www.w3.org/2000/svg" xmlns:xlink="http://www.w3.org/1999/xlink" width="28" height="28" viewBox="0 0 28 28">
<path fill="#444444" d="M6 22q0 1.25-0.875 2.125t-2.125 0.875-2.125-0.875-0.875-2.125 0.875-2.125 2.125-0.875 2.125 0.875 0.875 2.125zM6 14q0 1.25-0.875 2.125t-2.125 0.875-2.125-0.875-0.875-2.125 0.875-2.125 2.125-0.875 2.125 0.875 0.875 2.125zM28 20.5v3q0 0.203-0.148 0.352t-0.352 0.148h-19q-0.203 0-0.352-0.148t-0.148-0.352v-3q0-0.203 0.148-0.352t0.352-0.148h19q0.203 0 0.352 0.148t0.148 0.352zM6 6q0 1.25-0.875 2.125t-2.125 0.875-2.125-0.875-0.875-2.125 0.875-2.125 2.125-0.875 2.125 0.875 0.875 2.125zM28 12.5v3q0 0.203-0.148 0.352t-0.352 0.148h-19q-0.203 0-0.352-0.148t-0.148-0.352v-3q0-0.203 0.148-0.352t0.352-0.148h19q0.203 0 0.352 0.148t0.148 0.352zM28 4.5v3q0 0.203-0.148 0.352t-0.352 0.148h-19q-0.203 0-0.352-0.148t-0.148-0.352v-3q0-0.203 0.148-0.352t0.352-0.148h19q0.203 0 0.352 0.148t0.148 0.352z"></path>
</svg>
