<?xml version="1.0" encoding="utf-8"?>
<!-- Generated by IcoMoon.io -->
<!DOCTYPE svg PUBLIC "-//W3C//DTD SVG 1.1//EN" "http://www.w3.org/Graphics/SVG/1.1/DTD/svg11.dtd">
<svg version="1.1" xmlns="http://www.w3.org/2000/svg" xmlns:xlink="http://www.w3.org/1999/xlink" width="28" height="28" viewBox="0 0 28 28">
<path fill="#444444" d="M6 18.5v1q0 0.203-0.148 0.352t-0.352 0.148h-1q-0.203 0-0.352-0.148t-0.148-0.352v-1q0-0.203 0.148-0.352t0.352-0.148h1q0.203 0 0.352 0.148t0.148 0.352zM6 14.5v1q0 0.203-0.148 0.352t-0.352 0.148h-1q-0.203 0-0.352-0.148t-0.148-0.352v-1q0-0.203 0.148-0.352t0.352-0.148h1q0.203 0 0.352 0.148t0.148 0.352zM6 10.5v1q0 0.203-0.148 0.352t-0.352 0.148h-1q-0.203 0-0.352-0.148t-0.148-0.352v-1q0-0.203 0.148-0.352t0.352-0.148h1q0.203 0 0.352 0.148t0.148 0.352zM24 18.5v1q0 0.203-0.148 0.352t-0.352 0.148h-15q-0.203 0-0.352-0.148t-0.148-0.352v-1q0-0.203 0.148-0.352t0.352-0.148h15q0.203 0 0.352 0.148t0.148 0.352zM24 14.5v1q0 0.203-0.148 0.352t-0.352 0.148h-15q-0.203 0-0.352-0.148t-0.148-0.352v-1q0-0.203 0.148-0.352t0.352-0.148h15q0.203 0 0.352 0.148t0.148 0.352zM24 10.5v1q0 0.203-0.148 0.352t-0.352 0.148h-15q-0.203 0-0.352-0.148t-0.148-0.352v-1q0-0.203 0.148-0.352t0.352-0.148h15q0.203 0 0.352 0.148t0.148 0.352zM26 21.5v-13q0-0.203-0.148-0.352t-0.352-0.148h-23q-0.203 0-0.352 0.148t-0.148 0.352v13q0 0.203 0.148 0.352t0.352 0.148h23q0.203 0 0.352-0.148t0.148-0.352zM28 4.5v17q0 1.031-0.734 1.766t-1.766 0.734h-23q-1.031 0-1.766-0.734t-0.734-1.766v-17q0-1.031 0.734-1.766t1.766-0.734h23q1.031 0 1.766 0.734t0.734 1.766z"></path>
</svg>
