<?xml version="1.0" encoding="utf-8"?>
<!-- Generated by IcoMoon.io -->
<!DOCTYPE svg PUBLIC "-//W3C//DTD SVG 1.1//EN" "http://www.w3.org/Graphics/SVG/1.1/DTD/svg11.dtd">
<svg version="1.1" xmlns="http://www.w3.org/2000/svg" xmlns:xlink="http://www.w3.org/1999/xlink" width="28" height="28" viewBox="0 0 28 28">
<path fill="#444444" d="M10 16.906v1.094q0 0.656-0.609 0.922-0.203 0.078-0.391 0.078-0.422 0-0.703-0.297l-8-8q-0.297-0.297-0.297-0.703t0.297-0.703l8-8q0.453-0.484 1.094-0.219 0.609 0.266 0.609 0.922v1.078l-6.203 6.219q-0.297 0.297-0.297 0.703t0.297 0.703zM28 17.5q0 0.906-0.266 2.086t-0.602 2.156-0.75 1.953-0.633 1.414l-0.313 0.625q-0.125 0.266-0.438 0.266-0.094 0-0.141-0.016-0.391-0.125-0.359-0.531 0.672-6.25-1.656-8.828-1-1.109-2.664-1.727t-4.18-0.82v3.922q0 0.656-0.609 0.922-0.203 0.078-0.391 0.078-0.422 0-0.703-0.297l-8-8q-0.297-0.297-0.297-0.703t0.297-0.703l8-8q0.453-0.484 1.094-0.219 0.609 0.266 0.609 0.922v4.094q6.422 0.438 9.359 3.453 2.641 2.703 2.641 7.953z"></path>
</svg>
