<?xml version="1.0" encoding="utf-8"?>
<!-- Generated by IcoMoon.io -->
<!DOCTYPE svg PUBLIC "-//W3C//DTD SVG 1.1//EN" "http://www.w3.org/Graphics/SVG/1.1/DTD/svg11.dtd">
<svg version="1.1" xmlns="http://www.w3.org/2000/svg" xmlns:xlink="http://www.w3.org/1999/xlink" width="28" height="28" viewBox="0 0 28 28">
<path fill="#444444" d="M28 17.5q0 2.594-1.984 7.047-0.047 0.109-0.164 0.375t-0.211 0.469-0.203 0.344q-0.187 0.266-0.438 0.266-0.234 0-0.367-0.156t-0.133-0.391q0-0.141 0.039-0.414t0.039-0.367q0.078-1.062 0.078-1.922 0-1.578-0.273-2.828t-0.758-2.164-1.25-1.578-1.648-1.086-2.078-0.664-2.406-0.336-2.742-0.094h-3.5v4q0 0.406-0.297 0.703t-0.703 0.297-0.703-0.297l-8-8q-0.297-0.297-0.297-0.703t0.297-0.703l8-8q0.297-0.297 0.703-0.297t0.703 0.297 0.297 0.703v4h3.5q11.141 0 13.672 6.297 0.828 2.094 0.828 5.203z"></path>
</svg>
