<?xml version="1.0" encoding="utf-8"?>
<!-- Generated by IcoMoon.io -->
<!DOCTYPE svg PUBLIC "-//W3C//DTD SVG 1.1//EN" "http://www.w3.org/Graphics/SVG/1.1/DTD/svg11.dtd">
<svg version="1.1" xmlns="http://www.w3.org/2000/svg" xmlns:xlink="http://www.w3.org/1999/xlink" width="16" height="28" viewBox="0 0 16 28">
<path fill="#444444" d="M16 11v6.5q0 0.625-0.438 1.062t-1.062 0.438-1.062-0.438-0.438-1.062v-5.5h-1v14.25q0 0.719-0.516 1.234t-1.234 0.516-1.234-0.516-0.516-1.234v-7.25h-1v7.25q0 0.719-0.516 1.234t-1.234 0.516-1.234-0.516-0.516-1.234v-14.25h-1v5.5q0 0.625-0.438 1.062t-1.062 0.438-1.062-0.438-0.438-1.062v-6.5q0-1.25 0.875-2.125t2.125-0.875h10q1.25 0 2.125 0.875t0.875 2.125zM11.5 4q0 1.453-1.023 2.477t-2.477 1.023-2.477-1.023-1.023-2.477 1.023-2.477 2.477-1.023 2.477 1.023 1.023 2.477z"></path>
</svg>
