<?xml version="1.0" encoding="utf-8"?>
<!-- Generated by IcoMoon.io -->
<!DOCTYPE svg PUBLIC "-//W3C//DTD SVG 1.1//EN" "http://www.w3.org/Graphics/SVG/1.1/DTD/svg11.dtd">
<svg version="1.1" xmlns="http://www.w3.org/2000/svg" xmlns:xlink="http://www.w3.org/1999/xlink" width="20" height="28" viewBox="0 0 20 28">
<path fill="#444444" d="M10 10.063q3.391 0.375 5.695 2.93t2.305 6.008q0 2.609-1.359 4.781t-3.687 3.313-4.984 0.844q-2.078-0.234-3.836-1.375t-2.844-2.938-1.258-3.891q-0.187-2.422 0.82-4.562t2.906-3.5 4.242-1.609v-2.063h-2.5q-0.219 0-0.359-0.141t-0.141-0.359v-1q0-0.219 0.141-0.359t0.359-0.141h2.5v-2.578l-1.437 1.437q-0.156 0.141-0.359 0.141t-0.344-0.141l-0.719-0.719q-0.141-0.141-0.141-0.344t0.141-0.359l3.156-3.141q0.297-0.297 0.703-0.297t0.703 0.297l3.156 3.141q0.141 0.156 0.141 0.359t-0.141 0.344l-0.719 0.719q-0.141 0.141-0.344 0.141t-0.359-0.141l-1.437-1.437v2.578h2.5q0.219 0 0.359 0.141t0.141 0.359v1q0 0.219-0.141 0.359t-0.359 0.141h-2.5v2.063zM9 26q2.891 0 4.945-2.055t2.055-4.945-2.055-4.945-4.945-2.055-4.945 2.055-2.055 4.945 2.055 4.945 4.945 2.055z"></path>
</svg>
