<?xml version="1.0" encoding="utf-8"?>
<!-- Generated by IcoMoon.io -->
<!DOCTYPE svg PUBLIC "-//W3C//DTD SVG 1.1//EN" "http://www.w3.org/Graphics/SVG/1.1/DTD/svg11.dtd">
<svg version="1.1" xmlns="http://www.w3.org/2000/svg" xmlns:xlink="http://www.w3.org/1999/xlink" width="28" height="28" viewBox="0 0 28 28">
<path fill="#444444" d="M20 0.5q0-0.219 0.141-0.359t0.359-0.141h6.5q0.406 0 0.703 0.297t0.297 0.703v6.5q0 0.219-0.141 0.359t-0.359 0.141h-1q-0.219 0-0.359-0.141t-0.141-0.359v-4.094l-6.547 6.563q1.359 1.625 2.023 3.695t0.477 4.32q-0.344 3.906-3.133 6.734t-6.695 3.219q-2.547 0.266-4.906-0.617t-4.008-2.531-2.531-4.008-0.617-4.906q0.391-3.906 3.219-6.695t6.734-3.133q2.25-0.187 4.32 0.477t3.695 2.023l6.547-6.547h-4.078q-0.219 0-0.359-0.141t-0.141-0.359v-1zM11 26q1.828 0 3.492-0.711t2.875-1.922 1.922-2.875 0.711-3.492-0.711-3.492-1.922-2.875-2.875-1.922-3.492-0.711-3.492 0.711-2.875 1.922-1.922 2.875-0.711 3.492 0.711 3.492 1.922 2.875 2.875 1.922 3.492 0.711z"></path>
</svg>
