<?xml version="1.0" encoding="utf-8"?>
<!-- Generated by IcoMoon.io -->
<!DOCTYPE svg PUBLIC "-//W3C//DTD SVG 1.1//EN" "http://www.w3.org/Graphics/SVG/1.1/DTD/svg11.dtd">
<svg version="1.1" xmlns="http://www.w3.org/2000/svg" xmlns:xlink="http://www.w3.org/1999/xlink" width="32" height="28" viewBox="0 0 32 28">
<path fill="#444444" d="M31.703 13.297q0.297 0.297 0.297 0.703t-0.297 0.703l-4.594 4.594q-0.141 0.156-0.352 0.156t-0.352-0.156l-0.703-0.703q-0.156-0.141-0.156-0.352t0.156-0.352l2.891-2.891h-4.594v3.5q0 0.219-0.141 0.359t-0.359 0.141h-1q-0.219 0-0.359-0.141t-0.141-0.359v-3.5h-2.047q-0.187 1.859-1.047 3.531t-2.172 2.867-3.070 1.898-3.664 0.703q-2.812 0-5.164-1.422t-3.664-3.859-1.156-5.266q0.125-2.531 1.469-4.688t3.539-3.43 4.727-1.336q2.594-0.063 4.852 1.117t3.68 3.258 1.672 4.625h2.047v-3.5q0-0.219 0.141-0.359t0.359-0.141h1q0.219 0 0.359 0.141t0.141 0.359v3.5h4.594l-2.891-2.891q-0.156-0.141-0.156-0.352t0.156-0.352l0.703-0.703q0.141-0.156 0.352-0.156t0.352 0.156zM10 22q1.625 0 3.102-0.633t2.555-1.711 1.711-2.555 0.633-3.102-0.633-3.102-1.711-2.555-2.555-1.711-3.102-0.633-3.102 0.633-2.555 1.711-1.711 2.555-0.633 3.102 0.633 3.102 1.711 2.555 2.555 1.711 3.102 0.633z"></path>
</svg>
