<?xml version="1.0" encoding="utf-8"?>
<!-- Generated by IcoMoon.io -->
<!DOCTYPE svg PUBLIC "-//W3C//DTD SVG 1.1//EN" "http://www.w3.org/Graphics/SVG/1.1/DTD/svg11.dtd">
<svg version="1.1" xmlns="http://www.w3.org/2000/svg" xmlns:xlink="http://www.w3.org/1999/xlink" width="30" height="28" viewBox="0 0 30 28">
<path fill="#444444" d="M24 6.5q0-0.219 0.141-0.359t0.359-0.141h4.5q0.406 0 0.703 0.297t0.297 0.703v4.5q0 0.219-0.141 0.359t-0.359 0.141h-1q-0.219 0-0.359-0.141t-0.141-0.359v-2.094l-3.969 3.984q1.188 1.484 1.68 3.344t0.148 3.859q-0.484 2.844-2.594 4.875t-4.969 2.438q-3.281 0.453-6.008-1.25t-3.773-4.688q-1.828-0.094-3.453-0.898t-2.773-2.078-1.773-3.008-0.5-3.594q0.141-2.109 1.219-3.938t2.844-2.992 3.875-1.398q1.844-0.219 3.555 0.297t3.102 1.609l3.984-3.969h-2.094q-0.219 0-0.359-0.141t-0.141-0.359v-1q0-0.219 0.141-0.359t0.359-0.141h4.5q0.406 0 0.703 0.297t0.297 0.703v4.5q0 0.219-0.141 0.359t-0.359 0.141h-1q-0.219 0-0.359-0.141t-0.141-0.359v-2.094l-3.969 3.984q0.922 1.156 1.453 2.641 2.844 0.141 5.125 1.937l3.984-3.969h-2.094q-0.219 0-0.359-0.141t-0.141-0.359v-1zM16 13q0-0.313-0.063-0.906-2.531 0.391-4.234 2.344t-1.703 4.562q0 0.313 0.063 0.906 2.531-0.391 4.234-2.344t1.703-4.562zM2 13q0 2.625 1.734 4.594t4.312 2.328q-0.047-0.453-0.047-0.922 0-3.281 2.109-5.773t5.281-3.070q-0.828-1.875-2.555-3.016t-3.836-1.141q-2.891 0-4.945 2.055t-2.055 4.945zM17 26q2.891 0 4.945-2.055t2.055-4.945q0-2.625-1.734-4.594t-4.312-2.328q0.047 0.453 0.047 0.922 0 3.281-2.109 5.773t-5.281 3.070q0.828 1.875 2.555 3.016t3.836 1.141z"></path>
</svg>
