<?xml version="1.0" encoding="utf-8"?>
<!-- Generated by IcoMoon.io -->
<!DOCTYPE svg PUBLIC "-//W3C//DTD SVG 1.1//EN" "http://www.w3.org/Graphics/SVG/1.1/DTD/svg11.dtd">
<svg version="1.1" xmlns="http://www.w3.org/2000/svg" xmlns:xlink="http://www.w3.org/1999/xlink" width="28" height="28" viewBox="0 0 28 28">
<path fill="#444444" d="M20.484 13.156v1.781q0 0.375-0.211 0.594t-0.586 0.219h-3.156q-0.375 0-0.594-0.219t-0.219-0.594v-1.781q0-0.375 0.219-0.594t0.594-0.219h3.156q0.375 0 0.586 0.219t0.211 0.594zM12.828 16.75v-3.906q0-0.828-0.508-1.336t-1.336-0.508h-2.078q-1.062 0-1.5 0.812-0.438-0.812-1.5-0.812h-2.031q-0.828 0-1.336 0.508t-0.508 1.336v3.906q0 0.344 0.328 0.344h0.859q0.344 0 0.344-0.344v-3.594q0-0.375 0.211-0.594t0.602-0.219h1.469q0.375 0 0.594 0.219t0.219 0.594v3.594q0 0.344 0.328 0.344h0.844q0.344 0 0.344-0.344v-3.594q0-0.375 0.219-0.594t0.594-0.219h1.516q0.375 0 0.586 0.219t0.211 0.594v3.594q0 0.344 0.344 0.344h0.859q0.328 0 0.328-0.344zM22.031 15.25v-2.406q0-0.828-0.516-1.336t-1.344-0.508h-4.125q-0.828 0-1.344 0.508t-0.516 1.336v6.406q0 0.328 0.344 0.328h0.859q0.328 0 0.328-0.328v-2.812q0.484 0.656 1.469 0.656h2.984q0.828 0 1.344-0.508t0.516-1.336zM24 5.625v16.75q0 1.5-1.062 2.562t-2.562 1.062h-16.75q-1.5 0-2.562-1.062t-1.062-2.562v-16.75q0-1.5 1.062-2.562t2.562-1.062h16.75q1.5 0 2.562 1.062t1.062 2.562z"></path>
</svg>
