<?xml version="1.0" encoding="utf-8"?>
<!-- Generated by IcoMoon.io -->
<!DOCTYPE svg PUBLIC "-//W3C//DTD SVG 1.1//EN" "http://www.w3.org/Graphics/SVG/1.1/DTD/svg11.dtd">
<svg version="1.1" xmlns="http://www.w3.org/2000/svg" xmlns:xlink="http://www.w3.org/1999/xlink" width="28" height="28" viewBox="0 0 28 28">
<path fill="#444444" d="M28 20.813v3.266h-10.031v-3.266h2.094v-14.469h-0.094l-4.906 17.734h-3.797l-4.844-17.734h-0.125v14.469h2.109v3.266h-8.406v-3.266h1.078q0.328 0 0.672-0.305t0.344-0.586v-13.766q0-0.281-0.344-0.625t-0.672-0.344h-1.078v-3.266h10.5l3.453 12.828h0.094l3.484-12.828h10.469v3.266h-1.109q-0.297 0-0.641 0.344t-0.344 0.625v13.766q0 0.281 0.336 0.586t0.648 0.305h1.109z"></path>
</svg>
