<?xml version="1.0" encoding="utf-8"?>
<!-- Generated by IcoMoon.io -->
<!DOCTYPE svg PUBLIC "-//W3C//DTD SVG 1.1//EN" "http://www.w3.org/Graphics/SVG/1.1/DTD/svg11.dtd">
<svg version="1.1" xmlns="http://www.w3.org/2000/svg" xmlns:xlink="http://www.w3.org/1999/xlink" width="28" height="28" viewBox="0 0 28 28">
<path fill="#444444" d="M20 17.5v-3q0-0.219-0.141-0.359t-0.359-0.141h-3.5v-3.5q0-0.219-0.141-0.359t-0.359-0.141h-3q-0.219 0-0.359 0.141t-0.141 0.359v3.5h-3.5q-0.219 0-0.359 0.141t-0.141 0.359v3q0 0.219 0.141 0.359t0.359 0.141h3.5v3.5q0 0.219 0.141 0.359t0.359 0.141h3q0.219 0 0.359-0.141t0.141-0.359v-3.5h3.5q0.219 0 0.359-0.141t0.141-0.359zM10 6h8v-2h-8v2zM4 6v20h-0.5q-1.437 0-2.469-1.031t-1.031-2.469v-13q0-1.437 1.031-2.469t2.469-1.031h0.5zM22.5 6v20h-17v-20h2.5v-2.5q0-0.625 0.438-1.062t1.062-0.438h9q0.625 0 1.062 0.438t0.438 1.062v2.5h2.5zM28 9.5v13q0 1.437-1.031 2.469t-2.469 1.031h-0.5v-20h0.5q1.437 0 2.469 1.031t1.031 2.469z"></path>
</svg>
