<?xml version="1.0" encoding="utf-8"?>
<!-- Generated by IcoMoon.io -->
<!DOCTYPE svg PUBLIC "-//W3C//DTD SVG 1.1//EN" "http://www.w3.org/Graphics/SVG/1.1/DTD/svg11.dtd">
<svg version="1.1" xmlns="http://www.w3.org/2000/svg" xmlns:xlink="http://www.w3.org/1999/xlink" width="28" height="28" viewBox="0 0 28 28">
<path fill="#444444" d="M18 17q0 0.406-0.297 0.703t-0.703 0.297h-10q-0.406 0-0.703-0.297t-0.297-0.703 0.297-0.703 0.703-0.297h10q0.406 0 0.703 0.297t0.297 0.703zM10 10q0 0.828-0.586 1.414t-1.414 0.586-1.414-0.586-0.586-1.414 0.586-1.414 1.414-0.586 1.414 0.586 0.586 1.414zM18 10q0 0.828-0.586 1.414t-1.414 0.586-1.414-0.586-0.586-1.414 0.586-1.414 1.414-0.586 1.414 0.586 0.586 1.414zM22 14q0-2.031-0.797-3.883t-2.133-3.187-3.187-2.133-3.883-0.797-3.883 0.797-3.187 2.133-2.133 3.187-0.797 3.883 0.797 3.883 2.133 3.187 3.187 2.133 3.883 0.797 3.883-0.797 3.187-2.133 2.133-3.187 0.797-3.883zM24 14q0 3.266-1.609 6.023t-4.367 4.367-6.023 1.609-6.023-1.609-4.367-4.367-1.609-6.023 1.609-6.023 4.367-4.367 6.023-1.609 6.023 1.609 4.367 4.367 1.609 6.023z"></path>
</svg>
