<?xml version="1.0" encoding="utf-8"?>
<!-- Generated by IcoMoon.io -->
<!DOCTYPE svg PUBLIC "-//W3C//DTD SVG 1.1//EN" "http://www.w3.org/Graphics/SVG/1.1/DTD/svg11.dtd">
<svg version="1.1" xmlns="http://www.w3.org/2000/svg" xmlns:xlink="http://www.w3.org/1999/xlink" width="20" height="28" viewBox="0 0 20 28">
<path fill="#444444" d="M12.969 4.937q2.266 1.125 3.648 3.289t1.383 4.773q0 3.453-2.305 6.008t-5.695 2.93v2.063h1.5q0.219 0 0.359 0.141t0.141 0.359v1q0 0.219-0.141 0.359t-0.359 0.141h-1.5v1.5q0 0.219-0.141 0.359t-0.359 0.141h-1q-0.219 0-0.359-0.141t-0.141-0.359v-1.5h-1.5q-0.219 0-0.359-0.141t-0.141-0.359v-1q0-0.219 0.141-0.359t0.359-0.141h1.5v-2.063q-3.391-0.375-5.695-2.93t-2.305-6.008q0-2.609 1.383-4.773t3.648-3.289q-2.578-1.5-3.563-4.266-0.094-0.25 0.055-0.461t0.414-0.211h1.078q0.328 0 0.453 0.313 0.688 1.656 2.188 2.672t3.344 1.016 3.344-1.016 2.188-2.672q0.125-0.313 0.578-0.313h0.953q0.266 0 0.414 0.211t0.055 0.461q-0.984 2.766-3.563 4.266zM9 20q2.891 0 4.945-2.055t2.055-4.945-2.055-4.945-4.945-2.055-4.945 2.055-2.055 4.945 2.055 4.945 4.945 2.055z"></path>
</svg>
