<?xml version="1.0" encoding="utf-8"?>
<!-- Generated by IcoMoon.io -->
<!DOCTYPE svg PUBLIC "-//W3C//DTD SVG 1.1//EN" "http://www.w3.org/Graphics/SVG/1.1/DTD/svg11.dtd">
<svg version="1.1" xmlns="http://www.w3.org/2000/svg" xmlns:xlink="http://www.w3.org/1999/xlink" width="22" height="28" viewBox="0 0 22 28">
<path fill="#444444" d="M4.234 14.766l-1.578 1.578q-0.656-1.609-0.656-3.344v-2q0-0.406 0.297-0.703t0.703-0.297 0.703 0.297 0.297 0.703v2q0 0.828 0.234 1.766zM21.641 5.359l-5.641 5.641v2q0 2.063-1.469 3.531t-3.531 1.469q-0.859 0-1.703-0.297l-1.5 1.5q1.516 0.797 3.203 0.797 2.891 0 4.945-2.055t2.055-4.945v-2q0-0.406 0.297-0.703t0.703-0.297 0.703 0.297 0.297 0.703v2q0 3.453-2.305 6.008t-5.695 2.93v2.063h4q0.406 0 0.703 0.297t0.297 0.703-0.297 0.703-0.703 0.297h-10q-0.406 0-0.703-0.297t-0.297-0.703 0.297-0.703 0.703-0.297h4v-2.063q-1.953-0.203-3.672-1.266l-3.969 3.969q-0.156 0.156-0.359 0.156t-0.359-0.156l-1.281-1.281q-0.156-0.156-0.156-0.359t0.156-0.359l19.281-19.281q0.156-0.156 0.359-0.156t0.359 0.156l1.281 1.281q0.156 0.156 0.156 0.359t-0.156 0.359zM15.703 3.297l-9.703 9.703v-8q0-2.063 1.469-3.531t3.531-1.469q1.594 0 2.883 0.922t1.82 2.375z"></path>
</svg>
