<?xml version="1.0" encoding="utf-8"?>
<!-- Generated by IcoMoon.io -->
<!DOCTYPE svg PUBLIC "-//W3C//DTD SVG 1.1//EN" "http://www.w3.org/Graphics/SVG/1.1/DTD/svg11.dtd">
<svg version="1.1" xmlns="http://www.w3.org/2000/svg" xmlns:xlink="http://www.w3.org/1999/xlink" width="36" height="28" viewBox="0 0 36 28">
<path fill="#444444" d="M35.953 16.188q0.187 1.609-0.344 3.102t-1.547 2.555-2.477 1.656-3.070 0.484q-2.516-0.172-4.367-1.953t-2.102-4.281q-0.187-1.734 0.43-3.289t1.852-2.664l-1.109-1.672q-1.5 1.25-2.359 3.031t-0.859 3.813q0 0.422-0.289 0.727t-0.711 0.305h-5.078q-0.359 2.562-2.328 4.281t-4.594 1.719q-2.891 0-4.945-2.055t-2.055-4.945 2.055-4.945 4.945-2.055q1.188 0 2.375 0.422l0.375-0.703q-1.922-1.719-4.75-1.719h-1q-0.406 0-0.703-0.297t-0.297-0.703 0.297-0.703 0.703-0.297h2q1.219 0 2.266 0.211t1.82 0.602 1.117 0.617 0.797 0.57h9.797l-1.328-2h-3.469q-0.469 0-0.766-0.352t-0.219-0.82q0.063-0.359 0.359-0.594t0.672-0.234h3.953q0.516 0 0.828 0.438l1.094 1.641 1.781-1.781q0.297-0.297 0.719-0.297h1.578q0.406 0 0.703 0.297t0.297 0.703v2q0 0.406-0.297 0.703t-0.703 0.297h-2.797l1.797 2.688q2.047-0.984 4.297-0.562 2.234 0.406 3.813 2.102t1.844 3.961zM7 22q1.797 0 3.172-1.133t1.734-2.867h-4.906q-0.547 0-0.859-0.484-0.281-0.5-0.016-0.984l2.297-4.328q-0.734-0.203-1.422-0.203-2.063 0-3.531 1.469t-1.469 3.531 1.469 3.531 3.531 1.469zM29 22q2.063 0 3.531-1.469t1.469-3.531-1.469-3.531-3.531-1.469q-0.938 0-1.891 0.375l2.719 4.062q0.234 0.359 0.156 0.766t-0.422 0.625q-0.234 0.172-0.562 0.172-0.547 0-0.828-0.453l-2.719-4.062q-1.453 1.484-1.453 3.516 0 2.063 1.469 3.531t3.531 1.469z"></path>
</svg>
