<?xml version="1.0" encoding="utf-8"?>
<!-- Generated by IcoMoon.io -->
<!DOCTYPE svg PUBLIC "-//W3C//DTD SVG 1.1//EN" "http://www.w3.org/Graphics/SVG/1.1/DTD/svg11.dtd">
<svg version="1.1" xmlns="http://www.w3.org/2000/svg" xmlns:xlink="http://www.w3.org/1999/xlink" width="28" height="28" viewBox="0 0 28 28">
<path fill="#444444" d="M24 3.5v17.5q0 0.781-0.531 1.391t-1.344 0.945-1.617 0.5-1.508 0.164-1.508-0.164-1.617-0.5-1.344-0.945-0.531-1.391 0.531-1.391 1.344-0.945 1.617-0.5 1.508-0.164q1.641 0 3 0.609v-8.391l-12 3.703v11.078q0 0.781-0.531 1.391t-1.344 0.945-1.617 0.5-1.508 0.164-1.508-0.164-1.617-0.5-1.344-0.945-0.531-1.391 0.531-1.391 1.344-0.945 1.617-0.5 1.508-0.164q1.641 0 3 0.609v-15.109q0-0.484 0.297-0.883t0.766-0.555l13-4q0.187-0.063 0.438-0.063 0.625 0 1.062 0.438t0.438 1.062z"></path>
</svg>
