<?xml version="1.0" encoding="utf-8"?>
<!-- Generated by IcoMoon.io -->
<!DOCTYPE svg PUBLIC "-//W3C//DTD SVG 1.1//EN" "http://www.w3.org/Graphics/SVG/1.1/DTD/svg11.dtd">
<svg version="1.1" xmlns="http://www.w3.org/2000/svg" xmlns:xlink="http://www.w3.org/1999/xlink" width="20" height="28" viewBox="0 0 20 28">
<path fill="#444444" d="M18 9q0 3.453-2.305 6.008t-5.695 2.93v9.562q0 0.219-0.141 0.359t-0.359 0.141h-1q-0.219 0-0.359-0.141t-0.141-0.359v-9.562q-3.391-0.375-5.695-2.93t-2.305-6.008q0-1.828 0.711-3.492t1.922-2.875 2.875-1.922 3.492-0.711 3.492 0.711 2.875 1.922 1.922 2.875 0.711 3.492zM9 16q2.891 0 4.945-2.055t2.055-4.945-2.055-4.945-4.945-2.055-4.945 2.055-2.055 4.945 2.055 4.945 4.945 2.055z"></path>
</svg>
