<?xml version="1.0" encoding="utf-8"?>
<!-- Generated by IcoMoon.io -->
<!DOCTYPE svg PUBLIC "-//W3C//DTD SVG 1.1//EN" "http://www.w3.org/Graphics/SVG/1.1/DTD/svg11.dtd">
<svg version="1.1" xmlns="http://www.w3.org/2000/svg" xmlns:xlink="http://www.w3.org/1999/xlink" width="32" height="28" viewBox="0 0 32 28">
<path fill="#444444" d="M16 8h-6v6h6v-6zM18 18v2h-10v-2h10zM18 6v10h-10v-10h10zM28 18v2h-8v-2h8zM28 14v2h-8v-2h8zM28 10v2h-8v-2h8zM28 6v2h-8v-2h8zM4 21v-15h-2v15q0 0.406 0.297 0.703t0.703 0.297 0.703-0.297 0.297-0.703zM30 21v-17h-24v17q0 0.516-0.172 1h23.172q0.406 0 0.703-0.297t0.297-0.703zM32 2v19q0 1.25-0.875 2.125t-2.125 0.875h-26q-1.25 0-2.125-0.875t-0.875-2.125v-17h4v-2h28z"></path>
</svg>
