<?xml version="1.0" encoding="utf-8"?>
<!-- Generated by IcoMoon.io -->
<!DOCTYPE svg PUBLIC "-//W3C//DTD SVG 1.1//EN" "http://www.w3.org/Graphics/SVG/1.1/DTD/svg11.dtd">
<svg version="1.1" xmlns="http://www.w3.org/2000/svg" xmlns:xlink="http://www.w3.org/1999/xlink" width="22" height="28" viewBox="0 0 22 28">
<path fill="#444444" d="M21.906 17.234q-0.5 1.25-1.188 2.156t-1.422 1.383-1.547 0.727-1.586 0.227-1.508-0.133-1.352-0.344-1.086-0.43-0.719-0.352l-0.266-0.156q-1.766 3.563-4.523 5.617t-6.008 2.070q-0.297 0-0.5-0.203t-0.203-0.5 0.203-0.492 0.5-0.195q2.703-0.016 5.039-1.68t3.93-4.602q-0.562 0.219-1.125 0.359t-1.297 0.203-1.422-0.039-1.453-0.445-1.437-0.922-1.32-1.563-1.164-2.281q1.781-0.734 3.344-0.891t2.617 0.117 1.945 0.883 1.383 1.203 0.883 1.281q0.828-2.047 1.234-4.547-0.109 0.016-0.281 0.039t-0.727 0.039-1.086-0.008-1.273-0.156-1.383-0.359-1.313-0.664-1.172-1.016-0.852-1.477-0.445-1.992q1.094-0.437 2.086-0.57t1.758 0.016 1.437 0.469 1.148 0.781 0.875 0.953 0.656 0.984 0.43 0.875 0.25 0.617l0.063 0.25q0.187-1.906 0.187-3.047-0.125-0.094-0.336-0.25t-0.766-0.695-0.992-1.117-0.844-1.453-0.516-1.758 0.187-1.984 1.094-2.164q1.141 0.391 1.992 0.961t1.32 1.195 0.75 1.328 0.32 1.391-0.008 1.336-0.203 1.195-0.297 0.969-0.266 0.656l-0.109 0.234q0.016 0.078 0.016 0.789t-0.016 1.117q0.047-0.109 0.156-0.289t0.477-0.672 0.789-0.906 1.109-0.867 1.43-0.695 1.75-0.227 2.070 0.375q-0.031 1.219-0.336 2.211t-0.781 1.633-1.086 1.117-1.273 0.711-1.32 0.375-1.25 0.148-1.055-0.016-0.727-0.070l-0.266-0.047q-0.359 2.297-1.141 4.422 0.094-0.109 0.281-0.289t0.773-0.641 1.211-0.82 1.555-0.656 1.836-0.313 2.016 0.367 2.141 1.211z"></path>
</svg>
