<?xml version="1.0" encoding="utf-8"?>
<!-- Generated by IcoMoon.io -->
<!DOCTYPE svg PUBLIC "-//W3C//DTD SVG 1.1//EN" "http://www.w3.org/Graphics/SVG/1.1/DTD/svg11.dtd">
<svg version="1.1" xmlns="http://www.w3.org/2000/svg" xmlns:xlink="http://www.w3.org/1999/xlink" width="28" height="28" viewBox="0 0 28 28">
<path fill="#444444" d="M25.234 0q1.094 0 1.914 0.727t0.82 1.82q0 0.984-0.703 2.359-5.187 9.828-7.266 11.75-1.516 1.422-3.406 1.422-1.969 0-3.383-1.445t-1.414-3.43q0-2 1.437-3.313l9.969-9.047q0.922-0.844 2.031-0.844zM11.031 16.156q0.609 1.188 1.664 2.031t2.352 1.188l0.016 1.109q0.063 3.328-2.023 5.422t-5.445 2.094q-1.922 0-3.406-0.727t-2.383-1.992-1.352-2.859-0.453-3.437q0.109 0.078 0.641 0.469t0.969 0.695 0.922 0.57 0.719 0.266q0.641 0 0.859-0.578 0.391-1.031 0.898-1.758t1.086-1.188 1.375-0.742 1.609-0.398 1.953-0.164z"></path>
</svg>
