<?xml version="1.0" encoding="utf-8"?>
<!-- Generated by IcoMoon.io -->
<!DOCTYPE svg PUBLIC "-//W3C//DTD SVG 1.1//EN" "http://www.w3.org/Graphics/SVG/1.1/DTD/svg11.dtd">
<svg version="1.1" xmlns="http://www.w3.org/2000/svg" xmlns:xlink="http://www.w3.org/1999/xlink" width="22" height="28" viewBox="0 0 22 28">
<path fill="#444444" d="M21.938 21.641q0 1.828-1.234 3.063t-3.063 1.234q-2.109 0-3.672-1.563l-12.141-12.125q-1.766-1.797-1.766-4.234 0-2.484 1.719-4.219t4.203-1.734q2.469 0 4.266 1.766l9.453 9.469q0.156 0.156 0.156 0.344 0 0.25-0.477 0.727t-0.727 0.477q-0.203 0-0.359-0.156l-9.469-9.484q-1.234-1.203-2.828-1.203-1.656 0-2.797 1.172t-1.141 2.828q0 1.641 1.188 2.828l12.125 12.141q0.984 0.984 2.266 0.984 1 0 1.656-0.656t0.656-1.656q0-1.281-0.984-2.266l-9.078-9.078q-0.406-0.375-0.938-0.375-0.453 0-0.75 0.297t-0.297 0.75q0 0.5 0.391 0.922l6.406 6.406q0.156 0.156 0.156 0.344 0 0.25-0.484 0.734t-0.734 0.484q-0.187 0-0.344-0.156l-6.406-6.406q-0.984-0.953-0.984-2.328 0-1.281 0.891-2.172t2.172-0.891q1.375 0 2.328 0.984l9.078 9.078q1.563 1.531 1.563 3.672z"></path>
</svg>
