<?xml version="1.0" encoding="utf-8"?>
<!-- Generated by IcoMoon.io -->
<!DOCTYPE svg PUBLIC "-//W3C//DTD SVG 1.1//EN" "http://www.w3.org/Graphics/SVG/1.1/DTD/svg11.dtd">
<svg version="1.1" xmlns="http://www.w3.org/2000/svg" xmlns:xlink="http://www.w3.org/1999/xlink" width="26" height="28" viewBox="0 0 26 28">
<path fill="#444444" d="M12.187 7.375q0 0.938-0.297 1.773t-0.984 1.445-1.641 0.609q-1.188 0-2.156-0.898t-1.437-2.117-0.469-2.359q0-0.938 0.297-1.773t0.984-1.445 1.641-0.609q1.203 0 2.164 0.898t1.43 2.109 0.469 2.367zM6.844 14.922q0 1.25-0.656 2.172t-1.859 0.922q-1.188 0-2.211-0.867t-1.57-2.086-0.547-2.375q0-1.25 0.656-2.18t1.859-0.93q1.188 0 2.211 0.867t1.57 2.094 0.547 2.383zM13 14.5q1.844 0 3.984 1.523t3.578 3.703 1.437 3.977q0 0.719-0.266 1.195t-0.758 0.703-1.008 0.313-1.188 0.086q-1.062 0-2.93-0.703t-2.852-0.703q-1.031 0-3.008 0.695t-3.133 0.695q-2.859 0-2.859-2.281 0-1.344 0.875-2.992t2.18-3.008 2.93-2.281 3.016-0.922zM16.734 11.203q-0.953 0-1.641-0.609t-0.984-1.445-0.297-1.773q0-1.156 0.469-2.367t1.43-2.109 2.164-0.898q0.953 0 1.641 0.609t0.984 1.445 0.297 1.773q0 1.141-0.469 2.359t-1.437 2.117-2.156 0.898zM23.484 9.578q1.203 0 1.859 0.93t0.656 2.18q0 1.156-0.547 2.375t-1.57 2.086-2.211 0.867q-1.203 0-1.859-0.922t-0.656-2.172q0-1.156 0.547-2.383t1.57-2.094 2.211-0.867z"></path>
</svg>
