<?xml version="1.0" encoding="utf-8"?>
<!-- Generated by IcoMoon.io -->
<!DOCTYPE svg PUBLIC "-//W3C//DTD SVG 1.1//EN" "http://www.w3.org/Graphics/SVG/1.1/DTD/svg11.dtd">
<svg version="1.1" xmlns="http://www.w3.org/2000/svg" xmlns:xlink="http://www.w3.org/1999/xlink" width="28" height="28" viewBox="0 0 28 28">
<path fill="#444444" d="M6.312 17.313l2.375 2.375-0.812 0.812h-0.875v-1.5h-1.5v-0.875zM12.781 11.219q0.219 0.203-0.047 0.469l-4.547 4.547q-0.266 0.266-0.469 0.047-0.219-0.203 0.047-0.469l4.547-4.547q0.266-0.266 0.469-0.047zM8.5 22l8.5-8.5-4.5-4.5-8.5 8.5v4.5h4.5zM18 12.5l1.437-1.437q0.438-0.438 0.438-1.062t-0.438-1.062l-2.375-2.375q-0.438-0.438-1.062-0.438t-1.062 0.438l-1.437 1.437zM24 6.5v15q0 1.859-1.32 3.18t-3.18 1.32h-15q-1.859 0-3.18-1.32t-1.32-3.18v-15q0-1.859 1.32-3.18t3.18-1.32h15q1.859 0 3.18 1.32t1.32 3.18z"></path>
</svg>
