<?xml version="1.0" encoding="utf-8"?>
<!-- Generated by IcoMoon.io -->
<!DOCTYPE svg PUBLIC "-//W3C//DTD SVG 1.1//EN" "http://www.w3.org/Graphics/SVG/1.1/DTD/svg11.dtd">
<svg version="1.1" xmlns="http://www.w3.org/2000/svg" xmlns:xlink="http://www.w3.org/1999/xlink" width="28" height="28" viewBox="0 0 28 28">
<path fill="#444444" d="M20 18.641q0-0.172-0.031-0.25-0.047-0.125-0.602-0.461t-1.383-0.773l-0.828-0.453q-0.078-0.047-0.297-0.203t-0.391-0.234-0.328-0.078q-0.281 0-0.734 0.508t-0.891 1.023-0.688 0.516q-0.109 0-0.258-0.055t-0.242-0.102-0.266-0.148-0.219-0.133q-1.547-0.859-2.664-1.977t-1.977-2.664q-0.031-0.047-0.133-0.219t-0.148-0.266-0.102-0.242-0.055-0.258q0-0.203 0.32-0.523t0.703-0.602 0.703-0.617 0.32-0.57q0-0.156-0.078-0.328t-0.234-0.391-0.203-0.297q-0.047-0.094-0.234-0.445t-0.391-0.711-0.414-0.742-0.391-0.633-0.258-0.281-0.25-0.031q-0.75 0-1.578 0.344-0.719 0.328-1.25 1.477t-0.531 2.039q0 0.25 0.039 0.531t0.078 0.477 0.141 0.516 0.156 0.461 0.195 0.516 0.172 0.469q0.938 2.562 3.383 5.008t5.008 3.383q0.094 0.031 0.469 0.172t0.516 0.195 0.461 0.156 0.516 0.141 0.477 0.078 0.531 0.039q0.891 0 2.039-0.531t1.477-1.25q0.344-0.828 0.344-1.578zM24 6.5v15q0 1.859-1.32 3.18t-3.18 1.32h-15q-1.859 0-3.18-1.32t-1.32-3.18v-15q0-1.859 1.32-3.18t3.18-1.32h15q1.859 0 3.18 1.32t1.32 3.18z"></path>
</svg>
