<?xml version="1.0" encoding="utf-8"?>
<!-- Generated by IcoMoon.io -->
<!DOCTYPE svg PUBLIC "-//W3C//DTD SVG 1.1//EN" "http://www.w3.org/Graphics/SVG/1.1/DTD/svg11.dtd">
<svg version="1.1" xmlns="http://www.w3.org/2000/svg" xmlns:xlink="http://www.w3.org/1999/xlink" width="28" height="28" viewBox="0 0 28 28">
<path fill="#444444" d="M16.344 15.937q0 1-0.594 1.703t-1.422 0.703q-0.672 0-1.094-0.234v-4.328q0.438-0.266 1.094-0.266 0.828 0 1.422 0.711t0.594 1.711zM10.984 9.25q0 1-0.594 1.711t-1.422 0.711q-0.672 0-1.094-0.234v-4.328q0.438-0.266 1.094-0.266 0.828 0 1.422 0.703t0.594 1.703zM19.766 15.984q0-2.094-1.375-3.578t-3.328-1.484q-0.313 0-0.609 0.047-0.359 1.219-1.219 2.125-1.359 1.484-3.297 1.578v9.938l3.297-0.641v-3.219q0.797 0.297 1.828 0.297 1.953 0 3.328-1.484t1.375-3.578zM14.406 9.312q0-2.094-1.383-3.578t-3.336-1.484q-1.156 0-2.203 0.562h-2.906v13.125l3.297-0.641v-3.219q0.859 0.297 1.813 0.297 1.953 0 3.336-1.484t1.383-3.578zM24 6.5v15q0 1.859-1.32 3.18t-3.18 1.32h-15q-1.859 0-3.18-1.32t-1.32-3.18v-15q0-1.859 1.32-3.18t3.18-1.32h15q1.859 0 3.18 1.32t1.32 3.18z"></path>
</svg>
