<?xml version="1.0" encoding="utf-8"?>
<!-- Generated by IcoMoon.io -->
<!DOCTYPE svg PUBLIC "-//W3C//DTD SVG 1.1//EN" "http://www.w3.org/Graphics/SVG/1.1/DTD/svg11.dtd">
<svg version="1.1" xmlns="http://www.w3.org/2000/svg" xmlns:xlink="http://www.w3.org/1999/xlink" width="32" height="28" viewBox="0 0 32 28">
<path fill="#444444" d="M19.094 14.516q1.172-0.047 2.242 0.32t1.844 0.914 1.578 1.477 1.313 1.687 1.18 1.883q0.516 0.875 1.227 1.703t1.18 1.258 1.547 1.383q-0.75 0.469-1.695 0.898t-2.164 0.922-1.781 0.742q-0.688-0.578-1.156-1.797t-0.68-2.57-0.516-2.82-0.664-2.633-1.133-1.922-1.914-0.758l-0.156 0.031-0.094 0.063q0.063 0.078 0.203 0.219 0.094 0.078 0.438 0.367t0.398 0.344 0.297 0.281 0.281 0.32 0.18 0.328 0.164 0.43 0.070 0.484 0.063 0.633l0.016 0.516q0.016 0.406-0.039 0.898t-0.117 0.812-0.195 0.914-0.18 0.828q-0.547-0.016-1.578 0.148t-1.531 0.164q-0.609 0-1.125-0.156-0.031-0.25-0.031-0.734 0-1.156 0.047-1.5 0.031-0.203 0.492-0.648t0.891-0.922 0.414-0.805q-0.375-0.031-0.672 0.375-0.562 0.828-1.742 1.555t-2.133 0.727q-0.391 0-1.18-0.984t-1.664-2.18-1.313-1.508q-0.094-0.063-0.422-0.469-7.531 1.75-8.016 1.75-0.25 0-0.438-0.172t-0.187-0.422q0-0.234 0.133-0.414t0.352-0.227l7.594-1.656q-0.125-0.219-0.125-0.391t0.086-0.273 0.25-0.18 0.313-0.109 0.359-0.070 0.289-0.070q0.063-0.016 0.242-0.117t0.273-0.102q0.234 0 0.438 0.25t0.313 0.516q2.547-0.578 2.688-0.578 0.266 0 0.461 0.172t0.195 0.438q0 0.234-0.133 0.406t-0.367 0.219l-2.844 0.625-0.016 0.25q-0.016 0.406 1.273 1.836t1.633 1.43q0.734 0 1.859-1.25t1.125-2.016q0-0.562-0.367-0.828t-0.797-0.289-0.797-0.18-0.367-0.531q0-0.25 0.156-0.531l-1.062-0.297q0.672-0.688 0.672-1.828 0-0.406-0.078-0.906 1.281-0.25 2.25-0.25 0.688 0 1.117 0.023t0.758 0.133 0.484 0.211 0.32 0.383 0.242 0.523 0.266 0.742 0.375 0.938l0.781-0.391q-0.047 0.625-0.359 0.938t-0.664 0.328-0.625 0.102-0.258 0.32zM20.031 10.844q-0.078-0.078-0.211-0.242t-0.187-0.227-0.164-0.18-0.156-0.164l-0.125-0.125t-0.133-0.117-0.125-0.078-0.133-0.070q-0.109-0.047-0.227-0.078t-0.32-0.039-0.344-0.008h-1.094q-1.969 0-3.391 0.672 0.25-0.469 0.562-0.727t0.844-0.461 1.023-0.562 0.719-0.57 0.781-0.859 0.68-0.789q0.187 0.141 0.438 0.492t0.5 0.57 0.594 0.203l0.187-0.016v1.188l0.344 0.016q3.859-1.484 5.797-2.969 0.438-0.328 0.781-0.609t0.664-0.586 0.516-0.484 0.461-0.531 0.375-0.484 0.383-0.578 0.359-0.594 0.422-0.742 0.461-0.828l0.109-0.141q-0.031 0.828-0.672 2.172-1.234 2.578-3.203 4.125t-4.781 2.219q-0.219 0.047-0.656 0.117t-0.781 0.148-0.609 0.219q0.047 0.297 0.383 0.719t0.336 0.531q0 0.172-0.406 0.469zM16.578 25.234q0.609-0.406 2.055-0.742t2.289-0.336q0.141 0 0.352 0.242t0.438 0.664 0.406 0.781 0.375 0.797 0.227 0.516q-1.891 0.703-3.813 0.703-0.953 0-1.953-0.172zM12.844 15.125l0.75-0.187 1.703 2.766-1.141 0.75zM20.672 23.203q0.047 0.234 0.047 0.25 0 0.109-0.273 0.227t-0.719 0.203-0.844 0.148-0.836 0.117-0.5 0.070l-0.109-0.672q0.328-0.031 0.945-0.133t1.125-0.156 0.945-0.055h0.219zM13.531 13.391l-1.5 0.313-0.094-0.266q0.156-0.016 0.508-0.109t0.539-0.094q0.297 0 0.547 0.156zM16.578 23.297h0.484l0.156 1.297-0.641 0.187v-1.484zM30.469 0.016v0zM30.469 0.016l-0.016 0.078-0.031 0.031 0.016-0.047zM30.469 0.016l0.016-0.016z"></path>
</svg>
