<?xml version="1.0" encoding="utf-8"?>
<!-- Generated by IcoMoon.io -->
<!DOCTYPE svg PUBLIC "-//W3C//DTD SVG 1.1//EN" "http://www.w3.org/Graphics/SVG/1.1/DTD/svg11.dtd">
<svg version="1.1" xmlns="http://www.w3.org/2000/svg" xmlns:xlink="http://www.w3.org/1999/xlink" width="22" height="28" viewBox="0 0 22 28">
<path fill="#444444" d="M21.5 2.5q0.688 0.812 0.187 2.312t-1.687 2.688l-2.516 2.516 2.5 10.875q0.078 0.297-0.187 0.516l-2 1.5q-0.109 0.094-0.297 0.094-0.063 0-0.109-0.016-0.234-0.047-0.328-0.25l-4.359-7.938-4.047 4.047 0.828 3.031q0.078 0.266-0.125 0.484l-1.5 1.5q-0.141 0.141-0.359 0.141h-0.031q-0.234-0.031-0.375-0.203l-2.953-3.938-3.938-2.953q-0.172-0.109-0.203-0.359-0.016-0.203 0.141-0.391l1.5-1.516q0.141-0.141 0.359-0.141 0.094 0 0.125 0.016l3.031 0.828 4.047-4.047-7.938-4.359q-0.219-0.125-0.266-0.375-0.031-0.25 0.141-0.422l2-2q0.219-0.203 0.469-0.125l10.391 2.484 2.5-2.5q1.188-1.188 2.688-1.687t2.312 0.187z"></path>
</svg>
