<?xml version="1.0" encoding="utf-8"?>
<!-- Generated by IcoMoon.io -->
<!DOCTYPE svg PUBLIC "-//W3C//DTD SVG 1.1//EN" "http://www.w3.org/Graphics/SVG/1.1/DTD/svg11.dtd">
<svg version="1.1" xmlns="http://www.w3.org/2000/svg" xmlns:xlink="http://www.w3.org/1999/xlink" width="28" height="28" viewBox="0 0 28 28">
<path fill="#444444" d="M27.422 7.078q0.578 0.578 0.578 1.406t-0.578 1.422l-6.266 6.25 2.344 2.344-2.5 2.5q-2.547 2.547-6.086 2.914t-6.43-1.57l-5.656 5.656h-2.828v-2.828l5.656-5.656q-1.937-2.891-1.57-6.43t2.914-6.086l2.5-2.5 2.344 2.344 6.25-6.266q0.594-0.578 1.422-0.578t1.406 0.578 0.578 1.414-0.578 1.414l-6.25 6.266 3.656 3.656 6.266-6.25q0.594-0.578 1.422-0.578t1.406 0.578z"></path>
</svg>
