<?xml version="1.0" encoding="utf-8"?>
<!-- Generated by IcoMoon.io -->
<!DOCTYPE svg PUBLIC "-//W3C//DTD SVG 1.1//EN" "http://www.w3.org/Graphics/SVG/1.1/DTD/svg11.dtd">
<svg version="1.1" xmlns="http://www.w3.org/2000/svg" xmlns:xlink="http://www.w3.org/1999/xlink" width="22" height="28" viewBox="0 0 22 28">
<path fill="#444444" d="M18 12.5v1q0 0.219-0.141 0.359t-0.359 0.141h-5.5v5.5q0 0.219-0.141 0.359t-0.359 0.141h-1q-0.219 0-0.359-0.141t-0.141-0.359v-5.5h-5.5q-0.219 0-0.359-0.141t-0.141-0.359v-1q0-0.219 0.141-0.359t0.359-0.141h5.5v-5.5q0-0.219 0.141-0.359t0.359-0.141h1q0.219 0 0.359 0.141t0.141 0.359v5.5h5.5q0.219 0 0.359 0.141t0.141 0.359zM20 19.5v-13q0-1.031-0.734-1.766t-1.766-0.734h-13q-1.031 0-1.766 0.734t-0.734 1.766v13q0 1.031 0.734 1.766t1.766 0.734h13q1.031 0 1.766-0.734t0.734-1.766zM22 6.5v13q0 1.859-1.32 3.18t-3.18 1.32h-13q-1.859 0-3.18-1.32t-1.32-3.18v-13q0-1.859 1.32-3.18t3.18-1.32h13q1.859 0 3.18 1.32t1.32 3.18z"></path>
</svg>
