<?xml version="1.0" encoding="utf-8"?>
<!-- Generated by IcoMoon.io -->
<!DOCTYPE svg PUBLIC "-//W3C//DTD SVG 1.1//EN" "http://www.w3.org/Graphics/SVG/1.1/DTD/svg11.dtd">
<svg version="1.1" xmlns="http://www.w3.org/2000/svg" xmlns:xlink="http://www.w3.org/1999/xlink" width="28" height="28" viewBox="0 0 28 28">
<path fill="#444444" d="M24 14q0 2.438-0.953 4.656t-2.562 3.828-3.828 2.562-4.656 0.953-4.656-0.953-3.828-2.562-2.562-3.828-0.953-4.656q0-2.844 1.258-5.359t3.539-4.219q0.672-0.5 1.492-0.391t1.305 0.781q0.5 0.656 0.383 1.477t-0.773 1.32q-1.531 1.156-2.367 2.828t-0.836 3.563q0 1.625 0.633 3.102t1.711 2.555 2.555 1.711 3.102 0.633 3.102-0.633 2.555-1.711 1.711-2.555 0.633-3.102q0-1.891-0.836-3.563t-2.367-2.828q-0.656-0.5-0.773-1.32t0.383-1.477q0.484-0.672 1.313-0.781t1.484 0.391q2.281 1.703 3.539 4.219t1.258 5.359zM14 2v10q0 0.812-0.594 1.406t-1.406 0.594-1.406-0.594-0.594-1.406v-10q0-0.812 0.594-1.406t1.406-0.594 1.406 0.594 0.594 1.406z"></path>
</svg>
