<?xml version="1.0" encoding="utf-8"?>
<!-- Generated by IcoMoon.io -->
<!DOCTYPE svg PUBLIC "-//W3C//DTD SVG 1.1//EN" "http://www.w3.org/Graphics/SVG/1.1/DTD/svg11.dtd">
<svg version="1.1" xmlns="http://www.w3.org/2000/svg" xmlns:xlink="http://www.w3.org/1999/xlink" width="26" height="28" viewBox="0 0 26 28">
<path fill="#444444" d="M26 17.156q0 1.266-0.695 2.109t-1.93 0.844q-0.641 0-1.211-0.273t-0.922-0.594-0.883-0.594-1.109-0.273q-1.719 0-1.719 1.937 0 0.609 0.25 1.797t0.234 1.797v0.078q-0.344 0-0.516 0.016-0.531 0.047-1.523 0.18t-1.805 0.211-1.531 0.078q-0.953 0-1.609-0.414t-0.656-1.305q0-0.578 0.273-1.109t0.594-0.883 0.594-0.922 0.273-1.211q0-1.234-0.844-1.93t-2.109-0.695q-1.313 0-2.234 0.711t-0.922 1.992q0 0.672 0.234 1.297t0.523 1.008 0.523 0.828 0.234 0.789q0 0.703-0.719 1.391-0.578 0.547-1.828 0.547-1.484 0-3.828-0.375-0.141-0.031-0.43-0.063t-0.43-0.063l-0.203-0.031q-0.016 0-0.047-0.016-0.031 0-0.031-0.016v-16q0.031 0.016 0.273 0.055t0.531 0.078 0.336 0.055q2.344 0.375 3.828 0.375 1.25 0 1.828-0.547 0.719-0.688 0.719-1.391 0-0.344-0.234-0.789t-0.523-0.828-0.523-1.008-0.234-1.297q0-1.281 0.922-1.992t2.25-0.711q1.25 0 2.094 0.695t0.844 1.93q0 0.641-0.273 1.211t-0.594 0.922-0.594 0.883-0.273 1.109q0 0.891 0.656 1.305t1.609 0.414q1 0 2.812-0.234t2.547-0.266v0.031q-0.016 0.031-0.055 0.273t-0.078 0.531-0.055 0.336q-0.375 2.344-0.375 3.828 0 1.25 0.547 1.828 0.688 0.719 1.391 0.719 0.344 0 0.789-0.234t0.828-0.523 1.008-0.523 1.297-0.234q1.281 0 1.992 0.922t0.711 2.234z"></path>
</svg>
