<?xml version="1.0" encoding="utf-8"?>
<!-- Generated by IcoMoon.io -->
<!DOCTYPE svg PUBLIC "-//W3C//DTD SVG 1.1//EN" "http://www.w3.org/Graphics/SVG/1.1/DTD/svg11.dtd">
<svg version="1.1" xmlns="http://www.w3.org/2000/svg" xmlns:xlink="http://www.w3.org/1999/xlink" width="28" height="28" viewBox="0 0 28 28">
<path fill="#444444" d="M4.219 12.594q-0.125-0.297-0.125-0.812 0-0.313 0.172-0.766t0.375-0.703q-0.016-0.344 0.117-0.828t0.352-0.672q0-2.172 1.445-4.508t3.398-3.273q2.172-1.031 5.063-1.031 2.078 0 4.156 0.859 0.766 0.328 1.406 0.75t1.109 0.875 0.859 1.062 0.656 1.156 0.508 1.32 0.398 1.398 0.344 1.531l0.016 0.078q0.859 1.297 0.859 2.344 0 0.219-0.141 0.625t-0.141 0.594q0 0.016 0.023 0.055t0.055 0.078 0.031 0.055q1.203 1.781 1.883 3.352t0.68 3.258q0 0.672-0.305 1.563t-0.867 0.891q-0.141 0-0.305-0.117t-0.297-0.273-0.297-0.406-0.25-0.414-0.211-0.406-0.141-0.273q-0.016-0.016-0.047-0.016l-0.078 0.063q-0.922 2.406-2.063 3.484 0.313 0.313 0.961 0.602t1.078 0.648 0.555 1.016q-0.031 0.063-0.063 0.25t-0.109 0.281q-1 1.516-4.719 1.516-0.828 0-1.727-0.141t-1.531-0.313-1.633-0.469q-0.234-0.078-0.359-0.109-0.219-0.063-0.719-0.070t-0.625-0.023q-0.641 0.703-1.992 1.016t-2.633 0.313q-0.547 0-1.078-0.023t-1.453-0.141-1.578-0.32-1.164-0.625-0.508-1q0-0.625 0.156-0.93t0.641-0.758q0.172-0.031 0.633-0.203t0.773-0.187q0.063 0 0.219-0.031 0.031-0.031 0.031-0.063l-0.031-0.047q-0.75-0.172-1.687-1.648t-1.141-2.445l-0.078-0.047q-0.063 0-0.187 0.313-0.281 0.641-0.852 1.164t-1.211 0.586h-0.016q-0.063 0-0.094-0.070t-0.078-0.086q-0.359-0.844-0.359-1.563 0-4.297 3.938-7.281z"></path>
</svg>
