<?xml version="1.0" encoding="utf-8"?>
<!-- Generated by IcoMoon.io -->
<!DOCTYPE svg PUBLIC "-//W3C//DTD SVG 1.1//EN" "http://www.w3.org/Graphics/SVG/1.1/DTD/svg11.dtd">
<svg version="1.1" xmlns="http://www.w3.org/2000/svg" xmlns:xlink="http://www.w3.org/1999/xlink" width="16" height="28" viewBox="0 0 16 28">
<path fill="#444444" d="M11 19.625v3.75q0 0.25-0.187 0.438t-0.438 0.187h-3.75q-0.25 0-0.438-0.187t-0.187-0.438v-3.75q0-0.25 0.187-0.438t0.438-0.187h3.75q0.25 0 0.438 0.187t0.187 0.438zM15.937 10.25q0 0.844-0.242 1.578t-0.547 1.195-0.859 0.93-0.898 0.68-0.953 0.555q-0.641 0.359-1.070 1.016t-0.43 1.047q0 0.266-0.187 0.508t-0.438 0.242h-3.75q-0.234 0-0.398-0.289t-0.164-0.586v-0.703q0-1.297 1.016-2.445t2.234-1.695q0.922-0.422 1.313-0.875t0.391-1.188q0-0.656-0.727-1.156t-1.68-0.5q-1.016 0-1.687 0.453-0.547 0.391-1.672 1.797-0.203 0.25-0.484 0.25-0.187 0-0.391-0.125l-2.562-1.953q-0.203-0.156-0.242-0.391t0.086-0.438q2.5-4.156 7.25-4.156 1.25 0 2.516 0.484t2.281 1.297 1.656 1.992 0.641 2.477z"></path>
</svg>
