<?xml version="1.0" encoding="utf-8"?>
<!-- Generated by IcoMoon.io -->
<!DOCTYPE svg PUBLIC "-//W3C//DTD SVG 1.1//EN" "http://www.w3.org/Graphics/SVG/1.1/DTD/svg11.dtd">
<svg version="1.1" xmlns="http://www.w3.org/2000/svg" xmlns:xlink="http://www.w3.org/1999/xlink" width="26" height="28" viewBox="0 0 26 28">
<path fill="#444444" d="M12 5v11q0 1.625-0.633 3.102t-1.711 2.555-2.555 1.711-3.102 0.633h-1q-0.406 0-0.703-0.297t-0.297-0.703v-2q0-0.406 0.297-0.703t0.703-0.297h1q1.656 0 2.828-1.172t1.172-2.828v-0.5q0-0.625-0.438-1.062t-1.062-0.438h-3.5q-1.25 0-2.125-0.875t-0.875-2.125v-6q0-1.25 0.875-2.125t2.125-0.875h6q1.25 0 2.125 0.875t0.875 2.125zM26 5v11q0 1.625-0.633 3.102t-1.711 2.555-2.555 1.711-3.102 0.633h-1q-0.406 0-0.703-0.297t-0.297-0.703v-2q0-0.406 0.297-0.703t0.703-0.297h1q1.656 0 2.828-1.172t1.172-2.828v-0.5q0-0.625-0.438-1.062t-1.062-0.438h-3.5q-1.25 0-2.125-0.875t-0.875-2.125v-6q0-1.25 0.875-2.125t2.125-0.875h6q1.25 0 2.125 0.875t0.875 2.125z"></path>
</svg>
