<?xml version="1.0" encoding="utf-8"?>
<!-- Generated by IcoMoon.io -->
<!DOCTYPE svg PUBLIC "-//W3C//DTD SVG 1.1//EN" "http://www.w3.org/Graphics/SVG/1.1/DTD/svg11.dtd">
<svg version="1.1" xmlns="http://www.w3.org/2000/svg" xmlns:xlink="http://www.w3.org/1999/xlink" width="28" height="28" viewBox="0 0 28 28">
<path fill="#444444" d="M0.297 13.656q0.125-3.391 1.813-6.344t4.766-4.969h0.078q0 0.016-0.016 0.047-0.125 0.125-0.438 0.523t-0.812 1.195-0.938 1.727-0.695 2.117-0.219 2.352 0.609 2.461 1.695 2.406q0.781 0.781 1.594 1.086t1.414 0.18 1.086-0.367 0.734-0.508l0.25-0.25q0.609-0.797 0.828-1.82t0.102-1.914-0.328-1.672-0.414-1.25l-0.219-0.453q-0.156-0.391-0.477-0.773t-0.672-0.641-0.68-0.461-0.547-0.297l-0.203-0.094 1.625-1.797q0.609 0.266 1.219 0.812t0.922 0.953l0.297 0.422q0.016-0.75-0.289-1.617t-0.633-1.367l-0.313-0.484 2.516-2.859 2.5 2.828q-0.516 0.719-0.82 1.602t-0.352 1.414l-0.063 0.516q0.344-0.578 0.961-1.133t1.055-0.82l0.438-0.266 1.609 1.797q-0.688 0.219-1.328 0.781t-0.938 1.016l-0.297 0.453q-0.484 0.875-0.75 2.086t-0.109 2.656 0.891 2.445q0.516 0.703 1.211 0.945t1.328 0.086 1.188-0.414 0.898-0.523l0.328-0.25q0.938-0.828 1.508-1.797t0.758-1.898 0.156-1.898-0.281-1.844-0.578-1.68-0.711-1.453-0.703-1.125-0.539-0.742l-0.203-0.266q-0.219-0.203-0.109-0.203l0.156 0.047q0.625 0.453 0.977 0.719t0.969 0.781 1 0.906 0.914 1.016 0.867 1.203 0.711 1.375 0.594 1.609 0.367 1.828 0.164 2.125q0.047 4.047-1.687 7.266t-4.875 5.016-7.125 1.797q-2.891 0-5.484-1.156t-4.43-3.094-2.875-4.578-0.945-5.516z"></path>
</svg>
