<?xml version="1.0" encoding="utf-8"?>
<!-- Generated by IcoMoon.io -->
<!DOCTYPE svg PUBLIC "-//W3C//DTD SVG 1.1//EN" "http://www.w3.org/Graphics/SVG/1.1/DTD/svg11.dtd">
<svg version="1.1" xmlns="http://www.w3.org/2000/svg" xmlns:xlink="http://www.w3.org/1999/xlink" width="28" height="28" viewBox="0 0 28 28">
<path fill="#444444" d="M10.406 7.516q-0.938 1.437-2.141 4.266-0.344-0.703-0.578-1.133t-0.633-0.992-0.797-0.883-0.984-0.547-1.273-0.227h-3.5q-0.219 0-0.359-0.141t-0.141-0.359v-3q0-0.219 0.141-0.359t0.359-0.141h3.5q3.906 0 6.406 3.516zM28 20q0 0.219-0.141 0.359l-5 5q-0.141 0.141-0.359 0.141-0.203 0-0.352-0.148t-0.148-0.352v-3q-0.5 0-1.328 0.008t-1.266 0.016-1.141-0.016-1.109-0.078-1-0.164-0.984-0.289-0.906-0.445-0.922-0.625-0.859-0.836-0.875-1.086q0.922-1.453 2.125-4.266 0.344 0.703 0.578 1.133t0.633 0.992 0.797 0.883 0.984 0.547 1.273 0.227h4v-3q0-0.219 0.141-0.359t0.359-0.141q0.187 0 0.375 0.156l4.984 4.984q0.141 0.141 0.141 0.359zM28 6q0 0.219-0.141 0.359l-5 5q-0.141 0.141-0.359 0.141-0.203 0-0.352-0.148t-0.148-0.352v-3h-4q-0.75 0-1.359 0.234t-1.078 0.703-0.797 0.961-0.703 1.211q-0.5 0.969-1.219 2.672-0.453 1.031-0.773 1.734t-0.844 1.641-1 1.563-1.156 1.297-1.406 1.070-1.664 0.656-2 0.258h-3.5q-0.219 0-0.359-0.141t-0.141-0.359v-3q0-0.219 0.141-0.359t0.359-0.141h3.5q0.75 0 1.359-0.234t1.078-0.703 0.797-0.961 0.703-1.211q0.5-0.969 1.219-2.672 0.453-1.031 0.773-1.734t0.844-1.641 1-1.563 1.156-1.297 1.406-1.070 1.664-0.656 2-0.258h4v-3q0-0.219 0.141-0.359t0.359-0.141q0.187 0 0.375 0.156l4.984 4.984q0.141 0.141 0.141 0.359z"></path>
</svg>
