<?xml version="1.0" encoding="utf-8"?>
<!-- Generated by IcoMoon.io -->
<!DOCTYPE svg PUBLIC "-//W3C//DTD SVG 1.1//EN" "http://www.w3.org/Graphics/SVG/1.1/DTD/svg11.dtd">
<svg version="1.1" xmlns="http://www.w3.org/2000/svg" xmlns:xlink="http://www.w3.org/1999/xlink" width="28" height="28" viewBox="0 0 28 28">
<path fill="#444444" d="M13.062 18.266l-0.234 5.75-0.031 0.344-6.563-0.453q-0.562-0.047-1.047-0.492t-0.734-1.023q-0.172-0.422-0.227-0.859t0.063-1.016 0.187-0.859 0.336-1 0.297-0.828q1.219 0.187 7.953 0.438zM7.016 9.109l2.812 5.922-2.297-1.437q-0.984 1.125-1.742 2.258t-1.133 1.953-0.617 1.477-0.289 0.984l-0.063 0.328-2.969-5.578q-0.266-0.406-0.281-0.875t0.094-0.734l0.125-0.281q0.547-0.984 1.781-2.938l-2.188-1.344zM26.25 17.187l-2.938 5.609q-0.187 0.453-0.57 0.727t-0.68 0.32l-0.281 0.063q-1.109 0.109-3.422 0.187l0.125 2.562-3.594-5.734 3.297-5.656 0.109 2.703q2.656 0.25 4.422 0.078t2.656-0.516zM13.984 2.75q-0.734 0.984-4.141 6.797l-4.953-2.922-0.297-0.187 3.516-5.563q0.313-0.484 0.938-0.703t1.25-0.156q0.375 0.031 0.758 0.187t0.656 0.328 0.648 0.516 0.562 0.539 0.562 0.617 0.5 0.547zM24.219 7.547l3.313 5.672q0.281 0.578 0.195 1.188t-0.43 1.156q-0.203 0.313-0.516 0.578t-0.594 0.438-0.758 0.344-0.734 0.25-0.805 0.219-0.719 0.187q-0.531-1.125-4.141-6.813l4.891-3.047zM21.984 4.016l2.219-1.297-3.437 5.828-6.547-0.313 2.359-1.344q-0.531-1.391-1.172-2.594t-1.18-1.93-1.008-1.25-0.734-0.727l-0.266-0.203 6.328 0.016q0.484-0.047 0.906 0.164t0.609 0.445l0.172 0.234q0.609 0.953 1.75 2.969z"></path>
</svg>
