<?xml version="1.0" encoding="utf-8"?>
<!-- Generated by IcoMoon.io -->
<!DOCTYPE svg PUBLIC "-//W3C//DTD SVG 1.1//EN" "http://www.w3.org/Graphics/SVG/1.1/DTD/svg11.dtd">
<svg version="1.1" xmlns="http://www.w3.org/2000/svg" xmlns:xlink="http://www.w3.org/1999/xlink" width="36" height="28" viewBox="0 0 36 28">
<path fill="#444444" d="M23.578 22.328q0 0.219-0.187 0.453-0.812 0.922-2.305 1.297t-3.070 0.375q-3.938 0-5.406-1.672-0.187-0.234-0.187-0.453 0-0.266 0.187-0.461t0.453-0.195q0.234 0 0.469 0.187 0.906 0.766 1.961 1.031t2.492 0.266 2.5-0.266 1.984-1.031q0.234-0.187 0.469-0.187 0.266 0 0.453 0.195t0.187 0.461zM15.281 16.219q0 0.953-0.672 1.625t-1.625 0.672q-0.938 0-1.633-0.68t-0.695-1.617q0-0.953 0.688-1.641t1.641-0.688 1.625 0.688 0.672 1.641zM25.344 16.219q0 0.953-0.672 1.625t-1.625 0.672q-0.938 0-1.633-0.68t-0.695-1.617q0-0.953 0.688-1.641t1.641-0.688 1.625 0.688 0.672 1.641zM6.484 11.609q-0.609-0.422-1.375-0.422-1.031 0-1.766 0.734t-0.734 1.766q0 1.125 0.844 1.891 0.828-2.203 3.031-3.969zM31.563 18.031q0-3.469-3.891-6.047-2-1.328-4.555-1.977t-5.18-0.648-5.18 0.648-4.57 1.977q-3.891 2.578-3.891 6.047t3.891 6.047q2.016 1.328 4.57 1.977t5.18 0.648 5.18-0.648 4.555-1.977q3.891-2.578 3.891-6.047zM33.391 13.687q0-1.031-0.734-1.766t-1.766-0.734q-0.781 0-1.453 0.469 2.188 1.781 3 4 0.953-0.75 0.953-1.969zM31.141 3.141q0-0.766-0.539-1.305t-1.289-0.539q-0.766 0-1.305 0.539t-0.539 1.305q0 0.75 0.539 1.289t1.305 0.539q0.75 0 1.289-0.539t0.539-1.289zM34.687 13.687q0 1.016-0.516 1.906t-1.391 1.406q0.078 0.547 0.078 1.031 0 2.172-1.234 3.992t-3.25 3.148q-2.188 1.437-4.898 2.133t-5.539 0.695-5.547-0.695-4.906-2.133q-2.016-1.328-3.25-3.148t-1.234-3.992q0-0.562 0.094-1.109-0.828-0.516-1.305-1.383t-0.477-1.852q0-1.563 1.109-2.68t2.688-1.117q1.422 0 2.484 0.938 4.141-2.656 9.969-2.766l2.25-7.125q0.156-0.453 0.625-0.453 0.375 0 6 1.406 0.375-0.859 1.156-1.375t1.719-0.516q1.281 0 2.203 0.922t0.922 2.219-0.922 2.211-2.203 0.914q-1.297 0-2.211-0.914t-0.93-2.195l-5.297-1.25-1.953 6.172q5.453 0.234 9.422 2.797 1.109-0.984 2.547-0.984 1.578 0 2.688 1.117t1.109 2.68z"></path>
</svg>
