<?xml version="1.0" encoding="utf-8"?>
<!-- Generated by IcoMoon.io -->
<!DOCTYPE svg PUBLIC "-//W3C//DTD SVG 1.1//EN" "http://www.w3.org/Graphics/SVG/1.1/DTD/svg11.dtd">
<svg version="1.1" xmlns="http://www.w3.org/2000/svg" xmlns:xlink="http://www.w3.org/1999/xlink" width="28" height="28" viewBox="0 0 28 28">
<path fill="#444444" d="M23.609 16.5q0 0.078-0.016 0.109-1 4.188-4.188 6.789t-7.469 2.602q-2.281 0-4.414-0.859t-3.805-2.453l-2.016 2.016q-0.297 0.297-0.703 0.297t-0.703-0.297-0.297-0.703v-7q0-0.406 0.297-0.703t0.703-0.297h7q0.406 0 0.703 0.297t0.297 0.703-0.297 0.703l-2.141 2.141q1.109 1.031 2.516 1.594t2.922 0.562q2.094 0 3.906-1.016t2.906-2.797q0.172-0.266 0.828-1.828 0.125-0.359 0.469-0.359h3q0.203 0 0.352 0.148t0.148 0.352zM24 4v7q0 0.406-0.297 0.703t-0.703 0.297h-7q-0.406 0-0.703-0.297t-0.297-0.703 0.297-0.703l2.156-2.156q-2.312-2.141-5.453-2.141-2.094 0-3.906 1.016t-2.906 2.797q-0.172 0.266-0.828 1.828-0.125 0.359-0.469 0.359h-3.109q-0.203 0-0.352-0.148t-0.148-0.352v-0.109q1.016-4.188 4.219-6.789t7.5-2.602q2.281 0 4.438 0.867t3.828 2.445l2.031-2.016q0.297-0.297 0.703-0.297t0.703 0.297 0.297 0.703z"></path>
</svg>
