<?xml version="1.0" encoding="utf-8"?>
<!-- Generated by IcoMoon.io -->
<!DOCTYPE svg PUBLIC "-//W3C//DTD SVG 1.1//EN" "http://www.w3.org/Graphics/SVG/1.1/DTD/svg11.dtd">
<svg version="1.1" xmlns="http://www.w3.org/2000/svg" xmlns:xlink="http://www.w3.org/1999/xlink" width="28" height="28" viewBox="0 0 28 28">
<path fill="#444444" d="M17.703 24.531q-2.672 1.469-5.75 1.469-3.063 0-5.734-1.469 2.156-1.359 3.68-3.297t2.055-4.188q0.547 2.25 2.070 4.188t3.68 3.297zM9.969 2.219v7.578q0 3.938-1.977 7.18t-5.164 4.789q-2.828-3.359-2.828-7.734 0-2.922 1.305-5.461t3.586-4.211 5.078-2.141zM24 14.031q0 4.375-2.828 7.734-3.187-1.547-5.164-4.789t-1.977-7.18v-7.578q2.797 0.469 5.078 2.141t3.586 4.211 1.305 5.461z"></path>
</svg>
