<?xml version="1.0" encoding="utf-8"?>
<!-- Generated by IcoMoon.io -->
<!DOCTYPE svg PUBLIC "-//W3C//DTD SVG 1.1//EN" "http://www.w3.org/Graphics/SVG/1.1/DTD/svg11.dtd">
<svg version="1.1" xmlns="http://www.w3.org/2000/svg" xmlns:xlink="http://www.w3.org/1999/xlink" width="30" height="28" viewBox="0 0 30 28">
<path fill="#444444" d="M20 23.5q0 0.203-0.148 0.352t-0.352 0.148h-15q-0.125 0-0.211-0.031t-0.141-0.109-0.086-0.125-0.047-0.18-0.016-0.18v-9.375h-3q-0.406 0-0.703-0.297t-0.297-0.703q0-0.375 0.234-0.641l5-6q0.297-0.344 0.766-0.344t0.766 0.344l5 6q0.234 0.266 0.234 0.641 0 0.406-0.297 0.703t-0.703 0.297h-3v6h9q0.25 0 0.391 0.172l2.5 3q0.109 0.172 0.109 0.328zM30 17q0 0.375-0.234 0.641l-5 6q-0.313 0.359-0.766 0.359t-0.766-0.359l-5-6q-0.234-0.266-0.234-0.641 0-0.406 0.297-0.703t0.703-0.297h3v-6h-9q-0.25 0-0.391-0.187l-2.5-3q-0.109-0.141-0.109-0.313 0-0.203 0.148-0.352t0.352-0.148h15q0.125 0 0.211 0.031t0.141 0.109 0.086 0.125 0.047 0.18 0.016 0.18v9.375h3q0.406 0 0.703 0.297t0.297 0.703z"></path>
</svg>
