<?xml version="1.0" encoding="utf-8"?>
<!-- Generated by IcoMoon.io -->
<!DOCTYPE svg PUBLIC "-//W3C//DTD SVG 1.1//EN" "http://www.w3.org/Graphics/SVG/1.1/DTD/svg11.dtd">
<svg version="1.1" xmlns="http://www.w3.org/2000/svg" xmlns:xlink="http://www.w3.org/1999/xlink" width="30" height="28" viewBox="0 0 30 28">
<path fill="#444444" d="M17.359 15.563v-0.063l-0.375-5q-0.016-0.203-0.172-0.352t-0.359-0.148h-2.906q-0.203 0-0.359 0.148t-0.172 0.352l-0.375 5v0.063q-0.016 0.187 0.125 0.313t0.328 0.125h3.813q0.187 0 0.328-0.125t0.125-0.313zM29.219 22.859q0 1.141-0.719 1.141h-11q0.203 0 0.344-0.148t0.125-0.352l-0.313-4q-0.016-0.203-0.172-0.352t-0.359-0.148h-4.25q-0.203 0-0.359 0.148t-0.172 0.352l-0.313 4q-0.016 0.203 0.125 0.352t0.344 0.148h-11q-0.719 0-0.719-1.141 0-0.844 0.406-1.813l6.516-16.312q0.125-0.297 0.406-0.516t0.594-0.219h5.297q-0.203 0-0.359 0.148t-0.172 0.352l-0.234 3q-0.016 0.219 0.125 0.359t0.344 0.141h2.594q0.203 0 0.344-0.141t0.125-0.359l-0.234-3q-0.016-0.203-0.172-0.352t-0.359-0.148h5.297q0.313 0 0.594 0.219t0.406 0.516l6.516 16.312q0.406 0.969 0.406 1.813z"></path>
</svg>
