<?xml version="1.0" encoding="utf-8"?>
<!-- Generated by IcoMoon.io -->
<!DOCTYPE svg PUBLIC "-//W3C//DTD SVG 1.1//EN" "http://www.w3.org/Graphics/SVG/1.1/DTD/svg11.dtd">
<svg version="1.1" xmlns="http://www.w3.org/2000/svg" xmlns:xlink="http://www.w3.org/1999/xlink" width="26" height="28" viewBox="0 0 26 28">
<path fill="#444444" d="M22.5 7q0-0.625-0.438-1.062t-1.062-0.438-1.062 0.438-0.438 1.062 0.438 1.062 1.062 0.438 1.062-0.438 0.438-1.062zM26 2.5q0 3.891-1.18 6.727t-3.961 5.633q-1.266 1.25-3.047 2.75l-0.313 5.922q-0.031 0.25-0.25 0.406l-6 3.5q-0.109 0.063-0.25 0.063-0.187 0-0.359-0.141l-1-1q-0.203-0.219-0.125-0.5l1.328-4.312-4.391-4.391-4.312 1.328q-0.047 0.016-0.141 0.016-0.219 0-0.359-0.141l-1-1q-0.266-0.297-0.078-0.609l3.5-6q0.156-0.219 0.406-0.25l5.922-0.313q1.5-1.781 2.75-3.047 2.938-2.922 5.594-4.031t6.734-1.109q0.219 0 0.375 0.148t0.156 0.352z"></path>
</svg>
