<?xml version="1.0" encoding="utf-8"?>
<!-- Generated by IcoMoon.io -->
<!DOCTYPE svg PUBLIC "-//W3C//DTD SVG 1.1//EN" "http://www.w3.org/Graphics/SVG/1.1/DTD/svg11.dtd">
<svg version="1.1" xmlns="http://www.w3.org/2000/svg" xmlns:xlink="http://www.w3.org/1999/xlink" width="28" height="28" viewBox="0 0 28 28">
<path fill="#444444" d="M24 14q0 2.438-0.953 4.656t-2.562 3.828-3.828 2.562-4.656 0.953q-2.688 0-5.109-1.133t-4.125-3.195q-0.109-0.156-0.102-0.352t0.133-0.32l2.141-2.156q0.156-0.141 0.391-0.141 0.25 0.031 0.359 0.187 1.141 1.484 2.797 2.297t3.516 0.812q1.625 0 3.102-0.633t2.555-1.711 1.711-2.555 0.633-3.102-0.633-3.102-1.711-2.555-2.555-1.711-3.102-0.633q-1.531 0-2.938 0.555t-2.5 1.586l2.141 2.156q0.484 0.469 0.219 1.078-0.266 0.625-0.922 0.625h-7q-0.406 0-0.703-0.297t-0.297-0.703v-7q0-0.656 0.625-0.922 0.609-0.266 1.078 0.219l2.031 2.016q1.672-1.578 3.82-2.445t4.445-0.867q2.438 0 4.656 0.953t3.828 2.562 2.562 3.828 0.953 4.656z"></path>
</svg>
