<?xml version="1.0" encoding="utf-8"?>
<!-- Generated by IcoMoon.io -->
<!DOCTYPE svg PUBLIC "-//W3C//DTD SVG 1.1//EN" "http://www.w3.org/Graphics/SVG/1.1/DTD/svg11.dtd">
<svg version="1.1" xmlns="http://www.w3.org/2000/svg" xmlns:xlink="http://www.w3.org/1999/xlink" width="20" height="28" viewBox="0 0 20 28">
<path fill="#444444" d="M16.297 8.828q0-1.563-1.016-2.531t-2.672-0.969h-5v7h5q1.656 0 2.672-0.969t1.016-2.531zM20 8.828q0 3.016-1.977 4.922t-5.102 1.906h-5.313v1.844h7.891q0.219 0 0.359 0.141t0.141 0.359v2q0 0.219-0.141 0.359t-0.359 0.141h-7.891v3q0 0.219-0.148 0.359t-0.352 0.141h-2.609q-0.219 0-0.359-0.141t-0.141-0.359v-3h-3.5q-0.219 0-0.359-0.141t-0.141-0.359v-2q0-0.219 0.141-0.359t0.359-0.141h3.5v-1.844h-3.5q-0.219 0-0.359-0.141t-0.141-0.359v-2.328q0-0.203 0.141-0.352t0.359-0.148h3.5v-9.828q0-0.219 0.141-0.359t0.359-0.141h8.422q3.125 0 5.102 1.906t1.977 4.922z"></path>
</svg>
