<?xml version="1.0" encoding="utf-8"?>
<!-- Generated by IcoMoon.io -->
<!DOCTYPE svg PUBLIC "-//W3C//DTD SVG 1.1//EN" "http://www.w3.org/Graphics/SVG/1.1/DTD/svg11.dtd">
<svg version="1.1" xmlns="http://www.w3.org/2000/svg" xmlns:xlink="http://www.w3.org/1999/xlink" width="28" height="28" viewBox="0 0 28 28">
<path fill="#444444" d="M8 20q0-0.828-0.586-1.414t-1.414-0.586-1.414 0.586-0.586 1.414 0.586 1.414 1.414 0.586 1.414-0.586 0.586-1.414zM13.484 21.469q-0.203-3.625-2.766-6.188t-6.188-2.766q-0.219-0.016-0.375 0.141t-0.156 0.359v2q0 0.203 0.133 0.344t0.336 0.156q2.406 0.172 4.125 1.891t1.891 4.125q0.016 0.203 0.156 0.336t0.344 0.133h2q0.203 0 0.359-0.156t0.141-0.375zM19.484 21.484q-0.078-2.406-0.875-4.648t-2.18-4.062-3.203-3.203-4.062-2.18-4.648-0.875q-0.219-0.016-0.359 0.141-0.156 0.156-0.156 0.359v2q0 0.203 0.141 0.344t0.344 0.156q3.187 0.109 5.906 1.742t4.352 4.352 1.742 5.906q0.016 0.203 0.156 0.344t0.344 0.141h2q0.203 0 0.359-0.156 0.172-0.141 0.141-0.359zM24 6.5v15q0 1.859-1.32 3.18t-3.18 1.32h-15q-1.859 0-3.18-1.32t-1.32-3.18v-15q0-1.859 1.32-3.18t3.18-1.32h15q1.859 0 3.18 1.32t1.32 3.18z"></path>
</svg>
