<?xml version="1.0" encoding="utf-8"?>
<!-- Generated by IcoMoon.io -->
<!DOCTYPE svg PUBLIC "-//W3C//DTD SVG 1.1//EN" "http://www.w3.org/Graphics/SVG/1.1/DTD/svg11.dtd">
<svg version="1.1" xmlns="http://www.w3.org/2000/svg" xmlns:xlink="http://www.w3.org/1999/xlink" width="32" height="28" viewBox="0 0 32 28">
<path fill="#444444" d="M23.438 21.422v-11.453q0-0.328-0.234-0.562t-0.547-0.234h-1.453q-0.313 0-0.547 0.234t-0.234 0.562v11.453q0 0.313 0.234 0.547t0.547 0.234h1.453q0.313 0 0.547-0.234t0.234-0.547zM19 21.422v-8.297q0-0.313-0.234-0.547t-0.547-0.234h-1.578q-0.313 0-0.547 0.234t-0.234 0.547v8.297q0 0.313 0.234 0.547t0.547 0.234h1.578q0.313 0 0.547-0.234t0.234-0.547zM14.438 21.422v-6.703q0-0.313-0.234-0.547t-0.547-0.234h-1.578q-0.313 0-0.547 0.234t-0.234 0.547v6.703q0 0.313 0.234 0.547t0.547 0.234h1.578q0.313 0 0.547-0.234t0.234-0.547zM9.875 21.422v-5.656q0-0.313-0.234-0.547t-0.547-0.234h-1.578q-0.313 0-0.547 0.234t-0.234 0.547v5.656q0 0.313 0.234 0.547t0.547 0.234h1.578q0.313 0 0.547-0.234t0.234-0.547zM32 19.141q0 2.594-1.844 4.438t-4.438 1.844h-19.437q-2.594 0-4.438-1.844t-1.844-4.438q0-1.813 0.984-3.352t2.625-2.32q-0.156-0.531-0.156-1.141 0-1.766 1.258-3.023t3.023-1.258q1.594 0 2.812 1.047 0.703-2.859 3.031-4.688t5.281-1.828q2.328 0 4.297 1.148t3.117 3.117 1.148 4.297q0 1.031-0.219 1.906 2.109 0.516 3.453 2.227t1.344 3.867z"></path>
</svg>
