<?xml version="1.0" encoding="utf-8"?>
<!-- Generated by IcoMoon.io -->
<!DOCTYPE svg PUBLIC "-//W3C//DTD SVG 1.1//EN" "http://www.w3.org/Graphics/SVG/1.1/DTD/svg11.dtd">
<svg version="1.1" xmlns="http://www.w3.org/2000/svg" xmlns:xlink="http://www.w3.org/1999/xlink" width="28" height="28" viewBox="0 0 28 28">
<path fill="#444444" d="M2 22h16v-2h-16v2zM2 14h16v-2h-16v2zM26.5 21q0-0.625-0.438-1.062t-1.062-0.438-1.062 0.438-0.438 1.062 0.438 1.062 1.062 0.438 1.062-0.438 0.438-1.062zM2 6h16v-2h-16v2zM26.5 13q0-0.625-0.438-1.062t-1.062-0.438-1.062 0.438-0.438 1.062 0.438 1.062 1.062 0.438 1.062-0.438 0.438-1.062zM26.5 5q0-0.625-0.438-1.062t-1.062-0.438-1.062 0.438-0.438 1.062 0.438 1.062 1.062 0.438 1.062-0.438 0.438-1.062zM28 18v6h-28v-6h28zM28 10v6h-28v-6h28zM28 2v6h-28v-6h28z"></path>
</svg>
