<?xml version="1.0" encoding="utf-8"?>
<!-- Generated by IcoMoon.io -->
<!DOCTYPE svg PUBLIC "-//W3C//DTD SVG 1.1//EN" "http://www.w3.org/Graphics/SVG/1.1/DTD/svg11.dtd">
<svg version="1.1" xmlns="http://www.w3.org/2000/svg" xmlns:xlink="http://www.w3.org/1999/xlink" width="26" height="28" viewBox="0 0 26 28">
<path fill="#444444" d="M22 15.453v4.047q0 1.859-1.32 3.18t-3.18 1.32h-13q-1.859 0-3.18-1.32t-1.32-3.18v-13q0-1.859 1.32-3.18t3.18-1.32h3.984q0.203 0 0.352 0.148t0.148 0.352q0 0.422-0.406 0.5-1.203 0.406-2.078 0.938-0.156 0.063-0.25 0.063h-1.75q-1.031 0-1.766 0.734t-0.734 1.766v13q0 1.031 0.734 1.766t1.766 0.734h13q1.031 0 1.766-0.734t0.734-1.766v-3.344q0-0.297 0.281-0.453 0.438-0.203 0.844-0.578 0.25-0.25 0.547-0.125 0.328 0.141 0.328 0.453zM25.703 7.703l-6 6q-0.281 0.297-0.703 0.297-0.187 0-0.391-0.078-0.609-0.266-0.609-0.922v-3h-2.5q-5.047 0-6.844 2.047-1.859 2.141-1.156 7.391 0.047 0.359-0.313 0.531-0.125 0.031-0.187 0.031-0.25 0-0.406-0.203-0.156-0.219-0.328-0.484t-0.617-1.070-0.773-1.555-0.602-1.781-0.273-1.906q0-0.766 0.055-1.422t0.219-1.406 0.438-1.375 0.734-1.273 1.070-1.156 1.477-0.961 1.945-0.758 2.492-0.477 3.070-0.172h2.5v-3q0-0.656 0.609-0.922 0.203-0.078 0.391-0.078 0.406 0 0.703 0.297l6 6q0.297 0.297 0.297 0.703t-0.297 0.703z"></path>
</svg>
