<?xml version="1.0" encoding="utf-8"?>
<!-- Generated by IcoMoon.io -->
<!DOCTYPE svg PUBLIC "-//W3C//DTD SVG 1.1//EN" "http://www.w3.org/Graphics/SVG/1.1/DTD/svg11.dtd">
<svg version="1.1" xmlns="http://www.w3.org/2000/svg" xmlns:xlink="http://www.w3.org/1999/xlink" width="28" height="28" viewBox="0 0 28 28">
<path fill="#444444" d="M15.703 17.203l5.5-5.5q0.297-0.297 0.297-0.703t-0.297-0.703l-5.5-5.5q-0.469-0.484-1.078-0.219-0.625 0.266-0.625 0.922v2.5q-1.859 0-3.375 0.305t-2.539 0.797-1.781 1.234-1.195 1.492-0.695 1.703-0.336 1.742-0.078 1.727q0 2.828 2.609 6.312 0.156 0.187 0.391 0.187 0.109 0 0.203-0.047 0.344-0.141 0.297-0.516-0.688-5.531 0.969-7.391 0.719-0.812 2.031-1.18t3.5-0.367v2.5q0 0.656 0.625 0.922 0.187 0.078 0.375 0.078 0.406 0 0.703-0.297zM24 6.5v15q0 1.859-1.32 3.18t-3.18 1.32h-15q-1.859 0-3.18-1.32t-1.32-3.18v-15q0-1.859 1.32-3.18t3.18-1.32h15q1.859 0 3.18 1.32t1.32 3.18z"></path>
</svg>
