<?xml version="1.0" encoding="utf-8"?>
<!-- Generated by IcoMoon.io -->
<!DOCTYPE svg PUBLIC "-//W3C//DTD SVG 1.1//EN" "http://www.w3.org/Graphics/SVG/1.1/DTD/svg11.dtd">
<svg version="1.1" xmlns="http://www.w3.org/2000/svg" xmlns:xlink="http://www.w3.org/1999/xlink" width="20" height="28" viewBox="0 0 20 28">
<path fill="#444444" d="M17 15v-10h-7v17.766q1.859-0.984 3.328-2.141 3.672-2.875 3.672-5.625zM20 3v12q0 1.344-0.523 2.664t-1.297 2.344-1.844 1.992-1.977 1.609-1.891 1.211-1.398 0.773-0.664 0.313q-0.187 0.094-0.406 0.094t-0.406-0.094q-0.25-0.109-0.664-0.313t-1.398-0.773-1.891-1.211-1.977-1.609-1.844-1.992-1.297-2.344-0.523-2.664v-12q0-0.406 0.297-0.703t0.703-0.297h18q0.406 0 0.703 0.297t0.297 0.703z"></path>
</svg>
