<?xml version="1.0" encoding="utf-8"?>
<!-- Generated by IcoMoon.io -->
<!DOCTYPE svg PUBLIC "-//W3C//DTD SVG 1.1//EN" "http://www.w3.org/Graphics/SVG/1.1/DTD/svg11.dtd">
<svg version="1.1" xmlns="http://www.w3.org/2000/svg" xmlns:xlink="http://www.w3.org/1999/xlink" width="32" height="28" viewBox="0 0 32 28">
<path fill="#444444" d="M28.297 24.297q0.297-0.297 0.703-0.297t0.703 0.297l2 2-1.406 1.406-1.297-1.297-1.297 1.297q-0.281 0.297-0.703 0.297t-0.703-0.297l-1.297-1.297-1.297 1.297q-0.297 0.297-0.703 0.297t-0.703-0.297l-1.297-1.297-1.297 1.297q-0.297 0.297-0.703 0.297t-0.703-0.297l-1.297-1.297-1.297 1.297q-0.297 0.297-0.703 0.297t-0.703-0.297l-1.297-1.297-1.297 1.297q-0.297 0.297-0.703 0.297t-0.703-0.297l-1.297-1.297-1.297 1.297q-0.297 0.297-0.703 0.297t-0.703-0.297l-1.297-1.297-1.297 1.297q-0.297 0.297-0.703 0.297t-0.703-0.297l-2-2 1.406-1.406 1.297 1.297 1.297-1.297q0.297-0.297 0.703-0.297t0.703 0.297l1.297 1.297 1.297-1.297q0.297-0.297 0.703-0.297t0.703 0.297l1.297 1.297 1.297-1.297q0.297-0.297 0.703-0.297t0.703 0.297l1.297 1.297 1.297-1.297q0.297-0.297 0.703-0.297t0.703 0.297l1.297 1.297 1.297-1.297q0.297-0.297 0.703-0.297t0.703 0.297l1.297 1.297 1.297-1.297q0.297-0.297 0.703-0.297t0.703 0.297l1.297 1.297zM3.703 23.703q-0.297 0.297-0.703 0.297t-0.703-0.297l-2-2 1.406-1.406 1.297 1.281 1.297-1.281q0.297-0.297 0.703-0.297t0.703 0.297l1.297 1.281 1-1v-4.578l-3.281-4.906q-0.266-0.406-0.109-0.883t0.625-0.633l2.766-0.906v-4.672h2v-2h4v-2h4v2h4v2h2v4.672l2.766 0.906q0.469 0.156 0.625 0.633t-0.109 0.883l-3.281 4.906v4.578l0.297-0.281q0.297-0.297 0.703-0.297t0.703 0.297l1.297 1.281 1.297-1.281q0.297-0.297 0.703-0.297t0.703 0.297l2 2-1.406 1.406-1.297-1.297-1.297 1.297q-0.281 0.297-0.703 0.297t-0.703-0.297l-1.297-1.297-1.297 1.297q-0.297 0.297-0.703 0.297t-0.703-0.297l-1.297-1.297-1.297 1.297q-0.297 0.297-0.703 0.297t-0.703-0.297l-1.297-1.297-1.297 1.297q-0.297 0.297-0.703 0.297t-0.703-0.297l-1.297-1.297-1.297 1.297q-0.297 0.297-0.703 0.297t-0.703-0.297l-1.297-1.297-1.297 1.297q-0.297 0.297-0.703 0.297t-0.703-0.297l-1.297-1.297zM10 6v2l6-2 6 2v-2h-2v-2h-8v2h-2z"></path>
</svg>
