<?xml version="1.0" encoding="utf-8"?>
<!-- Generated by IcoMoon.io -->
<!DOCTYPE svg PUBLIC "-//W3C//DTD SVG 1.1//EN" "http://www.w3.org/Graphics/SVG/1.1/DTD/svg11.dtd">
<svg version="1.1" xmlns="http://www.w3.org/2000/svg" xmlns:xlink="http://www.w3.org/1999/xlink" width="28" height="28" viewBox="0 0 28 28">
<path fill="#444444" d="M0 0h24v21.75l-12.125 5.281-11.875-5.281v-21.75zM22.437 20.734v-14.469h-20.875v14.469l10.328 4.594zM22.437 4.703v-3.141h-20.875v3.141h20.875zM2.828 9.359v1.797h-0.578v-1.797h0.578zM2.828 11.672v1.797h-0.578v-1.797h0.578zM2.828 13.984v1.797h-0.578v-1.797h0.578zM2.828 16.297v1.797h-0.578v-1.797h0.578zM2.828 18.609v1.797h-0.578v-1.797h0.578zM3.234 20.844l0.234-0.531 1.641 0.734-0.234 0.516zM5.359 21.781l0.234-0.531 1.641 0.719-0.234 0.531zM7.469 22.719l0.234-0.531 1.641 0.719-0.234 0.531zM9.594 23.641l0.234-0.516 1.625 0.719-0.234 0.531zM12.453 23.844l1.641-0.719 0.234 0.516-1.641 0.734zM14.562 22.906l1.641-0.719 0.234 0.531-1.641 0.719zM16.688 21.969l1.641-0.719 0.234 0.531-1.641 0.719zM18.797 21.047l1.641-0.734 0.234 0.531-1.641 0.719zM4.047 2.297v0.562h-1.781v-0.562h1.781zM6.578 2.297v0.562h-1.797v-0.562h1.797zM9.109 2.297v0.562h-1.797v-0.562h1.797zM11.625 2.297v0.562h-1.781v-0.562h1.781zM14.156 2.297v0.562h-1.781v-0.562h1.781zM16.688 2.297v0.562h-1.797v-0.562h1.797zM19.219 2.297v0.562h-1.797v-0.562h1.797zM21.734 2.297v0.562h-1.781v-0.562h1.781zM2.828 7.609v1.234h-0.578v-1.797h1.797v0.562h-1.219zM6.578 7.047v0.562h-1.797v-0.562h1.797zM9.109 7.047v0.562h-1.797v-0.562h1.797zM11.625 7.047v0.562h-1.781v-0.562h1.781zM14.156 7.047v0.562h-1.781v-0.562h1.781zM16.688 7.047v0.562h-1.797v-0.562h1.797zM19.219 7.047v0.562h-1.797v-0.562h1.797zM21.172 8.844v-1.234h-1.219v-0.562h1.797v1.797h-0.578zM21.172 11.156v-1.797h0.578v1.797h-0.578zM21.172 13.469v-1.797h0.578v1.797h-0.578zM21.172 15.781v-1.797h0.578v1.797h-0.578zM21.172 18.094v-1.797h0.578v1.797h-0.578zM21.172 20.406v-1.797h0.578v1.797h-0.578zM11.875 19.859q-2.016 0-3.453-1.43t-1.437-3.461q0-2.016 1.437-3.453t3.453-1.437q2.031 0 3.461 1.437t1.43 3.453q0 2.031-1.43 3.461t-3.461 1.43zM9.297 13.906q0 0.562 0.305 0.883t0.773 0.391 1 0.109 1 0.031 0.773 0.141 0.305 0.477q0 0.766-1.75 0.766-1.516 0-1.922-0.797h-0.047l-0.484 0.984q1.047 0.656 2.531 0.656 0.453 0 0.883-0.078t0.867-0.25 0.711-0.516 0.273-0.828q0-0.719-0.43-1.086t-1.055-0.422-1.242-0.047-1.047-0.078-0.43-0.398q0-0.328 0.32-0.516t0.633-0.234 0.641-0.047q0.531 0 1.102 0.172t0.805 0.531h0.047l0.469-0.906q-0.047-0.016-0.328-0.133t-0.352-0.141-0.305-0.109-0.344-0.109-0.313-0.070-0.375-0.063-0.359-0.016q-0.453 0-0.883 0.078t-0.844 0.258-0.672 0.531-0.258 0.836z"></path>
</svg>
