<?xml version="1.0" encoding="utf-8"?>
<!-- Generated by IcoMoon.io -->
<!DOCTYPE svg PUBLIC "-//W3C//DTD SVG 1.1//EN" "http://www.w3.org/Graphics/SVG/1.1/DTD/svg11.dtd">
<svg version="1.1" xmlns="http://www.w3.org/2000/svg" xmlns:xlink="http://www.w3.org/1999/xlink" width="26" height="28" viewBox="0 0 26 28">
<path fill="#444444" d="M10 24q0 0.812-0.594 1.406t-1.406 0.594-1.406-0.594-0.594-1.406 0.594-1.406 1.406-0.594 1.406 0.594 0.594 1.406zM24 24q0 0.812-0.594 1.406t-1.406 0.594-1.406-0.594-0.594-1.406 0.594-1.406 1.406-0.594 1.406 0.594 0.594 1.406zM26 7v8q0 0.375-0.258 0.664t-0.633 0.336l-16.312 1.906q0.203 0.938 0.203 1.094 0 0.25-0.375 1h14.375q0.406 0 0.703 0.297t0.297 0.703-0.297 0.703-0.703 0.297h-16q-0.406 0-0.703-0.297t-0.297-0.703q0-0.172 0.125-0.492t0.25-0.562 0.336-0.625 0.242-0.461l-2.766-12.859h-3.187q-0.406 0-0.703-0.297t-0.297-0.703 0.297-0.703 0.703-0.297h4q0.25 0 0.445 0.102t0.305 0.242 0.203 0.383 0.125 0.406 0.086 0.461 0.070 0.406h18.766q0.406 0 0.703 0.297t0.297 0.703z"></path>
</svg>
