<?xml version="1.0" encoding="utf-8"?>
<!-- Generated by IcoMoon.io -->
<!DOCTYPE svg PUBLIC "-//W3C//DTD SVG 1.1//EN" "http://www.w3.org/Graphics/SVG/1.1/DTD/svg11.dtd">
<svg version="1.1" xmlns="http://www.w3.org/2000/svg" xmlns:xlink="http://www.w3.org/1999/xlink" width="28" height="28" viewBox="0 0 28 28">
<path fill="#444444" d="M18.5 14q0 0.406-0.297 0.703l-8.5 8.5q-0.297 0.297-0.703 0.297t-0.703-0.297-0.297-0.703v-4.5h-7q-0.406 0-0.703-0.297t-0.297-0.703v-6q0-0.406 0.297-0.703t0.703-0.297h7v-4.5q0-0.406 0.297-0.703t0.703-0.297 0.703 0.297l8.5 8.5q0.297 0.297 0.297 0.703zM24 8.5v11q0 1.859-1.32 3.18t-3.18 1.32h-5q-0.203 0-0.352-0.148t-0.148-0.352q0-0.063-0.016-0.313t-0.008-0.414 0.047-0.367 0.156-0.305 0.32-0.102h5q1.031 0 1.766-0.734t0.734-1.766v-11q0-1.031-0.734-1.766t-1.766-0.734h-4.875t-0.18-0.016-0.18-0.047-0.125-0.086-0.109-0.141-0.031-0.211q0-0.063-0.016-0.313t-0.008-0.414 0.047-0.367 0.156-0.305 0.32-0.102h5q1.859 0 3.18 1.32t1.32 3.18z"></path>
</svg>
