<?xml version="1.0" encoding="utf-8"?>
<!-- Generated by IcoMoon.io -->
<!DOCTYPE svg PUBLIC "-//W3C//DTD SVG 1.1//EN" "http://www.w3.org/Graphics/SVG/1.1/DTD/svg11.dtd">
<svg version="1.1" xmlns="http://www.w3.org/2000/svg" xmlns:xlink="http://www.w3.org/1999/xlink" width="28" height="28" viewBox="0 0 28 28">
<path fill="#444444" d="M4 22.5v3q0 0.219-0.141 0.359t-0.359 0.141h-3q-0.219 0-0.359-0.141t-0.141-0.359v-3q0-0.219 0.141-0.359t0.359-0.141h3q0.219 0 0.359 0.141t0.141 0.359zM10 20.5v5q0 0.219-0.141 0.359t-0.359 0.141h-3q-0.219 0-0.359-0.141t-0.141-0.359v-5q0-0.219 0.141-0.359t0.359-0.141h3q0.219 0 0.359 0.141t0.141 0.359zM16 16.5v9q0 0.219-0.141 0.359t-0.359 0.141h-3q-0.219 0-0.359-0.141t-0.141-0.359v-9q0-0.219 0.141-0.359t0.359-0.141h3q0.219 0 0.359 0.141t0.141 0.359zM22 10.5v15q0 0.219-0.141 0.359t-0.359 0.141h-3q-0.219 0-0.359-0.141t-0.141-0.359v-15q0-0.219 0.141-0.359t0.359-0.141h3q0.219 0 0.359 0.141t0.141 0.359zM28 2.5v23q0 0.219-0.141 0.359t-0.359 0.141h-3q-0.219 0-0.359-0.141t-0.141-0.359v-23q0-0.219 0.141-0.359t0.359-0.141h3q0.219 0 0.359 0.141t0.141 0.359z"></path>
</svg>
