<?xml version="1.0" encoding="utf-8"?>
<!-- Generated by IcoMoon.io -->
<!DOCTYPE svg PUBLIC "-//W3C//DTD SVG 1.1//EN" "http://www.w3.org/Graphics/SVG/1.1/DTD/svg11.dtd">
<svg version="1.1" xmlns="http://www.w3.org/2000/svg" xmlns:xlink="http://www.w3.org/1999/xlink" width="32" height="28" viewBox="0 0 32 28">
<path fill="#444444" d="M13.484 16.125q0-1.75-1.242-2.992t-2.992-1.242-2.984 1.242-1.234 2.992 1.234 2.984 2.984 1.234 2.992-1.234 1.242-2.984zM26.969 16.109q0-1.75-1.234-2.984t-2.984-1.234-2.992 1.234-1.242 2.984q0 1.766 1.242 3t2.992 1.234 2.984-1.242 1.234-2.992zM32 3.469v21.063q0 0.688-0.492 1.18t-1.195 0.492h-28.625q-0.703 0-1.195-0.492t-0.492-1.18v-21.063q0-0.688 0.492-1.18t1.195-0.492h6.734q0.688 0 1.188 0.492t0.5 1.18v2.516h11.781v-2.516q0-0.688 0.5-1.18t1.188-0.492h6.734q0.703 0 1.195 0.492t0.492 1.18z"></path>
</svg>
