<?xml version="1.0" encoding="utf-8"?>
<!-- Generated by IcoMoon.io -->
<!DOCTYPE svg PUBLIC "-//W3C//DTD SVG 1.1//EN" "http://www.w3.org/Graphics/SVG/1.1/DTD/svg11.dtd">
<svg version="1.1" xmlns="http://www.w3.org/2000/svg" xmlns:xlink="http://www.w3.org/1999/xlink" width="32" height="28" viewBox="0 0 32 28">
<path fill="#444444" d="M26.406 12.297q2.312 0 3.953 1.539t1.641 3.82q0 2.453-1.703 4.086t-4.172 1.633q-1.328 0-2.531-0.43t-2.156-1.148-1.844-1.656-1.703-1.977-1.617-2.070-1.695-1.969-1.828-1.656-2.125-1.148-2.484-0.43q-2.406 0-3.93 1.43t-1.523 3.82q0 2.453 1.625 3.906t4.109 1.453q1.563 0 3.25-0.586t3.016-1.539q0.078-0.063 0.328-0.289t0.469-0.375 0.344-0.148q0.219 0 0.383 0.164t0.164 0.383q0 0.375-0.938 1.203-1.578 1.375-3.664 2.219t-4.070 0.844q-2.078 0-3.836-0.906t-2.812-2.578-1.055-3.766q0-3.203 2.211-5.328t5.43-2.125q1.875 0 3.539 0.68t2.898 1.766 2.367 2.391 2.172 2.617 2.086 2.398 2.336 1.766 2.695 0.68q1.594 0 2.633-0.961t1.039-2.539q0-1.484-1.008-2.484t-2.492-1q-0.469 0-1.273 0.289t-1.070 0.289q-0.313 0-0.555-0.234t-0.242-0.547q0-0.281 0.133-0.891t0.133-0.922q0-2.484-1.68-4.109t-4.164-1.625q-0.906 0-1.742 0.289t-1.313 0.633-0.867 0.633-0.516 0.289q-0.234 0-0.398-0.164t-0.164-0.398q0-0.297 0.391-0.719 0.922-1.047 2.297-1.617t2.844-0.57q2.984 0 4.969 1.961t1.984 4.93q0 0.578-0.063 1.031 0.891-0.234 1.797-0.234z"></path>
</svg>
