<?xml version="1.0" encoding="utf-8"?>
<!-- Generated by IcoMoon.io -->
<!DOCTYPE svg PUBLIC "-//W3C//DTD SVG 1.1//EN" "http://www.w3.org/Graphics/SVG/1.1/DTD/svg11.dtd">
<svg version="1.1" xmlns="http://www.w3.org/2000/svg" xmlns:xlink="http://www.w3.org/1999/xlink" width="28" height="28" viewBox="0 0 28 28">
<path fill="#444444" d="M18.328 16.609q0-0.781-0.305-1.43t-0.758-1.070-1.141-0.766-1.289-0.531-1.367-0.359l-1.625-0.375q-0.469-0.109-0.688-0.164t-0.547-0.18-0.469-0.25-0.258-0.328-0.117-0.469q0-1.203 2.25-1.203 0.672 0 1.203 0.187t0.844 0.445 0.594 0.523 0.625 0.453 0.75 0.187q0.734 0 1.18-0.5t0.445-1.203q0-0.859-0.875-1.555t-2.219-1.055-2.844-0.359q-1.062 0-2.063 0.242t-1.867 0.734-1.391 1.359-0.523 2.008q0 0.953 0.297 1.664t0.875 1.18 1.25 0.758 1.609 0.508l2.281 0.562q1.406 0.344 1.75 0.562 0.5 0.313 0.5 0.938 0 0.609-0.625 1.008t-1.641 0.398q-0.797 0-1.43-0.25t-1.016-0.602-0.711-0.703-0.719-0.602-0.844-0.25q-0.781 0-1.18 0.469t-0.398 1.172q0 1.437 1.906 2.461t4.547 1.023q1.141 0 2.187-0.289t1.914-0.836 1.383-1.461 0.516-2.055zM24 20q0 2.484-1.758 4.242t-4.242 1.758q-2.031 0-3.656-1.25-1.203 0.25-2.344 0.25-2.234 0-4.273-0.867t-3.516-2.344-2.344-3.516-0.867-4.273q0-1.141 0.25-2.344-1.25-1.625-1.25-3.656 0-2.484 1.758-4.242t4.242-1.758q2.031 0 3.656 1.25 1.203-0.25 2.344-0.25 2.234 0 4.273 0.867t3.516 2.344 2.344 3.516 0.867 4.273q0 1.141-0.25 2.344 1.25 1.625 1.25 3.656z"></path>
</svg>
