<?xml version="1.0" encoding="utf-8"?>
<!-- Generated by IcoMoon.io -->
<!DOCTYPE svg PUBLIC "-//W3C//DTD SVG 1.1//EN" "http://www.w3.org/Graphics/SVG/1.1/DTD/svg11.dtd">
<svg version="1.1" xmlns="http://www.w3.org/2000/svg" xmlns:xlink="http://www.w3.org/1999/xlink" width="28" height="28" viewBox="0 0 28 28">
<path fill="#444444" d="M13.641 11.562q0 1.297-0.992 2.227t-2.383 0.93-2.383-0.93-0.992-2.227q0-1.313 0.992-2.234t2.383-0.922 2.383 0.922 0.992 2.234zM21.484 11.562q0 1.297-0.984 2.227t-2.391 0.93q-1.391 0-2.383-0.93t-0.992-2.227q0-1.313 0.992-2.234t2.383-0.922q1.406 0 2.391 0.922t0.984 2.234zM25 14.375v-10.422q0-1.359-0.5-1.93t-1.734-0.57h-17.375q-1.297 0-1.758 0.531t-0.461 1.969v10.516q0.672 0.359 1.383 0.625t1.266 0.438 1.266 0.289 1.109 0.172 1.094 0.063 0.914 0.008 0.883-0.031 0.695-0.031q1.062-0.016 1.484 0.422 0.094 0.094 0.156 0.141 0.406 0.391 0.953 0.797 0.109-1.422 1.844-1.359 0.078 0 0.57 0.023t0.672 0.031 0.711 0.016 0.828-0.016 0.852-0.070 0.953-0.133 0.969-0.211 1.047-0.305 1.055-0.422 1.125-0.539zM27.547 14.297q-1.891 2.328-5.812 3.938 1.313 4.453-0.359 7.266-1.031 1.766-2.859 2.312-1.625 0.5-2.844-0.234-1.344-0.797-1.281-2.562l-0.016-5.094v-0.016q-0.125-0.031-0.383-0.094t-0.367-0.078l-0.016 5.281q0.063 1.781-1.297 2.562-1.234 0.734-2.859 0.234-1.828-0.562-2.844-2.344-1.641-2.812-0.344-7.234-3.922-1.609-5.812-3.938-0.391-0.578-0.063-0.984t0.938 0.016q0.047 0.031 0.172 0.109t0.172 0.125v-10.844q0-1.125 0.734-1.922t1.781-0.797h19.641q1.047 0 1.781 0.797t0.734 1.922v10.844l0.328-0.234q0.609-0.422 0.938-0.016t-0.063 0.984z"></path>
</svg>
