<?xml version="1.0" encoding="utf-8"?>
<!-- Generated by IcoMoon.io -->
<!DOCTYPE svg PUBLIC "-//W3C//DTD SVG 1.1//EN" "http://www.w3.org/Graphics/SVG/1.1/DTD/svg11.dtd">
<svg version="1.1" xmlns="http://www.w3.org/2000/svg" xmlns:xlink="http://www.w3.org/1999/xlink" width="26" height="28" viewBox="0 0 26 28">
<path fill="#444444" d="M18.609 6.375h2.766l-1.125-3.406-0.187-0.734q-0.031-0.25-0.031-0.313h-0.063l-0.047 0.313q0 0.016-0.055 0.281t-0.117 0.453zM11.5 22.5q0 0.187-0.156 0.375l-4.984 4.984q-0.156 0.141-0.359 0.141-0.187 0-0.359-0.141l-5-5q-0.234-0.25-0.109-0.547 0.125-0.313 0.469-0.313h3v-21.5q0-0.219 0.141-0.359t0.359-0.141h3q0.219 0 0.359 0.141t0.141 0.359v21.5h3q0.219 0 0.359 0.141t0.141 0.359zM24.563 24.359v3.641h-9.125v-1.406l5.766-8.266q0.187-0.281 0.328-0.422l0.172-0.141v-0.047q-0.031 0-0.102 0.008t-0.117 0.008q-0.187 0.047-0.469 0.047h-3.625v1.797h-1.875v-3.578h8.859v1.391l-5.766 8.281q-0.094 0.125-0.328 0.406l-0.172 0.172v0.031l0.219-0.031q0.141-0.031 0.469-0.031h3.875v-1.859h1.891zM25.953 10.344v1.656h-4.5v-1.656h1.172l-0.734-2.25h-3.797l-0.734 2.25h1.172v1.656h-4.484v-1.656h1.094l3.594-10.344h2.531l3.594 10.344h1.094z"></path>
</svg>
