<?xml version="1.0" encoding="utf-8"?>
<!-- Generated by IcoMoon.io -->
<!DOCTYPE svg PUBLIC "-//W3C//DTD SVG 1.1//EN" "http://www.w3.org/Graphics/SVG/1.1/DTD/svg11.dtd">
<svg version="1.1" xmlns="http://www.w3.org/2000/svg" xmlns:xlink="http://www.w3.org/1999/xlink" width="28" height="28" viewBox="0 0 28 28">
<path fill="#444444" d="M19 24.5v3q0 0.219-0.141 0.359t-0.359 0.141h-4q-0.219 0-0.359-0.141t-0.141-0.359v-3q0-0.219 0.141-0.359t0.359-0.141h4q0.219 0 0.359 0.141t0.141 0.359zM11.5 22.5q0 0.187-0.156 0.375l-4.984 4.984q-0.156 0.141-0.359 0.141-0.187 0-0.359-0.141l-5-5q-0.234-0.25-0.109-0.547 0.125-0.313 0.469-0.313h3v-21.5q0-0.219 0.141-0.359t0.359-0.141h3q0.219 0 0.359 0.141t0.141 0.359v21.5h3q0.219 0 0.359 0.141t0.141 0.359zM22 16.5v3q0 0.219-0.141 0.359t-0.359 0.141h-7q-0.219 0-0.359-0.141t-0.141-0.359v-3q0-0.219 0.141-0.359t0.359-0.141h7q0.219 0 0.359 0.141t0.141 0.359zM25 8.5v3q0 0.219-0.141 0.359t-0.359 0.141h-10q-0.219 0-0.359-0.141t-0.141-0.359v-3q0-0.219 0.141-0.359t0.359-0.141h10q0.219 0 0.359 0.141t0.141 0.359zM28 0.5v3q0 0.219-0.141 0.359t-0.359 0.141h-13q-0.219 0-0.359-0.141t-0.141-0.359v-3q0-0.219 0.141-0.359t0.359-0.141h13q0.219 0 0.359 0.141t0.141 0.359z"></path>
</svg>
