<?xml version="1.0" encoding="utf-8"?>
<!-- Generated by IcoMoon.io -->
<!DOCTYPE svg PUBLIC "-//W3C//DTD SVG 1.1//EN" "http://www.w3.org/Graphics/SVG/1.1/DTD/svg11.dtd">
<svg version="1.1" xmlns="http://www.w3.org/2000/svg" xmlns:xlink="http://www.w3.org/1999/xlink" width="28" height="28" viewBox="0 0 28 28">
<path fill="#444444" d="M21.031 4.516q0-0.984-0.688-1.813t-1.609-0.828q-0.812 0-1.297 0.578t-0.484 1.469 0.57 1.484 1.633 0.594q0.781 0 1.328-0.422t0.547-1.062zM11.5 22.5q0 0.187-0.156 0.375l-4.984 4.984q-0.156 0.141-0.359 0.141-0.187 0-0.359-0.141l-5-5q-0.234-0.25-0.109-0.547 0.125-0.313 0.469-0.313h3v-21.5q0-0.219 0.141-0.359t0.359-0.141h3q0.219 0 0.359 0.141t0.141 0.359v21.5h3q0.219 0 0.359 0.141t0.141 0.359zM22.75 26.219v1.781h-7.328v-1.781h2.609v-6.75q0-0.109 0.008-0.297t0.008-0.266v-0.25h-0.031l-0.109 0.187q-0.125 0.203-0.406 0.484l-0.969 0.906-1.281-1.344 3-2.891h1.922v10.219h2.578zM23.219 5.422q0 0.969-0.203 1.898t-0.641 1.781-1.062 1.492-1.539 1.023-1.992 0.383q-0.969 0-1.687-0.25-0.375-0.125-0.656-0.234l0.609-1.766q0.234 0.109 0.484 0.172 0.578 0.203 1.172 0.203 1.313 0 2.102-0.914t1.039-2.273h-0.031q-0.328 0.359-0.961 0.578t-1.32 0.219q-1.656 0-2.703-1.117t-1.047-2.695q0-1.641 1.125-2.781t2.828-1.141q1.922 0 3.203 1.477t1.281 3.945z"></path>
</svg>
