<?xml version="1.0" encoding="utf-8"?>
<!-- Generated by IcoMoon.io -->
<!DOCTYPE svg PUBLIC "-//W3C//DTD SVG 1.1//EN" "http://www.w3.org/Graphics/SVG/1.1/DTD/svg11.dtd">
<svg version="1.1" xmlns="http://www.w3.org/2000/svg" xmlns:xlink="http://www.w3.org/1999/xlink" width="36" height="28" viewBox="0 0 36 28">
<path fill="#444444" d="M12.25 21.438l0.25-3.766-0.25-8.172q-0.016-0.156-0.117-0.266t-0.258-0.109q-0.141 0-0.25 0.109t-0.109 0.266l-0.219 8.172 0.219 3.766q0.016 0.156 0.117 0.258t0.242 0.102q0.344 0 0.375-0.359zM16.875 20.984l0.172-3.297-0.187-9.156q0-0.25-0.203-0.375-0.125-0.078-0.25-0.078t-0.25 0.078q-0.203 0.125-0.203 0.375l-0.016 0.094-0.156 9.047q0 0.016 0.172 3.687v0.016q0 0.156 0.094 0.266 0.141 0.172 0.359 0.172 0.172 0 0.313-0.141 0.141-0.109 0.141-0.313zM0.547 15.672l0.313 2-0.313 1.969q-0.031 0.141-0.141 0.141t-0.141-0.141l-0.266-1.969 0.266-2q0.031-0.141 0.141-0.141t0.141 0.141zM1.891 14.438l0.406 3.234-0.406 3.172q-0.031 0.141-0.156 0.141-0.141 0-0.141-0.156l-0.359-3.156 0.359-3.234q0-0.141 0.141-0.141 0.125 0 0.156 0.141zM3.328 13.844l0.391 3.828-0.391 3.703q0 0.172-0.172 0.172-0.156 0-0.187-0.172l-0.328-3.703 0.328-3.828q0.031-0.187 0.187-0.187 0.172 0 0.172 0.187zM4.797 13.734l0.359 3.938-0.359 3.813q-0.031 0.203-0.219 0.203-0.203 0-0.203-0.203l-0.328-3.813 0.328-3.938q0-0.203 0.203-0.203 0.187 0 0.219 0.203zM6.266 14.016l0.328 3.656-0.328 3.844q-0.031 0.25-0.25 0.25-0.094 0-0.164-0.070t-0.070-0.18l-0.313-3.844 0.313-3.656q0-0.094 0.070-0.164t0.164-0.070q0.219 0 0.25 0.234zM7.734 11.734l0.328 5.938-0.328 3.844q0 0.109-0.078 0.195t-0.187 0.086q-0.25 0-0.281-0.281l-0.281-3.844 0.281-5.938q0.031-0.281 0.281-0.281 0.109 0 0.187 0.086t0.078 0.195zM9.203 10.391l0.297 7.313-0.297 3.813q0 0.125-0.086 0.211t-0.211 0.086q-0.281 0-0.313-0.297l-0.25-3.813 0.25-7.313q0.031-0.297 0.313-0.297 0.125 0 0.211 0.086t0.086 0.211zM10.734 9.766l0.281 7.906-0.281 3.781q-0.031 0.328-0.344 0.328-0.297 0-0.328-0.328l-0.25-3.781 0.25-7.906q0-0.141 0.102-0.242t0.227-0.102q0.141 0 0.234 0.102t0.109 0.242zM16.859 21.359v0 0zM13.766 9.703l0.234 7.969-0.234 3.734q0 0.156-0.117 0.273t-0.273 0.117-0.266-0.109-0.125-0.281l-0.219-3.734 0.219-7.969q0-0.172 0.117-0.281t0.273-0.109 0.273 0.109 0.117 0.281zM15.313 10l0.219 7.688-0.219 3.687q0 0.172-0.125 0.297t-0.297 0.125-0.297-0.125-0.141-0.297l-0.187-3.687 0.187-7.688q0.016-0.187 0.141-0.313t0.297-0.125 0.289 0.125 0.133 0.313zM18.625 17.687l-0.219 3.609q0 0.203-0.141 0.344t-0.344 0.141-0.344-0.141-0.156-0.344l-0.094-1.781-0.094-1.828 0.187-9.938v-0.047q0.031-0.234 0.187-0.375 0.141-0.109 0.313-0.109 0.125 0 0.234 0.078 0.219 0.125 0.25 0.406zM36 17.391q0 1.828-1.297 3.117t-3.125 1.289h-12.281q-0.203-0.031-0.344-0.172t-0.141-0.344v-14.047q0-0.359 0.438-0.516 1.328-0.531 2.828-0.531 3.047 0 5.281 2.055t2.5 5.055q0.828-0.344 1.719-0.344 1.828 0 3.125 1.297t1.297 3.141z"></path>
</svg>
