<?xml version="1.0" encoding="utf-8"?>
<!-- Generated by IcoMoon.io -->
<!DOCTYPE svg PUBLIC "-//W3C//DTD SVG 1.1//EN" "http://www.w3.org/Graphics/SVG/1.1/DTD/svg11.dtd">
<svg version="1.1" xmlns="http://www.w3.org/2000/svg" xmlns:xlink="http://www.w3.org/1999/xlink" width="34" height="28" viewBox="0 0 34 28">
<path fill="#444444" d="M9.688 17.5q-1.719 1-4.188 1h-2v-1h-1q-0.203 0-0.352-0.367t-0.148-0.883q0-0.375 0.109-0.766-0.906-0.031-1.508-0.164t-0.602-0.32 0.602-0.32 1.508-0.164q-0.109-0.391-0.109-0.766 0-0.516 0.148-0.883t0.352-0.367h1v-1h2q2.469 0 4.188 1h17.391q0.656 0.109 1.664 0.281t1.258 0.219q1.391 0.234 2.344 0.633t1.305 0.742 0.352 0.625-0.352 0.625-1.305 0.742-2.344 0.633q-0.25 0.047-1.258 0.219t-1.664 0.281h-17.391zM27.172 13.563q0.828 0.562 0.828 1.437t-0.828 1.437l1.266 0.469q1.062-0.75 1.062-1.906t-1.062-1.906zM9.766 17.75h15.859q-3.391 0.594-7.125 1.25-0.891 0-1.766 0.375t-1.297 0.75l-0.438 0.375-4.5 4.5q-0.406 0.406-1.102 0.703t-1.398 0.297h-1.5l-1.453-7.25h0.453q2.453 0 4.266-1zM5.5 11.25h-0.453l1.453-7.25h1.5q0.719 0 1.406 0.297t1.094 0.703l4.5 4.5q0.063 0.063 0.172 0.164t0.477 0.359 0.758 0.453 0.961 0.359 1.133 0.164l7.125 1.25h-15.859q-1.813-1-4.266-1z"></path>
</svg>
