<?xml version="1.0" encoding="utf-8"?>
<!-- Generated by IcoMoon.io -->
<!DOCTYPE svg PUBLIC "-//W3C//DTD SVG 1.1//EN" "http://www.w3.org/Graphics/SVG/1.1/DTD/svg11.dtd">
<svg version="1.1" xmlns="http://www.w3.org/2000/svg" xmlns:xlink="http://www.w3.org/1999/xlink" width="28" height="28" viewBox="0 0 28 28">
<path fill="#444444" d="M8.219 21.781q0 0.828-0.586 1.414t-1.414 0.586q-0.812 0-1.406-0.594t-0.594-1.406q0-0.828 0.586-1.414t1.414-0.586 1.414 0.586 0.586 1.414zM16 25q0 0.828-0.586 1.414t-1.414 0.586-1.414-0.586-0.586-1.414 0.586-1.414 1.414-0.586 1.414 0.586 0.586 1.414zM5 14q0 0.828-0.586 1.414t-1.414 0.586-1.414-0.586-0.586-1.414 0.586-1.414 1.414-0.586 1.414 0.586 0.586 1.414zM23.781 21.781q0 0.812-0.594 1.406t-1.406 0.594q-0.828 0-1.414-0.586t-0.586-1.414 0.586-1.414 1.414-0.586 1.414 0.586 0.586 1.414zM8.719 6.219q0 1.031-0.734 1.766t-1.766 0.734-1.766-0.734-0.734-1.766 0.734-1.766 1.766-0.734 1.766 0.734 0.734 1.766zM27 14q0 0.828-0.586 1.414t-1.414 0.586-1.414-0.586-0.586-1.414 0.586-1.414 1.414-0.586 1.414 0.586 0.586 1.414zM17 3q0 1.25-0.875 2.125t-2.125 0.875-2.125-0.875-0.875-2.125 0.875-2.125 2.125-0.875 2.125 0.875 0.875 2.125zM25.281 6.219q0 1.453-1.031 2.477t-2.469 1.023q-1.453 0-2.477-1.023t-1.023-2.477q0-1.437 1.023-2.469t2.477-1.031q1.437 0 2.469 1.031t1.031 2.469z"></path>
</svg>
