<?xml version="1.0" encoding="utf-8"?>
<!-- Generated by IcoMoon.io -->
<!DOCTYPE svg PUBLIC "-//W3C//DTD SVG 1.1//EN" "http://www.w3.org/Graphics/SVG/1.1/DTD/svg11.dtd">
<svg version="1.1" xmlns="http://www.w3.org/2000/svg" xmlns:xlink="http://www.w3.org/1999/xlink" width="28" height="28" viewBox="0 0 28 28">
<path fill="#444444" d="M17.609 18.906q0-0.5-0.469-0.797-3.016-1.797-6.984-1.797-2.078 0-4.484 0.531-0.656 0.141-0.656 0.812 0 0.313 0.211 0.539t0.555 0.227q0.078 0 0.578-0.125 2.063-0.422 3.797-0.422 3.531 0 6.203 1.609 0.297 0.172 0.516 0.172 0.297 0 0.516-0.211t0.219-0.539zM19.109 15.547q0-0.625-0.547-0.953-3.703-2.203-8.563-2.203-2.391 0-4.734 0.656-0.75 0.203-0.75 1 0 0.391 0.273 0.664t0.664 0.273q0.109 0 0.578-0.125 1.906-0.516 3.922-0.516 4.359 0 7.625 1.937 0.375 0.203 0.594 0.203 0.391 0 0.664-0.273t0.273-0.664zM20.797 11.672q0-0.734-0.625-1.094-1.969-1.141-4.578-1.727t-5.359-0.586q-3.187 0-5.688 0.734-0.359 0.109-0.602 0.398t-0.242 0.758q0 0.484 0.32 0.812t0.805 0.328q0.172 0 0.625-0.125 2.078-0.578 4.797-0.578 2.484 0 4.836 0.531t3.961 1.484q0.328 0.187 0.625 0.187 0.453 0 0.789-0.32t0.336-0.805zM24 14q0 3.266-1.609 6.023t-4.367 4.367-6.023 1.609-6.023-1.609-4.367-4.367-1.609-6.023 1.609-6.023 4.367-4.367 6.023-1.609 6.023 1.609 4.367 4.367 1.609 6.023z"></path>
</svg>
