<?xml version="1.0" encoding="utf-8"?>
<!-- Generated by IcoMoon.io -->
<!DOCTYPE svg PUBLIC "-//W3C//DTD SVG 1.1//EN" "http://www.w3.org/Graphics/SVG/1.1/DTD/svg11.dtd">
<svg version="1.1" xmlns="http://www.w3.org/2000/svg" xmlns:xlink="http://www.w3.org/1999/xlink" width="26" height="28" viewBox="0 0 26 28">
<path fill="#444444" d="M18.531 14.953l4.016-3.906-6.594-0.969-0.469-0.938-2.484-5.031v15.047l0.922 0.484 4.969 2.625-0.938-5.547-0.187-1.031zM25.594 10.859l-5.672 5.531 1.344 7.812q0.078 0.516-0.094 0.805t-0.531 0.289q-0.266 0-0.625-0.187l-7.016-3.687-7.016 3.687q-0.359 0.187-0.625 0.187-0.359 0-0.531-0.289t-0.094-0.805l1.344-7.812-5.688-5.531q-0.5-0.5-0.359-0.93t0.844-0.539l7.844-1.141 3.516-7.109q0.313-0.641 0.766-0.641 0.438 0 0.766 0.641l3.516 7.109 7.844 1.141q0.703 0.109 0.844 0.539t-0.375 0.93z"></path>
</svg>
