<?xml version="1.0" encoding="utf-8"?>
<!-- Generated by IcoMoon.io -->
<!DOCTYPE svg PUBLIC "-//W3C//DTD SVG 1.1//EN" "http://www.w3.org/Graphics/SVG/1.1/DTD/svg11.dtd">
<svg version="1.1" xmlns="http://www.w3.org/2000/svg" xmlns:xlink="http://www.w3.org/1999/xlink" width="28" height="28" viewBox="0 0 28 28">
<path fill="#444444" d="M19.406 10.109q0-1.25-0.891-2.133t-2.141-0.883-2.133 0.891-0.883 2.125q0 1.25 0.883 2.133t2.133 0.883 2.141-0.883 0.891-2.133zM9.875 19.297q0 1.297-0.906 2.195t-2.188 0.898q-0.875 0-1.609-0.453t-1.125-1.203q0.812 0.313 1.531 0.625 0.938 0.375 1.875-0.023t1.328-1.352q0.375-0.938-0.023-1.875t-1.352-1.313l-1.281-0.516q0.344-0.078 0.656-0.078 1.281 0 2.188 0.898t0.906 2.195zM24 6.5v15q0 1.859-1.32 3.18t-3.18 1.32h-15q-1.859 0-3.18-1.32t-1.32-3.18v-2.391l2.688 1.078q0.313 1.437 1.461 2.375t2.633 0.938q1.625 0 2.828-1.094t1.359-2.703l5.391-3.938q2.344 0 3.992-1.648t1.648-3.977q0-2.344-1.648-3.992t-3.992-1.648q-2.312 0-3.953 1.633t-1.672 3.945l-3.516 5.031q-0.141-0.016-0.438-0.016-1.172 0-2.141 0.578l-4.641-1.859v-7.313q0-1.859 1.32-3.18t3.18-1.32h15q1.859 0 3.18 1.32t1.32 3.18zM20.141 10.141q0 1.563-1.109 2.664t-2.672 1.102-2.664-1.102-1.102-2.664 1.102-2.672 2.664-1.109q1.578 0 2.68 1.102t1.102 2.68z"></path>
</svg>
