<?xml version="1.0" encoding="utf-8"?>
<!-- Generated by IcoMoon.io -->
<!DOCTYPE svg PUBLIC "-//W3C//DTD SVG 1.1//EN" "http://www.w3.org/Graphics/SVG/1.1/DTD/svg11.dtd">
<svg version="1.1" xmlns="http://www.w3.org/2000/svg" xmlns:xlink="http://www.w3.org/1999/xlink" width="28" height="28" viewBox="0 0 28 28">
<path fill="#444444" d="M24.719 9.094q0 1.578-1.117 2.695t-2.695 1.117-2.695-1.117-1.117-2.695 1.117-2.695 2.695-1.117 2.695 1.117 1.117 2.695zM12.688 20.687q0-1.625-1.141-2.766t-2.766-1.141q-0.422 0-0.844 0.094l1.625 0.656q1.203 0.484 1.711 1.664t0.023 2.367q-0.484 1.203-1.672 1.703t-2.375 0.016q-0.328-0.125-0.969-0.383t-0.953-0.383q0.5 0.938 1.422 1.508t2.031 0.57q1.625 0 2.766-1.141t1.141-2.766zM25.656 9.109q0-1.969-1.398-3.367t-3.367-1.398q-1.984 0-3.383 1.398t-1.398 3.367q0 1.984 1.398 3.375t3.383 1.391q1.969 0 3.367-1.391t1.398-3.375zM28 9.109q0 2.953-2.086 5.031t-5.023 2.078l-6.828 4.984q-0.187 2.016-1.703 3.406t-3.578 1.391q-1.891 0-3.344-1.188t-1.844-3l-3.594-1.437v-6.703l6.078 2.453q1.234-0.75 2.703-0.75 0.203 0 0.547 0.031l4.438-6.359q0.031-2.922 2.117-4.984t5.008-2.063q2.938 0 5.023 2.086t2.086 5.023z"></path>
</svg>
