<?xml version="1.0" encoding="utf-8"?>
<!-- Generated by IcoMoon.io -->
<!DOCTYPE svg PUBLIC "-//W3C//DTD SVG 1.1//EN" "http://www.w3.org/Graphics/SVG/1.1/DTD/svg11.dtd">
<svg version="1.1" xmlns="http://www.w3.org/2000/svg" xmlns:xlink="http://www.w3.org/1999/xlink" width="22" height="28" viewBox="0 0 22 28">
<path fill="#444444" d="M20 11q0-0.406-0.297-0.703t-0.703-0.297-0.703 0.297-0.297 0.703 0.297 0.703 0.703 0.297 0.703-0.297 0.297-0.703zM22 11q0 0.969-0.555 1.734t-1.445 1.094v6.172q0 2.484-2.055 4.242t-4.945 1.758-4.945-1.758-2.055-4.242v-2.063q-2.562-0.313-4.281-2t-1.719-3.938v-8q0-0.406 0.297-0.703t0.703-0.297q0.094 0 0.25 0.031 0.266-0.469 0.734-0.75t1.016-0.281q0.828 0 1.414 0.586t0.586 1.414-0.586 1.414-1.414 0.586q-0.516 0-1-0.281v6.281q0 1.656 1.469 2.828t3.531 1.172 3.531-1.172 1.469-2.828v-6.281q-0.484 0.281-1 0.281-0.828 0-1.414-0.586t-0.586-1.414 0.586-1.414 1.414-0.586q0.547 0 1.016 0.281t0.734 0.75q0.156-0.031 0.25-0.031 0.406 0 0.703 0.297t0.297 0.703v8q0 2.25-1.719 3.938t-4.281 2v2.063q0 1.656 1.469 2.828t3.531 1.172 3.531-1.172 1.469-2.828v-6.172q-0.891-0.328-1.445-1.094t-0.555-1.734q0-1.25 0.875-2.125t2.125-0.875 2.125 0.875 0.875 2.125z"></path>
</svg>
