<?xml version="1.0" encoding="utf-8"?>
<!-- Generated by IcoMoon.io -->
<!DOCTYPE svg PUBLIC "-//W3C//DTD SVG 1.1//EN" "http://www.w3.org/Graphics/SVG/1.1/DTD/svg11.dtd">
<svg version="1.1" xmlns="http://www.w3.org/2000/svg" xmlns:xlink="http://www.w3.org/1999/xlink" width="28" height="28" viewBox="0 0 28 28">
<path fill="#444444" d="M22 24q0 0.984-0.961 1.773t-2.562 1.266-3.516 0.719-3.961 0.242-3.961-0.242-3.516-0.719-2.562-1.266-0.961-1.773q0-0.766 0.516-1.383t1.422-1.039 1.844-0.695 2.047-0.461q0.406-0.078 0.75 0.164t0.406 0.648q0.078 0.406-0.164 0.75t-0.648 0.406q-0.906 0.156-1.656 0.367t-1.195 0.398-0.758 0.367-0.43 0.305-0.133 0.187q0.047 0.172 0.422 0.414t1.141 0.516 1.781 0.508 2.508 0.391 3.148 0.156 3.148-0.156 2.508-0.391 1.781-0.516 1.141-0.523 0.422-0.43q-0.016-0.063-0.133-0.172t-0.43-0.297-0.758-0.367-1.195-0.391-1.656-0.367q-0.406-0.063-0.648-0.406t-0.164-0.75q0.063-0.406 0.406-0.648t0.75-0.164q1.109 0.187 2.047 0.461t1.844 0.695 1.422 1.039 0.516 1.383zM16 10v6q0 0.406-0.297 0.703t-0.703 0.297h-1v6q0 0.406-0.297 0.703t-0.703 0.297h-4q-0.406 0-0.703-0.297t-0.297-0.703v-6h-1q-0.406 0-0.703-0.297t-0.297-0.703v-6q0-0.828 0.586-1.414t1.414-0.586h6q0.828 0 1.414 0.586t0.586 1.414zM14.5 4q0 1.453-1.023 2.477t-2.477 1.023-2.477-1.023-1.023-2.477 1.023-2.477 2.477-1.023 2.477 1.023 1.023 2.477z"></path>
</svg>
