<?xml version="1.0" encoding="utf-8"?>
<!-- Generated by IcoMoon.io -->
<!DOCTYPE svg PUBLIC "-//W3C//DTD SVG 1.1//EN" "http://www.w3.org/Graphics/SVG/1.1/DTD/svg11.dtd">
<svg version="1.1" xmlns="http://www.w3.org/2000/svg" xmlns:xlink="http://www.w3.org/1999/xlink" width="28" height="28" viewBox="0 0 28 28">
<path fill="#444444" d="M27.5 14q0.219 0 0.359 0.141t0.141 0.359v1q0 0.219-0.141 0.359t-0.359 0.141h-27q-0.219 0-0.359-0.141t-0.141-0.359v-1q0-0.219 0.141-0.359t0.359-0.141h27zM7.547 13q-0.438-0.547-0.797-1.25-0.75-1.516-0.75-2.938 0-2.828 2.094-4.828 2.078-1.984 6.141-1.984 0.781 0 2.609 0.297 1.031 0.187 2.766 0.75 0.156 0.594 0.328 1.844 0.219 1.922 0.219 2.859 0 0.281-0.078 0.703l-0.187 0.047-1.313-0.094-0.219-0.031q-0.781-2.328-1.609-3.203-1.375-1.422-3.281-1.422-1.781 0-2.844 0.922-1.047 0.906-1.047 2.281 0 1.141 1.031 2.188t4.359 2.016q1.078 0.313 2.703 1.031 0.906 0.438 1.484 0.812h-11.609zM15.469 17h6.422q0.109 0.609 0.109 1.437 0 1.734-0.641 3.313-0.359 0.859-1.109 1.625-0.578 0.547-1.703 1.266-1.25 0.75-2.391 1.031-1.25 0.328-3.172 0.328-1.781 0-3.047-0.359l-2.188-0.625q-0.891-0.25-1.125-0.438-0.125-0.125-0.125-0.344v-0.203q0-1.687-0.031-2.438-0.016-0.469 0-1.062l0.031-0.578v-0.688l1.594-0.031q0.234 0.531 0.469 1.109t0.352 0.875 0.195 0.422q0.547 0.891 1.25 1.469 0.672 0.562 1.641 0.891 0.922 0.344 2.063 0.344 1 0 2.172-0.422 1.203-0.406 1.906-1.344 0.734-0.953 0.734-2.016 0-1.313-1.266-2.453-0.531-0.453-2.141-1.109z"></path>
</svg>
