<?xml version="1.0" encoding="utf-8"?>
<!-- Generated by IcoMoon.io -->
<!DOCTYPE svg PUBLIC "-//W3C//DTD SVG 1.1//EN" "http://www.w3.org/Graphics/SVG/1.1/DTD/svg11.dtd">
<svg version="1.1" xmlns="http://www.w3.org/2000/svg" xmlns:xlink="http://www.w3.org/1999/xlink" width="28" height="28" viewBox="0 0 28 28">
<path fill="#444444" d="M13.531 13.109l1.406-0.422v-0.969q0-1.234-0.906-2.109t-2.156-0.875-2.156 0.867-0.906 2.102v4.422q0 0.313-0.219 0.523t-0.516 0.211-0.508-0.211-0.211-0.523v-1.875h-2.359v1.906q0 1.281 0.898 2.172t2.18 0.891q1.266 0 2.164-0.883t0.898-2.133v-4.375q0-0.297 0.211-0.516t0.523-0.219q0.297 0 0.508 0.219t0.211 0.516v0.844zM18.734 16.156v-1.906h-2.344v1.969q0 0.313-0.211 0.523t-0.523 0.211q-0.297 0-0.508-0.219t-0.211-0.516v-1.922l-1.406 0.406-0.938-0.438v1.922q0 1.25 0.906 2.141t2.172 0.891 2.164-0.891 0.898-2.172zM24 14q0 3.266-1.609 6.023t-4.367 4.367-6.023 1.609-6.023-1.609-4.367-4.367-1.609-6.023 1.609-6.023 4.367-4.367 6.023-1.609 6.023 1.609 4.367 4.367 1.609 6.023z"></path>
</svg>
