<?xml version="1.0" encoding="utf-8"?>
<!-- Generated by IcoMoon.io -->
<!DOCTYPE svg PUBLIC "-//W3C//DTD SVG 1.1//EN" "http://www.w3.org/Graphics/SVG/1.1/DTD/svg11.dtd">
<svg version="1.1" xmlns="http://www.w3.org/2000/svg" xmlns:xlink="http://www.w3.org/1999/xlink" width="28" height="28" viewBox="0 0 28 28">
<path fill="#444444" d="M14.016 21.391v2.609h-3.875l-2.484-3.938-0.375-0.656q-0.125-0.141-0.172-0.328h-0.047l-0.141 0.328q-0.156 0.313-0.391 0.688l-2.422 3.906h-4.031v-2.609h2l3.078-4.547-2.891-4.25h-2.141v-2.625h4.312l2.172 3.563q0.031 0.063 0.359 0.656 0.125 0.141 0.172 0.328h0.047q0.047-0.141 0.172-0.328l0.391-0.656 2.188-3.563h4.016v2.625h-1.953l-2.875 4.172 3.187 4.625h1.703zM24 24.781v3.219h-8.031l-0.063-0.422q-0.047-0.703-0.047-0.719 0-1 0.406-1.828t1.016-1.352 1.313-1.016 1.313-0.852 1.016-0.844 0.406-1q0-0.594-0.461-0.977t-1.102-0.383q-0.797 0-1.516 0.609-0.219 0.172-0.562 0.594l-1.641-1.437q0.406-0.578 0.984-1.031 1.25-1.016 2.938-1.016 1.719 0 2.781 0.93t1.062 2.477q0 1.031-0.539 1.852t-1.313 1.344-1.555 0.977-1.359 0.984-0.641 1.141h3.625v-1.25h1.969z"></path>
</svg>
