<?xml version="1.0" encoding="utf-8"?>
<!-- Generated by IcoMoon.io -->
<!DOCTYPE svg PUBLIC "-//W3C//DTD SVG 1.1//EN" "http://www.w3.org/Graphics/SVG/1.1/DTD/svg11.dtd">
<svg version="1.1" xmlns="http://www.w3.org/2000/svg" xmlns:xlink="http://www.w3.org/1999/xlink" width="28" height="28" viewBox="0 0 28 28">
<path fill="#444444" d="M23 14q0-1.828-0.711-3.492t-1.922-2.875-2.875-1.922-3.492-0.711-3.492 0.711-2.875 1.922-1.922 2.875-0.711 3.492 0.711 3.492 1.922 2.875 2.875 1.922 3.492 0.711 3.492-0.711 2.875-1.922 1.922-2.875 0.711-3.492zM27.312 18.328q-0.063 0.234-0.313 0.313l-4.562 1.5v4.781q0 0.25-0.203 0.406-0.234 0.156-0.453 0.063l-4.562-1.469-2.812 3.875q-0.156 0.203-0.406 0.203t-0.406-0.203l-2.812-3.875-4.562 1.469q-0.219 0.094-0.453-0.063-0.203-0.156-0.203-0.406v-4.781l-4.562-1.5q-0.25-0.078-0.313-0.313-0.078-0.266 0.063-0.453l2.812-3.875-2.812-3.875q-0.141-0.203-0.063-0.453 0.063-0.234 0.313-0.313l4.562-1.5v-4.781q0-0.25 0.203-0.406 0.234-0.156 0.453-0.063l4.562 1.469 2.812-3.875q0.141-0.187 0.406-0.187t0.406 0.187l2.812 3.875 4.562-1.469q0.219-0.094 0.453 0.063 0.203 0.156 0.203 0.406v4.781l4.562 1.5q0.25 0.078 0.313 0.313 0.078 0.25-0.063 0.453l-2.812 3.875 2.812 3.875q0.141 0.187 0.063 0.453z"></path>
</svg>
