<svg display="none" width="0" height="0" version="1.1" xmlns="http://www.w3.org/2000/svg" xmlns:xlink="http://www.w3.org/1999/xlink">
<defs>
<symbol id="svg-cart" viewBox="0 0 1024 1024">
	<title>cart</title>
	<path class="path1" d="M384 928c0 53.019-42.981 96-96 96s-96-42.981-96-96c0-53.019 42.981-96 96-96s96 42.981 96 96z"></path>
	<path class="path2" d="M1024 928c0 53.019-42.981 96-96 96s-96-42.981-96-96c0-53.019 42.981-96 96-96s96 42.981 96 96z"></path>
	<path class="path3" d="M1024 512v-384h-768c0-35.346-28.654-64-64-64h-192v64h128l48.074 412.054c-29.294 23.458-48.074 59.5-48.074 99.946 0 70.696 57.308 128 128 128h768v-64h-768c-35.346 0-64-28.654-64-64 0-0.218 0.014-0.436 0.016-0.656l831.984-127.344z"></path>
</symbol>
<symbol id="svg-envelope" viewBox="0 0 1024 1024">
	<title>envelope</title>
	<path class="path1" d="M960 128h-896c-35.2 0-64 28.8-64 64v640c0 35.2 28.8 64 64 64h896c35.2 0 64-28.8 64-64v-640c0-35.2-28.8-64-64-64zM896 256v46l-384 226.286-384-226.286v-46h768zM128 768v-354.572l384 226.286 384-226.286v354.572h-768z"></path>
</symbol>
<symbol id="svg-bell" viewBox="0 0 1024 1024">
	<title>bell</title>
	<path class="path1" d="M1024 832c-106.042 0-192-85.96-192-192v-285.090c0-140.738-109.942-258.128-256-285.084v-69.826h-128v69.824c-146.064 26.958-256 144.346-256 285.084v285.092c0 106.040-85.962 192-192 192v64h429.598c-5.208 11.424-8.11 24.118-8.11 37.49 0 49.986 40.524 90.51 90.512 90.51 49.984 0 90.51-40.524 90.51-90.51 0-13.376-2.902-26.066-8.112-37.49h429.602v-64z"></path>
</symbol>
<symbol id="svg-bubbles" viewBox="0 0 1152 1024">
	<title>bubbles</title>
	<path class="path1" d="M480 0v0c265.096 0 480 173.914 480 388.448s-214.904 388.448-480 388.448c-25.458 0-50.446-1.62-74.834-4.71-103.106 102.694-222.172 121.108-341.166 123.814v-25.134c64.252-31.354 116-88.466 116-153.734 0-9.106-0.712-18.048-2.030-26.794-108.558-71.214-177.97-179.988-177.97-301.89 0-214.534 214.904-388.448 480-388.448zM996 870.686c0 55.942 36.314 104.898 92 131.772v21.542c-103.126-2.318-197.786-18.102-287.142-106.126-21.14 2.65-42.794 4.040-64.858 4.040-95.47 0-183.408-25.758-253.614-69.040 144.674-0.506 281.26-46.854 384.834-130.672 52.208-42.252 93.394-91.826 122.414-147.348 30.766-58.866 46.366-121.582 46.366-186.406 0-10.448-0.45-20.836-1.258-31.168 72.57 59.934 117.258 141.622 117.258 231.676 0 104.488-60.158 197.722-154.24 258.764-1.142 7.496-1.76 15.16-1.76 22.966z"></path>
</symbol>
<symbol id="svg-bubbles2" viewBox="0 0 1024 1024">
	<title>bubbles2</title>
	<path class="path1" d="M928 192c52.802 0 96 43.2 96 96v448c0 52.8-43.2 96-96 96h-155.428l-164.572 192-164.572-192h-155.428c-52.8 0-96-43.2-96-96v-448c0-52.8 43.2-96 96-96h640zM128 128v512h-32c-52.8 0-96-43.2-96-96v-448c0-52.8 43.2-96 96-96h640c52.802 0 96 43.2 96 96v32h-704z"></path>
</symbol>
<symbol id="svg-bubbles3" viewBox="0 0 1152 1024">
	<title>bubbles3</title>
	<path class="path1" d="M800 0c52.8 0 96 43.2 96 96v320c0 52.8-43.2 96-96 96h-364.8l-307.2 256v-256h-32c-52.8 0-96-43.2-96-96v-320c0-52.8 43.2-96 96-96h704zM1056 192c52.8 0 96 43.2 96 96v384c0 52.8-43.2 96-96 96h-160v256l-307.2-256h-204.8v-128h251.14l196.86 174.714v-174.714h192v-320h-64v-128h96z"></path>
</symbol>
<symbol id="svg-user" viewBox="0 0 1024 1024">
	<title>user</title>
	<path class="path1" d="M576 706.612v-52.78c70.498-39.728 128-138.772 128-237.832 0-159.058 0-288-192-288s-192 128.942-192 288c0 99.060 57.502 198.104 128 237.832v52.78c-217.102 17.748-384 124.42-384 253.388h896c0-128.968-166.898-235.64-384-253.388z"></path>
</symbol>
<symbol id="svg-users" viewBox="0 0 1152 1024">
	<title>users</title>
	<path class="path1" d="M768 770.612v-52.78c70.498-39.728 128-138.772 128-237.832 0-159.058 0-288-192-288s-192 128.942-192 288c0 99.060 57.502 198.104 128 237.832v52.78c-217.102 17.748-384 124.42-384 253.388h896c0-128.968-166.898-235.64-384-253.388z"></path>
	<path class="path2" d="M327.196 795.328c55.31-36.15 124.080-63.636 199.788-80.414-15.054-17.784-28.708-37.622-40.492-59.020-30.414-55.234-46.492-116.058-46.492-175.894 0-86.042 0-167.31 30.6-233.762 29.706-64.504 83.128-104.496 159.222-119.488-16.914-76.48-61.94-126.75-181.822-126.75-192 0-192 128.942-192 288 0 99.060 57.502 198.104 128 237.832v52.78c-217.102 17.748-384 124.42-384 253.388h279.006c14.518-12.91 30.596-25.172 48.19-36.672z"></path>
</symbol>
<symbol id="svg-user-plus" viewBox="0 0 1024 1024">
	<title>user-plus</title>
	<path class="path1" d="M384 736c0-151.234 95.874-280.486 230.032-330.2 16.28-36.538 25.968-77.164 25.968-117.8 0-159.058 0-288-192-288s-192 128.942-192 288c0 99.060 57.502 198.104 128 237.832v52.78c-217.102 17.748-384 124.42-384 253.388h397.306c-8.664-30.53-13.306-62.732-13.306-96z"></path>
	<path class="path2" d="M736 448c-159.058 0-288 128.942-288 288s128.942 288 288 288c159.056 0 288-128.942 288-288s-128.942-288-288-288zM896 768h-128v128h-64v-128h-128v-64h128v-128h64v128h128v64z"></path>
</symbol>
<symbol id="svg-user-minus" viewBox="0 0 1024 1024">
	<title>user-minus</title>
	<path class="path1" d="M384 736c0-151.234 95.874-280.486 230.032-330.2 16.28-36.538 25.968-77.164 25.968-117.8 0-159.058 0-288-192-288s-192 128.942-192 288c0 99.060 57.502 198.104 128 237.832v52.78c-217.102 17.748-384 124.42-384 253.388h397.306c-8.664-30.53-13.306-62.732-13.306-96z"></path>
	<path class="path2" d="M736 448c-159.058 0-288 128.942-288 288s128.942 288 288 288c159.056 0 288-128.942 288-288s-128.942-288-288-288zM896 768h-320v-64h320v64z"></path>
</symbol>
<symbol id="svg-user-cancel" viewBox="0 0 1024 1024">
	<title>user-cancel</title>
	<path class="path1" d="M384 736c0-151.234 95.874-280.486 230.032-330.2 16.28-36.538 25.968-77.164 25.968-117.8 0-159.058 0-288-192-288s-192 128.942-192 288c0 99.060 57.502 198.104 128 237.832v52.78c-217.102 17.748-384 124.42-384 253.388h397.306c-8.664-30.53-13.306-62.732-13.306-96z"></path>
	<path class="path2" d="M736 448c-159.058 0-288 128.942-288 288s128.942 288 288 288c159.056 0 288-128.942 288-288s-128.942-288-288-288zM889.456 838.544c14.060 14.058 14.060 36.852 0 50.91-7.030 7.030-16.242 10.546-25.456 10.546s-18.426-3.516-25.456-10.544l-102.544-102.546-102.544 102.544c-7.030 7.030-16.242 10.546-25.456 10.546s-18.426-3.516-25.456-10.544c-14.060-14.058-14.060-36.852 0-50.91l102.546-102.546-102.544-102.544c-14.060-14.058-14.060-36.852 0-50.91 14.058-14.058 36.852-14.058 50.91 0l102.544 102.544 102.544-102.544c14.058-14.058 36.852-14.058 50.91 0 14.060 14.058 14.060 36.852 0 50.91l-102.544 102.544 102.546 102.544z"></path>
</symbol>
<symbol id="svg-user-block" viewBox="0 0 1024 1024">
	<title>user-block</title>
	<path class="path1" d="M384 736c0-151.234 95.874-280.486 230.032-330.2 16.28-36.538 25.968-77.164 25.968-117.8 0-159.058 0-288-192-288s-192 128.942-192 288c0 99.060 57.502 198.104 128 237.832v52.78c-217.102 17.748-384 124.42-384 253.388h397.306c-8.664-30.53-13.306-62.732-13.306-96z"></path>
	<path class="path2" d="M736 448c-159.058 0-288 128.942-288 288s128.942 288 288 288c159.056 0 288-128.942 288-288s-128.942-288-288-288zM512 736c0-123.71 100.29-224 224-224 48.862 0 94.062 15.656 130.88 42.208l-312.67 312.672c-26.554-36.818-42.21-82.018-42.21-130.88zM736 960c-48.862 0-94.062-15.656-130.88-42.208l312.672-312.672c26.552 36.818 42.208 82.018 42.208 130.88 0 123.71-100.288 224-224 224z"></path>
</symbol>
<symbol id="svg-user-lock" viewBox="0 0 1024 1024">
	<title>user-lock</title>
	<path class="path1" d="M976 704h-16v-64c0-70.58-57.422-128-128-128-70.58 0-128 57.42-128 128v64h-16c-26.4 0-48 21.6-48 48v224c0 26.4 21.6 48 48 48h288c26.398 0 48-21.6 48-48v-224c0-26.4-21.602-48-48-48zM768 640c0-35.29 28.708-64 64-64 35.29 0 64 28.71 64 64v64h-128v-64z"></path>
	<path class="path2" d="M576 586.636c-20.748-3.528-42.114-6.236-64-8.026v-52.78c70.498-39.728 128-138.772 128-237.832 0-159.058 0-288-192-288s-192 128.942-192 288c0 99.060 57.502 198.104 128 237.832v52.78c-217.102 17.75-384 124.422-384 253.39h576v-245.364z"></path>
</symbol>
<symbol id="svg-user-check" viewBox="0 0 1024 1024">
	<title>user-check</title>
	<path class="path1" d="M960 608l-288 288-96-96-64 64 160 160 352-352z"></path>
	<path class="path2" d="M448 768h320v-115.128c-67.22-39.2-156.308-66.11-256-74.26v-52.78c70.498-39.728 128-138.772 128-237.832 0-159.058 0-288-192-288s-192 128.942-192 288c0 99.060 57.502 198.104 128 237.832v52.78c-217.102 17.748-384 124.42-384 253.388h448v-64z"></path>
</symbol>
<symbol id="svg-user-clone" viewBox="0 0 1152 1024">
	<title>user-clone</title>
	<path class="path1" d="M768 770.614v-52.782c70.496-39.728 128-138.772 128-237.832 0-159.058 0-288-192-288s-192 128.942-192 288c0 99.060 57.502 198.104 128 237.832v52.782c-217.102 17.746-384 124.418-384 253.386h896c0-128.968-166.898-235.64-384-253.386z"></path>
	<path class="path2" d="M207.498 616c-13.554 4.938-26.606 10.284-39.116 16h306.044c-2.456-5.294-4.79-10.628-6.99-16h-259.938z"></path>
	<path class="path3" d="M27.2 744c-3.366 5.254-6.438 10.59-9.208 16h373.4c12.264-5.682 24.928-11.022 37.958-16h-402.15z"></path>
	<path class="path4" d="M87.52 680c-6.71 5.188-13.088 10.524-19.112 16h443.694c-3.82-5.202-7.53-10.532-11.108-16h-413.474z"></path>
	<path class="path5" d="M336.676 584c-27.154 3.968-53.32 9.344-78.23 16h202.854c-1.9-5.306-3.67-10.64-5.32-16h-119.304z"></path>
	<path class="path6" d="M384 552v16h67.426c-1.378-5.316-2.614-10.652-3.746-16h-63.68z"></path>
	<path class="path7" d="M374.466 520c3.152 2.048 6.326 4.024 9.536 5.832v10.168h60.63c-0.876-5.326-1.588-10.662-2.218-16h-67.948z"></path>
	<path class="path8" d="M1.946 808c-0.862 5.288-1.416 10.624-1.704 16h288.084c6.556-5.46 13.394-10.798 20.526-16h-306.906z"></path>
	<path class="path9" d="M109.986 664h381.106c-1.562-2.676-3.096-5.376-4.598-8.106-1.44-2.616-2.818-5.254-4.192-7.894h-345.738c-9.252 5.114-18.122 10.452-26.578 16z"></path>
	<path class="path10" d="M256.34 232c-0.098 5.282-0.166 10.618-0.216 16h213.696c0.264-0.586 0.512-1.178 0.782-1.762 2.252-4.892 4.66-9.628 7.186-14.238h-221.448z"></path>
	<path class="path11" d="M10.782 776c-2.060 5.274-3.842 10.608-5.322 16h326.984c8.732-5.54 17.75-10.89 27.1-16h-348.762z"></path>
	<path class="path12" d="M297.16 56h301.654c-4.488-5.72-9.462-11.068-14.986-16h-271.662c-5.526 4.936-10.514 10.276-15.006 16z"></path>
	<path class="path13" d="M38.546 728h438.050c16.396-4.888 33.202-9.278 50.39-13.086-0.81-0.958-1.6-1.946-2.404-2.914h-472.378c-4.866 5.228-9.424 10.564-13.658 16z"></path>
	<path class="path14" d="M336.34 488c5.438 5.694 11.048 11.046 16.822 16h87.716c-0.378-5.336-0.616-10.67-0.744-16h-103.794z"></path>
	<path class="path15" d="M310.266 456c3.854 5.524 7.852 10.872 12.002 16h117.734c0.002-5.354 0.008-10.688 0.024-16h-129.76z"></path>
	<path class="path16" d="M272.352 104c-1.698 5.182-3.216 10.52-4.58 16h360.458c-1.364-5.486-2.902-10.812-4.602-16h-351.276z"></path>
	<path class="path17" d="M264.302 136c-0.982 5.226-1.852 10.558-2.616 16h296.024c11.48-6.244 23.802-11.582 36.966-16h-330.374z"></path>
	<path class="path18" d="M257.386 200c-0.262 5.272-0.48 10.602-0.652 16h230.738c3.722-5.576 7.678-10.908 11.862-16h-241.948z"></path>
	<path class="path19" d="M259.756 168c-0.54 5.25-1.002 10.586-1.396 16h255.65c5.878-5.714 12.116-11.048 18.712-16h-272.966z"></path>
	<path class="path20" d="M375.446 8c-15.558 3.962-29.090 9.342-40.86 16h226.826c-11.78-6.666-25.348-12.036-40.928-16h-145.038z"></path>
	<path class="path21" d="M290.816 424c2.872 5.456 5.888 10.792 9.042 16h140.258c0.048-5.36 0.116-10.694 0.21-16h-149.51z"></path>
	<path class="path22" d="M286.394 72c-2.942 5.11-5.602 10.446-8.002 16h339.206c-2.4-5.556-5.070-10.888-8.012-16h-323.192z"></path>
	<path class="path23" d="M265.736 360c1.44 5.384 3.040 10.718 4.768 16h171.696c0.352-5.376 0.766-10.708 1.242-16h-177.706z"></path>
	<path class="path24" d="M276.234 392c2.106 5.414 4.356 10.75 6.746 16h157.726c0.16-5.368 0.36-10.7 0.604-16h-165.076z"></path>
	<path class="path25" d="M256.026 264c-0.016 5.294-0.024 10.628-0.026 16h201.92c1.63-5.412 3.41-10.746 5.352-16h-207.246z"></path>
	<path class="path26" d="M256.146 296c0.166 5.342 0.512 10.676 0.998 16h192.916c1.052-5.398 2.228-10.728 3.514-16h-197.428z"></path>
	<path class="path27" d="M259.072 328c0.806 5.36 1.742 10.698 2.848 16h183.186c0.642-5.382 1.36-10.718 2.172-16h-188.206z"></path>
</symbol>
<symbol id="svg-line-graph-dots" viewBox="0 0 1024 1024">
	<title>line-graph-dots</title>
	<path class="path1" d="M128 896h896v128h-1024v-1024h128zM288 832c-53.020 0-96-42.98-96-96s42.98-96 96-96c2.828 0 5.622 0.148 8.388 0.386l103.192-171.986c-9.84-15.070-15.58-33.062-15.58-52.402 0-53.020 42.98-96 96-96s96 42.98 96 96c0 19.342-5.74 37.332-15.58 52.402l103.192 171.986c2.766-0.238 5.56-0.386 8.388-0.386 2.136 0 4.248 0.094 6.35 0.23l170.356-298.122c-10.536-15.408-16.706-34.036-16.706-54.11 0-53.020 42.98-96 96-96s96 42.98 96 96c0 53.020-42.98 96-96 96-2.14 0-4.248-0.094-6.35-0.232l-170.356 298.124c10.536 15.406 16.706 34.036 16.706 54.11 0 53.020-42.98 96-96 96s-96-42.98-96-96c0-19.34 5.74-37.332 15.578-52.402l-103.19-171.984c-2.766 0.238-5.56 0.386-8.388 0.386s-5.622-0.146-8.388-0.386l-103.192 171.986c9.84 15.068 15.58 33.060 15.58 52.4 0 53.020-42.98 96-96 96z"></path>
</symbol>
<symbol id="svg-bar-graph" viewBox="0 0 1024 1024">
	<title>bar-graph</title>
	<path class="path1" d="M0 832h1024v128h-1024zM128 576h128v192h-128zM320 320h128v448h-128zM512 512h128v256h-128zM704 128h128v640h-128z"></path>
</symbol>
<symbol id="svg-meter" viewBox="0 0 1024 1024">
	<title>meter</title>
	<path class="path1" d="M512 64c282.77 0 512 229.23 512 512 0 192.792-106.576 360.666-264.008 448h-495.984c-157.432-87.334-264.008-255.208-264.008-448 0-282.77 229.23-512 512-512zM801.914 865.914c77.438-77.44 120.086-180.398 120.086-289.914h-90v-64h85.038c-7.014-44.998-21.39-88.146-42.564-128h-106.474v-64h64.284c-9.438-11.762-19.552-23.096-30.37-33.914-46.222-46.22-101.54-80.038-161.914-99.798v69.712h-64v-85.040c-20.982-3.268-42.36-4.96-64-4.96s-43.018 1.69-64 4.96v85.040h-64v-69.712c-60.372 19.76-115.692 53.576-161.914 99.798-10.818 10.818-20.932 22.152-30.37 33.914h64.284v64h-106.476c-21.174 39.854-35.552 83.002-42.564 128h85.040v64h-90c0 109.516 42.648 212.474 120.086 289.914 10.71 10.71 21.924 20.728 33.56 30.086h192.354l36.572-512h54.856l36.572 512h192.354c11.636-9.358 22.852-19.378 33.56-30.086z"></path>
</symbol>
<symbol id="svg-switch" viewBox="0 0 1024 1024">
	<title>switch</title>
	<path class="path1" d="M640 146.588v135.958c36.206 15.804 69.5 38.408 98.274 67.18 60.442 60.44 93.726 140.8 93.726 226.274s-33.286 165.834-93.726 226.274c-60.44 60.44-140.798 93.726-226.274 93.726s-165.834-33.286-226.274-93.726c-60.44-60.44-93.726-140.8-93.726-226.274s33.286-165.834 93.726-226.274c28.774-28.774 62.068-51.378 98.274-67.182v-135.956c-185.048 55.080-320 226.472-320 429.412 0 247.424 200.578 448 448 448 247.424 0 448-200.576 448-448 0-202.94-134.95-374.332-320-429.412zM448 0h128v512h-128z"></path>
</symbol>
<symbol id="svg-warning" viewBox="0 0 1024 1024">
	<title>warning</title>
	<path class="path1" d="M512 92.774l429.102 855.226h-858.206l429.104-855.226zM512 0c-22.070 0-44.14 14.882-60.884 44.648l-437.074 871.112c-33.486 59.532-5 108.24 63.304 108.24h869.308c68.3 0 96.792-48.708 63.3-108.24h0.002l-437.074-871.112c-16.742-29.766-38.812-44.648-60.882-44.648v0z"></path>
	<path class="path2" d="M576 832c0 35.346-28.654 64-64 64s-64-28.654-64-64c0-35.346 28.654-64 64-64s64 28.654 64 64z"></path>
	<path class="path3" d="M512 704c-35.346 0-64-28.654-64-64v-192c0-35.346 28.654-64 64-64s64 28.654 64 64v192c0 35.346-28.654 64-64 64z"></path>
</symbol>
<symbol id="svg-warning2" viewBox="0 0 1024 1024">
	<title>warning2</title>
	<path class="path1" d="M1009.956 915.76v0l-437.074-871.112c-16.742-29.766-38.812-44.648-60.882-44.648s-44.14 14.882-60.884 44.648l-437.074 871.112c-33.486 59.532-5 108.24 63.304 108.24h869.308c68.302 0 96.792-48.708 63.302-108.24zM512 896c-35.346 0-64-28.654-64-64s28.654-64 64-64c35.348 0 64 28.652 64 64s-28.652 64-64 64zM576 640c0 35.346-28.654 64-64 64s-64-28.654-64-64v-192c0-35.346 28.654-64 64-64s64 28.654 64 64v192z"></path>
</symbol>
<symbol id="svg-notification-circle" viewBox="0 0 1024 1024">
	<title>notification-circle</title>
	<path class="path1" d="M512 96c-111.118 0-215.584 43.272-294.156 121.844s-121.844 183.038-121.844 294.156c0 111.118 43.272 215.584 121.844 294.156s183.038 121.844 294.156 121.844c111.118 0 215.584-43.272 294.156-121.844s121.844-183.038 121.844-294.156c0-111.118-43.272-215.584-121.844-294.156s-183.038-121.844-294.156-121.844zM512 0v0c282.77 0 512 229.23 512 512s-229.23 512-512 512c-282.77 0-512-229.23-512-512s229.23-512 512-512zM448 704h128v128h-128zM448 192h128v384h-128z"></path>
</symbol>
<symbol id="svg-notification-circle2" viewBox="0 0 1024 1024">
	<title>notification-circle2</title>
	<path class="path1" d="M512 0c-282.77 0-512 229.23-512 512s229.23 512 512 512 512-229.23 512-512-229.23-512-512-512zM576 832h-128v-128h128v128zM576 576h-128v-384h128v384z"></path>
</symbol>
<symbol id="svg-question-circle" viewBox="0 0 1024 1024">
	<title>question-circle</title>
	<path class="path1" d="M576 768c0 35.346-28.654 64-64 64s-64-28.654-64-64 28.654-64 64-64 64 28.654 64 64z"></path>
	<path class="path2" d="M512 0c-282.77 0-512 229.23-512 512s229.23 512 512 512 512-229.23 512-512-229.23-512-512-512zM512 928c-229.75 0-416-186.25-416-416s186.25-416 416-416 416 186.25 416 416-186.25 416-416 416z"></path>
	<path class="path3" d="M512 640.25c-26.51 0-48-21.49-48-48v-32c0-33.618 12.964-63.854 38.532-89.87 18.864-19.194 41.778-33.59 63.936-47.512 45.564-28.624 65.532-43.978 65.532-70.868 0-29.252-16.88-48.788-31.042-60.026-22.734-18.040-54.328-27.974-88.958-27.974-52.534 0-99.792 35.082-114.924 85.314-7.648 25.382-34.422 39.758-59.806 32.114-25.382-7.648-39.76-34.422-32.114-59.806 13.112-43.52 40.398-82.63 76.832-110.124 37.71-28.456 82.668-43.498 130.012-43.498 56.208 0 108.994 17.322 148.63 48.776 43.444 34.474 67.37 82.496 67.37 135.224 0 82.76-63.846 122.872-110.462 152.158-39.112 24.57-57.538 38.114-57.538 56.092v32c0 26.51-21.49 48-48 48z"></path>
</symbol>
<symbol id="svg-question-circle2" viewBox="0 0 1024 1024">
	<title>question-circle2</title>
	<path class="path1" d="M512 0c-282.77 0-512 229.23-512 512s229.23 512 512 512 512-229.23 512-512-229.23-512-512-512zM512 832c-35.346 0-64-28.654-64-64s28.654-64 64-64 64 28.654 64 64-28.654 64-64 64zM617.538 504.158c-39.112 24.57-57.538 38.114-57.538 56.092v32c0 26.51-21.49 48-48 48s-48-21.49-48-48v-32c0-33.618 12.964-63.854 38.532-89.87 18.864-19.194 41.778-33.59 63.936-47.512 45.564-28.624 65.532-43.978 65.532-70.868 0-29.252-16.88-48.788-31.042-60.026-22.734-18.040-54.328-27.974-88.958-27.974-52.534 0-99.792 35.082-114.924 85.314-7.648 25.382-34.422 39.758-59.806 32.114-25.382-7.648-39.76-34.422-32.114-59.806 13.112-43.52 40.398-82.63 76.832-110.124 37.71-28.456 82.668-43.498 130.012-43.498 56.208 0 108.994 17.322 148.63 48.776 43.444 34.474 67.37 82.496 67.37 135.224 0 82.76-63.846 122.872-110.462 152.158z"></path>
</symbol>
<symbol id="svg-plus-circle" viewBox="0 0 1024 1024">
	<title>plus-circle</title>
	<path class="path1" d="M512 0c-282.77 0-512 229.23-512 512s229.23 512 512 512 512-229.23 512-512-229.23-512-512-512zM576 576v256h-128v-256h-256v-128h256v-256h128v256h256v128h-256z"></path>
</symbol>
<symbol id="svg-minus-circle" viewBox="0 0 1024 1024">
	<title>minus-circle</title>
	<path class="path1" d="M512 0c-282.77 0-512 229.23-512 512s229.23 512 512 512 512-229.23 512-512-229.23-512-512-512zM832 576h-640v-128h640v128z"></path>
</symbol>
<symbol id="svg-info-circle" viewBox="0 0 1024 1024">
	<title>info-circle</title>
	<path class="path1" d="M448 304c0-26.4 21.6-48 48-48h32c26.4 0 48 21.6 48 48v32c0 26.4-21.6 48-48 48h-32c-26.4 0-48-21.6-48-48v-32z"></path>
	<path class="path2" d="M640 768h-256v-64h64v-192h-64v-64h192v256h64z"></path>
	<path class="path3" d="M512 0c-282.77 0-512 229.23-512 512s229.23 512 512 512 512-229.23 512-512-229.23-512-512-512zM512 928c-229.75 0-416-186.25-416-416s186.25-416 416-416 416 186.25 416 416-186.25 416-416 416z"></path>
</symbol>
<symbol id="svg-info-circle2" viewBox="0 0 1024 1024">
	<title>info-circle2</title>
	<path class="path1" d="M512 0c-282.77 0-512 229.23-512 512s229.23 512 512 512 512-229.23 512-512-229.23-512-512-512zM448 240c0-26.4 21.6-48 48-48h32c26.4 0 48 21.6 48 48v32c0 26.4-21.6 48-48 48h-32c-26.4 0-48-21.6-48-48v-32zM640 832h-256v-64h64v-256h-64v-64h192v320h64v64z"></path>
</symbol>
<symbol id="svg-cancel-circle" viewBox="0 0 1024 1024">
	<title>cancel-circle</title>
	<path class="path1" d="M512 0c-282.77 0-512 229.23-512 512s229.23 512 512 512 512-229.23 512-512-229.23-512-512-512zM512 928c-229.75 0-416-186.25-416-416s186.25-416 416-416 416 186.25 416 416-186.25 416-416 416z"></path>
	<path class="path2" d="M672 256l-160 160-160-160-96 96 160 160-160 160 96 96 160-160 160 160 96-96-160-160 160-160z"></path>
</symbol>
<symbol id="svg-arrow-up" viewBox="0 0 1024 1024">
	<title>arrow-up</title>
	<path class="path1" d="M0 672l64 64 448-448 448 448 64-64-511.998-512-512.002 512z"></path>
</symbol>
<symbol id="svg-arrow-up3" viewBox="0 0 1024 1024">
	<title>arrow-up3</title>
	<path class="path1" d="M0 672l128 128 384-384 384 384 128-128-511.998-512-512.002 512z"></path>
</symbol>
<symbol id="svg-arrow-up2" viewBox="0 0 1024 1024">
	<title>arrow-up2</title>
	<path class="path1" d="M0 672l96 96 416-416 416 416 96-96-511.998-512-512.002 512z"></path>
</symbol>
<symbol id="svg-arrow-up4" viewBox="0 0 1024 1024">
	<title>arrow-up4</title>
	<path class="path1" d="M0 672l192 192 320-320 320 320 192-192-511.998-512z"></path>
</symbol>
<symbol id="svg-arrow-right4" viewBox="0 0 1024 1024">
	<title>arrow-right4</title>
	<path class="path1" d="M352 0l-192 192 320 320-320 320 192 192 512-512z"></path>
</symbol>
<symbol id="svg-arrow-right3" viewBox="0 0 1024 1024">
	<title>arrow-right3</title>
	<path class="path1" d="M352 0l-128 128 384 384-384 384 128 128 512-511.998-512-512.002z"></path>
</symbol>
<symbol id="svg-arrow-right2" viewBox="0 0 1024 1024">
	<title>arrow-right2</title>
	<path class="path1" d="M352 0l-96 96 416 416-416 416 96 96 512-511.998-512-512.002z"></path>
</symbol>
<symbol id="svg-arrow-right" viewBox="0 0 1024 1024">
	<title>arrow-right</title>
	<path class="path1" d="M352 0l-64 64 448 448-448 448 64 64 512-511.998-512-512.002z"></path>
</symbol>
<symbol id="svg-arrow-down4" viewBox="0 0 1024 1024">
	<title>arrow-down4</title>
	<path class="path1" d="M1024 352l-192-192-320 320-320-320-192 192 512 511.998z"></path>
</symbol>
<symbol id="svg-arrow-down3" viewBox="0 0 1024 1024">
	<title>arrow-down3</title>
	<path class="path1" d="M1024 352l-128-128-384 384-384-384-128 128 511.998 512 512.002-512z"></path>
</symbol>
<symbol id="svg-arrow-down2" viewBox="0 0 1024 1024">
	<title>arrow-down2</title>
	<path class="path1" d="M1024 352l-96-96-416 416-416-416-96 96 511.998 512 512.002-512z"></path>
</symbol>
<symbol id="svg-arrow-down" viewBox="0 0 1024 1024">
	<title>arrow-down</title>
	<path class="path1" d="M1024 352l-64-64-448 448-448-448-64 64 511.998 512 512.002-512z"></path>
</symbol>
<symbol id="svg-arrow-left4" viewBox="0 0 1024 1024">
	<title>arrow-left4</title>
	<path class="path1" d="M672 1024l192-192-320-320 320-320-192-192-512 512z"></path>
</symbol>
<symbol id="svg-arrow-left3" viewBox="0 0 1024 1024">
	<title>arrow-left3</title>
	<path class="path1" d="M672 1024l128-128-384-384 384-384-128-128-512 511.998 512 512.002z"></path>
</symbol>
<symbol id="svg-arrow-left2" viewBox="0 0 1024 1024">
	<title>arrow-left2</title>
	<path class="path1" d="M672 1024l96-96-416-416 416-416-96-96-512 511.998 512 512.002z"></path>
</symbol>
<symbol id="svg-arrow-left" viewBox="0 0 1024 1024">
	<title>arrow-left</title>
	<path class="path1" d="M672 1024l64-64-448-448 448-448-64-64-512 511.998 512 512.002z"></path>
</symbol>
<symbol id="svg-triangle-up" viewBox="0 0 1024 1024">
	<title>triangle-up</title>
	<path class="path1" d="M800 640l-288-288-288 288h576z"></path>
</symbol>
<symbol id="svg-triangle-right" viewBox="0 0 1024 1024">
	<title>triangle-right</title>
	<path class="path1" d="M384 800l288-288-288-288v576z"></path>
</symbol>
<symbol id="svg-triangle-down" viewBox="0 0 1024 1024">
	<title>triangle-down</title>
	<path class="path1" d="M224 384l288 288 288-288h-576z"></path>
</symbol>
<symbol id="svg-triangle-left" viewBox="0 0 1024 1024">
	<title>triangle-left</title>
	<path class="path1" d="M640 224l-288 288 288 288v-576z"></path>
</symbol>
<symbol id="svg-circle-right" viewBox="0 0 1024 1024">
	<title>circle-right</title>
	<path class="path1" d="M512 1024c282.77 0 512-229.23 512-512s-229.23-512-512-512-512 229.23-512 512 229.23 512 512 512zM192 448h351.998l-127.998-128 95.998-96 288.002 288-288.002 288-95.998-96 127.998-128h-351.998v-128z"></path>
</symbol>
<symbol id="svg-circle-left" viewBox="0 0 1024 1024">
	<title>circle-left</title>
	<path class="path1" d="M512 0c-282.77 0-512 229.23-512 512s229.23 512 512 512 512-229.23 512-512-229.23-512-512-512zM832 576h-351.998l127.998 128-95.998 96-288.002-288 288.002-288 95.998 96-127.998 128h351.998v128z"></path>
</symbol>
<symbol id="svg-checkbox-checked" viewBox="0 0 1024 1024">
	<title>checkbox-checked</title>
	<path class="path1" d="M0 0v1024h1024v-1024h-1024zM960 960h-896v-896h896v896z"></path>
	<path class="path2" d="M160 512l96-96 160 160 352-352 96 96-448 448z"></path>
</symbol>
<symbol id="svg-checkbox-unchecked" viewBox="0 0 1024 1024">
	<title>checkbox-unchecked</title>
	<path class="path1" d="M0 0v1024h1024v-1024h-1024zM960 960h-896v-896h896v896z"></path>
</symbol>
<symbol id="svg-checkbox-partial" viewBox="0 0 1024 1024">
	<title>checkbox-partial</title>
	<path class="path1" d="M0 0v1024h1024v-1024h-1024zM960 960h-896v-896h896v896zM256 256h512v512h-512z"></path>
</symbol>
<symbol id="svg-radio-checked" viewBox="0 0 1024 1024">
	<title>radio-checked</title>
	<path class="path1" d="M512 0c-282.77 0-512 229.23-512 512s229.23 512 512 512 512-229.23 512-512-229.23-512-512-512zM512 896c-212.078 0-384-171.922-384-384s171.922-384 384-384c212.078 0 384 171.922 384 384s-171.922 384-384 384zM320 512c0-106.039 85.961-192 192-192s192 85.961 192 192c0 106.039-85.961 192-192 192s-192-85.961-192-192z"></path>
</symbol>
<symbol id="svg-radio-checked2" viewBox="0 0 1024 1024">
	<title>radio-checked2</title>
	<path class="path1" d="M512 0c-282.77 0-512 229.23-512 512s229.23 512 512 512 512-229.23 512-512-229.23-512-512-512zM512 640c-70.692 0-128-57.306-128-128 0-70.692 57.308-128 128-128 70.694 0 128 57.308 128 128 0 70.694-57.306 128-128 128z"></path>
</symbol>
<symbol id="svg-radio-unchecked" viewBox="0 0 1024 1024">
	<title>radio-unchecked</title>
	<path class="path1" d="M512 0c-282.77 0-512 229.23-512 512s229.23 512 512 512 512-229.23 512-512-229.23-512-512-512zM512 896c-212.078 0-384-171.922-384-384s171.922-384 384-384c212.078 0 384 171.922 384 384s-171.922 384-384 384z"></path>
</symbol>
<symbol id="svg-google-plus" viewBox="0 0 1024 1024">
	<title>google-plus</title>
	<path class="path1" d="M559.066 64c0 0-200.956 0-267.94 0-120.12 0-233.17 91.006-233.17 196.422 0 107.726 81.882 194.666 204.088 194.666 8.498 0 16.756-0.17 24.842-0.752-7.93 15.186-13.602 32.288-13.602 50.042 0 29.938 16.104 54.21 36.468 74.024-15.386 0-30.242 0.448-46.452 0.448-148.782-0.002-263.3 94.758-263.3 193.020 0 96.778 125.542 157.314 274.334 157.314 169.624 0 263.306-96.244 263.306-193.028 0-77.6-22.896-124.072-93.686-174.134-24.216-17.144-70.53-58.836-70.53-83.344 0-28.72 8.196-42.868 51.428-76.646 44.312-34.624 75.672-83.302 75.672-139.916 0-67.406-30.020-133.098-86.372-154.772h84.954l59.96-43.344zM465.48 719.458c2.126 8.972 3.284 18.206 3.284 27.628 0 78.2-50.392 139.31-194.974 139.31-102.842 0-177.116-65.104-177.116-143.3 0-76.642 92.126-140.444 194.964-139.332 24 0.254 46.368 4.116 66.67 10.69 55.826 38.826 95.876 60.762 107.172 105.004zM300.818 427.776c-69.038-2.064-134.636-77.226-146.552-167.86-11.916-90.666 34.37-160.042 103.388-157.99 69.010 2.074 134.638 74.814 146.558 165.458 11.906 90.66-34.39 162.458-103.394 160.392zM832 256v-192h-64v192h-192v64h192v192h64v-192h192v-64z"></path>
</symbol>
<symbol id="svg-google-plus2" viewBox="0 0 1024 1024">
	<title>google-plus2</title>
	<path class="path1" d="M0.806 869.664c-0.244-2.532-0.452-5.070-0.584-7.63 0.13 2.56 0.34 5.098 0.584 7.63zM235.908 565.148c92.010 2.738 153.734-92.698 137.862-213.198-15.894-120.48-103.396-217.168-195.408-219.922-92.026-2.73-153.74 89.482-137.852 210 15.882 120.468 103.352 220.374 195.398 223.12zM1024 256v-85.31c0-93.88-76.782-170.69-170.658-170.69h-682.656c-92.276 0-168.012 74.232-170.564 165.926 58.362-51.386 139.324-94.316 222.874-94.316 89.304 0 357.244 0 357.244 0l-79.948 67.618h-113.268c75.13 28.804 115.156 116.124 115.156 205.722 0 75.248-41.81 139.954-100.888 185.968-57.644 44.902-68.572 63.708-68.572 101.878 0 32.578 61.746 88 94.032 110.788 94.382 66.538 124.916 128.312 124.916 231.456 0 16.428-2.042 32.83-6.066 48.96h307.742c93.874 0 170.656-76.75 170.656-170.69v-533.308h-192v191.998h-64v-192h-191.998v-64h191.998v-192h64v192h192zM185.886 765.936c21.614 0 41.422-0.59 61.936-0.59-27.146-26.334-48.626-58.6-48.626-98.38 0-23.608 7.564-46.336 18.134-66.52-10.782 0.77-21.79 0.994-33.126 0.994-74.356 0-137.506-24.076-184.204-63.854v67.242l0.006 201.73c53.44-25.374 116.888-40.622 185.88-40.622zM3.42 887.258c-1.112-5.458-1.966-11.006-2.542-16.634 0.574 5.628 1.43 11.176 2.542 16.634zM455.45 952.846c-15.058-58.806-68.454-87.964-142.888-139.568-27.072-8.732-56.894-13.874-88.894-14.208-89.618-0.964-173.108 34.942-220.216 88.372 15.92 77.706 85.034 136.558 167.234 136.558h286.444c1.816-11.128 2.696-22.632 2.696-34.432 0-12.534-1.534-24.792-4.376-36.722z"></path>
</symbol>
<symbol id="svg-facebook" viewBox="0 0 1024 1024">
	<title>facebook</title>
	<path class="path1" d="M672 192c-88.366 0-160 71.634-160 160v96h-128v128h128v448h128v-448h144l32-128h-176v-96c0-17.672 14.326-32 32-32h160v-128h-160z"></path>
</symbol>
<symbol id="svg-facebook2" viewBox="0 0 1024 1024">
	<title>facebook2</title>
	<path class="path1" d="M853.35 0h-682.702c-94.25 0-170.648 76.42-170.648 170.686v682.63c0 94.266 76.398 170.684 170.648 170.684h341.352v-448h-128v-128h128v-96c0-88.366 71.634-160 160-160h160v128h-160c-17.674 0-32 14.328-32 32v96h176l-32 128h-144v448h213.35c94.25 0 170.65-76.418 170.65-170.684v-682.63c0-94.266-76.4-170.686-170.65-170.686z"></path>
</symbol>
<symbol id="svg-twitter" viewBox="0 0 1024 1024">
	<title>twitter</title>
	<path class="path1" d="M1024 194.418c-37.676 16.708-78.164 28.002-120.66 33.080 43.372-26 76.686-67.17 92.372-116.23-40.596 24.078-85.556 41.56-133.41 50.98-38.32-40.83-92.922-66.34-153.346-66.34-116.022 0-210.088 94.058-210.088 210.078 0 16.466 1.858 32.5 5.44 47.878-174.6-8.764-329.402-92.4-433.018-219.506-18.084 31.028-28.446 67.116-28.446 105.618 0 72.888 37.088 137.192 93.46 174.866-34.438-1.092-66.832-10.542-95.154-26.278-0.020 0.876-0.020 1.756-0.020 2.642 0 101.788 72.418 186.696 168.522 206-17.626 4.8-36.188 7.372-55.348 7.372-13.538 0-26.698-1.32-39.528-3.772 26.736 83.46 104.32 144.206 196.252 145.896-71.9 56.35-162.486 89.934-260.916 89.934-16.958 0-33.68-0.994-50.116-2.94 92.972 59.61 203.402 94.394 322.042 94.394 386.422 0 597.736-320.124 597.736-597.744 0-9.108-0.206-18.168-0.61-27.18 41.056-29.62 76.672-66.62 104.836-108.748z"></path>
</symbol>
<symbol id="svg-twitter2" viewBox="0 0 1024 1024">
	<title>twitter2</title>
	<path class="path1" d="M853.342 0h-682.656c-93.874 0-170.686 76.81-170.686 170.69v682.624c0 93.936 76.812 170.686 170.686 170.686h682.656c93.876 0 170.658-76.75 170.658-170.69v-682.62c0-93.88-76.782-170.69-170.658-170.69zM766.478 381.48c0.252 5.632 0.38 11.296 0.38 16.988 0 173.51-132.070 373.588-373.584 373.588-74.15 0-143.168-21.738-201.276-58.996 10.272 1.218 20.724 1.84 31.322 1.84 61.518 0 118.134-20.992 163.072-56.21-57.458-1.054-105.948-39.020-122.658-91.184 8.018 1.532 16.244 2.36 24.704 2.36 11.976 0 23.578-1.61 34.592-4.61-60.064-12.066-105.326-65.132-105.326-128.75 0-0.554 0-1.104 0.012-1.652 17.7 9.834 37.948 15.742 59.47 16.424-35.232-23.546-58.414-63.736-58.414-109.292 0-24.064 6.476-46.62 17.78-66.010 64.76 79.44 161.51 131.712 270.634 137.19-2.238-9.612-3.4-19.632-3.4-29.924 0-72.512 58.792-131.298 131.304-131.298 37.766 0 71.892 15.944 95.842 41.462 29.908-5.886 58.008-16.814 83.38-31.862-9.804 30.662-30.624 56.394-57.732 72.644 26.56-3.174 51.866-10.232 75.412-20.674-17.594 26.328-39.854 49.454-65.514 67.966z"></path>
</symbol>
<symbol id="svg-feed-square" viewBox="0 0 1024 1024">
	<title>feed-square</title>
	<path class="path1" d="M853.34 0h-682.654c-93.876 0-170.686 76.812-170.686 170.688v682.628c0 93.934 76.812 170.684 170.688 170.684h682.652c93.876 0 170.66-76.748 170.66-170.684v-682.628c0-93.876-76.784-170.688-170.66-170.688zM278.944 831.248c-47.97 0-86.944-38.692-86.944-86.628 0-47.684 38.972-86.812 86.944-86.812 48.158 0 87.060 39.128 87.060 86.812-0.002 47.936-38.904 86.628-87.060 86.628zM497.468 831.996c0-81.81-31.808-158.818-89.46-216.444-57.714-57.75-134.376-89.626-215.904-89.626v-125.186c237.652 0 431.126 193.442 431.126 431.254l-125.762 0.002zM719.628 831.996c0-291.062-236.658-527.94-527.376-527.94v-125.248c360.002 0 652.946 293.124 652.946 653.192l-125.57-0.004z"></path>
</symbol>
<symbol id="svg-youtube" viewBox="0 0 1024 1024">
	<title>youtube</title>
	<path class="path1" d="M832 128h-640c-105.6 0-192 86.4-192 192v384c0 105.6 86.4 192 192 192h640c105.6 0 192-86.4 192-192v-384c0-105.6-86.4-192-192-192zM384 768v-512l320 256-320 256z"></path>
</symbol>
<symbol id="svg-youtube2" viewBox="0 0 1024 1024">
	<title>youtube2</title>
	<path class="path1" d="M832 128h-640c-105.6 0-192 86.4-192 192v384c0 105.6 86.4 192 192 192h640c105.6 0 192-86.4 192-192v-384c0-105.6-86.4-192-192-192zM960 704c0 33.978-13.374 66.062-37.654 90.346-24.284 24.28-56.366 37.654-90.346 37.654h-640c-33.978 0-66.062-13.374-90.344-37.654-24.282-24.284-37.656-56.368-37.656-90.346v-384c0-33.978 13.374-66.062 37.656-90.344s56.366-37.656 90.344-37.656h640c33.978 0 66.062 13.374 90.346 37.656 24.282 24.282 37.654 56.366 37.654 90.344v384zM384 768l320-256-320-256z"></path>
</symbol>
<symbol id="svg-vimeo" viewBox="0 0 1024 1024">
	<title>vimeo</title>
	<path class="path1" d="M853.31 0h-682.62c-93.878 0-170.69 76.816-170.69 170.692v682.62c0 93.938 76.812 170.688 170.69 170.688h682.62c93.878 0 170.69-76.75 170.69-170.69v-682.618c0-93.876-76.812-170.692-170.69-170.692zM812.868 438.126c-33.958 191.296-223.708 353.296-280.78 390.31-57.088 37.006-109.154-14.822-128.038-53.994-21.616-44.708-86.41-286.94-103.368-307.020-16.964-20.038-67.876 20.080-67.876 20.080l-24.692-32.376c0 0 103.382-123.448 182.040-138.878 83.404-16.366 83.28 128.066 103.34 208.242 19.4 77.564 32.44 121.952 49.376 121.952 16.97 0 49.382-43.262 84.852-109.57 35.536-66.376-1.538-125.010-70.972-83.292 27.786-166.652 290.062-206.72 256.118-15.454z"></path>
</symbol>
<symbol id="svg-vimeo2" viewBox="0 0 1024 1024">
	<title>vimeo2</title>
	<path class="path1" d="M0 308.37l41.594 54.544c0 0 85.77-67.608 114.36-33.802 28.588 33.802 137.736 441.956 174.17 517.246 31.8 66.030 119.518 153.32 215.714 90.982 96.136-62.34 415.84-335.286 473.066-657.616 57.18-322.226-384.72-254.726-431.53 26.010 116.99-70.236 179.436 28.538 119.57 140.372-59.758 111.724-114.36 184.592-142.952 184.592-28.538 0-50.49-74.768-83.188-205.446-33.798-135.102-33.592-378.46-174.116-350.87-132.518 26.012-306.688 233.988-306.688 233.988z"></path>
</symbol>
<symbol id="svg-linkedin" viewBox="0 0 1024 1024">
	<title>linkedin</title>
	<path class="path1" d="M852 0h-680c-94.6 0-172 77.4-172 172v680c0 94.6 77.4 172 172 172h680c94.6 0 172-77.4 172-172v-680c0-94.6-77.4-172-172-172zM384 832h-128v-448h128v448zM320 320c-35.346 0-64-28.654-64-64s28.654-64 64-64 64 28.654 64 64-28.654 64-64 64zM832 832h-128v-256c0-35.346-28.654-64-64-64s-64 28.654-64 64v256h-128v-448h128v79.472c26.398-36.264 66.752-79.472 112-79.472 79.53 0 144 71.634 144 160v288z"></path>
</symbol>
<symbol id="svg-linkedin2" viewBox="0 0 1024 1024">
	<title>linkedin2</title>
	<path class="path1" d="M384 384h177.106v90.782h2.532c24.64-44.194 84.958-90.782 174.842-90.782 186.946 0 221.52 116.376 221.52 267.734v308.266h-184.61v-273.278c0-65.184-1.334-149.026-96.028-149.026-96.148 0-110.82 70.986-110.82 144.292v278.012h-184.542v-576z"></path>
	<path class="path2" d="M64 384h192v576h-192v-576z"></path>
	<path class="path3" d="M256 224c0 53.019-42.981 96-96 96s-96-42.981-96-96c0-53.019 42.981-96 96-96s96 42.981 96 96z"></path>
</symbol>
<symbol id="svg-html5" viewBox="0 0 1024 1024">
	<title>html5</title>
	<path class="path1" d="M60.538 0l82.144 921.63 368.756 102.37 369.724-102.524 82.3-921.476h-902.924zM784.63 301.428h-432.54l10.302 115.75h411.968l-31.042 347.010-231.844 64.254-231.572-64.254-15.83-177.512h113.494l8.048 90.232 125.862 33.916 0.278-0.078 125.934-33.992 13.070-146.55h-391.74l-30.494-341.8h566.214l-10.108 113.024z"></path>
</symbol>
<symbol id="svg-svg" viewBox="0 0 1024 1024">
	<title>svg</title>
	<path class="path1" d="M928 416c-28.428 0-53.958 12.366-71.536 32h-189.956l134.318-134.318c26.312 1.456 53.11-7.854 73.21-27.956 37.49-37.49 37.49-98.274 0-135.764s-98.274-37.49-135.766 0c-20.102 20.102-29.41 46.898-27.956 73.21l-134.314 134.318v-189.954c19.634-17.578 32-43.108 32-71.536 0-53.020-42.98-96-96-96s-96 42.98-96 96c0 28.428 12.366 53.958 32 71.536v189.954l-134.318-134.318c1.454-26.312-7.856-53.11-27.958-73.21-37.49-37.49-98.274-37.49-135.764 0-37.49 37.492-37.49 98.274 0 135.764 20.102 20.102 46.898 29.412 73.212 27.956l134.32 134.318h-189.956c-17.578-19.634-43.108-32-71.536-32-53.020 0-96 42.98-96 96s42.98 96 96 96c28.428 0 53.958-12.366 71.536-32h189.956l-134.318 134.318c-26.314-1.456-53.11 7.854-73.212 27.956-37.49 37.492-37.49 98.276 0 135.766 37.492 37.49 98.274 37.49 135.764 0 20.102-20.102 29.412-46.898 27.958-73.21l134.316-134.32v189.956c-19.634 17.576-32 43.108-32 71.536 0 53.020 42.98 96 96 96s96-42.98 96-96c0-28.428-12.366-53.958-32-71.536v-189.956l134.318 134.318c-1.456 26.312 7.854 53.11 27.956 73.21 37.492 37.49 98.276 37.49 135.766 0s37.49-98.274 0-135.766c-20.102-20.102-46.898-29.41-73.21-27.956l-134.32-134.316h189.956c17.576 19.634 43.108 32 71.536 32 53.020 0 96-42.98 96-96s-42.982-96-96.002-96z"></path>
</symbol>
<symbol id="svg-chrome" viewBox="0 0 1024 1024">
	<title>chrome</title>
	<path class="path1" d="M258.278 446.542l-146.532-253.802c93.818-117.464 238.234-192.74 400.254-192.74 187.432 0 351.31 100.736 440.532 251h-417.77c-7.504-0.65-15.092-1-22.762-1-121.874 0-224.578 83.644-253.722 196.542zM695.306 325h293.46c22.74 57.93 35.234 121.004 35.234 187 0 280.826-226.1 508.804-506.186 511.926l209.394-362.678c29.48-42.378 46.792-93.826 46.792-149.248 0-73.17-30.164-139.42-78.694-187zM326 512c0-102.56 83.44-186 186-186s186 83.44 186 186c0 102.56-83.44 186-186 186s-186-83.44-186-186zM582.182 764.442l-146.578 253.878c-246.532-36.884-435.604-249.516-435.604-506.32 0-91.218 23.884-176.846 65.696-251.024l209.030 362.054c41.868 89.112 132.476 150.97 237.274 150.97 24.3 0 47.836-3.34 70.182-9.558z"></path>
</symbol>
<symbol id="svg-firefox" viewBox="0 0 1024 1024">
	<title>firefox</title>
	<path class="path1" d="M1022.526 334.14l-11.86 76.080c0 0-16.954-140.856-37.732-193.514-31.846-80.688-46.014-80.040-46.108-79.922 21.33 54.204 17.462 83.324 17.462 83.324s-37.792-102.998-137.712-135.768c-110.686-36.282-170.57-26.364-177.488-24.486-1.050-0.008-2.064-0.010-3.030-0.010 0.818 0.062 1.612 0.146 2.426 0.212-0.034 0.020-0.090 0.042-0.082 0.052 0.45 0.548 122.306 21.302 143.916 50.996 0 0-51.76 0-103.272 14.842-2.328 0.666 189.524 23.964 228.746 215.674 0 0-21.030-43.876-47.040-51.328 17.106 52.036 12.714 150.776-3.576 199.85-2.096 6.312-4.24-27.282-36.328-41.75 10.28 73.646-0.616 190.456-51.708 222.632-3.982 2.504 32.030-115.31 7.242-69.762-142.708 218.802-311.404 100.972-387.248 49.11 38.866 8.462 112.654-1.318 145.314-25.612 0.042-0.030 0.078-0.056 0.118-0.086 35.468-24.252 56.472-41.964 75.334-37.772 18.874 4.214 31.438-14.726 16.78-31.53-14.676-16.838-50.314-39.978-98.524-27.366-34 8.904-76.134 46.522-140.448 8.432-49.364-29.25-54.012-53.546-54.45-70.376 1.218-5.966 2.754-11.536 4.576-16.624 5.682-15.87 22.912-20.658 32.494-24.438 16.256 2.792 30.262 7.862 44.968 15.406 0.19-4.894 0.252-11.39-0.018-18.76 1.41-2.802 0.538-11.252-1.722-21.58-1.302-10.308-3.42-20.974-6.752-30.692 0.012-0.002 0.020-0.010 0.030-0.014 0.056-0.018 0.108-0.040 0.156-0.070 0.078-0.044 0.146-0.112 0.208-0.19 0.012-0.020 0.030-0.034 0.044-0.052 0.082-0.124 0.154-0.272 0.198-0.466 1.020-4.618 12.022-13.524 25.718-23.1 12.272-8.58 26.702-17.696 38.068-24.752 10.060-6.248 17.72-10.882 19.346-12.098 0.618-0.466 1.358-1.012 2.164-1.636 0.15-0.116 0.3-0.232 0.454-0.354 0.094-0.074 0.19-0.148 0.286-0.226 5.41-4.308 13.484-12.448 15.178-29.578 0.004-0.042 0.010-0.080 0.012-0.122 0.050-0.504 0.092-1.014 0.13-1.534 0.028-0.362 0.050-0.726 0.072-1.096 0.014-0.284 0.032-0.566 0.044-0.856 0.030-0.674 0.050-1.364 0.060-2.064 0-0.040 0.002-0.076 0.004-0.116 0.022-1.658-0.006-3.386-0.104-5.202-0.054-1.014-0.126-1.93-0.298-2.762-0.008-0.044-0.018-0.092-0.028-0.136-0.018-0.082-0.036-0.164-0.058-0.244-0.036-0.146-0.076-0.292-0.122-0.43-0.006-0.018-0.010-0.032-0.016-0.046-0.052-0.16-0.112-0.314-0.174-0.464-0.004-0.006-0.004-0.010-0.006-0.016-1.754-4.108-8.32-5.658-35.442-6.118-0.026-0.002-0.050-0.002-0.076-0.002v0c-11.066-0.188-25.538-0.194-44.502-0.118-33.25 0.134-51.628-32.504-57.494-45.132 8.040-44.46 31.276-76.142 69.45-97.626 0.722-0.406 0.58-0.742-0.274-0.978 7.464-4.514-90.246-0.124-135.186 57.036-39.888-9.914-74.654-9.246-104.616-2.214-5.754-0.162-12.924-0.88-21.434-2.652-19.924-18.056-48.448-51.402-49.976-91.208 0 0-0.092 0.072-0.252 0.204-0.020-0.382-0.056-0.76-0.072-1.142 0 0-60.716 46.664-51.628 173.882-0.022 2.036-0.064 3.986-0.12 5.874-16.432 22.288-24.586 41.020-25.192 45.156-14.56 29.644-29.334 74.254-41.356 141.98 0 0 8.408-26.666 25.284-56.866-12.412 38.022-22.164 97.156-16.436 185.856 0 0 1.514-19.666 6.874-47.994 4.186 55.010 22.518 122.924 68.858 202.788 88.948 153.32 225.67 230.74 376.792 242.616 26.836 2.212 54.050 2.264 81.424 0.186 2.516-0.178 5.032-0.364 7.55-0.574 30.964-2.174 62.134-6.852 93.238-14.366 425.172-102.798 378.942-616.198 378.942-616.198z"></path>
</symbol>
<symbol id="svg-IE" viewBox="0 0 1024 1024">
	<title>IE</title>
	<path class="path1" d="M734.202 628.83h236.050c1.82-16.37 2.548-33.098 2.548-50.196 0-80.224-21.534-155.468-59.124-220.266 38.88-103.308 37.492-190.988-14.556-243.39-49.496-49.28-182.29-41.28-332.412 25.198-11.104-0.84-22.318-1.272-33.638-1.272-206.048 0-378.926 141.794-426.708 332.85 64.638-82.754 132.638-142.754 223.478-186.448-8.26 7.74-56.454 55.652-64.56 63.764-239.548 239.478-315.090 552.306-233.806 633.604 61.786 61.774 173.758 51.342 302.376-11.648 59.806 30.458 127.5 47.63 199.218 47.63 193.134 0 356.804-124.316 416.090-297.448h-237.868c-32.734 60.382-96.748 101.48-170.218 101.48-73.468 0-137.484-41.098-170.216-101.48-14.55-27.274-22.914-58.554-22.914-91.656v-0.722h386.26zM348.302 512.804c5.456-97.11 86.2-174.584 184.766-174.584s179.312 77.472 184.766 174.584h-369.532zM896.966 163.808c33.526 33.88 32.688 96.214 4.012 174.022-49.136-74.908-120.518-133.936-204.792-167.64 90.106-38.638 163.406-43.756 200.78-6.382zM93.482 967.256c-42.782-42.796-29.884-132.618 25.23-240.832 34.308 96.27 101.156 177.090 187.336 229.154-95.43 43.318-173.536 50.674-212.566 11.678z"></path>
</symbol>
<symbol id="svg-opera" viewBox="0 0 1024 1024">
	<title>opera</title>
	<path class="path1" d="M510.046 0c-279.724 0-480.748 202.896-480.748 507.224 0 270.818 195.502 516.776 480.784 516.776 288.078 0 484.62-245.886 484.62-516.776 0-306.76-207.446-507.224-484.656-507.224zM688.358 498.542c-0.068 169.352-9.098 410.482-178.276 410.482v0.034c-166.784 0-173.432-241.266-173.432-410.308 0-198.38 18.56-388.568 173.432-388.568 154.874 0 178.276 192.584 178.276 388.36z"></path>
</symbol>
<symbol id="svg-safari" viewBox="0 0 1024 1024">
	<title>safari</title>
	<path class="path1" d="M512 64c-24.064 0-47.708 1.792-70.824 5.212-0.3-0.782-0.624-1.548-0.982-2.296 12.826-10.002 19.55-23.83 16.634-37.552-3.734-17.564-22.394-29.364-46.434-29.364-5.18 0-10.458 0.562-15.68 1.672-30.168 6.414-50.146 28.622-45.482 50.562 2.834 13.338 14.292 23.338 30.164 27.384-0.032 0.972-0.016 1.95 0.042 2.934-200.622 57.53-347.438 242.338-347.438 461.448 0 265.098 214.904 480 480 480 265.098 0 480-214.902 480-480 0-265.096-214.902-480-480-480zM364.882 48.908c-2.706-12.726 12.48-27.19 33.158-31.584 4.132-0.878 8.29-1.324 12.354-1.324 16.036 0 28.694 6.864 30.784 16.69 1.596 7.51-3.070 15.61-11.386 21.904-7.034-4.966-16.016-7.126-25.1-5.196-9.044 1.922-16.348 7.508-20.758 14.856-10.184-2.45-17.508-8.084-19.052-15.346zM769.386 801.386c-43.968 43.968-97.21 75.278-155.31 92.154l-42.396-68.768-10.746 79.958c-16.090 2.152-32.426 3.27-48.934 3.27-97.228 0-188.636-37.864-257.386-106.614-43.968-43.966-75.278-97.21-92.154-155.308l68.768-42.398-79.96-10.746c-2.15-16.090-3.268-32.426-3.268-48.934 0-97.228 37.862-188.636 106.614-257.386 43.968-43.968 97.212-75.278 155.31-92.156l42.396 68.77 10.748-79.96c16.088-2.15 32.424-3.268 48.932-3.268 97.228 0 188.636 37.862 257.386 106.614 43.968 43.968 75.278 97.212 92.154 155.31l-68.77 42.398 79.96 10.746c2.152 16.088 3.27 32.424 3.27 48.932 0 97.228-37.864 188.636-106.614 257.386zM760.902 295.098l-196.978 149.704c-14.644-7.658-30.876-12.062-47.416-12.726l-51.080-107.18-3.068 118.664c-13.284 6.536-25.104 15.664-34.876 26.95l-63.088-22.364 46.092 48.538c-6.334 13.518-9.866 28.030-10.434 42.824l-107.158 51.066 118.738 3.068c0.38 0.768 0.774 1.526 1.17 2.282l-149.704 196.98 196.978-149.704c14.644 7.656 30.874 12.060 47.416 12.724l51.080 107.182 3.066-118.664c13.286-6.538 25.106-15.664 34.878-26.952l63.090 22.368-46.094-48.54c6.336-13.52 9.868-28.030 10.436-42.824l107.156-51.066-118.736-3.070c-0.378-0.766-0.774-1.524-1.17-2.28l149.702-196.98zM512.102 444.534v0zM492.042 450.098c6.726-1.43 13.444-2.118 20.056-2.118 4.144 0 8.25 0.27 12.294 0.796l0.092 0.032-0.010-0.022c8.732 1.144 17.176 3.5 25.132 6.896l-71.546 54.376-54.38 71.552c-2.376-5.594-4.27-11.484-5.58-17.652-11.026-51.86 22.080-102.836 73.942-113.86zM562.12 625.884v0 0c-9.056 5.544-19.182 9.684-30.16 12.018-6.726 1.43-13.444 2.118-20.054 2.118-4.15 0-8.258-0.272-12.308-0.798l-0.068-0.010c-8.734-1.142-17.174-3.5-25.132-6.894l71.544-54.376 54.38-71.554c2.376 5.594 4.27 11.486 5.58 17.654 8.69 40.882-10.056 81.2-43.782 101.842z"></path>
</symbol>
<symbol id="svg-profile" viewBox="0 0 1024 1024">
	<title>profile</title>
	<path class="path1" d="M864 0h-768c-52.8 0-96 43.2-96 96v832c0 52.8 43.2 96 96 96h768c52.8 0 96-43.2 96-96v-832c0-52.8-43.2-96-96-96zM832 896h-704v-768h704v768zM256 576h448v64h-448zM256 704h448v64h-448zM320 288c0-53.019 42.981-96 96-96s96 42.981 96 96c0 53.019-42.981 96-96 96s-96-42.981-96-96zM480 384h-128c-52.8 0-96 28.8-96 64v64h320v-64c0-35.2-43.2-64-96-64z"></path>
</symbol>
<symbol id="svg-lifebuoy" viewBox="0 0 1024 1024">
	<title>lifebuoy</title>
	<path class="path1" d="M512 0c-282.77 0-512 229.23-512 512s229.23 512 512 512 512-229.23 512-512-229.23-512-512-512zM320 512c0-106.040 85.96-192 192-192s192 85.96 192 192-85.96 192-192 192-192-85.96-192-192zM925.98 683.476v0l-177.42-73.49c12.518-30.184 19.44-63.276 19.44-97.986s-6.922-67.802-19.44-97.986l177.42-73.49c21.908 52.822 34.020 110.73 34.020 171.476s-12.114 118.654-34.020 171.476v0zM683.478 98.020v0 0l-73.49 177.42c-30.184-12.518-63.276-19.44-97.988-19.44s-67.802 6.922-97.986 19.44l-73.49-177.422c52.822-21.904 110.732-34.018 171.476-34.018 60.746 0 118.654 12.114 171.478 34.020zM98.020 340.524l177.422 73.49c-12.518 30.184-19.442 63.276-19.442 97.986s6.922 67.802 19.44 97.986l-177.42 73.49c-21.906-52.822-34.020-110.73-34.020-171.476s12.114-118.654 34.020-171.476zM340.524 925.98l73.49-177.42c30.184 12.518 63.276 19.44 97.986 19.44s67.802-6.922 97.986-19.44l73.49 177.42c-52.822 21.904-110.73 34.020-171.476 34.020-60.744 0-118.654-12.114-171.476-34.020z"></path>
</symbol>
<symbol id="svg-display" viewBox="0 0 1024 1024">
	<title>display</title>
	<path class="path1" d="M0 64v640h1024v-640h-1024zM960 640h-896v-512h896v512zM672 768h-320l-32 128-64 64h512l-64-64z"></path>
</symbol>
<symbol id="svg-database-refresh" viewBox="0 0 1024 1024">
	<title>database-refresh</title>
	<path class="path1" d="M923.004 452.996c-50.316-43.010-115.62-68.996-187.004-68.996-140.95 0-258.234 101.262-283.116 235h98.562c23.058-80.174 97.062-139 184.554-139 44.798 0 86.038 15.45 118.736 41.264l-118.736 118.736h288v-288l-100.996 100.996z"></path>
	<path class="path2" d="M736 864c-44.798 0-86.038-15.45-118.736-41.264l118.736-118.736h-288v288l100.996-100.996c50.312 43.012 115.62 68.996 187.004 68.996 140.95 0 258.232-101.262 283.116-235h-98.556c-23.064 80.174-97.068 139-184.56 139z"></path>
	<path class="path3" d="M138.12 585.34c-48.8-17.594-68.726-35.99-74.12-43.338v-161.998c63.702 41.124 168.942 67.996 288 67.996 10.79 0 21.458-0.234 32-0.666v-84.098c-10.574 0.488-21.246 0.764-32 0.764-73.698 0-144.112-11.6-198.27-32.662-45.24-17.594-63.712-35.99-68.71-43.338 4.998-7.348 23.47-25.744 68.71-43.338 54.158-21.062 124.572-32.662 198.27-32.662s144.112 11.6 198.272 32.662c45.238 17.594 63.71 35.99 68.708 43.338-3.924 5.768-16.16 18.346-43.124 32h121.096c4.618-10.34 7.046-21.042 7.046-32 0-88.366-157.596-160-352-160s-351.998 71.634-351.998 160v512c0 88.366 157.596 160 352 160 10.79 0 21.458-0.232 32-0.664v-83.984c-10.582 0.418-21.254 0.648-32 0.648-79.5 0-155.458-11.6-213.88-32.662-48.802-17.594-68.728-35.99-74.12-43.338v-165.994c63.702 41.124 168.942 67.996 288 67.996 10.79 0 21.458-0.232 32-0.666v-83.982c-10.582 0.418-21.254 0.648-32 0.648-79.5 0-155.458-11.6-213.88-32.662z"></path>
</symbol>
<symbol id="svg-bubble" viewBox="0 0 1024 1024">
	<title>bubble</title>
	<path class="path1" d="M512 64c282.77 0 512 186.25 512 416 0 229.752-229.23 416-512 416-27.156 0-53.81-1.734-79.824-5.044-109.978 109.978-241.25 129.7-368.176 132.596v-26.916c68.536-33.578 128-94.74 128-164.636 0-9.754-0.758-19.33-2.164-28.696-115.796-76.264-189.836-192.754-189.836-323.304 0-229.75 229.23-416 512-416z"></path>
</symbol>
<symbol id="svg-bubble2" viewBox="0 0 1024 1024">
	<title>bubble2</title>
	<path class="path1" d="M512 192c-54.932 0-107.988 8.662-157.694 25.742-46.712 16.054-88.306 38.744-123.628 67.444-66.214 53.798-102.678 122.984-102.678 194.814 0 40.298 11.188 79.378 33.252 116.152 22.752 37.92 56.982 72.586 98.988 100.252 30.356 19.992 50.78 51.948 56.176 87.894 1.8 11.984 2.928 24.088 3.37 36.124 7.47-6.194 14.75-12.846 21.88-19.976 24.154-24.152 56.78-37.49 90.502-37.49 5.368 0 10.762 0.336 16.156 1.024 20.974 2.666 42.398 4.020 63.676 4.020 54.934 0 107.988-8.66 157.694-25.742 46.712-16.054 88.306-38.744 123.628-67.444 66.214-53.796 102.678-122.984 102.678-194.814s-36.464-141.016-102.678-194.814c-35.322-28.698-76.916-51.39-123.628-67.444-49.706-17.080-102.76-25.742-157.694-25.742zM512 64v0c282.77 0 512 186.25 512 416 0 229.752-229.23 416-512 416-27.156 0-53.81-1.734-79.824-5.044-109.978 109.978-241.25 129.7-368.176 132.596v-26.916c68.536-33.578 128-94.74 128-164.636 0-9.754-0.758-19.33-2.164-28.696-115.796-76.264-189.836-192.754-189.836-323.304 0-229.75 229.23-416 512-416z"></path>
</symbol>
<symbol id="svg-bubbles4" viewBox="0 0 1152 1024">
	<title>bubbles4</title>
	<path class="path1" d="M480 128c-50.666 0-99.582 7.95-145.386 23.628-42.924 14.694-81.114 35.436-113.502 61.646-60.044 48.59-93.112 110.802-93.112 175.174 0 35.99 10.066 70.948 29.92 103.898 20.686 34.34 51.898 65.794 90.26 90.958 30.44 19.968 50.936 51.952 56.362 87.95 0.902 5.99 1.63 12.006 2.18 18.032 2.722-2.52 5.424-5.114 8.114-7.794 24.138-24.040 56.688-37.312 90.322-37.312 5.348 0 10.718 0.336 16.094 1.018 19.36 2.452 39.124 3.696 58.748 3.696 50.666 0 99.58-7.948 145.384-23.628 42.926-14.692 81.116-35.434 113.504-61.644 60.046-48.59 93.112-110.802 93.112-175.174s-33.066-126.582-93.112-175.174c-32.388-26.212-70.578-46.952-113.504-61.646-45.804-15.678-94.718-23.628-145.384-23.628zM480 0v0c265.096 0 480 173.914 480 388.448s-214.904 388.448-480 388.448c-25.458 0-50.446-1.62-74.834-4.71-103.106 102.694-222.172 121.108-341.166 123.814v-25.134c64.252-31.354 116-88.466 116-153.734 0-9.106-0.712-18.048-2.030-26.794-108.558-71.214-177.97-179.988-177.97-301.89 0-214.534 214.904-388.448 480-388.448zM996 870.686c0 55.942 36.314 104.898 92 131.772v21.542c-103.126-2.318-197.786-18.102-287.142-106.126-21.14 2.65-42.794 4.040-64.858 4.040-95.47 0-183.408-25.758-253.614-69.040 144.674-0.506 281.26-46.854 384.834-130.672 52.208-42.252 93.394-91.826 122.414-147.348 30.766-58.866 46.366-121.582 46.366-186.406 0-10.448-0.45-20.836-1.258-31.168 72.57 59.934 117.258 141.622 117.258 231.676 0 104.488-60.158 197.722-154.24 258.764-1.142 7.496-1.76 15.16-1.76 22.966z"></path>
</symbol>
<symbol id="svg-bubble8" viewBox="0 0 1024 1024">
	<title>bubble8</title>
	<path class="path1" d="M928 64c52.8 0 96 43.2 96 96v512c0 52.8-43.2 96-96 96h-364.8l-307.2 256v-256h-160c-52.8 0-96-43.2-96-96v-512c0-52.8 43.2-96 96-96h832z"></path>
</symbol>
<symbol id="svg-bubble9" viewBox="0 0 1024 1024">
	<title>bubble9</title>
	<path class="path1" d="M928 64h-832c-52.8 0-96 43.2-96 96v512c0 52.8 43.2 96 96 96h160v256l307.2-256h364.8c52.8 0 96-43.2 96-96v-512c0-52.8-43.2-96-96-96zM896 640h-379.142l-196.858 174.714v-174.714h-192v-448h768v448z"></path>
</symbol>
<symbol id="svg-clipboard3" viewBox="0 0 1024 1024">
	<title>clipboard3</title>
	<path class="path1" d="M928 128h-288c0-70.692-57.306-128-128-128-70.692 0-128 57.308-128 128h-288c-17.672 0-32 14.328-32 32v832c0 17.674 14.328 32 32 32h832c17.674 0 32-14.326 32-32v-832c0-17.672-14.326-32-32-32zM512 64c35.346 0 64 28.654 64 64s-28.654 64-64 64c-35.346 0-64-28.654-64-64s28.654-64 64-64zM896 960h-768v-768h128v96c0 17.672 14.328 32 32 32h448c17.674 0 32-14.328 32-32v-96h128v768z"></path>
	<path class="path2" d="M736 576h-448c-17.672 0-32-14.328-32-32s14.328-32 32-32h448c17.674 0 32 14.328 32 32s-14.326 32-32 32z"></path>
	<path class="path3" d="M736 704h-448c-17.672 0-32-14.326-32-32s14.328-32 32-32h448c17.674 0 32 14.326 32 32s-14.326 32-32 32z"></path>
	<path class="path4" d="M736 832h-448c-17.672 0-32-14.326-32-32s14.328-32 32-32h448c17.674 0 32 14.326 32 32s-14.326 32-32 32z"></path>
</symbol>
<symbol id="svg-grid6" viewBox="0 0 1024 1024">
	<title>grid6</title>
	<path class="path1" d="M0 0h448v448h-448zM576 0h448v448h-448zM0 576h448v448h-448zM576 576h448v448h-448z"></path>
</symbol>
<symbol id="svg-play3" viewBox="0 0 1024 1024">
	<title>play3</title>
	<path class="path1" d="M512 0c-282.77 0-512 229.23-512 512s229.23 512 512 512 512-229.23 512-512-229.23-512-512-512zM512 928c-229.75 0-416-186.25-416-416s186.25-416 416-416 416 186.25 416 416-186.25 416-416 416zM384 288l384 224-384 224z"></path>
</symbol>
<symbol id="svg-play4" viewBox="0 0 1024 1024">
	<title>play4</title>
	<path class="path1" d="M192 128l640 384-640 384z"></path>
</symbol>
</defs>
</svg>
