<?xml version="1.0" encoding="utf-8"?>
<!-- Generated by IcoMoon.io -->
<!DOCTYPE svg PUBLIC "-//W3C//DTD SVG 1.1//EN" "http://www.w3.org/Graphics/SVG/1.1/DTD/svg11.dtd">
<svg version="1.1" xmlns="http://www.w3.org/2000/svg" xmlns:xlink="http://www.w3.org/1999/xlink" width="28" height="28" viewBox="0 0 28 28">
<path fill="#444444" d="M16 22h10v-2h-10v2zM10 14h16v-2h-16v2zM20 6h6v-2h-6v2zM28 19v4q0 0.406-0.297 0.703t-0.703 0.297h-26q-0.406 0-0.703-0.297t-0.297-0.703v-4q0-0.406 0.297-0.703t0.703-0.297h26q0.406 0 0.703 0.297t0.297 0.703zM28 11v4q0 0.406-0.297 0.703t-0.703 0.297h-26q-0.406 0-0.703-0.297t-0.297-0.703v-4q0-0.406 0.297-0.703t0.703-0.297h26q0.406 0 0.703 0.297t0.297 0.703zM28 3v4q0 0.406-0.297 0.703t-0.703 0.297h-26q-0.406 0-0.703-0.297t-0.297-0.703v-4q0-0.406 0.297-0.703t0.703-0.297h26q0.406 0 0.703 0.297t0.297 0.703z"></path>
</svg>
