<?xml version="1.0" encoding="utf-8"?>
<!-- Generated by IcoMoon.io -->
<!DOCTYPE svg PUBLIC "-//W3C//DTD SVG 1.1//EN" "http://www.w3.org/Graphics/SVG/1.1/DTD/svg11.dtd">
<svg version="1.1" xmlns="http://www.w3.org/2000/svg" xmlns:xlink="http://www.w3.org/1999/xlink" width="20" height="28" viewBox="0 0 20 28">
<path fill="#444444" d="M13.156 8.937q0 1.25-0.891 2.133t-2.125 0.883q-0.938 0-1.734-0.547-0.969 1.047-1.797 2.281-3.859 5.797-3.156 13.422 0.016 0.344-0.195 0.602t-0.539 0.289h-0.078q-0.313 0-0.547-0.211t-0.266-0.523q-0.219-1.969-0.055-3.867t0.461-3.391 0.844-2.906 1.078-2.43 1.156-1.953q0.953-1.406 2.063-2.578-0.25-0.547-0.25-1.203 0-1.25 0.883-2.133t2.133-0.883 2.133 0.883 0.883 2.133zM19.109 9.109q0 2.469-1.219 4.562t-3.32 3.313-4.57 1.219q-1 0-2.047-0.219-0.328-0.078-0.508-0.367t-0.102-0.617q0.078-0.313 0.359-0.492t0.609-0.117q0.797 0.203 1.687 0.203 1.516 0 2.906-0.594t2.391-1.594 1.594-2.391 0.594-2.906-0.594-2.906-1.594-2.391-2.391-1.594-2.906-0.594-2.906 0.594-2.391 1.594-1.594 2.391-0.594 2.906q0 1.781 0.812 3.406 0.156 0.313 0.055 0.625t-0.398 0.469-0.617 0.047-0.477-0.406q-1-1.922-1-4.141 0-1.859 0.727-3.547t1.945-2.906 2.906-1.937 3.531-0.719q2.469 0 4.57 1.219t3.32 3.32 1.219 4.57z"></path>
</svg>
