<?xml version="1.0" encoding="utf-8"?>
<!-- Generated by IcoMoon.io -->
<!DOCTYPE svg PUBLIC "-//W3C//DTD SVG 1.1//EN" "http://www.w3.org/Graphics/SVG/1.1/DTD/svg11.dtd">
<svg version="1.1" xmlns="http://www.w3.org/2000/svg" xmlns:xlink="http://www.w3.org/1999/xlink" width="28" height="28" viewBox="0 0 28 28">
<path fill="#444444" d="M27.25 22q0.516 0 0.656 0.289t-0.172 0.695l-1.969 2.531q-0.313 0.406-0.766 0.406t-0.766-0.406l-1.969-2.531q-0.313-0.406-0.172-0.695t0.656-0.289h1.25v-16h-1.25q-0.516 0-0.656-0.289t0.172-0.695l1.969-2.531q0.313-0.406 0.766-0.406t0.766 0.406l1.969 2.531q0.313 0.406 0.172 0.695t-0.656 0.289h-1.25v16h1.25zM1.266 2.016l0.844 0.422q0.187 0.078 3.297 0.078 0.688 0 2.063-0.031t2.063-0.031q0.562 0 1.68 0.008t1.68 0.008h4.578q0.094 0 0.328 0.008t0.32 0 0.25-0.047 0.273-0.141 0.234-0.273l0.656-0.016q0.063 0 0.219 0.008t0.219 0.008q0.031 1.75 0.031 5.25 0 1.25-0.078 1.703-0.609 0.219-1.062 0.281-0.391-0.688-0.844-2-0.047-0.141-0.172-0.75t-0.227-1.148-0.117-0.555q-0.094-0.125-0.187-0.195t-0.242-0.094-0.203-0.039-0.281-0.008-0.258 0.008q-0.266 0-1.039-0.008t-1.164-0.008-1 0.031-1.109 0.094q-0.141 1.266-0.125 2.125 0 1.469 0.031 6.062t0.031 7.109q0 0.25-0.039 1.117t0 1.43 0.195 1.078q0.625 0.328 1.937 0.664t1.875 0.586q0.078 0.625 0.078 0.781 0 0.219-0.047 0.453l-0.531 0.016q-1.188 0.031-3.406-0.125t-3.234-0.156q-0.781 0-2.359 0.141t-2.375 0.141q-0.047-0.797-0.047-0.812v-0.141q0.266-0.422 0.961-0.672t1.539-0.453 1.219-0.422q0.297-0.656 0.297-5.984 0-1.578-0.047-4.734t-0.047-4.734v-1.828q0-0.031 0.008-0.242t0.008-0.391-0.016-0.398-0.047-0.375-0.078-0.219q-0.172-0.187-2.531-0.187-0.516 0-1.453 0.187t-1.25 0.406q-0.297 0.203-0.531 1.133t-0.492 1.734-0.664 0.836q-0.656-0.406-0.875-0.688v-5.984z"></path>
</svg>
