<?xml version="1.0" encoding="utf-8"?>
<!-- Generated by IcoMoon.io -->
<!DOCTYPE svg PUBLIC "-//W3C//DTD SVG 1.1//EN" "http://www.w3.org/Graphics/SVG/1.1/DTD/svg11.dtd">
<svg version="1.1" xmlns="http://www.w3.org/2000/svg" xmlns:xlink="http://www.w3.org/1999/xlink" width="28" height="28" viewBox="0 0 28 28">
<path fill="#444444" d="M1.266 2.016l0.844 0.422q0.187 0.078 3.297 0.078 0.688 0 2.063-0.031t2.063-0.031q1.094 0 3.852-0.016t4.758-0.008 3.859 0.070q0.516 0.016 0.875-0.484l0.656-0.016q0.063 0 0.219 0.008t0.219 0.008q0.031 1.75 0.031 5.25 0 1.25-0.078 1.703-0.609 0.219-1.062 0.281-0.391-0.688-0.844-2-0.047-0.141-0.172-0.742t-0.234-1.148-0.109-0.562q-0.156-0.203-0.422-0.297-0.078-0.031-1.031-0.031-0.469 0-1.453-0.016t-1.609-0.016-1.469 0.031-1.5 0.109q-0.141 1.266-0.125 2.125l0.016 2.375v-0.812q0 0.859 0.016 2.406t0.023 2.812 0.008 2.391q0 0.25-0.039 1.117t0 1.43 0.195 1.078q0.625 0.328 1.937 0.664t1.875 0.586q0.078 0.625 0.078 0.781 0 0.219-0.047 0.453l-0.531 0.016q-1.188 0.031-3.406-0.125t-3.234-0.156q-0.781 0-2.359 0.141t-2.375 0.141q-0.047-0.797-0.047-0.812v-0.141q0.266-0.422 0.961-0.672t1.539-0.453 1.219-0.422q0.109-0.25 0.18-1.156t0.094-2.273 0.023-2.422-0.008-2.398-0.008-1.391q0-0.109-0.039-0.336t-0.039-0.352q0-0.109 0.008-0.688t0.016-1.141 0-1.195-0.047-1.055-0.102-0.5q-0.172-0.187-2.531-0.187-0.641 0-2.547 0.211t-2.156 0.383q-0.297 0.187-0.531 1.117t-0.492 1.742-0.664 0.844q-0.656-0.406-0.875-0.688v-5.984zM20.469 22.047q0.187 0 0.656 0.305t0.898 0.648 0.93 0.766 0.562 0.469q0.406 0.328 0.406 0.766t-0.406 0.766q-0.063 0.047-0.562 0.469t-0.93 0.766-0.898 0.648-0.656 0.305q-0.203 0-0.32-0.164t-0.156-0.445-0.039-0.523 0.023-0.516 0.023-0.305h-16q0 0.031 0.023 0.305t0.023 0.516-0.039 0.523-0.156 0.445-0.32 0.164q-0.187 0-0.656-0.305t-0.898-0.648-0.93-0.766-0.562-0.469q-0.406-0.328-0.406-0.766t0.406-0.766q0.063-0.047 0.562-0.469t0.93-0.766 0.898-0.648 0.656-0.305q0.203 0 0.32 0.164t0.156 0.445 0.039 0.523-0.023 0.516-0.023 0.305h16q0-0.031-0.023-0.305t-0.023-0.516 0.039-0.523 0.156-0.445 0.32-0.164z"></path>
</svg>
