<?xml version="1.0" encoding="utf-8"?>
<!-- Generated by IcoMoon.io -->
<!DOCTYPE svg PUBLIC "-//W3C//DTD SVG 1.1//EN" "http://www.w3.org/Graphics/SVG/1.1/DTD/svg11.dtd">
<svg version="1.1" xmlns="http://www.w3.org/2000/svg" xmlns:xlink="http://www.w3.org/1999/xlink" width="18" height="28" viewBox="0 0 18 28">
<path fill="#444444" d="M7.5 13.5v-7q0-0.219-0.141-0.359t-0.359-0.141-0.359 0.141-0.141 0.359v7q0 0.219 0.141 0.359t0.359 0.141 0.359-0.141 0.141-0.359zM18 19q0 0.406-0.297 0.703t-0.703 0.297h-6.703l-0.797 7.547q-0.031 0.187-0.164 0.32t-0.32 0.133h-0.016q-0.422 0-0.5-0.422l-1.188-7.578h-6.312q-0.406 0-0.703-0.297t-0.297-0.703q0-1.922 1.227-3.461t2.773-1.539v-8q-0.812 0-1.406-0.594t-0.594-1.406 0.594-1.406 1.406-0.594h10q0.812 0 1.406 0.594t0.594 1.406-0.594 1.406-1.406 0.594v8q1.547 0 2.773 1.539t1.227 3.461z"></path>
</svg>
