<?xml version="1.0" encoding="utf-8"?>
<!-- Generated by IcoMoon.io -->
<!DOCTYPE svg PUBLIC "-//W3C//DTD SVG 1.1//EN" "http://www.w3.org/Graphics/SVG/1.1/DTD/svg11.dtd">
<svg version="1.1" xmlns="http://www.w3.org/2000/svg" xmlns:xlink="http://www.w3.org/1999/xlink" width="26" height="28" viewBox="0 0 26 28">
<path fill="#444444" d="M4 9q0 0.406-0.297 0.703t-0.703 0.297q-0.422 0-0.711-0.297t-0.289-0.703q0-0.422 0.289-0.711t0.711-0.289q0.406 0 0.703 0.289t0.297 0.711zM6.5 17v-10q0-0.406-0.297-0.703t-0.703-0.297h-4.5q-0.406 0-0.703 0.297t-0.297 0.703v10q0 0.406 0.297 0.703t0.703 0.297h4.5q0.406 0 0.703-0.297t0.297-0.703zM24.141 14.672q0.859 0.953 0.859 2.328-0.016 1.219-0.898 2.109t-2.102 0.891h-4.328q0.063 0.219 0.125 0.375t0.172 0.344 0.156 0.281q0.281 0.578 0.422 0.891t0.297 0.914 0.156 1.195q0 0.375-0.008 0.609t-0.078 0.703-0.187 0.781-0.375 0.703-0.625 0.633-0.938 0.406-1.289 0.164q-0.406 0-0.703-0.297-0.313-0.313-0.531-0.781t-0.305-0.812-0.195-0.953q-0.141-0.656-0.211-0.945t-0.273-0.758-0.484-0.75q-0.516-0.516-1.578-1.875-0.766-1-1.578-1.891t-1.188-0.922q-0.391-0.031-0.672-0.32t-0.281-0.68v-10.016q0-0.406 0.297-0.695t0.703-0.305q0.547-0.016 2.469-0.688 1.203-0.406 1.883-0.617t1.898-0.453 2.25-0.242h2.016q2.078 0.031 3.078 1.219 0.906 1.078 0.766 2.828 0.609 0.578 0.844 1.469 0.266 0.953 0 1.828 0.719 0.953 0.672 2.141 0 0.5-0.234 1.188z"></path>
</svg>
