<?xml version="1.0" encoding="utf-8"?>
<!-- Generated by IcoMoon.io -->
<!DOCTYPE svg PUBLIC "-//W3C//DTD SVG 1.1//EN" "http://www.w3.org/Graphics/SVG/1.1/DTD/svg11.dtd">
<svg version="1.1" xmlns="http://www.w3.org/2000/svg" xmlns:xlink="http://www.w3.org/1999/xlink" width="28" height="28" viewBox="0 0 28 28">
<path fill="#444444" d="M4 7q0-0.406-0.297-0.703t-0.703-0.297-0.703 0.297-0.297 0.703 0.297 0.703 0.703 0.297 0.703-0.297 0.297-0.703zM22 16q0-0.547-0.336-1.266t-0.836-0.734q0.234-0.266 0.391-0.742t0.156-0.867q0-1.078-0.828-1.859 0.281-0.5 0.281-1.078t-0.273-1.148-0.742-0.82q0.078-0.469 0.078-0.875 0-1.328-0.766-1.969t-2.125-0.641h-2q-2.047 0-5.344 1.141-0.078 0.031-0.453 0.164t-0.555 0.195-0.547 0.18-0.594 0.172-0.516 0.102-0.492 0.047h-0.5v10h0.5q0.25 0 0.555 0.141t0.625 0.422 0.602 0.555 0.625 0.688 0.539 0.664 0.492 0.641 0.359 0.469q0.859 1.062 1.203 1.422 0.641 0.672 0.93 1.711t0.477 1.961 0.594 1.328q1.5 0 2-0.734t0.5-2.266q0-0.922-0.75-2.508t-0.75-2.492h5.5q0.781 0 1.391-0.602t0.609-1.398zM24 16.016q0 1.609-1.188 2.797t-2.812 1.188h-2.75q0.75 1.547 0.75 3 0 1.844-0.547 2.906-0.547 1.078-1.594 1.586t-2.359 0.508q-0.797 0-1.406-0.578-0.531-0.516-0.844-1.281t-0.398-1.414-0.273-1.32-0.484-1q-0.75-0.781-1.672-1.984-1.578-2.047-2.141-2.422h-4.281q-0.828 0-1.414-0.586t-0.586-1.414v-10q0-0.828 0.586-1.414t1.414-0.586h4.5q0.344 0 2.156-0.625 2-0.688 3.484-1.031t3.125-0.344h1.75q2.188 0 3.539 1.234t1.336 3.375v0.078q0.938 1.203 0.938 2.781 0 0.344-0.047 0.672 0.594 1.047 0.594 2.25 0 0.562-0.141 1.078 0.766 1.156 0.766 2.547z"></path>
</svg>
