<?xml version="1.0" encoding="utf-8"?>
<!-- Generated by IcoMoon.io -->
<!DOCTYPE svg PUBLIC "-//W3C//DTD SVG 1.1//EN" "http://www.w3.org/Graphics/SVG/1.1/DTD/svg11.dtd">
<svg version="1.1" xmlns="http://www.w3.org/2000/svg" xmlns:xlink="http://www.w3.org/1999/xlink" width="28" height="28" viewBox="0 0 28 28">
<path fill="#444444" d="M16 7.063l4.937 4.937-8.937 8.937-4.937-4.937zM12.703 22.359l9.656-9.656q0.297-0.297 0.297-0.703t-0.297-0.703l-5.656-5.656q-0.281-0.281-0.703-0.281t-0.703 0.281l-9.656 9.656q-0.297 0.297-0.297 0.703t0.297 0.703l5.656 5.656q0.281 0.281 0.703 0.281t0.703-0.281zM26.594 12.406l-14.172 14.187q-0.578 0.578-1.414 0.578t-1.414-0.578l-1.969-1.969q0.875-0.875 0.875-2.125t-0.875-2.125-2.125-0.875-2.125 0.875l-1.953-1.969q-0.578-0.578-0.578-1.414t0.578-1.414l14.172-14.156q0.578-0.578 1.414-0.578t1.414 0.578l1.953 1.953q-0.875 0.875-0.875 2.125t0.875 2.125 2.125 0.875 2.125-0.875l1.969 1.953q0.578 0.578 0.578 1.414t-0.578 1.414z"></path>
</svg>
