<?xml version="1.0" encoding="utf-8"?>
<!-- Generated by IcoMoon.io -->
<!DOCTYPE svg PUBLIC "-//W3C//DTD SVG 1.1//EN" "http://www.w3.org/Graphics/SVG/1.1/DTD/svg11.dtd">
<svg version="1.1" xmlns="http://www.w3.org/2000/svg" xmlns:xlink="http://www.w3.org/1999/xlink" width="16" height="28" viewBox="0 0 16 28">
<path fill="#444444" d="M8 18q0-0.562-0.313-1.078-0.016-0.016-0.242-0.352t-0.398-0.594-0.391-0.688-0.328-0.789q-0.063-0.25-0.328-0.25t-0.328 0.25q-0.109 0.359-0.328 0.789t-0.391 0.688-0.398 0.594-0.242 0.352q-0.313 0.516-0.313 1.078 0 0.828 0.586 1.414t1.414 0.586 1.414-0.586 0.586-1.414zM16 16q0 3.313-2.344 5.656t-5.656 2.344-5.656-2.344-2.344-5.656q0-2.266 1.266-4.297 0.094-0.141 0.977-1.414t1.578-2.359 1.555-2.781 1.297-3.148q0.141-0.469 0.531-0.734t0.797-0.266 0.805 0.266 0.523 0.734q0.438 1.453 1.297 3.148t1.555 2.781 1.578 2.359 0.977 1.414q1.266 1.984 1.266 4.297z"></path>
</svg>
