<?xml version="1.0" encoding="utf-8"?>
<!-- Generated by IcoMoon.io -->
<!DOCTYPE svg PUBLIC "-//W3C//DTD SVG 1.1//EN" "http://www.w3.org/Graphics/SVG/1.1/DTD/svg11.dtd">
<svg version="1.1" xmlns="http://www.w3.org/2000/svg" xmlns:xlink="http://www.w3.org/1999/xlink" width="28" height="28" viewBox="0 0 28 28">
<path fill="#444444" d="M20 0.5q0-0.219 0.141-0.359t0.359-0.141h4.5q0.406 0 0.703 0.297t0.297 0.703v4.5q0 0.219-0.141 0.359t-0.359 0.141h-1q-0.219 0-0.359-0.141t-0.141-0.359v-2.094l-3.969 3.984q1.969 2.469 1.969 5.609 0 3.453-2.305 6.008t-5.695 2.93v2.063h1.5q0.219 0 0.359 0.141t0.141 0.359v1q0 0.219-0.141 0.359t-0.359 0.141h-1.5v1.5q0 0.219-0.141 0.359t-0.359 0.141h-1q-0.219 0-0.359-0.141t-0.141-0.359v-1.5h-1.5q-0.219 0-0.359-0.141t-0.141-0.359v-1q0-0.219 0.141-0.359t0.359-0.141h1.5v-2.063q-3.391-0.375-5.695-2.93t-2.305-6.008q0-3.141 1.969-5.609l-0.812-0.828-1.578 1.734q-0.141 0.156-0.344 0.164t-0.359-0.117l-0.75-0.688q-0.156-0.125-0.164-0.336t0.133-0.367l1.641-1.797-1.734-1.75v2.094q0 0.219-0.141 0.359t-0.359 0.141h-1q-0.219 0-0.359-0.141t-0.141-0.359v-4.5q0-0.406 0.297-0.703t0.703-0.297h4.5q0.219 0 0.359 0.141t0.141 0.359v1q0 0.219-0.141 0.359t-0.359 0.141h-2.078l1.656 1.672 1.344-1.469q0.141-0.156 0.344-0.164t0.359 0.117l0.75 0.688q0.156 0.125 0.164 0.336t-0.133 0.367l-1.406 1.547 0.891 0.875q2.469-1.969 5.609-1.969t5.609 1.969l3.984-3.969h-2.094q-0.219 0-0.359-0.141t-0.141-0.359v-1zM13 20q2.891 0 4.945-2.055t2.055-4.945-2.055-4.945-4.945-2.055-4.945 2.055-2.055 4.945 2.055 4.945 4.945 2.055z"></path>
</svg>
