<?xml version="1.0" encoding="utf-8"?>
<!-- Generated by IcoMoon.io -->
<!DOCTYPE svg PUBLIC "-//W3C//DTD SVG 1.1//EN" "http://www.w3.org/Graphics/SVG/1.1/DTD/svg11.dtd">
<svg version="1.1" xmlns="http://www.w3.org/2000/svg" xmlns:xlink="http://www.w3.org/1999/xlink" width="28" height="28" viewBox="0 0 28 28">
<path fill="#444444" d="M23.5 23q0 0.406-0.297 0.703t-0.703 0.297h-7.219q0.016 0.266 0.094 1.367t0.078 1.695q0 0.391-0.281 0.664t-0.672 0.273h-5q-0.391 0-0.672-0.273t-0.281-0.664q0-0.594 0.078-1.695t0.094-1.367h-7.219q-0.406 0-0.703-0.297t-0.297-0.703 0.297-0.703l6.281-6.297h-3.578q-0.406 0-0.703-0.297t-0.297-0.703 0.297-0.703l6.281-6.297h-3.078q-0.406 0-0.703-0.297t-0.297-0.703 0.297-0.703l6-6q0.297-0.297 0.703-0.297t0.703 0.297l6 6q0.297 0.297 0.297 0.703t-0.297 0.703-0.703 0.297h-3.078l6.281 6.297q0.297 0.297 0.297 0.703t-0.297 0.703-0.703 0.297h-3.578l6.281 6.297q0.297 0.297 0.297 0.703z"></path>
</svg>
