<?xml version="1.0" encoding="utf-8"?>
<!-- Generated by IcoMoon.io -->
<!DOCTYPE svg PUBLIC "-//W3C//DTD SVG 1.1//EN" "http://www.w3.org/Graphics/SVG/1.1/DTD/svg11.dtd">
<svg version="1.1" xmlns="http://www.w3.org/2000/svg" xmlns:xlink="http://www.w3.org/1999/xlink" width="28" height="28" viewBox="0 0 28 28">
<path fill="#444444" d="M11 21v-16q0-0.219-0.141-0.359t-0.359-0.141h-7.5q-0.219 0-0.359 0.141t-0.141 0.359v16q0 0.219 0.141 0.359t0.359 0.141h7.5q0.219 0 0.359-0.141t0.141-0.359zM21.5 15v-10q0-0.219-0.141-0.359t-0.359-0.141h-7.5q-0.219 0-0.359 0.141t-0.141 0.359v10q0 0.219 0.141 0.359t0.359 0.141h7.5q0.219 0 0.359-0.141t0.141-0.359zM24 3v22q0 0.406-0.297 0.703t-0.703 0.297h-22q-0.406 0-0.703-0.297t-0.297-0.703v-22q0-0.406 0.297-0.703t0.703-0.297h22q0.406 0 0.703 0.297t0.297 0.703z"></path>
</svg>
