<?xml version="1.0" encoding="utf-8"?>
<!-- Generated by IcoMoon.io -->
<!DOCTYPE svg PUBLIC "-//W3C//DTD SVG 1.1//EN" "http://www.w3.org/Graphics/SVG/1.1/DTD/svg11.dtd">
<svg version="1.1" xmlns="http://www.w3.org/2000/svg" xmlns:xlink="http://www.w3.org/1999/xlink" width="28" height="28" viewBox="0 0 28 28">
<path fill="#444444" d="M10 22q0-0.812-0.594-1.406t-1.406-0.594-1.406 0.594-0.594 1.406 0.594 1.406 1.406 0.594 1.406-0.594 0.594-1.406zM4 14h6v-4h-2.469q-0.203 0-0.344 0.141l-3.047 3.047q-0.141 0.141-0.141 0.344v0.469zM24 22q0-0.812-0.594-1.406t-1.406-0.594-1.406 0.594-0.594 1.406 0.594 1.406 1.406 0.594 1.406-0.594 0.594-1.406zM28 5v16q0 0.234-0.063 0.414t-0.211 0.289-0.258 0.18-0.367 0.094-0.352 0.031-0.398 0-0.352-0.008q0 1.656-1.172 2.828t-2.828 1.172-2.828-1.172-1.172-2.828h-6q0 1.656-1.172 2.828t-2.828 1.172-2.828-1.172-1.172-2.828h-1q-0.047 0-0.352 0.008t-0.398 0-0.352-0.031-0.367-0.094-0.258-0.18-0.211-0.289-0.063-0.414q0-0.406 0.297-0.703t0.703-0.297v-5q0-0.125-0.008-0.547t0-0.594 0.039-0.539 0.102-0.578 0.219-0.477 0.352-0.469l3.094-3.094q0.297-0.297 0.789-0.5t0.914-0.203h2.5v-3q0-0.406 0.297-0.703t0.703-0.297h16q0.406 0 0.703 0.297t0.297 0.703z"></path>
</svg>
