<?xml version="1.0" encoding="utf-8"?>
<!-- Generated by IcoMoon.io -->
<!DOCTYPE svg PUBLIC "-//W3C//DTD SVG 1.1//EN" "http://www.w3.org/Graphics/SVG/1.1/DTD/svg11.dtd">
<svg version="1.1" xmlns="http://www.w3.org/2000/svg" xmlns:xlink="http://www.w3.org/1999/xlink" width="18" height="28" viewBox="0 0 18 28">
<path fill="#444444" d="M18 13q0 2.984-1.477 5.516t-4.008 4.008-5.516 1.477h-2.5q-0.219 0-0.359-0.141t-0.141-0.359v-9.547l-3.359 1.031q-0.047 0.016-0.141 0.016-0.156 0-0.297-0.094-0.203-0.156-0.203-0.406v-2q0-0.359 0.359-0.484l3.641-1.109v-1.453l-3.359 1.031q-0.047 0.016-0.141 0.016-0.156 0-0.297-0.094-0.203-0.156-0.203-0.406v-2q0-0.359 0.359-0.484l3.641-1.109v-3.906q0-0.219 0.141-0.359t0.359-0.141h2.5q0.219 0 0.359 0.141t0.141 0.359v2.828l5.859-1.813q0.234-0.078 0.438 0.078t0.203 0.406v2q0 0.359-0.359 0.484l-6.141 1.891v1.453l5.859-1.813q0.234-0.078 0.438 0.078t0.203 0.406v2q0 0.359-0.359 0.484l-6.141 1.891v7.609q2.938-0.203 4.969-2.359t2.031-5.125q0-0.219 0.141-0.359t0.359-0.141h2.5q0.219 0 0.359 0.141t0.141 0.359z"></path>
</svg>
