<?xml version="1.0" encoding="utf-8"?>
<!-- Generated by IcoMoon.io -->
<!DOCTYPE svg PUBLIC "-//W3C//DTD SVG 1.1//EN" "http://www.w3.org/Graphics/SVG/1.1/DTD/svg11.dtd">
<svg version="1.1" xmlns="http://www.w3.org/2000/svg" xmlns:xlink="http://www.w3.org/1999/xlink" width="28" height="28" viewBox="0 0 28 28">
<path fill="#444444" d="M7 20.5v3q0 0.219-0.141 0.359t-0.359 0.141h-3q-0.219 0-0.359-0.141t-0.141-0.359v-3q0-0.219 0.141-0.359t0.359-0.141h3q0.219 0 0.359 0.141t0.141 0.359zM4 14.5v3q0 0.219-0.141 0.359t-0.359 0.141h-3q-0.219 0-0.359-0.141t-0.141-0.359v-3q0-0.219 0.141-0.359t0.359-0.141h3q0.219 0 0.359 0.141t0.141 0.359zM13 20.5v3q0 0.219-0.141 0.359t-0.359 0.141h-3q-0.219 0-0.359-0.141t-0.141-0.359v-3q0-0.219 0.141-0.359t0.359-0.141h3q0.219 0 0.359 0.141t0.141 0.359zM10 14.5v3q0 0.219-0.141 0.359t-0.359 0.141h-3q-0.219 0-0.359-0.141t-0.141-0.359v-3q0-0.219 0.141-0.359t0.359-0.141h3q0.219 0 0.359 0.141t0.141 0.359zM1.031 12q-0.438 0-0.734-0.297t-0.297-0.719v-2.016h8.031v2.016q0 0.422-0.297 0.719t-0.719 0.297h-5.984zM19 20.5v3q0 0.219-0.141 0.359t-0.359 0.141h-3q-0.219 0-0.359-0.141t-0.141-0.359v-3q0-0.219 0.141-0.359t0.359-0.141h3q0.219 0 0.359 0.141t0.141 0.359zM16 14.5v3q0 0.219-0.141 0.359t-0.359 0.141h-3q-0.219 0-0.359-0.141t-0.141-0.359v-3q0-0.219 0.141-0.359t0.359-0.141h3q0.219 0 0.359 0.141t0.141 0.359zM25 20.5v3q0 0.219-0.141 0.359t-0.359 0.141h-3q-0.219 0-0.359-0.141t-0.141-0.359v-3q0-0.219 0.141-0.359t0.359-0.141h3q0.219 0 0.359 0.141t0.141 0.359zM22 14.5v3q0 0.219-0.141 0.359t-0.359 0.141h-3q-0.219 0-0.359-0.141t-0.141-0.359v-3q0-0.219 0.141-0.359t0.359-0.141h3q0.219 0 0.359 0.141t0.141 0.359zM28 8.125v0.203h-8.031v-0.156q0-1.625-5.969-1.594-5.969 0.016-5.969 1.594v0.156h-8.031v-0.203q0-0.266 0.133-0.672t0.531-1 1.023-1.18 1.727-1.188 2.5-1.055 3.5-0.742 4.586-0.289 4.578 0.289 3.5 0.742 2.508 1.055 1.727 1.188 1.023 1.18 0.531 1 0.133 0.672zM28 14.5v3q0 0.219-0.141 0.359t-0.359 0.141h-3q-0.219 0-0.359-0.141t-0.141-0.359v-3q0-0.219 0.141-0.359t0.359-0.141h3q0.219 0 0.359 0.141t0.141 0.359zM28 8.969v2.016q0 0.422-0.297 0.719t-0.719 0.297h-6q-0.422 0-0.719-0.297t-0.297-0.719v-2.016h8.031z"></path>
</svg>
