<?xml version="1.0" encoding="utf-8"?>
<!-- Generated by IcoMoon.io -->
<!DOCTYPE svg PUBLIC "-//W3C//DTD SVG 1.1//EN" "http://www.w3.org/Graphics/SVG/1.1/DTD/svg11.dtd">
<svg version="1.1" xmlns="http://www.w3.org/2000/svg" xmlns:xlink="http://www.w3.org/1999/xlink" width="28" height="28" viewBox="0 0 28 28">
<path fill="#444444" d="M17.75 22.828l-0.969-2.859q-0.688 0.344-1.609 0.344-0.562 0.016-0.969-0.164t-0.602-0.492-0.273-0.633-0.078-0.68v-6.219h4.016v-3.031h-4v-5.094h-2.938q-0.125 0-0.141 0.156-0.078 0.688-0.273 1.359t-0.609 1.484-1.203 1.484-1.852 1.062v2.578h2.031v6.531q0 0.891 0.336 1.797t1.016 1.734 1.891 1.336 2.758 0.477q1.078-0.016 2.133-0.391t1.336-0.781zM24 6.5v15q0 1.859-1.32 3.18t-3.18 1.32h-15q-1.859 0-3.18-1.32t-1.32-3.18v-15q0-1.859 1.32-3.18t3.18-1.32h15q1.859 0 3.18 1.32t1.32 3.18z"></path>
</svg>
