<?xml version="1.0" encoding="utf-8"?>
<!-- Generated by IcoMoon.io -->
<!DOCTYPE svg PUBLIC "-//W3C//DTD SVG 1.1//EN" "http://www.w3.org/Graphics/SVG/1.1/DTD/svg11.dtd">
<svg version="1.1" xmlns="http://www.w3.org/2000/svg" xmlns:xlink="http://www.w3.org/1999/xlink" width="26" height="28" viewBox="0 0 26 28">
<path fill="#444444" d="M14 12.938v9.063q0 1.625-1.188 2.812t-2.812 1.188-2.812-1.188-1.188-2.812q0-0.406 0.297-0.703t0.703-0.297 0.703 0.297 0.297 0.703q0 0.781 0.609 1.391t1.391 0.609 1.391-0.609 0.609-1.391v-9.063q0.516-0.172 1-0.172t1 0.172zM26 13.359q0 0.203-0.148 0.352t-0.352 0.148q-0.172 0-0.359-0.156-0.766-0.719-1.453-1.078t-1.594-0.359q-1.062 0-2 0.578t-1.609 1.516q-0.109 0.156-0.273 0.438t-0.227 0.375q-0.172 0.266-0.438 0.266-0.281 0-0.453-0.266-0.063-0.094-0.227-0.375t-0.273-0.438q-0.672-0.938-1.602-1.516t-1.992-0.578-1.992 0.578-1.602 1.516q-0.109 0.156-0.273 0.438t-0.227 0.375q-0.172 0.266-0.453 0.266-0.266 0-0.438-0.266-0.063-0.094-0.227-0.375t-0.273-0.438q-0.672-0.938-1.609-1.516t-2-0.578q-0.906 0-1.594 0.359t-1.453 1.078q-0.187 0.156-0.359 0.156-0.203 0-0.352-0.148t-0.148-0.352q0-0.078 0.016-0.109 0.703-2.859 2.695-4.992t4.656-3.195 5.633-1.062q2.188 0 4.289 0.625t3.852 1.773 3.039 2.922 1.805 3.93q0.016 0.031 0.016 0.109zM14 2v1.531q-0.656-0.031-1-0.031t-1 0.031v-1.531q0-0.406 0.297-0.703t0.703-0.297 0.703 0.297 0.297 0.703z"></path>
</svg>
