<?xml version="1.0" encoding="utf-8"?>
<!-- Generated by IcoMoon.io -->
<!DOCTYPE svg PUBLIC "-//W3C//DTD SVG 1.1//EN" "http://www.w3.org/Graphics/SVG/1.1/DTD/svg11.dtd">
<svg version="1.1" xmlns="http://www.w3.org/2000/svg" xmlns:xlink="http://www.w3.org/1999/xlink" width="28" height="28" viewBox="0 0 28 28">
<path fill="#444444" d="M0.75 3.484q-0.578-0.031-0.703-0.063l-0.047-1.375q0.203-0.016 0.625-0.016 0.938 0 1.75 0.063 2.063 0.109 2.594 0.109 1.344 0 2.625-0.047 1.813-0.063 2.281-0.078 0.875 0 1.344-0.031l-0.016 0.219 0.031 1v0.141q-0.938 0.141-1.937 0.141-0.938 0-1.234 0.391-0.203 0.219-0.203 2.063 0 0.203 0.008 0.508t0.008 0.398l0.016 3.578 0.219 4.375q0.094 1.937 0.797 3.156 0.547 0.922 1.5 1.437 1.375 0.734 2.766 0.734 1.625 0 2.984-0.438 0.875-0.281 1.547-0.797 0.75-0.562 1.016-1 0.562-0.875 0.828-1.781 0.328-1.141 0.328-3.578 0-1.234-0.055-2t-0.172-1.914-0.211-2.492l-0.063-0.922q-0.078-1.047-0.375-1.375-0.531-0.547-1.203-0.531l-1.563 0.031-0.219-0.047 0.031-1.344h1.313l3.203 0.156q1.188 0.047 3.063-0.156l0.281 0.031q0.094 0.594 0.094 0.797 0 0.109-0.063 0.484-0.703 0.187-1.313 0.203-1.141 0.172-1.234 0.266-0.234 0.234-0.234 0.641 0 0.109 0.023 0.422t0.023 0.484q0.125 0.297 0.344 6.188 0.094 3.047-0.234 4.75-0.234 1.188-0.641 1.906-0.594 1.016-1.75 1.922-1.172 0.891-2.844 1.391-1.703 0.516-3.984 0.516-2.609 0-4.438-0.719-1.859-0.734-2.797-1.906-0.953-1.188-1.297-3.047-0.25-1.25-0.25-3.703v-5.203q0-2.938-0.266-3.328-0.391-0.562-2.297-0.609zM24 25.5v-1q0-0.219-0.141-0.359t-0.359-0.141h-23q-0.219 0-0.359 0.141t-0.141 0.359v1q0 0.219 0.141 0.359t0.359 0.141h23q0.219 0 0.359-0.141t0.141-0.359z"></path>
</svg>
