<?xml version="1.0" encoding="utf-8"?>
<!-- Generated by IcoMoon.io -->
<!DOCTYPE svg PUBLIC "-//W3C//DTD SVG 1.1//EN" "http://www.w3.org/Graphics/SVG/1.1/DTD/svg11.dtd">
<svg version="1.1" xmlns="http://www.w3.org/2000/svg" xmlns:xlink="http://www.w3.org/1999/xlink" width="26" height="28" viewBox="0 0 26 28">
<path fill="#444444" d="M26 9v4q0 0.406-0.297 0.703t-0.703 0.297h-1q-0.406 0-0.703-0.297t-0.297-0.703v-4q0-1.656-1.172-2.828t-2.828-1.172-2.828 1.172-1.172 2.828v3h1.5q0.625 0 1.062 0.438t0.438 1.062v9q0 0.625-0.438 1.062t-1.062 0.438h-15q-0.625 0-1.062-0.438t-0.438-1.062v-9q0-0.625 0.438-1.062t1.062-0.438h10.5v-3q0-2.891 2.055-4.945t4.945-2.055 4.945 2.055 2.055 4.945z"></path>
</svg>
