<?xml version="1.0" encoding="utf-8"?>
<!-- Generated by IcoMoon.io -->
<!DOCTYPE svg PUBLIC "-//W3C//DTD SVG 1.1//EN" "http://www.w3.org/Graphics/SVG/1.1/DTD/svg11.dtd">
<svg version="1.1" xmlns="http://www.w3.org/2000/svg" xmlns:xlink="http://www.w3.org/1999/xlink" width="26" height="28" viewBox="0 0 26 28">
<path fill="#444444" d="M20 23q0-0.406-0.297-0.703t-0.703-0.297-0.703 0.297-0.297 0.703 0.297 0.703 0.703 0.297 0.703-0.297 0.297-0.703zM24 23q0-0.406-0.297-0.703t-0.703-0.297-0.703 0.297-0.297 0.703 0.297 0.703 0.703 0.297 0.703-0.297 0.297-0.703zM26 19.5v5q0 0.625-0.438 1.062t-1.062 0.438h-23q-0.625 0-1.062-0.438t-0.438-1.062v-5q0-0.625 0.438-1.062t1.062-0.438h6.672q0.328 0.875 1.102 1.437t1.727 0.562h4q0.953 0 1.727-0.562t1.102-1.437h6.672q0.625 0 1.062 0.438t0.438 1.062zM20.922 9.375q-0.266 0.625-0.922 0.625h-4v7q0 0.406-0.297 0.703t-0.703 0.297h-4q-0.406 0-0.703-0.297t-0.297-0.703v-7h-4q-0.656 0-0.922-0.625-0.266-0.609 0.219-1.078l7-7q0.281-0.297 0.703-0.297t0.703 0.297l7 7q0.484 0.469 0.219 1.078z"></path>
</svg>
