<?xml version="1.0" encoding="utf-8"?>
<!-- Generated by IcoMoon.io -->
<!DOCTYPE svg PUBLIC "-//W3C//DTD SVG 1.1//EN" "http://www.w3.org/Graphics/SVG/1.1/DTD/svg11.dtd">
<svg version="1.1" xmlns="http://www.w3.org/2000/svg" xmlns:xlink="http://www.w3.org/1999/xlink" width="28" height="28" viewBox="0 0 28 28">
<path fill="#444444" d="M9 24l1.5-7-1.5-2-2-1zM13 24l2-10-2 1-1.5 2zM15.5 8.219q-0.031-0.063-0.063-0.094-0.156-0.125-1.5-0.125-1.094 0-2.609 0.297-0.109 0.031-0.328 0.031t-0.328-0.031q-1.516-0.297-2.609-0.297-1.344 0-1.5 0.125-0.031 0.031-0.063 0.094 0.031 0.281 0.063 0.422 0.031 0.047 0.117 0.102t0.117 0.164q0.031 0.063 0.117 0.32t0.109 0.32 0.117 0.266 0.133 0.266 0.141 0.219 0.187 0.211 0.219 0.148 0.273 0.125 0.32 0.063 0.383 0.031q0.562 0 0.922-0.195t0.508-0.469 0.227-0.539 0.18-0.461 0.273-0.195h0.187q0.172 0 0.273 0.195t0.18 0.461 0.227 0.539 0.508 0.469 0.922 0.195q0.203 0 0.383-0.031t0.32-0.063 0.273-0.125 0.219-0.148 0.187-0.211 0.141-0.219 0.133-0.266 0.117-0.266 0.109-0.32 0.117-0.32q0.031-0.109 0.117-0.164t0.117-0.102q0.031-0.141 0.063-0.422zM22 21.953q0 1.891-1.141 2.969t-3.031 1.078h-13.656q-1.891 0-3.031-1.078t-1.141-2.969q0-0.953 0.070-1.844t0.297-1.961 0.586-1.93 0.992-1.617 1.461-1.164l-1.406-3.437h3.344q-0.344-1-0.344-2 0-0.187 0.031-0.5-3.031-0.625-3.031-1.5 0-0.891 3.281-1.547 0.266-0.969 0.805-2.094t1.102-1.781q0.5-0.578 1.188-0.578 0.469 0 1.313 0.484t1.313 0.484 1.313-0.484 1.313-0.484q0.688 0 1.188 0.578 0.562 0.656 1.102 1.781t0.805 2.094q3.281 0.656 3.281 1.547 0 0.875-3.031 1.5 0.109 1.266-0.313 2.5h3.344l-1.281 3.516q0.984 0.516 1.68 1.508t1.023 2.242 0.453 2.367 0.125 2.32z"></path>
</svg>
