<?xml version="1.0" encoding="utf-8"?>
<!-- Generated by IcoMoon.io -->
<!DOCTYPE svg PUBLIC "-//W3C//DTD SVG 1.1//EN" "http://www.w3.org/Graphics/SVG/1.1/DTD/svg11.dtd">
<svg version="1.1" xmlns="http://www.w3.org/2000/svg" xmlns:xlink="http://www.w3.org/1999/xlink" width="22" height="28" viewBox="0 0 22 28">
<path fill="#444444" d="M6 21q0 0.406-0.297 0.703t-0.703 0.297-0.703-0.297-0.297-0.703 0.297-0.703 0.703-0.297 0.703 0.297 0.297 0.703zM22 21.953q0 1.891-1.141 2.969t-3.031 1.078h-13.656q-1.891 0-3.031-1.078t-1.141-2.969q0-1.062 0.086-2.047t0.375-2.156 0.742-2.070 1.266-1.609 1.875-0.945q-0.344 0.812-0.344 1.875v3.172q-0.906 0.313-1.453 1.094t-0.547 1.734q0 1.25 0.875 2.125t2.125 0.875 2.125-0.875 0.875-2.125q0-0.953-0.555-1.734t-1.445-1.094v-3.172q0-0.969 0.391-1.453 2.063 1.625 4.609 1.625t4.609-1.625q0.391 0.484 0.391 1.453v1q-1.656 0-2.828 1.172t-1.172 2.828v1.391q-0.5 0.453-0.5 1.109 0 0.625 0.438 1.062t1.062 0.438 1.062-0.438 0.438-1.062q0-0.656-0.5-1.109v-1.391q0-0.812 0.594-1.406t1.406-0.594 1.406 0.594 0.594 1.406v1.391q-0.5 0.453-0.5 1.109 0 0.625 0.438 1.062t1.062 0.438 1.062-0.438 0.438-1.062q0-0.656-0.5-1.109v-1.391q0-1.062-0.539-1.992t-1.461-1.461q0-0.156 0.008-0.664t0-0.75-0.039-0.648-0.109-0.734-0.203-0.625q1.062 0.234 1.875 0.945t1.266 1.609 0.742 2.070 0.375 2.156 0.086 2.047zM17 8q0 2.484-1.758 4.242t-4.242 1.758-4.242-1.758-1.758-4.242 1.758-4.242 4.242-1.758 4.242 1.758 1.758 4.242z"></path>
</svg>
