<?xml version="1.0" encoding="utf-8"?>
<!-- Generated by IcoMoon.io -->
<!DOCTYPE svg PUBLIC "-//W3C//DTD SVG 1.1//EN" "http://www.w3.org/Graphics/SVG/1.1/DTD/svg11.dtd">
<svg version="1.1" xmlns="http://www.w3.org/2000/svg" xmlns:xlink="http://www.w3.org/1999/xlink" width="22" height="28" viewBox="0 0 22 28">
<path fill="#444444" d="M22 21.953q0 1.875-1.141 2.961t-3.031 1.086h-13.656q-1.891 0-3.031-1.086t-1.141-2.961q0-0.828 0.055-1.617t0.219-1.703 0.414-1.695 0.672-1.523 0.969-1.266 1.336-0.836 1.742-0.313q0.141 0 0.656 0.336t1.164 0.75 1.687 0.75 2.086 0.336 2.086-0.336 1.687-0.75 1.164-0.75 0.656-0.336q0.953 0 1.742 0.313t1.336 0.836 0.969 1.266 0.672 1.523 0.414 1.695 0.219 1.703 0.055 1.617zM17 8q0 2.484-1.758 4.242t-4.242 1.758-4.242-1.758-1.758-4.242 1.758-4.242 4.242-1.758 4.242 1.758 1.758 4.242z"></path>
</svg>
