<?xml version="1.0" encoding="utf-8"?>
<!-- Generated by IcoMoon.io -->
<!DOCTYPE svg PUBLIC "-//W3C//DTD SVG 1.1//EN" "http://www.w3.org/Graphics/SVG/1.1/DTD/svg11.dtd">
<svg version="1.1" xmlns="http://www.w3.org/2000/svg" xmlns:xlink="http://www.w3.org/1999/xlink" width="32" height="28" viewBox="0 0 32 28">
<path fill="#444444" d="M11 14q-2.484 0-4.242-1.758t-1.758-4.242 1.758-4.242 4.242-1.758 4.242 1.758 1.758 4.242-1.758 4.242-4.242 1.758zM26 16h5.5q0.203 0 0.352 0.148t0.148 0.352v3q0 0.203-0.148 0.352t-0.352 0.148h-5.5v5.5q0 0.203-0.148 0.352t-0.352 0.148h-3q-0.203 0-0.352-0.148t-0.148-0.352v-5.5h-5.5q-0.203 0-0.352-0.148t-0.148-0.352v-3q0-0.203 0.148-0.352t0.352-0.148h5.5v-5.5q0-0.203 0.148-0.352t0.352-0.148h3q0.203 0 0.352 0.148t0.148 0.352v5.5zM14.5 19.5q0 0.812 0.594 1.406t1.406 0.594h4v3.719q-1.062 0.781-2.672 0.781h-13.656q-1.891 0-3.031-1.078t-1.141-2.969q0-0.828 0.055-1.617t0.219-1.703 0.414-1.695 0.672-1.523 0.969-1.266 1.336-0.836 1.742-0.313q0.297 0 0.609 0.266 1.234 0.953 2.414 1.43t2.57 0.477 2.57-0.477 2.414-1.43q0.313-0.266 0.609-0.266 2.063 0 3.391 1.5h-3.484q-0.812 0-1.406 0.594t-0.594 1.406v3z"></path>
</svg>
