<?xml version="1.0" encoding="utf-8"?>
<!-- Generated by IcoMoon.io -->
<!DOCTYPE svg PUBLIC "-//W3C//DTD SVG 1.1//EN" "http://www.w3.org/Graphics/SVG/1.1/DTD/svg11.dtd">
<svg version="1.1" xmlns="http://www.w3.org/2000/svg" xmlns:xlink="http://www.w3.org/1999/xlink" width="32" height="28" viewBox="0 0 32 28">
<path fill="#444444" d="M11 14q-2.484 0-4.242-1.758t-1.758-4.242 1.758-4.242 4.242-1.758 4.242 1.758 1.758 4.242-1.758 4.242-4.242 1.758zM27.828 19l3.891 3.891q0.141 0.141 0.141 0.359 0 0.203-0.141 0.344l-2.125 2.125q-0.141 0.141-0.344 0.141-0.219 0-0.359-0.141l-3.891-3.891-3.891 3.891q-0.141 0.141-0.359 0.141-0.203 0-0.344-0.141l-2.125-2.125q-0.141-0.141-0.141-0.344 0-0.219 0.141-0.359l3.891-3.891-3.891-3.891q-0.141-0.141-0.141-0.359 0-0.203 0.141-0.344l2.125-2.125q0.141-0.141 0.344-0.141 0.219 0 0.359 0.141l3.891 3.891 3.891-3.891q0.141-0.141 0.359-0.141 0.203 0 0.344 0.141l2.125 2.125q0.141 0.141 0.141 0.344 0 0.219-0.141 0.359zM20.047 19l-2.828 2.828q-0.578 0.578-0.578 1.422 0 0.828 0.578 1.406l1.297 1.297q-0.328 0.047-0.688 0.047h-13.656q-1.891 0-3.031-1.078t-1.141-2.969q0-0.828 0.055-1.617t0.219-1.703 0.414-1.695 0.672-1.523 0.969-1.266 1.336-0.836 1.742-0.313q0.297 0 0.609 0.266 2.406 1.906 4.984 1.906t4.984-1.906q0.313-0.266 0.609-0.266 0.438 0 0.891 0.094-0.438 0.422-0.641 0.781t-0.203 0.875q0 0.844 0.578 1.422z"></path>
</svg>
