<?xml version="1.0" encoding="utf-8"?>
<!-- Generated by IcoMoon.io -->
<!DOCTYPE svg PUBLIC "-//W3C//DTD SVG 1.1//EN" "http://www.w3.org/Graphics/SVG/1.1/DTD/svg11.dtd">
<svg version="1.1" xmlns="http://www.w3.org/2000/svg" xmlns:xlink="http://www.w3.org/1999/xlink" width="20" height="28" viewBox="0 0 20 28">
<path fill="#444444" d="M18 9q0 3.453-2.305 6.008t-5.695 2.93v4.062h3.5q0.219 0 0.359 0.141t0.141 0.359v1q0 0.219-0.141 0.359t-0.359 0.141h-3.5v3.5q0 0.219-0.141 0.359t-0.359 0.141h-1q-0.219 0-0.359-0.141t-0.141-0.359v-3.5h-3.5q-0.219 0-0.359-0.141t-0.141-0.359v-1q0-0.219 0.141-0.359t0.359-0.141h3.5v-4.062q-2.344-0.25-4.242-1.609t-2.906-3.5-0.82-4.562q0.172-2.094 1.258-3.891t2.844-2.938 3.836-1.375q2.656-0.297 4.984 0.844t3.687 3.313 1.359 4.781zM2 9q0 2.891 2.055 4.945t4.945 2.055 4.945-2.055 2.055-4.945-2.055-4.945-4.945-2.055-4.945 2.055-2.055 4.945z"></path>
</svg>
