<?xml version="1.0" encoding="utf-8"?>
<!-- Generated by IcoMoon.io -->
<!DOCTYPE svg PUBLIC "-//W3C//DTD SVG 1.1//EN" "http://www.w3.org/Graphics/SVG/1.1/DTD/svg11.dtd">
<svg version="1.1" xmlns="http://www.w3.org/2000/svg" xmlns:xlink="http://www.w3.org/1999/xlink" width="32" height="28" viewBox="0 0 32 28">
<path fill="#444444" d="M26 0.5q0-0.219 0.141-0.359t0.359-0.141h4.5q0.406 0 0.703 0.297t0.297 0.703v4.5q0 0.219-0.141 0.359t-0.359 0.141h-1q-0.219 0-0.359-0.141t-0.141-0.359v-2.094l-3.969 3.984q1.188 1.484 1.68 3.344t0.148 3.859q-0.5 2.812-2.57 4.844t-4.898 2.453q-3.484 0.531-6.391-1.406-1.828 1.219-4 1.453v2.063h1.5q0.219 0 0.359 0.141t0.141 0.359v1q0 0.219-0.141 0.359t-0.359 0.141h-1.5v1.5q0 0.219-0.141 0.359t-0.359 0.141h-1q-0.219 0-0.359-0.141t-0.141-0.359v-1.5h-1.5q-0.219 0-0.359-0.141t-0.141-0.359v-1q0-0.219 0.141-0.359t0.359-0.141h1.5v-2.063q-2.422-0.266-4.367-1.711t-2.922-3.711-0.617-4.797q0.391-2.922 2.492-5.039t5.008-2.57q3.5-0.531 6.406 1.406 2.281-1.516 5-1.516 3.141 0 5.609 1.969l3.984-3.969h-2.094q-0.219 0-0.359-0.141t-0.141-0.359v-1zM14 17.891q2-2.047 2-4.891t-2-4.891q-2 2.047-2 4.891t2 4.891zM2 13q0 2.891 2.055 4.945t4.945 2.055q1.828 0 3.406-0.891-2.406-2.609-2.406-6.109t2.406-6.109q-1.578-0.891-3.406-0.891-2.891 0-4.945 2.055t-2.055 4.945zM19 20q2.891 0 4.945-2.055t2.055-4.945-2.055-4.945-4.945-2.055q-1.828 0-3.406 0.891 2.406 2.609 2.406 6.109t-2.406 6.109q1.578 0.891 3.406 0.891z"></path>
</svg>
