<?xml version="1.0" encoding="utf-8"?>
<!-- Generated by IcoMoon.io -->
<!DOCTYPE svg PUBLIC "-//W3C//DTD SVG 1.1//EN" "http://www.w3.org/Graphics/SVG/1.1/DTD/svg11.dtd">
<svg version="1.1" xmlns="http://www.w3.org/2000/svg" xmlns:xlink="http://www.w3.org/1999/xlink" width="28" height="28" viewBox="0 0 28 28">
<path fill="#444444" d="M27.969 8.266q0.187 2.422-0.82 4.562t-2.906 3.5-4.242 1.609v4.062h3.5q0.219 0 0.359 0.141t0.141 0.359v1q0 0.219-0.141 0.359t-0.359 0.141h-3.5v3.5q0 0.219-0.141 0.359t-0.359 0.141h-1q-0.219 0-0.359-0.141t-0.141-0.359v-3.5h-8v3.5q0 0.219-0.141 0.359t-0.359 0.141h-1q-0.219 0-0.359-0.141t-0.141-0.359v-3.5h-3.5q-0.219 0-0.359-0.141t-0.141-0.359v-1q0-0.219 0.141-0.359t0.359-0.141h3.5v-4.062q-2.344-0.25-4.242-1.609t-2.906-3.5-0.82-4.562q0.266-3.219 2.57-5.57t5.508-2.648q3.219-0.328 5.891 1.469 2.672-1.797 5.891-1.469 3.203 0.297 5.508 2.648t2.57 5.57zM14 13.891q2-2.047 2-4.891t-2-4.891q-2 2.047-2 4.891t2 4.891zM9 16q1.797 0 3.406-0.891-2.406-2.578-2.406-6.109 0-3.5 2.406-6.109-1.609-0.891-3.406-0.891-2.891 0-4.945 2.055t-2.055 4.945 2.055 4.945 4.945 2.055zM18 22v-4.062q-2.141-0.234-4-1.469-1.859 1.234-4 1.469v4.062h8zM19 16q2.891 0 4.945-2.055t2.055-4.945-2.055-4.945-4.945-2.055q-1.797 0-3.406 0.891 2.406 2.609 2.406 6.109 0 3.531-2.406 6.109 1.609 0.891 3.406 0.891z"></path>
</svg>
