<?xml version="1.0" encoding="utf-8"?>
<!-- Generated by IcoMoon.io -->
<!DOCTYPE svg PUBLIC "-//W3C//DTD SVG 1.1//EN" "http://www.w3.org/Graphics/SVG/1.1/DTD/svg11.dtd">
<svg version="1.1" xmlns="http://www.w3.org/2000/svg" xmlns:xlink="http://www.w3.org/1999/xlink" width="28" height="28" viewBox="0 0 28 28">
<path fill="#444444" d="M28 5.5v17q0 0.656-0.609 0.922-0.203 0.078-0.391 0.078-0.422 0-0.703-0.297l-6.297-6.297v2.594q0 1.859-1.32 3.18t-3.18 1.32h-11q-1.859 0-3.18-1.32t-1.32-3.18v-11q0-1.859 1.32-3.18t3.18-1.32h11q1.859 0 3.18 1.32t1.32 3.18v2.578l6.297-6.281q0.281-0.297 0.703-0.297 0.187 0 0.391 0.078 0.609 0.266 0.609 0.922z"></path>
</svg>
