<?xml version="1.0" encoding="utf-8"?>
<!-- Generated by IcoMoon.io -->
<!DOCTYPE svg PUBLIC "-//W3C//DTD SVG 1.1//EN" "http://www.w3.org/Graphics/SVG/1.1/DTD/svg11.dtd">
<svg version="1.1" xmlns="http://www.w3.org/2000/svg" xmlns:xlink="http://www.w3.org/1999/xlink" width="28" height="28" viewBox="0 0 28 28">
<path fill="#444444" d="M19.594 9.953q0.25-1.328-0.328-2.063-0.812-1.016-2.922-0.703-0.266 0.047-0.641 0.195t-0.898 0.477-1.008 0.758-0.93 1.094-0.695 1.43q1.25-0.109 1.773 0.25t0.414 1.547q-0.078 0.812-0.812 2.234-0.672 1.219-1.109 1.547-0.688 0.5-1.359-0.219-0.359-0.375-0.586-1.008t-0.297-1.141-0.156-1.313-0.133-1.117q-0.359-2.016-0.531-2.562-0.187-0.578-0.555-1.078t-0.789-0.625q-0.891-0.25-1.984 0.391-0.844 0.5-2.133 1.656t-1.914 1.594v0.109q0.25 0.125 0.398 0.406t0.336 0.313q0.328 0.047 0.852-0.133t0.906-0.164 0.648 0.469q0.172 0.281 0.289 0.602t0.234 0.75 0.195 0.633q0.266 0.719 0.828 2.922 0.562 2.281 0.891 3.078 0.656 1.547 1.609 1.953 0.672 0.187 1.328 0.023t1.188-0.492q2.047-1.203 3.906-3.703 1.625-2.172 2.695-4.57t1.289-3.539zM24 6.5v15q0 1.859-1.32 3.18t-3.18 1.32h-15q-1.859 0-3.18-1.32t-1.32-3.18v-15q0-1.859 1.32-3.18t3.18-1.32h15q1.859 0 3.18 1.32t1.32 3.18z"></path>
</svg>
