<?xml version="1.0" encoding="utf-8"?>
<!-- Generated by IcoMoon.io -->
<!DOCTYPE svg PUBLIC "-//W3C//DTD SVG 1.1//EN" "http://www.w3.org/Graphics/SVG/1.1/DTD/svg11.dtd">
<svg version="1.1" xmlns="http://www.w3.org/2000/svg" xmlns:xlink="http://www.w3.org/1999/xlink" width="26" height="28" viewBox="0 0 26 28">
<path fill="#444444" d="M12 5.5v17q0 0.406-0.297 0.703t-0.703 0.297-0.703-0.297l-5.203-5.203h-4.094q-0.406 0-0.703-0.297t-0.297-0.703v-6q0-0.406 0.297-0.703t0.703-0.297h4.094l5.203-5.203q0.297-0.297 0.703-0.297t0.703 0.297 0.297 0.703zM18 14q0 1.188-0.664 2.211t-1.758 1.461q-0.156 0.078-0.391 0.078-0.406 0-0.703-0.289t-0.297-0.711q0-0.328 0.187-0.555t0.453-0.391 0.531-0.359 0.453-0.555 0.187-0.891-0.187-0.891-0.453-0.555-0.531-0.359-0.453-0.391-0.187-0.555q0-0.422 0.297-0.711t0.703-0.289q0.234 0 0.391 0.078 1.094 0.422 1.758 1.453t0.664 2.219zM22 14q0 2.391-1.328 4.414t-3.516 2.945q-0.203 0.078-0.391 0.078-0.422 0-0.719-0.297t-0.297-0.703q0-0.609 0.609-0.922 0.875-0.453 1.188-0.688 1.156-0.844 1.805-2.117t0.648-2.711-0.648-2.711-1.805-2.117q-0.313-0.234-1.188-0.688-0.609-0.313-0.609-0.922 0-0.406 0.297-0.703t0.703-0.297q0.203 0 0.406 0.078 2.188 0.922 3.516 2.945t1.328 4.414zM26 14q0 3.594-1.984 6.602t-5.281 4.43q-0.203 0.078-0.406 0.078-0.406 0-0.703-0.297t-0.297-0.703q0-0.562 0.609-0.922 0.109-0.063 0.352-0.164t0.352-0.164q0.719-0.391 1.281-0.797 1.922-1.422 3-3.547t1.078-4.516-1.078-4.516-3-3.547q-0.562-0.406-1.281-0.797-0.109-0.063-0.352-0.164t-0.352-0.164q-0.609-0.359-0.609-0.922 0-0.406 0.297-0.703t0.703-0.297q0.203 0 0.406 0.078 3.297 1.422 5.281 4.43t1.984 6.602z"></path>
</svg>
