<?xml version="1.0" encoding="utf-8"?>
<!-- Generated by IcoMoon.io -->
<!DOCTYPE svg PUBLIC "-//W3C//DTD SVG 1.1//EN" "http://www.w3.org/Graphics/SVG/1.1/DTD/svg11.dtd">
<svg version="1.1" xmlns="http://www.w3.org/2000/svg" xmlns:xlink="http://www.w3.org/1999/xlink" width="32" height="28" viewBox="0 0 32 28">
<path fill="#444444" d="M9.063 7.203q0-0.641-0.391-1.031t-1.031-0.391q-0.672 0-1.188 0.398t-0.516 1.023q0 0.609 0.516 1.008t1.188 0.398q0.641 0 1.031-0.383t0.391-1.023zM20.672 15.125q0-0.438-0.398-0.781t-1.023-0.344q-0.422 0-0.773 0.352t-0.352 0.773q0 0.438 0.352 0.789t0.773 0.352q0.625 0 1.023-0.344t0.398-0.797zM16.984 7.203q0-0.641-0.383-1.031t-1.023-0.391q-0.672 0-1.188 0.398t-0.516 1.023q0 0.609 0.516 1.008t1.188 0.398q0.641 0 1.023-0.383t0.383-1.023zM26.906 15.125q0-0.438-0.406-0.781t-1.016-0.344q-0.422 0-0.773 0.352t-0.352 0.773q0 0.438 0.352 0.789t0.773 0.352q0.609 0 1.016-0.344t0.406-0.797zM22.75 8.922q-0.484-0.063-1.094-0.063-2.641 0-4.859 1.203t-3.492 3.258-1.273 4.492q0 1.219 0.359 2.375-0.547 0.047-1.062 0.047-0.406 0-0.781-0.023t-0.859-0.102-0.695-0.109-0.852-0.164-0.781-0.164l-3.953 1.984 1.125-3.406q-4.531-3.172-4.531-7.656 0-2.641 1.523-4.859t4.125-3.492 5.68-1.273q2.75 0 5.195 1.031t4.094 2.852 2.133 4.070zM32 17.687q0 1.828-1.070 3.492t-2.898 3.023l0.859 2.828-3.109-1.703q-2.344 0.578-3.406 0.578-2.641 0-4.859-1.102t-3.492-2.992-1.273-4.125 1.273-4.125 3.492-2.992 4.859-1.102q2.516 0 4.734 1.102t3.555 3 1.336 4.117z"></path>
</svg>
