<?xml version="1.0" encoding="utf-8"?>
<!-- Generated by IcoMoon.io -->
<!DOCTYPE svg PUBLIC "-//W3C//DTD SVG 1.1//EN" "http://www.w3.org/Graphics/SVG/1.1/DTD/svg11.dtd">
<svg version="1.1" xmlns="http://www.w3.org/2000/svg" xmlns:xlink="http://www.w3.org/1999/xlink" width="28" height="28" viewBox="0 0 28 28">
<path fill="#444444" d="M10.547 20.062q0.328-0.531 0.172-1.078t-0.703-0.781q-0.531-0.219-1.141-0.016t-0.938 0.719q-0.344 0.531-0.203 1.070t0.672 0.789 1.164 0.039 0.977-0.742zM12.016 18.172q0.125-0.203 0.055-0.414t-0.273-0.289q-0.219-0.078-0.445 0.008t-0.336 0.289q-0.266 0.484 0.203 0.703 0.219 0.078 0.453-0.008t0.344-0.289zM14.734 19.844q-0.703 1.594-2.469 2.344t-3.5 0.187q-1.672-0.531-2.305-1.977t0.102-2.93q0.734-1.453 2.367-2.172t3.289-0.297q1.734 0.453 2.477 1.867t0.039 2.977zM19.609 17.344q-0.141-1.5-1.391-2.656t-3.258-1.703-4.289-0.328q-3.484 0.359-5.773 2.211t-2.070 4.133q0.141 1.5 1.391 2.656t3.258 1.703 4.289 0.328q3.484-0.359 5.773-2.211t2.070-4.133zM24.422 17.406q0 1.062-0.578 2.18t-1.703 2.141-2.633 1.836-3.531 1.297-4.227 0.484-4.297-0.523-3.758-1.453-2.68-2.359-1.016-3.117q0-1.797 1.086-3.828t3.086-4.031q2.641-2.641 5.336-3.687t3.852 0.109q1.016 1 0.313 3.266-0.063 0.219-0.016 0.313t0.156 0.109 0.227-0.008 0.211-0.055l0.094-0.031q2.172-0.922 3.844-0.922t2.391 0.953q0.703 0.984 0 2.781-0.031 0.203-0.070 0.313t0.070 0.195 0.187 0.117 0.266 0.094q0.891 0.281 1.609 0.734t1.25 1.273 0.531 1.82zM23.266 7.656q0.656 0.734 0.852 1.695t-0.102 1.836q-0.125 0.359-0.461 0.531t-0.695 0.063q-0.359-0.125-0.531-0.461t-0.063-0.695q0.313-0.984-0.375-1.734t-1.672-0.547q-0.375 0.078-0.703-0.125t-0.391-0.578q-0.078-0.375 0.125-0.695t0.578-0.398q0.938-0.203 1.859 0.086t1.578 1.023zM26.094 5.109q1.359 1.5 1.758 3.477t-0.211 3.773q-0.141 0.422-0.531 0.625t-0.812 0.063-0.625-0.531-0.078-0.812q0.438-1.281 0.156-2.688t-1.25-2.469q-0.969-1.078-2.312-1.492t-2.703-0.133q-0.438 0.094-0.812-0.148t-0.469-0.68 0.148-0.805 0.68-0.461q1.922-0.406 3.813 0.18t3.25 2.102z"></path>
</svg>
