<?xml version="1.0" encoding="utf-8"?>
<!-- Generated by IcoMoon.io -->
<!DOCTYPE svg PUBLIC "-//W3C//DTD SVG 1.1//EN" "http://www.w3.org/Graphics/SVG/1.1/DTD/svg11.dtd">
<svg version="1.1" xmlns="http://www.w3.org/2000/svg" xmlns:xlink="http://www.w3.org/1999/xlink" width="28" height="28" viewBox="0 0 28 28">
<path fill="#444444" d="M15.391 15.219q0.203 0 1.523 0.688t1.398 0.828q0.031 0.078 0.031 0.234 0 0.516-0.266 1.188-0.25 0.609-1.109 1.023t-1.594 0.414q-0.891 0-2.969-0.969-1.531-0.703-2.656-1.844t-2.312-2.891q-1.125-1.672-1.109-3.031v-0.125q0.047-1.422 1.156-2.469 0.375-0.344 0.812-0.344 0.094 0 0.281 0.023t0.297 0.023q0.297 0 0.414 0.102t0.242 0.43q0.125 0.313 0.516 1.375t0.391 1.172q0 0.328-0.539 0.898t-0.539 0.727q0 0.109 0.078 0.234 0.531 1.141 1.594 2.141 0.875 0.828 2.359 1.578 0.187 0.109 0.344 0.109 0.234 0 0.844-0.758t0.812-0.758zM12.219 23.5q1.984 0 3.805-0.781t3.133-2.094 2.094-3.133 0.781-3.805-0.781-3.805-2.094-3.133-3.133-2.094-3.805-0.781-3.805 0.781-3.133 2.094-2.094 3.133-0.781 3.805q0 3.172 1.875 5.75l-1.234 3.641 3.781-1.203q2.469 1.625 5.391 1.625zM12.219 1.906q2.391 0 4.57 0.938t3.758 2.516 2.516 3.758 0.938 4.57-0.938 4.57-2.516 3.758-3.758 2.516-4.57 0.938q-3.047 0-5.703-1.469l-6.516 2.094 2.125-6.328q-1.687-2.781-1.687-6.078 0-2.391 0.938-4.57t2.516-3.758 3.758-2.516 4.57-0.938z"></path>
</svg>
