<?xml version="1.0" encoding="utf-8"?>
<!-- Generated by IcoMoon.io -->
<!DOCTYPE svg PUBLIC "-//W3C//DTD SVG 1.1//EN" "http://www.w3.org/Graphics/SVG/1.1/DTD/svg11.dtd">
<svg version="1.1" xmlns="http://www.w3.org/2000/svg" xmlns:xlink="http://www.w3.org/1999/xlink" width="26" height="28" viewBox="0 0 26 28">
<path fill="#444444" d="M15.984 18.547l1.594 3.187q-0.906 2.797-3.281 4.531t-5.297 1.734q-2.438 0-4.508-1.211t-3.281-3.281-1.211-4.508q0-2.828 1.633-5.156t4.289-3.297l0.266 2.047q-1.906 0.844-3.047 2.586t-1.141 3.82q0 2.891 2.055 4.945t4.945 2.055q1.969 0 3.633-1.016t2.578-2.742 0.773-3.695zM24.547 20.109l0.906 1.781-4 2q-0.203 0.109-0.453 0.109-0.625 0-0.891-0.547l-3.734-7.453h-7.375q-0.375 0-0.664-0.258t-0.336-0.633l-1.5-12.172q-0.031-0.25 0.094-0.656 0.219-0.797 0.891-1.289t1.516-0.492q1.031 0 1.766 0.734t0.734 1.766q0 1.078-0.812 1.836t-1.875 0.648l0.578 4.516h6.609v2h-6.359l0.25 2h7.109q0.625 0 0.891 0.547l3.563 7.109z"></path>
</svg>
