<?xml version="1.0" encoding="utf-8"?>
<!-- Generated by IcoMoon.io -->
<!DOCTYPE svg PUBLIC "-//W3C//DTD SVG 1.1//EN" "http://www.w3.org/Graphics/SVG/1.1/DTD/svg11.dtd">
<svg version="1.1" xmlns="http://www.w3.org/2000/svg" xmlns:xlink="http://www.w3.org/1999/xlink" width="32" height="28" viewBox="0 0 32 28">
<path fill="#444444" d="M16 23.797q-0.313 0-1.453-1.148t-1.141-1.461q0-0.5 0.977-0.844t1.617-0.344 1.617 0.344 0.977 0.844q0 0.313-1.141 1.461t-1.453 1.148zM20.219 19.563q-0.031 0-0.625-0.391t-1.586-0.781-2.008-0.391-2.008 0.391-1.578 0.781-0.633 0.391q-0.281 0-1.461-1.172t-1.18-1.453q0-0.203 0.156-0.359 1.219-1.203 3.063-1.891t3.641-0.688 3.641 0.688 3.063 1.891q0.156 0.156 0.156 0.359 0 0.281-1.18 1.453t-1.461 1.172zM24.484 15.313q-0.172 0-0.359-0.125-2.125-1.641-3.938-2.414t-4.188-0.773q-1.328 0-2.664 0.344t-2.328 0.828-1.773 0.969-1.234 0.828-0.484 0.344q-0.266 0-1.437-1.172t-1.172-1.453q0-0.187 0.156-0.344 2.063-2.063 5-3.203t5.938-1.141 5.938 1.141 5 3.203q0.156 0.156 0.156 0.344 0 0.281-1.172 1.453t-1.437 1.172zM28.719 11.078q-0.172 0-0.344-0.141-2.797-2.453-5.805-3.695t-6.57-1.242-6.57 1.242-5.805 3.695q-0.172 0.141-0.344 0.141-0.266 0-1.445-1.172t-1.18-1.453q0-0.203 0.156-0.359 2.922-2.906 6.953-4.5t8.234-1.594 8.234 1.594 6.953 4.5q0.156 0.156 0.156 0.359 0 0.281-1.18 1.453t-1.445 1.172z"></path>
</svg>
