<?xml version="1.0" encoding="utf-8"?>
<!-- Generated by IcoMoon.io -->
<!DOCTYPE svg PUBLIC "-//W3C//DTD SVG 1.1//EN" "http://www.w3.org/Graphics/SVG/1.1/DTD/svg11.dtd">
<svg version="1.1" xmlns="http://www.w3.org/2000/svg" xmlns:xlink="http://www.w3.org/1999/xlink" width="26" height="28" viewBox="0 0 26 28">
<path fill="#444444" d="M6 23q0-0.406-0.297-0.703t-0.703-0.297-0.703 0.297-0.297 0.703 0.297 0.703 0.703 0.297 0.703-0.297 0.297-0.703zM16.063 16.438l-10.656 10.656q-0.578 0.578-1.406 0.578-0.812 0-1.422-0.578l-1.656-1.687q-0.594-0.562-0.594-1.406 0-0.828 0.594-1.422l10.641-10.641q0.609 1.531 1.789 2.711t2.711 1.789zM25.969 9.641q0 0.609-0.359 1.656-0.734 2.094-2.57 3.398t-4.039 1.305q-2.891 0-4.945-2.055t-2.055-4.945 2.055-4.945 4.945-2.055q0.906 0 1.898 0.258t1.68 0.727q0.25 0.172 0.25 0.438t-0.25 0.438l-4.578 2.641v3.5l3.016 1.672q0.078-0.047 1.234-0.758t2.117-1.266 1.102-0.555q0.234 0 0.367 0.156t0.133 0.391z"></path>
</svg>
