<?xml version="1.0" encoding="utf-8"?>
<!-- Generated by IcoMoon.io -->
<!DOCTYPE svg PUBLIC "-//W3C//DTD SVG 1.1//EN" "http://www.w3.org/Graphics/SVG/1.1/DTD/svg11.dtd">
<svg version="1.1" xmlns="http://www.w3.org/2000/svg" xmlns:xlink="http://www.w3.org/1999/xlink" width="28" height="28" viewBox="0 0 28 28">
<path fill="#444444" d="M13.422 14.953l0.203 11.047q-0.969-0.172-1.641-0.172-0.641 0-1.641 0.172l0.203-11.047q-0.625-1.078-2.633-4.617t-3.383-5.852-2.828-4.484q0.906 0.234 1.687 0.234 0.672 0 1.734-0.234 0.984 1.734 2.086 3.586t2.609 4.32 2.164 3.547q0.578-0.953 1.711-2.773t1.836-2.969 1.641-2.75 1.672-2.961q0.844 0.219 1.672 0.219 0.875 0 1.781-0.219v0q-0.438 0.609-0.938 1.383t-0.773 1.227-0.883 1.5-0.766 1.313q-2.281 3.875-5.516 9.531z"></path>
</svg>
