<?xml version="1.0" encoding="utf-8"?>
<!-- Generated by IcoMoon.io -->
<!DOCTYPE svg PUBLIC "-//W3C//DTD SVG 1.1//EN" "http://www.w3.org/Graphics/SVG/1.1/DTD/svg11.dtd">
<svg version="1.1" xmlns="http://www.w3.org/2000/svg" xmlns:xlink="http://www.w3.org/1999/xlink" width="28" height="28" viewBox="0 0 28 28">
<path fill="#444444" d="M12.078 20.609v1.984q-0.016 4.562-0.094 4.766-0.187 0.5-0.797 0.625-0.844 0.141-2.836-0.594t-2.539-1.391q-0.203-0.234-0.266-0.562-0.016-0.187 0.063-0.406 0.063-0.156 0.531-0.734t2.828-3.375q0.016 0 0.938-1.094 0.234-0.297 0.617-0.383t0.773 0.055q0.375 0.156 0.586 0.453t0.195 0.656zM9.75 16.688q-0.047 0.859-0.812 1.094l-1.875 0.609q-4.297 1.375-4.562 1.375-0.547-0.031-0.844-0.562-0.187-0.391-0.266-1.172-0.125-1.188 0.016-2.602t0.469-1.945 0.875-0.5q0.203 0 3.156 1.203 1.094 0.453 1.797 0.734l1.313 0.531q0.359 0.141 0.555 0.477t0.18 0.758zM22.656 21.328q-0.109 0.844-1.43 2.516t-2.117 1.984q-0.578 0.219-0.984-0.109-0.219-0.156-2.875-4.484l-0.734-1.203q-0.219-0.328-0.18-0.719t0.305-0.719q0.547-0.672 1.297-0.406 0.016 0.016 1.859 0.625 3.172 1.031 3.781 1.242t0.734 0.32q0.438 0.344 0.344 0.953zM12.156 11.453q0.078 1.594-0.844 1.906-0.906 0.266-1.781-1.109l-5.906-9.344q-0.125-0.547 0.297-0.969 0.641-0.672 3.242-1.398t3.508-0.492q0.625 0.156 0.766 0.703 0.047 0.281 0.344 4.773t0.375 5.93zM22.5 13.141q0.047 0.609-0.406 0.922-0.234 0.156-5.141 1.344-1.047 0.234-1.422 0.359l0.016-0.031q-0.359 0.094-0.719-0.063t-0.578-0.5q-0.469-0.734 0-1.359 0.016-0.016 1.172-1.594 1.953-2.672 2.344-3.187t0.531-0.609q0.438-0.297 1.016-0.031 0.75 0.359 1.922 2.086t1.266 2.617v0.047z"></path>
</svg>
